G04 ================== begin FILE IDENTIFICATION RECORD ==================*
G04 Layout Name:  filterboard_PARTIAL.brd*
G04 Film Name:    03_SIG*
G04 File Format:  Gerber RS274X*
G04 File Origin:  Cadence Allegro 16.6-S006*
G04 Origin Date:  Wed Aug 12 18:43:57 2015*
G04 *
G04 Layer:  ETCH/03_SIG*
G04 Layer:  PIN/03_SIG*
G04 Layer:  VIA CLASS/03_SIG*
G04 *
G04 Offset:    (0.00 0.00)*
G04 Mirror:    No*
G04 Mode:      Positive*
G04 Rotation:  0*
G04 FullContactRelief:  No*
G04 UndefLineWidth:     5.00*
G04 ================== end FILE IDENTIFICATION RECORD ====================*
%FSAX55Y55*MOIN*%
%IR0*IPPOS*OFA0.00000B0.00000*MIA0B0*SFA1.00000B1.00000*%
%ADD12C,.02*%
%ADD14C,.03*%
%ADD13C,.05*%
%ADD10C,.035*%
%ADD11C,.09*%
%ADD16C,.094*%
%ADD15C,.001*%
%ADD17C,.019*%
%ADD18C,.06004*%
%ADD19C,.10004*%
G75*
%LPD*%
G75*
G36*
G01X0000132999Y0D02*
G02I-0000132999J0D01*
G37*
%LPC*%
G75*
G36*
G01X0000001626Y0000109535D02*
Y0000075298D01*
X0000011902D01*
Y0000051494D01*
X0000001626D01*
Y0000003892D01*
G03X0000002256Y0000003565I0000000400J0000000001D01*
G01X0000088791Y0000064158D01*
X0000088760Y0000064290D01*
G02X0000090771Y0000061419I0000004623J0000001098D01*
G01X0000090657Y0000061493D01*
X0000006198Y0000002354D01*
G03X0000006427Y0000001626I0000000229J-0000000328D01*
G01X0000051494D01*
Y0000011902D01*
X0000075298D01*
Y0000001626D01*
X0000109535D01*
G02Y-0000001626I0000004465J-0000001626D01*
G01X0000075298D01*
Y-0000011902D01*
X0000051494D01*
Y-0000001626D01*
X0000006427D01*
G03X0000006198Y-0000002354I0J-0000000400D01*
G01X0000090657Y-0000061493D01*
X0000090771Y-0000061419D01*
G02X0000088760Y-0000064290I0000002612J-0000003969D01*
G01X0000088791Y-0000064158D01*
X0000002256Y-0000003565D01*
G03X0000001626Y-0000003892I-0000000230J-0000000328D01*
G01Y-0000051494D01*
X0000011902D01*
Y-0000075298D01*
X0000001626D01*
Y-0000109535D01*
G02X-0000001626I-0000001626J-0000004465D01*
G01Y-0000075298D01*
X-0000011902D01*
Y-0000051494D01*
X-0000001626D01*
Y-0000003892D01*
G03X-0000002256Y-0000003565I-0000000400J-0000000001D01*
G01X-0000088791Y-0000064158D01*
X-0000088760Y-0000064290D01*
G02X-0000090771Y-0000061419I-0000004623J-0000001098D01*
G01X-0000090657Y-0000061493D01*
X-0000006198Y-0000002354D01*
G03X-0000006427Y-0000001626I-0000000229J0000000328D01*
G01X-0000051494D01*
Y-0000011902D01*
X-0000075298D01*
Y-0000001626D01*
X-0000109535D01*
G02Y0000001626I-0000004465J0000001626D01*
G01X-0000075298D01*
Y0000011902D01*
X-0000051494D01*
Y0000001626D01*
X-0000006427D01*
G03X-0000006198Y0000002354I0J0000000400D01*
G01X-0000090657Y0000061493D01*
X-0000090771Y0000061419D01*
G02X-0000088760Y0000064290I-0000002612J0000003969D01*
G01X-0000088791Y0000064158D01*
X-0000002256Y0000003565D01*
G03X-0000001626Y0000003892I0000000230J0000000328D01*
G01Y0000051494D01*
X-0000011902D01*
Y0000075298D01*
X-0000001626D01*
Y0000109535D01*
G02X0000001626I0000001626J0000004465D01*
G37*
G54D18*
X0000107310Y0000062932D03*
X0000104000Y0000010000D03*
X0000124000Y-0000010000D03*
X0000079456Y0000067844D03*
X0000090927Y-0000051461D03*
X0000095839Y-0000079315D03*
X0000010000Y0000124000D03*
Y-0000104000D03*
X-0000010000Y0000104000D03*
Y-0000124000D03*
X-0000079456Y-0000067844D03*
X-0000095839Y0000079315D03*
X-0000090927Y0000051461D03*
X-0000104000Y-0000010000D03*
X-0000107310Y-0000062932D03*
X-0000124000Y0000010000D03*
G54D19*
X0000124000D03*
X0000107310Y-0000062932D03*
X0000095839Y0000079315D03*
X0000090927Y0000051461D03*
X0000104000Y-0000010000D03*
X0000079456Y-0000067844D03*
X0000010000Y0000104000D03*
Y-0000124000D03*
X-0000010000Y0000124000D03*
Y-0000104000D03*
X-0000079456Y0000067844D03*
X-0000107310Y0000062932D03*
X-0000104000Y0000010000D03*
X-0000090927Y-0000051461D03*
X-0000095839Y-0000079315D03*
X-0000124000Y-0000010000D03*
%LPD*%
G75*
G54D10*
X-0000117999Y-0000047999D03*
Y-0000037999D03*
Y-0000027999D03*
X-0000127999Y-0000017999D03*
X-0000117999D03*
Y0000022001D03*
Y0000032001D03*
Y0000042001D03*
Y0000052001D03*
X-0000107999Y-0000047999D03*
Y-0000037999D03*
X-0000097999D03*
X-0000107999Y-0000027999D03*
X-0000097999D03*
X-0000107999Y-0000017999D03*
X-0000097999D03*
Y-0000007999D03*
X-0000107999Y0000022001D03*
X-0000097999D03*
X-0000107999Y0000032001D03*
X-0000097999D03*
X-0000107999Y0000042001D03*
X-0000097999D03*
X-0000107999Y0000052001D03*
X-0000097999D03*
X-0000067999Y-0000107999D03*
X-0000077999Y-0000097999D03*
X-0000067999D03*
X-0000087999Y-0000087999D03*
X-0000077999D03*
X-0000067999D03*
X-0000077999Y-0000077999D03*
X-0000067999D03*
Y-0000067999D03*
Y-0000057999D03*
X-0000068000Y-0000028000D03*
X-0000087999Y-0000037999D03*
X-0000077999D03*
X-0000087999Y-0000027999D03*
X-0000077999D03*
X-0000087999Y-0000017999D03*
X-0000077999D03*
X-0000087999Y-0000007999D03*
Y0000012001D03*
Y0000022001D03*
X-0000077999D03*
X-0000068804Y0000032389D03*
X-0000087999Y0000032001D03*
X-0000077999D03*
X-0000087999Y0000042001D03*
X-0000077999D03*
X-0000067999Y0000062001D03*
Y0000072001D03*
X-0000087999Y0000082001D03*
X-0000077999D03*
X-0000067999D03*
X-0000087999Y0000092001D03*
X-0000077999D03*
X-0000067999D03*
Y0000102001D03*
X-0000047999Y-0000117999D03*
X-0000057999Y-0000107999D03*
X-0000047999D03*
X-0000057999Y-0000097999D03*
X-0000047999D03*
X-0000057999Y-0000087999D03*
X-0000047999D03*
X-0000057999Y-0000077999D03*
X-0000047999D03*
X-0000057999Y-0000067999D03*
X-0000047999D03*
X-0000048275Y-0000048205D03*
X-0000057999Y-0000057999D03*
X-0000047999D03*
X-0000058275Y-0000028205D03*
X-0000048000Y-0000018000D03*
Y0000018000D03*
X-0000048804Y0000052389D03*
X-0000058804D03*
X-0000057999Y0000062001D03*
X-0000047999D03*
X-0000057999Y0000072001D03*
X-0000047999D03*
X-0000057999Y0000082001D03*
X-0000047999D03*
X-0000057999Y0000092001D03*
X-0000047999D03*
X-0000057999Y0000102001D03*
X-0000047999D03*
X-0000057999Y0000112001D03*
X-0000047999D03*
X-0000037999Y-0000117999D03*
X-0000027999D03*
X-0000037999Y-0000107999D03*
X-0000027999D03*
X-0000037999Y-0000097999D03*
X-0000027999D03*
X-0000037999Y-0000087999D03*
X-0000027999D03*
X-0000037999Y-0000077999D03*
X-0000027999D03*
X-0000037999Y-0000067999D03*
X-0000027999D03*
X-0000037999Y-0000047999D03*
X-0000027999D03*
Y-0000037999D03*
Y-0000027999D03*
X-0000040600Y-0000015400D03*
X-0000038000Y-0000008000D03*
Y0000008000D03*
X-0000040600Y0000015700D03*
X-0000027999Y0000032001D03*
Y0000042001D03*
X-0000037999Y0000072001D03*
X-0000027999D03*
X-0000037999Y0000082001D03*
X-0000027999D03*
X-0000037999Y0000092001D03*
X-0000027999D03*
X-0000037999Y0000102001D03*
X-0000027999D03*
X-0000037999Y0000112001D03*
X-0000027999D03*
X-0000037999Y0000122001D03*
X-0000027999D03*
X-0000017999Y-0000127999D03*
X0000002001D03*
X-0000017999Y-0000117999D03*
Y-0000107999D03*
Y-0000097999D03*
Y-0000087999D03*
X-0000007999D03*
X-0000017999Y-0000077999D03*
Y-0000067999D03*
Y-0000057999D03*
Y-0000047999D03*
Y-0000037999D03*
X-0000007999D03*
Y-0000017999D03*
X-0000017999Y0000042001D03*
X-0000007999D03*
X-0000017999Y0000052001D03*
Y0000062001D03*
Y0000072001D03*
Y0000082001D03*
Y0000092001D03*
X-0000007999D03*
X-0000017999Y0000102001D03*
Y0000112001D03*
Y0000122001D03*
X0000022001Y-0000117999D03*
Y-0000107999D03*
X0000012001Y-0000097999D03*
X0000022001D03*
X0000012001Y-0000087999D03*
X0000022001D03*
Y-0000077999D03*
Y-0000067999D03*
Y-0000057999D03*
Y-0000047999D03*
X0000012001Y-0000037999D03*
X0000022001D03*
X0000012001Y-0000017999D03*
X0000022001Y0000032001D03*
X0000012001Y0000042001D03*
X0000022001D03*
Y0000052001D03*
Y0000062001D03*
Y0000072001D03*
X0000012001Y0000082001D03*
X0000022001D03*
X0000012001Y0000092001D03*
X0000022001D03*
Y0000102001D03*
Y0000112001D03*
Y0000122001D03*
X0000032001Y-0000117999D03*
X0000042001D03*
X0000052001D03*
X0000032001Y-0000107999D03*
X0000042001D03*
X0000052001D03*
X0000032001Y-0000097999D03*
X0000042001D03*
X0000052001D03*
X0000032001Y-0000087999D03*
X0000042001D03*
X0000052001D03*
X0000032001Y-0000077999D03*
X0000042001D03*
X0000052001D03*
X0000032001Y-0000067999D03*
X0000042001D03*
X0000052001D03*
X0000052164Y-0000050230D03*
X0000042164D03*
X0000042001Y-0000057999D03*
X0000052001D03*
X0000032001Y-0000047999D03*
X0000052164Y-0000030230D03*
X0000042164Y-0000040230D03*
X0000032001Y-0000037999D03*
X0000042000Y-0000008000D03*
Y-0000018000D03*
X0000052000D03*
X0000038300Y0000016100D03*
X0000042300Y0000008300D03*
X0000051479Y0000051174D03*
X0000032001Y0000032001D03*
Y0000042001D03*
X0000042001Y0000052001D03*
Y0000062001D03*
X0000052001D03*
X0000032001Y0000072001D03*
X0000042001D03*
X0000052001D03*
X0000032001Y0000082001D03*
X0000042001D03*
X0000052001D03*
X0000032001Y0000092001D03*
X0000042001D03*
X0000052001D03*
X0000032001Y0000102001D03*
X0000042001D03*
X0000052001D03*
X0000032001Y0000112001D03*
X0000042001D03*
X0000052001D03*
X0000032001Y0000122001D03*
X0000042001D03*
X0000062001Y-0000107999D03*
Y-0000097999D03*
X0000072001D03*
X0000062001Y-0000087999D03*
X0000072001D03*
X0000062001Y-0000077999D03*
X0000072001D03*
X0000062001Y-0000067999D03*
Y-0000057999D03*
X0000062414Y-0000032410D03*
X0000072001Y-0000027999D03*
Y0000022001D03*
X0000061479Y0000031174D03*
X0000071479D03*
X0000062001Y0000062001D03*
X0000072001D03*
X0000062001Y0000072001D03*
X0000072001D03*
X0000062001Y0000082001D03*
X0000072001D03*
X0000062001Y0000092001D03*
X0000072001D03*
X0000062001Y0000102001D03*
X0000072001D03*
X0000062001Y0000112001D03*
X0000082001Y-0000097999D03*
Y-0000087999D03*
X0000092001D03*
X0000082001Y-0000077999D03*
Y-0000037999D03*
X0000092001D03*
X0000082001Y-0000027999D03*
X0000092001D03*
X0000082001Y-0000017999D03*
X0000092001D03*
Y-0000007999D03*
X0000082001Y0000012001D03*
X0000092001D03*
X0000082001Y0000022001D03*
X0000092001D03*
X0000082001Y0000032001D03*
X0000092001D03*
X0000082001Y0000042001D03*
X0000092001D03*
X0000082001Y0000082001D03*
Y0000092001D03*
X0000102001Y-0000047999D03*
X0000112001D03*
X0000102001Y-0000037999D03*
X0000112001D03*
X0000122001D03*
X0000102001Y-0000027999D03*
X0000112001D03*
X0000122001D03*
X0000102001Y-0000017999D03*
X0000112001D03*
X0000122001D03*
X0000112001Y0000012001D03*
X0000102001Y0000022001D03*
X0000112001D03*
X0000122001D03*
X0000102001Y0000032001D03*
X0000112001D03*
X0000122001D03*
X0000102001Y0000042001D03*
X0000112001D03*
X0000122001D03*
X0000102001Y0000052001D03*
X0000112001D03*
G54D11*
X-0000124000Y-0000010000D03*
X-0000095839Y-0000079315D03*
X-0000090927Y-0000051461D03*
X-0000104000Y0000010000D03*
X-0000107310Y0000062932D03*
X-0000079456Y0000067844D03*
X-0000010000Y-0000104000D03*
Y0000124000D03*
X0000010000Y-0000124000D03*
Y0000104000D03*
X0000079456Y-0000067844D03*
X0000104000Y-0000010000D03*
X0000090927Y0000051461D03*
X0000095839Y0000079315D03*
X0000107310Y-0000062932D03*
X0000124000Y0000010000D03*
G54D12*
X-0000121600Y0D03*
X-0000119370Y-0000005370D03*
Y0000005370D03*
X-0000094702Y-0000072867D03*
X-0000099609Y-0000069747D03*
X-0000100862Y-0000064069D03*
X-0000097743Y-0000059162D03*
X-0000092065Y-0000057909D03*
X-0000094000Y-0000003850D03*
X-0000099000D03*
X-0000104000D03*
X-0000101000Y0000003850D03*
X-0000096000D03*
X-0000091000D03*
X-0000108630Y-0000005370D03*
X-0000114000Y-0000007600D03*
X-0000108630Y0000005370D03*
X-0000114000Y0000007600D03*
X-0000097743Y0000059162D03*
X-0000100862Y0000064069D03*
X-0000099609Y0000069747D03*
X-0000094702Y0000072867D03*
X-0000092065Y0000057909D03*
X-0000089024Y-0000071613D03*
X-0000085904Y-0000066706D03*
X-0000073115Y-0000045519D03*
X-0000077211Y-0000048387D03*
X-0000081307Y-0000051255D03*
X-0000070236Y-0000054858D03*
X-0000085402Y-0000054122D03*
X-0000082523Y-0000063461D03*
X-0000074332Y-0000057725D03*
X-0000069019Y-0000042651D03*
X-0000078428Y-0000060593D03*
X-0000084000Y-0000003850D03*
X-0000089000D03*
X-0000086000Y0000003850D03*
X-0000081000D03*
X-0000067380Y0000041503D03*
X-0000071475Y0000044371D03*
X-0000075571Y0000047239D03*
X-0000079667Y0000050106D03*
X-0000083763Y0000052974D03*
X-0000067780Y0000053138D03*
X-0000087858Y0000055842D03*
X-0000075972Y0000058874D03*
X-0000071876Y0000056006D03*
X-0000089024Y0000071613D03*
X-0000085904Y0000066706D03*
X-0000053853Y-0000043386D03*
X-0000057949Y-0000046254D03*
X-0000062045Y-0000049122D03*
X-0000066140Y-0000051990D03*
X-0000049757Y-0000040518D03*
X-0000044445Y-0000025443D03*
X-0000048541Y-0000028311D03*
X-0000052636Y-0000031179D03*
X-0000060828Y-0000036915D03*
X-0000056732Y-0000034047D03*
X-0000064924Y-0000039783D03*
X-0000045662Y-0000037650D03*
X-0000044000Y-0000003850D03*
X-0000042805Y0000024295D03*
X-0000046901Y0000027163D03*
X-0000050997Y0000030031D03*
X-0000055092Y0000032899D03*
X-0000059188Y0000035767D03*
X-0000063284Y0000038635D03*
X-0000063684Y0000050270D03*
X-0000059589Y0000047402D03*
X-0000055493Y0000044534D03*
X-0000051397Y0000041666D03*
X-0000047301Y0000038798D03*
X-0000043206Y0000035930D03*
X-0000021087Y-0000020443D03*
X-0000025183Y-0000023311D03*
X-0000029279Y-0000026179D03*
X-0000037470Y-0000031914D03*
X-0000033374Y-0000029046D03*
X-0000041566Y-0000034782D03*
X-0000040349Y-0000022576D03*
X-0000036253Y-0000019708D03*
X-0000019870Y-0000008236D03*
X-0000032158Y-0000016840D03*
X-0000028062Y-0000013972D03*
X-0000023966Y-0000011104D03*
X-0000019000Y-0000003850D03*
X-0000024000D03*
X-0000029000D03*
X-0000034000D03*
X-0000039000D03*
X-0000041000Y0000003850D03*
X-0000036000D03*
X-0000031000D03*
X-0000026000D03*
X-0000021000D03*
X-0000022326Y0000009956D03*
X-0000026422Y0000012824D03*
X-0000030518Y0000015692D03*
X-0000034614Y0000018560D03*
X-0000038709Y0000021427D03*
X-0000030918Y0000027327D03*
X-0000026823Y0000024459D03*
X-0000022727Y0000021591D03*
X-0000018631Y0000018723D03*
X-0000039110Y0000033062D03*
X-0000035014Y0000030195D03*
X-0000005370Y-0000119370D03*
X0Y-0000121600D03*
X0000003850Y-0000094000D03*
Y-0000099000D03*
Y-0000104000D03*
X-0000003850Y-0000101000D03*
Y-0000096000D03*
Y-0000091000D03*
X-0000005370Y-0000108630D03*
X-0000007600Y-0000114000D03*
X0000003850Y-0000084000D03*
Y-0000089000D03*
X-0000003850Y-0000086000D03*
X0000003850Y-0000019000D03*
Y-0000024000D03*
Y-0000029000D03*
Y-0000034000D03*
Y-0000039000D03*
X-0000003850Y-0000041000D03*
Y-0000036000D03*
Y-0000031000D03*
Y-0000021000D03*
Y-0000026000D03*
X-0000016991Y-0000017575D03*
X-0000015775Y-0000005368D03*
X-0000016000Y0000003850D03*
X-0000011200Y-0000015800D03*
X0000003800D03*
X-0000003850Y-0000016000D03*
X-0000018231Y0000007088D03*
X-0000014535Y0000015855D03*
X-0000003937Y0000015800D03*
X-0000008937D03*
X0000003850Y0000026000D03*
Y0000021000D03*
Y0000016000D03*
X-0000003850Y0000029000D03*
Y0000024000D03*
Y0000019000D03*
X0000003850Y0000041000D03*
Y0000036000D03*
Y0000031000D03*
X-0000003850Y0000034000D03*
Y0000044000D03*
Y0000039000D03*
X0000003850Y0000101000D03*
Y0000096000D03*
Y0000091000D03*
Y0000086000D03*
X-0000003850Y0000089000D03*
Y0000099000D03*
Y0000094000D03*
Y0000084000D03*
Y0000104000D03*
X-0000005370Y0000108630D03*
X0Y0000121600D03*
X-0000005370Y0000119370D03*
X-0000007600Y0000114000D03*
X0000005370Y-0000119370D03*
Y-0000108630D03*
X0000007600Y-0000114000D03*
X0000026823Y-0000024459D03*
X0000022727Y-0000021591D03*
X0000018631Y-0000018723D03*
X0000014535Y-0000015855D03*
X0000018231Y-0000007088D03*
X0000022326Y-0000009956D03*
X0000026422Y-0000012824D03*
X0000015775Y0000005368D03*
X0000026000Y-0000003850D03*
X0000021000D03*
X0000016000D03*
X0000019000Y0000003850D03*
X0000024000D03*
X0000029000D03*
X0000008800Y-0000015800D03*
X0000023966Y0000011104D03*
X0000019870Y0000008236D03*
X0000028062Y0000013972D03*
X0000016991Y0000017575D03*
X0000021087Y0000020443D03*
X0000025183Y0000023311D03*
X0000029279Y0000026179D03*
X0000016000Y0000005600D03*
X0000011063Y0000015800D03*
X0000005370Y0000108630D03*
X0000007600Y0000114000D03*
X0000005370Y0000119370D03*
X0000051397Y-0000041666D03*
X0000047301Y-0000038798D03*
X0000043206Y-0000035930D03*
X0000039110Y-0000033062D03*
X0000035014Y-0000030195D03*
X0000030918Y-0000027327D03*
X0000034614Y-0000018560D03*
X0000038709Y-0000021427D03*
X0000042805Y-0000024295D03*
X0000046901Y-0000027163D03*
X0000050997Y-0000030031D03*
X0000030518Y-0000015692D03*
X0000041000Y-0000003850D03*
X0000036000D03*
X0000031000D03*
X0000034000Y0000003850D03*
X0000039000D03*
X0000044000D03*
X0000032158Y0000016840D03*
X0000044445Y0000025443D03*
X0000048541Y0000028311D03*
X0000033374Y0000029046D03*
X0000040349Y0000022576D03*
X0000036253Y0000019708D03*
X0000052636Y0000031179D03*
X0000041566Y0000034782D03*
X0000045662Y0000037650D03*
X0000049757Y0000040518D03*
X0000037470Y0000031914D03*
X0000075972Y-0000058874D03*
X0000071876Y-0000056006D03*
X0000067780Y-0000053138D03*
X0000063684Y-0000050270D03*
X0000059589Y-0000047402D03*
X0000055493Y-0000044534D03*
X0000071475Y-0000044371D03*
X0000075571Y-0000047239D03*
X0000055092Y-0000032899D03*
X0000059188Y-0000035767D03*
X0000063284Y-0000038635D03*
X0000067380Y-0000041503D03*
X0000056732Y0000034047D03*
X0000064924Y0000039783D03*
X0000069019Y0000042651D03*
X0000077211Y0000048387D03*
X0000060828Y0000036915D03*
X0000073115Y0000045519D03*
X0000053853Y0000043386D03*
X0000066140Y0000051990D03*
X0000057949Y0000046254D03*
X0000062045Y0000049122D03*
X0000070236Y0000054858D03*
X0000074332Y0000057725D03*
X0000099609Y-0000069747D03*
X0000094702Y-0000072867D03*
X0000089024Y-0000071613D03*
X0000085904Y-0000066706D03*
X0000080067Y-0000061741D03*
X0000079667Y-0000050106D03*
X0000083763Y-0000052974D03*
X0000087858Y-0000055842D03*
X0000097743Y-0000059162D03*
X0000100862Y-0000064069D03*
X0000092065Y-0000057909D03*
X0000101000Y-0000003850D03*
X0000096000D03*
X0000091000D03*
X0000086000D03*
X0000084000Y0000003850D03*
X0000089000D03*
X0000094000D03*
X0000099000D03*
X0000081307Y0000051255D03*
X0000082523Y0000063461D03*
X0000085402Y0000054122D03*
X0000078428Y0000060593D03*
X0000089024Y0000071613D03*
X0000094702Y0000072867D03*
X0000099609Y0000069747D03*
X0000100862Y0000064069D03*
X0000097743Y0000059162D03*
X0000092065Y0000057909D03*
X0000085904Y0000066706D03*
X0000104000Y0000003850D03*
X0000108630Y-0000005370D03*
X0000114000Y-0000007600D03*
X0000119370Y-0000005370D03*
X0000121600Y0D03*
X0000108630Y0000005370D03*
X0000119370D03*
X0000114000Y0000007600D03*
G54D13*
X-0000124000Y0000010000D03*
X-0000107310Y-0000062932D03*
X-0000104000Y-0000010000D03*
X-0000090927Y0000051461D03*
X-0000095839Y0000079315D03*
X-0000079456Y-0000067844D03*
X-0000010000Y-0000124000D03*
Y0000104000D03*
X0000010000Y-0000104000D03*
Y0000124000D03*
X0000095839Y-0000079315D03*
X0000090927Y-0000051461D03*
X0000079456Y0000067844D03*
X0000124000Y-0000010000D03*
X0000104000Y0000010000D03*
X0000107310Y0000062932D03*
G54D14*
X-0000093383Y-0000065388D03*
X-0000114000Y0D03*
X-0000093383Y0000065388D03*
X0Y-0000114000D03*
Y0000114000D03*
X0000093383Y-0000065388D03*
Y0000065388D03*
X0000114000Y0D03*
G54D15*
X-0000063396D03*
X0Y-0000063396D03*
Y0000063396D03*
X0000063396Y0D03*
G54D16*
X-0000062945Y-0000019847D03*
Y0000019847D03*
X-0000030475Y-0000058543D03*
X-0000015000Y0000025981D03*
X-0000030475Y0000058543D03*
X-0000015000Y-0000025981D03*
X0000030475Y-0000058543D03*
X0000015000Y-0000025981D03*
Y0000025981D03*
X0000030475Y0000058543D03*
X0000062945Y-0000019847D03*
Y0000019847D03*
G54D17*
G01X-0000124000Y-0000015202D02*
Y-0000010000D01*
G01D02*
Y-0000004798D01*
G01X-0000129202Y-0000010000D02*
X-0000124000D01*
G01D02*
X-0000118798D01*
G01X-0000095839Y-0000084517D02*
Y-0000079315D01*
G01D02*
Y-0000074113D01*
G01X-0000101041Y-0000079315D02*
X-0000095839D01*
G01D02*
X-0000090637D01*
G01X-0000096129Y-0000051461D02*
X-0000090927D01*
G01X-0000093383Y-0000065388D02*
X-0000054064Y-0000037856D01*
X0000054064Y0000037856D01*
X0000093383Y0000065388D01*
G01X-0000114000Y0D02*
X-0000063396D01*
G01X-0000104000Y0000004798D02*
Y0000010000D01*
G01D02*
Y0000015202D01*
G01X-0000109202Y0000010000D02*
X-0000104000D01*
G01D02*
X-0000098798D01*
G01X-0000107310Y0000057730D02*
Y0000062932D01*
G01D02*
Y0000068134D01*
G01X-0000112512Y0000062932D02*
X-0000107310D01*
G01D02*
X-0000102108D01*
G01X0000093383Y-0000065388D02*
X0000054064Y-0000037856D01*
X-0000054064Y0000037856D01*
X-0000093383Y0000065388D01*
G01X-0000090927Y-0000056663D02*
Y-0000051461D01*
G01D02*
Y-0000046259D01*
G01Y-0000051461D02*
X-0000085725D01*
G01X-0000079456Y0000062642D02*
Y0000067844D01*
G01D02*
Y0000073046D01*
G01X-0000084658Y0000067844D02*
X-0000079456D01*
G01D02*
X-0000074254D01*
G01X-0000063396Y0D02*
X0000063396D01*
G01X-0000010000Y-0000109202D02*
Y-0000104000D01*
G01D02*
Y-0000098798D01*
G01X-0000015202Y-0000104000D02*
X-0000010000D01*
G01D02*
X-0000004798D01*
G01X0Y-0000063396D02*
Y-0000114000D01*
G01Y0000063396D02*
Y-0000063396D01*
G01Y0000114000D02*
Y0000063396D01*
G01X-0000010000Y0000118798D02*
Y0000124000D01*
G01D02*
Y0000129202D01*
G01X-0000015202Y0000124000D02*
X-0000010000D01*
G01D02*
X-0000004798D01*
G01X0000010000Y-0000129202D02*
Y-0000124000D01*
G01D02*
Y-0000118798D01*
G01X0000004798Y-0000124000D02*
X0000010000D01*
G01D02*
X0000015202D01*
G01X0000010000Y0000098798D02*
Y0000104000D01*
G01D02*
Y0000109202D01*
G01X0000004798Y0000104000D02*
X0000010000D01*
G01D02*
X0000015202D01*
G01X0000074254Y-0000067844D02*
X0000079456D01*
G01X0000063396Y0D02*
X0000114000D01*
G01X0000079456Y-0000073046D02*
Y-0000067844D01*
G01D02*
Y-0000062642D01*
G01Y-0000067844D02*
X0000084658D01*
G01X0000098798Y-0000010000D02*
X0000104000D01*
G01X0000090927Y0000046259D02*
Y0000051461D01*
G01D02*
Y0000056663D01*
G01X0000085725Y0000051461D02*
X0000090927D01*
G01D02*
X0000096129D01*
G01X0000095839Y0000074113D02*
Y0000079315D01*
G01D02*
Y0000084517D01*
G01X0000090637Y0000079315D02*
X0000095839D01*
G01D02*
X0000101041D01*
G01X0000107310Y-0000068134D02*
Y-0000062932D01*
G01D02*
Y-0000057730D01*
G01X0000102108Y-0000062932D02*
X0000107310D01*
G01D02*
X0000112512D01*
G01X0000104000Y-0000015202D02*
Y-0000010000D01*
G01D02*
Y-0000004798D01*
G01Y-0000010000D02*
X0000109202D01*
G01X0000124000Y0000004798D02*
Y0000010000D01*
G01D02*
Y0000015202D01*
G01X0000118798Y0000010000D02*
X0000124000D01*
G01D02*
X0000129202D01*
M02*
