M48
INCH
T01C.01
T02C.015
T03C.018
T04C.025
T05C.064
T06C.07
;LEADER: 12 
;HEADER: 
;CODE  : ASCII 
;FILE  : 98drl-1-4.drl for board #Taaaaae00319.tmp ... layers TOP and BOTTOM
;T01 Holesize 1. = 10.000000 Tolerance = +3.000000/-3.000000 PLATED MILS Quantity = 84
;T03 Holesize 2. = 18.000000 Tolerance = +3.000000/-3.000000 PLATED MILS Quantity = 994
;T04 Holesize 3. = 25.000000 Tolerance = +3.000000/-3.000000 PLATED MILS Quantity = 24
;T05 Holesize 4. = 64.000000 Tolerance = +3.000000/-3.000000 PLATED MILS Quantity = 24
;T06 Holesize 5. = 70.000000 Tolerance = +3.000000/-3.000000 PLATED MILS Quantity = 12
%
G90
T01
X0049600Y-0103000
X0047371Y-0108370
X0047370Y-0097629
X0042000Y-0110600
X0036630Y-0108371
X0036629Y-0097630
X0034500Y-0103000
X0007600Y-0107000
X0005370Y-0112370
X0005370Y-0101630
X0000000Y-0114600
X-0005370Y-0101630
X-0005370Y-0112370
X-0007100Y-0106900
X-0034400Y-0103000
X-0036630Y-0097629
X-0036629Y-0108370
X-0042000Y-0110600
X-0047371Y-0097630
X-0047370Y-0108371
X-0049600Y-0103000
X-0110600Y-0042000
X-0108370Y-0036630
X-0108370Y-0047370
X-0103200Y-0034400
X-0103000Y-0049600
X-0097630Y-0047370
X-0097630Y-0036630
X0097629Y-0036630
X0097630Y-0047371
X0103000Y-0049600
X0103000Y-0034400
X0108371Y-0047370
X0108370Y-0036629
X0110600Y-0042000
X0112370Y-0005370
X0107000Y-0007600
X0101630Y-0005370
X-0101630Y-0005370
X-0107000Y-0007600
X-0112370Y-0005370
X-0114600Y0000000
X-0112370Y0005370
X-0107000Y0007600
X-0101630Y0005370
X0101630Y0005370
X0107000Y0007600
X0112370Y0005370
X0114600Y0000000
X0110600Y0042000
X0108371Y0047370
X0108370Y0036629
X0103000Y0049600
X0103000Y0034800
X0097629Y0036630
X0097630Y0047371
X-0097630Y0047370
X-0097630Y0036630
X-0103000Y0034400
X-0103000Y0049600
X-0108370Y0036630
X-0108370Y0047370
X-0110100Y0042200
X-0049600Y0103000
X-0047371Y0097630
X-0047370Y0108371
X-0042000Y0110600
X-0036630Y0097629
X-0036629Y0108370
X-0034600Y0103600
X-0007600Y0107000
X-0005370Y0101630
X-0005370Y0112370
X0000000Y0114600
X0005370Y0112370
X0005370Y0101630
X0007600Y0107000
X0034400Y0103000
X0036629Y0108370
X0036630Y0097629
X0042000Y0110600
X0047370Y0108371
X0047371Y0097630
X0049600Y0103000
T03
X-0034999Y-0124999
X-0029999Y-0124999
X-0024999Y-0124999
R02X0005000
X-0014999Y-0129999
X-0009999Y-0124999
X-0009999Y-0129999
X-0004999Y-0124999
X-0004999Y-0129999
X0000001Y-0129999
X0000001Y-0124999
X0007727Y-0130267
X0007727Y-0125267
X0012727Y-0130267
X0012727Y-0125267
X0017727Y-0125267
X0017727Y-0120267
X0022727Y-0125267
X0022727Y-0120267
X0027727Y-0125267
X0027727Y-0120267
X0032727Y-0125267
X0032727Y-0120267
X0037727Y-0125267
X0037727Y-0120267
R02X0005000
X0082727Y-0100267
X0077727Y-0100267
X0077727Y-0105267
X0072727Y-0100267
X0072727Y-0105267
X0067727Y-0100267
X0067727Y-0105267
X0067727Y-0110267
X0062727Y-0100267
X0062727Y-0105267
X0062727Y-0110267
X0062727Y-0115267
X0057727Y-0100267
X0057727Y-0105267
X0057727Y-0110267
X0057727Y-0115267
X0022727Y-0100267
X0022727Y-0105267
X0022727Y-0110267
X0022727Y-0115267
X0017727Y-0100267
X0017727Y-0105267
X0017727Y-0110267
X0017727Y-0115267
X-0019999Y-0119999
R03Y0005000
X-0024999Y-0119999
R03Y0005000
X-0029999Y-0119999
R04X-0005000
X-0059999Y-0114999
R02Y0005000
X-0064999Y-0109999
X-0064999Y-0104999
X-0069999Y-0109999
X-0069999Y-0104999
X-0074999Y-0104999
X-0094999Y-0084999
X-0089999Y-0084999
X-0089999Y-0089999
X-0084999Y-0089999
X-0084999Y-0094999
X-0084256Y-0082295
X-0079999Y-0089999
X-0079999Y-0094999
X-0079999Y-0099999
X-0074999Y-0089999
R02Y-0005000
X-0069999Y-0089999
R02Y-0005000
X-0069256Y-0082295
X-0064999Y-0089999
X-0064999Y-0094999
X-0064999Y-0099999
X-0064256Y-0082295
X-0059999Y-0089999
X-0059999Y-0094999
X-0059999Y-0099999
X-0059256Y-0082295
R02X0005000
X-0034256Y-0082295
X-0029256Y-0082295
X-0024999Y-0089999
R02Y-0005000
X-0019999Y-0089999
R02Y-0005000
X-0014999Y-0089999
X-0009999Y-0089999
X-0009256Y-0082295
X-0004999Y-0089999
X-0004256Y-0082295
X0005744Y-0082295
X0007727Y-0090267
X0010744Y-0082295
X0012727Y-0090267
X0017727Y-0095267
X0017727Y-0090267
X0022727Y-0095267
X0022727Y-0090267
X0030744Y-0082295
X0035744Y-0082295
X0050744Y-0082295
X0055744Y-0082295
X0060744Y-0082295
X0062727Y-0095267
X0062727Y-0090267
X0065744Y-0082295
X0067727Y-0095267
X0067727Y-0090267
X0070744Y-0082295
X0072727Y-0095267
X0072727Y-0090267
X0077727Y-0095267
X0077727Y-0090267
X0082727Y-0095267
X0082727Y-0090267
X0087727Y-0095267
R03Y0005000
X0092727Y-0090267
R02Y0005000
X0097727Y-0085267
X0097727Y-0080267
X0102727Y-0080267
X0112727Y-0065267
X0112727Y-0060267
X0107727Y-0070267
X0107727Y-0065267
X0107727Y-0060267
X0102727Y-0075267
R03Y0005000
X0097727Y-0060267
R03Y-0005000
X0092727Y-0060267
R03Y-0005000
X0087727Y-0060267
R03Y-0005000
X0080744Y-0062295
X0080744Y-0067295
X0075744Y-0062295
X0075744Y-0067295
X0070744Y-0062295
R03Y-0005000
X0065744Y-0062295
R03Y-0005000
X0060744Y-0062295
R03Y-0005000
X0055744Y-0062295
R03Y-0005000
X0050744Y-0062295
R03Y-0005000
X0035744Y-0062295
R03Y-0005000
X0030744Y-0062295
R03Y-0005000
X0025744Y-0062295
X0025744Y-0067295
X0020744Y-0062295
X0020744Y-0067295
X0015744Y-0062295
X0015744Y-0067295
X0010744Y-0062295
R03Y-0005000
X0005744Y-0062295
R03Y-0005000
X-0004256Y-0077295
R03Y0005000
X-0009256Y-0077295
R03Y0005000
X-0014256Y-0067295
X-0014256Y-0062295
X-0019256Y-0067295
X-0019256Y-0062295
X-0024256Y-0067295
X-0024256Y-0062295
X-0029256Y-0077295
R03Y0005000
X-0034256Y-0077295
R03Y0005000
X-0049256Y-0077295
R03Y0005000
X-0054256Y-0077295
R03Y0005000
X-0059256Y-0077295
R03Y0005000
X-0064256Y-0077295
R03Y0005000
X-0069256Y-0077295
R03Y0005000
X-0074256Y-0067295
X-0074256Y-0062295
X-0079256Y-0067295
X-0079256Y-0062295
X-0084256Y-0077295
R03Y0005000
X-0089999Y-0079999
R03Y0005000
X-0094999Y-0079999
R03Y0005000
X-0099999Y-0079999
R03Y0005000
X-0104999Y-0064999
R02Y-0005000
X-0109999Y-0064999
X-0109999Y-0069999
X-0119999Y-0049999
X-0119999Y-0044999
X-0114999Y-0059999
R05X0005000
X-0084256Y-0047295
R02Y-0005000
X-0079256Y-0047295
R02Y-0005000
X-0074256Y-0047295
R02Y-0005000
X-0069256Y-0047295
R02Y-0005000
X-0064256Y-0047295
R02Y-0005000
X-0059256Y-0047295
R02Y-0005000
X-0054256Y-0047295
R02Y-0005000
X-0049256Y-0052295
X-0049256Y-0057295
X-0034256Y-0052295
X-0034256Y-0057295
X-0029256Y-0052295
X-0029256Y-0057295
X-0024256Y-0052295
X-0024256Y-0057295
X-0019256Y-0052295
X-0019256Y-0057295
X-0014256Y-0052295
X-0014256Y-0057295
X-0009256Y-0052295
X-0009256Y-0057295
X-0004256Y-0052295
X-0004256Y-0057295
X0005744Y-0057295
X0005744Y-0052295
X0010744Y-0057295
X0010744Y-0052295
X0015744Y-0057295
X0015744Y-0052295
X0020744Y-0057295
X0020744Y-0052295
X0025744Y-0057295
X0025744Y-0052295
X0030744Y-0057295
X0030744Y-0052295
X0035744Y-0057295
X0035744Y-0052295
X0050744Y-0057295
X0050744Y-0052295
X0055744Y-0057295
R02Y0005000
X0060744Y-0057295
R02Y0005000
X0065744Y-0057295
R02Y0005000
X0070744Y-0057295
R02Y0005000
X0075744Y-0057295
R02Y0005000
X0080744Y-0057295
R02Y0005000
X0122727Y-0040267
X0127727Y-0025267
X0127727Y-0020267
X0122727Y-0035267
X0122727Y-0030267
X0122727Y-0025267
X0122727Y-0020267
X0117727Y-0025267
X0117727Y-0020267
X0112727Y-0025267
X0112727Y-0020267
X0107727Y-0025267
X0107727Y-0020267
X0102727Y-0025267
X0102727Y-0020267
X0097727Y-0020267
X0097727Y-0025267
X0092727Y-0020267
X0092727Y-0025267
X0087727Y-0020267
X0087727Y-0025267
X0080744Y-0027295
X0080744Y-0032295
X0080744Y-0037295
X0075744Y-0027295
R02Y-0005000
X0070744Y-0022295
X0070744Y-0027295
X0070744Y-0032295
X0070744Y-0037295
X0065744Y-0022295
X0065744Y-0027295
X0065744Y-0032295
X0065744Y-0037295
X0060744Y-0022295
X0060744Y-0027295
X0060744Y-0032295
X0060744Y-0037295
X0055744Y-0022295
X0055744Y-0027295
X0055744Y-0032295
X0055744Y-0037295
X-0054256Y-0037295
R02Y0005000
X-0054256Y-0022295
X-0059256Y-0037295
X-0059256Y-0032295
X-0059256Y-0027295
X-0059256Y-0022295
X-0064256Y-0037295
X-0064256Y-0032295
X-0064256Y-0027295
X-0064256Y-0022295
X-0069256Y-0037295
X-0069256Y-0032295
X-0069256Y-0027295
X-0069256Y-0022295
X-0074256Y-0037295
X-0074256Y-0032295
X-0074256Y-0027295
X-0079256Y-0037295
R02Y0005000
X-0084256Y-0037295
R02Y0005000
X-0084256Y-0022295
X-0089999Y-0024999
X-0094999Y-0024999
R05X-0005000
X-0119999Y-0029999
R02Y-0005000
X-0124999Y-0024999
X-0124999Y-0029999
X-0124999Y-0034999
X-0129999Y-0009999
X-0129999Y-0004999
X-0124999Y-0019999
X-0124999Y-0014999
X-0124999Y-0009999
X-0124999Y-0004999
X-0119999Y-0019999
X-0114999Y-0019999
X-0109999Y-0019999
X-0109999Y-0014999
X-0104999Y-0019999
X-0104999Y-0014999
X-0099999Y-0014999
X-0099999Y-0019999
X-0094999Y-0014999
X-0094999Y-0019999
X-0089999Y-0004999
X-0089999Y-0009999
X-0089999Y-0014999
X-0089999Y-0019999
X-0084256Y-0007295
X-0084256Y-0012295
X-0084256Y-0017295
X-0079256Y-0007295
X-0079256Y-0012295
X-0074256Y-0007295
X-0074256Y-0012295
X-0069256Y-0007295
R02Y-0005000
X-0064256Y-0007295
R02Y-0005000
X-0059256Y-0007295
R02Y-0005000
X-0054256Y-0007295
R02Y-0005000
X0055744Y-0017295
R02Y0005000
X0060744Y-0017295
R02Y0005000
X0065744Y-0017295
R02Y0005000
X0070744Y-0017295
R02Y0005000
X0075744Y-0012295
X0075744Y-0007295
X0080744Y-0012295
X0080744Y-0007295
X0087727Y-0015267
R02Y0005000
X0122727Y-0005267
R02Y-0005000
X0127727Y-0005267
R02Y-0005000
X0125001Y0005001
X0125001Y0010001
X0125001Y0015001
X0090001Y0015001
X0090001Y0010001
X0090001Y0005001
X0080744Y0012705
X0080744Y0007705
X0075744Y0012705
X0075744Y0007705
X0070744Y0017705
R02Y-0005000
X0065744Y0017705
R02Y-0005000
X0060744Y0017705
R02Y-0005000
X0055744Y0017705
R02Y-0005000
X-0054256Y0007705
R02Y0005000
X-0059256Y0007705
R02Y0005000
X-0064256Y0007705
R02Y0005000
X-0069256Y0007705
R02Y0005000
X-0074256Y0007705
X-0074256Y0012705
X-0079256Y0007705
X-0079256Y0012705
X-0084256Y0007705
R02Y0005000
X-0089999Y0005001
X-0089999Y0010001
X-0089999Y0015001
X-0124999Y0015001
X-0124999Y0010001
X-0124999Y0005001
X-0124999Y0000001
X-0129999Y0015001
X-0129999Y0010001
X-0129999Y0005001
X-0129999Y0000001
X-0124999Y0020001
X-0124999Y0025001
X-0124999Y0030001
X-0124999Y0035001
X-0119999Y0020001
X-0119999Y0025001
X-0119999Y0030001
X-0119999Y0035001
X-0114999Y0020001
X-0114999Y0025001
X-0109999Y0020001
X-0109999Y0025001
X-0104999Y0020001
X-0104999Y0025001
X-0099999Y0025001
X-0099999Y0020001
X-0094999Y0025001
X-0094999Y0020001
X-0089999Y0025001
X-0089999Y0020001
X-0084256Y0032705
X-0084256Y0027705
X-0084256Y0022705
X-0079256Y0032705
X-0079256Y0027705
X-0074256Y0032705
X-0074256Y0027705
X-0069256Y0032705
X-0069256Y0027705
X-0069256Y0022705
X-0064256Y0032705
X-0064256Y0027705
X-0064256Y0022705
X-0059256Y0032705
X-0059256Y0027705
X-0059256Y0022705
X-0054256Y0032705
X-0054256Y0027705
X-0054256Y0022705
X0055744Y0022705
X0055744Y0027705
X0055744Y0032705
X0060744Y0022705
X0060744Y0027705
X0060744Y0032705
X0065744Y0022705
X0065744Y0027705
X0065744Y0032705
X0070744Y0022705
X0070744Y0027705
X0070744Y0032705
X0075744Y0027705
X0075744Y0032705
X0080744Y0027705
X0080744Y0032705
X0090001Y0020001
X0090001Y0025001
X0095001Y0020001
X0095001Y0025001
X0100001Y0025001
X0100001Y0020001
X0105001Y0025001
X0105001Y0020001
X0110001Y0025001
X0110001Y0020001
X0115001Y0025001
X0115001Y0020001
X0120001Y0035001
X0120001Y0030001
X0120001Y0025001
X0120001Y0020001
X0125001Y0035001
X0125001Y0030001
X0125001Y0025001
X0125001Y0020001
X0120001Y0040001
R02Y0005000
X0080744Y0057705
R02Y-0005000
X0075744Y0057705
R02Y-0005000
X0070744Y0057705
R02Y-0005000
X0065744Y0057705
R02Y-0005000
X0060744Y0057705
R02Y-0005000
X0055744Y0057705
R02Y-0005000
X0050744Y0057705
X0050744Y0052705
X0035744Y0057705
X0035744Y0052705
X0030744Y0057705
X0030744Y0052705
X0025744Y0057705
X0025744Y0052705
X0020744Y0057705
X0020744Y0052705
X0015744Y0057705
X0015744Y0052705
X0010744Y0057705
X0010744Y0052705
X0005744Y0057705
X0005744Y0052705
X-0004256Y0052705
X-0004256Y0057705
X-0009256Y0052705
X-0009256Y0057705
X-0014256Y0052705
X-0014256Y0057705
X-0019256Y0052705
X-0019256Y0057705
X-0024256Y0052705
X-0024256Y0057705
X-0029256Y0052705
X-0029256Y0057705
X-0034256Y0052705
X-0034256Y0057705
X-0049256Y0052705
X-0049256Y0057705
X-0054256Y0047705
R02Y0005000
X-0059256Y0047705
R02Y0005000
X-0064256Y0047705
R02Y0005000
X-0069256Y0047705
R02Y0005000
X-0074256Y0047705
R02Y0005000
X-0079256Y0047705
R02Y0005000
X-0084256Y0047705
R02Y0005000
X-0119999Y0050001
R02Y-0005000
X-0114999Y0060001
X-0109999Y0060001
X-0109999Y0065001
X-0109999Y0070001
X-0104999Y0060001
R03Y0005000
X-0099999Y0075001
R03Y-0005000
X-0094999Y0075001
R03Y-0005000
X-0089999Y0075001
R03Y-0005000
X-0084256Y0077705
R03Y-0005000
X-0079256Y0067705
X-0079256Y0062705
X-0074256Y0067705
X-0074256Y0062705
X-0069256Y0077705
R03Y-0005000
X-0064256Y0077705
R03Y-0005000
X-0059256Y0077705
R03Y-0005000
X-0054256Y0077705
R03Y-0005000
X-0049256Y0077705
R03Y-0005000
X-0034256Y0077705
R03Y-0005000
X-0029256Y0077705
R03Y-0005000
X-0024256Y0067705
X-0024256Y0062705
X-0019256Y0067705
X-0019256Y0062705
X-0014256Y0067705
X-0014256Y0062705
X-0009256Y0077705
R03Y-0005000
X-0004256Y0077705
R03Y-0005000
X0005744Y0062705
R03Y0005000
X0010744Y0062705
R03Y0005000
X0015744Y0062705
X0015744Y0067705
X0020744Y0062705
X0020744Y0067705
X0025744Y0062705
X0025744Y0067705
X0030744Y0062705
R03Y0005000
X0035744Y0062705
R03Y0005000
X0050744Y0062705
R03Y0005000
X0055744Y0062705
R03Y0005000
X0060744Y0062705
R03Y0005000
X0065744Y0062705
R03Y0005000
X0070744Y0062705
R03Y0005000
X0075744Y0062705
X0075744Y0067705
X0080744Y0062705
X0080744Y0067705
X0090001Y0060001
R03Y0005000
X0095001Y0060001
R03Y0005000
X0100001Y0075001
R03Y-0005000
X0105001Y0075001
R03Y-0005000
X0110001Y0070001
R02Y-0005000
X0115001Y0060001
X0100001Y0080001
X0095001Y0085001
X0095001Y0080001
X0090001Y0090001
R02Y-0005000
X0085001Y0095001
X0085001Y0090001
X0080001Y0095001
X0080001Y0090001
X0075001Y0095001
X0075001Y0090001
X0070744Y0082705
X0070001Y0095001
X0070001Y0090001
X0065744Y0082705
X0065001Y0095001
X0065001Y0090001
X0060744Y0082705
X0060001Y0095001
X0060001Y0090001
X0055744Y0082705
X0050744Y0082705
X0035744Y0082705
X0030744Y0082705
X0025001Y0095001
X0025001Y0090001
X0020001Y0095001
X0020001Y0090001
X0015001Y0095001
X0015001Y0090001
X0010744Y0082705
X0010001Y0090001
X0005744Y0082705
X0005001Y0090001
X-0004256Y0082705
X-0004999Y0090001
X-0009256Y0082705
X-0009999Y0090001
X-0014999Y0090001
X-0019999Y0090001
X-0019999Y0095001
X-0024999Y0090001
X-0024999Y0095001
X-0029256Y0082705
X-0034256Y0082705
X-0049256Y0082705
R02X-0005000
X-0059999Y0090001
X-0059999Y0095001
X-0064256Y0082705
X-0064999Y0090001
X-0064999Y0095001
X-0069256Y0082705
X-0069999Y0090001
X-0069999Y0095001
X-0074999Y0090001
X-0074999Y0095001
X-0079999Y0090001
X-0079999Y0095001
X-0084256Y0082705
X-0084999Y0090001
X-0084999Y0095001
X-0089999Y0080001
X-0089999Y0085001
X-0089999Y0090001
X-0094999Y0080001
X-0094999Y0085001
X-0099999Y0080001
X-0079999Y0100001
X-0074999Y0105001
X-0074999Y0100001
X-0069999Y0110001
R02Y-0005000
X-0064999Y0110001
R02Y-0005000
X-0059999Y0115001
R03Y-0005000
X-0024999Y0115001
R03Y-0005000
X-0019999Y0115001
R03Y-0005000
X-0014999Y0115001
R02Y-0005000
X0015001Y0100001
R02Y0005000
X0020001Y0100001
R03Y0005000
X0025001Y0100001
R03Y0005000
X0060001Y0100001
R03Y0005000
X0065001Y0100001
R02Y0005000
X0070001Y0100001
R02Y0005000
X0075001Y0100001
X0075001Y0105001
X0080001Y0100001
X0050001Y0120001
X0045001Y0120001
X0040001Y0120001
X0035001Y0125001
X0035001Y0120001
X0030001Y0125001
X0030001Y0120001
X0025001Y0125001
X0025001Y0120001
X0020001Y0125001
X0020001Y0120001
X0015001Y0125001
X0010001Y0125001
X0005001Y0125001
X0000001Y0125001
X-0004999Y0125001
X-0009999Y0125001
X-0014999Y0120001
X-0014999Y0125001
X-0019999Y0120001
X-0019999Y0125001
X-0024999Y0120001
X-0024999Y0125001
X-0029999Y0120001
X-0029999Y0125001
X-0034999Y0120001
X-0034999Y0125001
X-0039999Y0120001
R02X-0005000
T04
X0052000Y-0113000
X0032000Y-0093000
X0010000Y-0117000
X-0010000Y-0097000
X-0032000Y-0093000
X-0052000Y-0113000
X-0113000Y-0052000
X-0097000Y-0010000
X-0093000Y-0032000
X0093000Y-0032000
X0113000Y-0052000
X0117000Y-0010000
X0113000Y0052000
X0097000Y0010000
X0093000Y0032000
X-0093000Y0032000
X-0113000Y0052000
X-0117000Y0010000
X-0052000Y0113000
X-0032000Y0093000
X-0010000Y0117000
X0010000Y0097000
X0032000Y0093000
X0052000Y0113000
T05
X0032000Y-0113000
X-0010000Y-0117000
X-0032000Y-0113000
X-0117000Y-0010000
X-0113000Y-0032000
X-0093000Y-0052000
X-0052000Y-0093000
X0010000Y-0097000
X0052000Y-0093000
X0093000Y-0052000
X0097000Y-0010000
X0113000Y-0032000
X0117000Y0010000
X0113000Y0032000
X0093000Y0052000
X0052000Y0093000
X-0010000Y0097000
X-0052000Y0093000
X-0093000Y0052000
X-0097000Y0010000
X-0113000Y0032000
X-0032000Y0113000
X0010000Y0117000
X0032000Y0113000
T06
X0077274Y-0020706
X0077274Y-0077274
X0020706Y-0077274
X-0020706Y-0077274
X-0077274Y-0077274
X-0077274Y-0020706
X-0077274Y0077274
X-0077274Y0020706
X-0020706Y0077274
X0020706Y0077274
X0077274Y0020706
X0077274Y0077274
M30
