G04 ================== begin FILE IDENTIFICATION RECORD ==================*
G04 Layout Name:  testBoard_v8_7x2.brd*
G04 Film Name:    Soldermask_Bottom*
G04 File Format:  Gerber RS274X*
G04 File Origin:  Cadence Allegro 16.6-S006*
G04 Origin Date:  Mon Aug 10 14:28:47 2015*
G04 *
G04 Layer:  VIA CLASS/SOLDERMASK_BOTTOM*
G04 Layer:  PIN/SOLDERMASK_BOTTOM*
G04 Layer:  PACKAGE GEOMETRY/SOLDERMASK_BOTTOM*
G04 Layer:  BOARD GEOMETRY/SOLDERMASK_BOTTOM*
G04 *
G04 Offset:    (0.00 0.00)*
G04 Mirror:    No*
G04 Mode:      Positive*
G04 Rotation:  0*
G04 FullContactRelief:  No*
G04 UndefLineWidth:     5.00*
G04 ================== end FILE IDENTIFICATION RECORD ====================*
%FSAX55Y55*MOIN*%
%IR0*IPPOS*OFA0.00000B0.00000*MIA0B0*SFA1.00000B1.00000*%
%ADD12C,.024*%
%ADD14C,.034*%
%ADD11C,.054*%
%ADD10C,.039*%
%ADD13C,.094*%
%ADD15C,.104*%
%LPD*%
G75*
G54D10*
X-0000089136Y-0000056669D03*
Y-0000064069D03*
Y-0000071469D03*
Y-0000034469D03*
Y-0000041869D03*
Y-0000049269D03*
Y-0000012269D03*
Y-0000019669D03*
Y-0000027069D03*
Y0000009931D03*
Y0000002531D03*
Y-0000004869D03*
Y0000032131D03*
Y0000024731D03*
Y0000017331D03*
Y0000046931D03*
Y0000039531D03*
Y0000069131D03*
Y0000061731D03*
Y0000054331D03*
X-0000072300Y-0000055800D03*
X-0000072500Y-0000062900D03*
X-0000072000Y-0000072500D03*
X-0000076449Y-0000052395D03*
X-0000080149Y-0000056095D03*
X-0000076449Y-0000059795D03*
X-0000080149Y-0000063495D03*
X-0000076449Y-0000067195D03*
X-0000080149Y-0000070895D03*
X-0000085436Y-0000052969D03*
Y-0000060369D03*
Y-0000067769D03*
X-0000065800Y-0000072100D03*
X-0000082100Y-0000041900D03*
X-0000081900Y-0000034200D03*
X-0000080149Y-0000048695D03*
X-0000085436Y-0000038169D03*
Y-0000045569D03*
X-0000078100Y-0000030800D03*
X-0000066400Y-0000016100D03*
X-0000070400Y-0000012800D03*
X-0000081300Y-0000026800D03*
X-0000081700Y-0000011800D03*
X-0000085436Y-0000015969D03*
Y-0000023369D03*
Y-0000030769D03*
X-0000078300Y-0000001300D03*
X-0000081300Y-0000004200D03*
X-0000081100Y0000002500D03*
X-0000085436Y0000006231D03*
Y-0000001169D03*
Y-0000008569D03*
X-0000079400Y0000028900D03*
X-0000066400Y0000013800D03*
X-0000070400Y0000017200D03*
X-0000081700Y0000017400D03*
Y0000025400D03*
X-0000082100Y0000032100D03*
X-0000085436Y0000028431D03*
Y0000021031D03*
Y0000013631D03*
X-0000077213Y0000051363D03*
X-0000080913Y0000047663D03*
X-0000085436Y0000050631D03*
Y0000043231D03*
Y0000035831D03*
X-0000072900Y0000059500D03*
X-0000074400Y0000055100D03*
X-0000080913Y0000069863D03*
X-0000077213Y0000066163D03*
X-0000080913Y0000062463D03*
X-0000077213Y0000058763D03*
X-0000080913Y0000055063D03*
X-0000085436Y0000065431D03*
Y0000058031D03*
X-0000054900Y-0000072700D03*
X-0000059500Y-0000072300D03*
X-0000063200Y-0000042200D03*
X-0000043700Y-0000045700D03*
X-0000044706Y-0000037747D03*
X-0000048406Y-0000041447D03*
X-0000063400Y-0000012400D03*
X-0000043941Y-0000011224D03*
X-0000047641Y-0000014924D03*
X-0000043941Y-0000018624D03*
X-0000047641Y-0000022324D03*
Y-0000007524D03*
X-0000045088Y0000011015D03*
X-0000048788Y0000007315D03*
X-0000063500Y0000017200D03*
X-0000048788Y0000022115D03*
X-0000045088Y0000018415D03*
X-0000048788Y0000014715D03*
X-0000056900Y0000045500D03*
X-0000062200Y0000043000D03*
X-0000046100Y0000040700D03*
X-0000049553Y0000036955D03*
X-0000058600Y0000072300D03*
X-0000052500Y0000071900D03*
X-0000024900Y-0000052400D03*
X-0000028900Y-0000056000D03*
X-0000033500Y-0000057700D03*
X-0000030500Y-0000061200D03*
X-0000038500Y-0000060000D03*
X-0000022524Y-0000055530D03*
X-0000026224Y-0000059230D03*
X-0000027104Y-0000064260D03*
X-0000034504D03*
X-0000041904D03*
X-0000023404Y-0000067960D03*
X-0000030804D03*
X-0000038204D03*
X-0000027104Y-0000071660D03*
X-0000034504D03*
X-0000041904D03*
X-0000037700Y-0000045300D03*
X-0000025900Y-0000033500D03*
X-0000029906Y-0000037747D03*
X-0000037306D03*
X-0000033606Y-0000041447D03*
X-0000041006D03*
X-0000033100Y-0000021400D03*
X-0000033300Y-0000014700D03*
X-0000036541Y-0000011224D03*
X-0000040241Y-0000014924D03*
X-0000036541Y-0000018624D03*
X-0000040241Y-0000022324D03*
X-0000024700Y-0000007400D03*
X-0000032600Y-0000007800D03*
X-0000037000Y0000006900D03*
X-0000032371Y0000006712D03*
X-0000027771D03*
X-0000040241Y-0000007524D03*
X-0000037688Y0000011015D03*
X-0000041388Y0000007315D03*
X-0000022400Y0000032100D03*
X-0000033900Y0000014900D03*
X-0000033000Y0000021600D03*
X-0000041388Y0000022115D03*
X-0000037688Y0000018415D03*
X-0000041388Y0000014715D03*
X-0000033265Y0000038433D03*
X-0000043300Y0000036500D03*
X-0000039300Y0000040600D03*
X-0000027600Y0000033700D03*
X-0000023800Y0000036300D03*
X-0000032371Y0000043133D03*
X-0000027800Y0000039600D03*
X-0000032725Y0000034469D03*
X-0000041139Y0000044737D03*
X-0000036200Y0000044900D03*
X-0000037197Y0000035846D03*
X-0000039600Y0000071700D03*
X-0000032200Y0000072300D03*
X-0000024900Y0000072500D03*
X-0000025071Y0000058712D03*
X-0000031771Y0000058612D03*
X-0000025841Y0000054930D03*
X-0000028443Y0000069405D03*
X-0000035843D03*
X-0000043243D03*
X-0000024743Y0000065705D03*
X-0000032143D03*
X-0000039543D03*
X-0000028443Y0000062005D03*
X-0000035843D03*
X-0000043243D03*
X-0000013800Y-0000059700D03*
X-0000010200Y-0000055600D03*
X-0000015124Y-0000055530D03*
X-0000018824Y-0000059230D03*
X-0000006910Y-0000052404D03*
X-0000003210Y-0000056104D03*
X-0000006910Y-0000059804D03*
X-0000004904Y-0000064260D03*
X-0000012304D03*
X-0000019704D03*
X-0000001204Y-0000067960D03*
X-0000008604D03*
X-0000016004D03*
X-0000004904Y-0000071660D03*
X-0000012304D03*
X-0000019704D03*
X-0000015200Y-0000045300D03*
X-0000011500Y-0000048200D03*
X-0000011200Y-0000042100D03*
X-0000017045Y-0000050434D03*
X-0000006910Y-0000037604D03*
X-0000003210Y-0000041304D03*
X-0000006910Y-0000045004D03*
X-0000003210Y-0000048704D03*
X-0000019400Y-0000030600D03*
X-0000016300Y-0000026400D03*
X-0000020300Y-0000010300D03*
X-0000018600Y-0000006700D03*
X-0000022171Y0000006212D03*
X-0000019571Y0000009812D03*
X-0000019000Y0000029100D03*
X-0000017471Y0000048612D03*
X-0000013071Y0000049612D03*
X-0000011671Y0000043112D03*
X-0000005314Y0000050158D03*
X-0000001614Y0000046458D03*
X-0000009014D03*
X-0000005314Y0000042758D03*
X-0000001614Y0000039058D03*
X-0000009014D03*
X-0000017500Y0000072300D03*
X-0000010000Y0000071900D03*
X-0000002500Y0000072500D03*
X-0000013600Y0000056200D03*
X-0000002471Y0000058912D03*
X-0000010171D03*
X-0000017471Y0000059312D03*
X-0000018441Y0000054930D03*
X-0000001614Y0000053858D03*
X-0000009014D03*
X-0000006243Y0000069405D03*
X-0000013643D03*
X-0000021043D03*
X-0000002543Y0000065705D03*
X-0000009943D03*
X-0000017343D03*
X-0000006243Y0000062005D03*
X-0000013643D03*
X-0000021043D03*
X0000009726Y-0000052538D03*
X0000013426Y-0000056104D03*
X0000017126Y-0000059804D03*
X0000009726D03*
X0000000490Y-0000052404D03*
X0000004190Y-0000056104D03*
X0000000490Y-0000059804D03*
X0000017296Y-0000064260D03*
X0000009896D03*
X0000002496D03*
X0000013596Y-0000067960D03*
X0000006196D03*
X0000017296Y-0000071660D03*
X0000009896D03*
X0000002496D03*
X0000006400Y-0000035400D03*
X0000009100Y-0000039000D03*
X0000018100Y-0000052200D03*
X0000013426Y-0000041438D03*
X0000009726Y-0000045138D03*
X0000013426Y-0000048838D03*
X0000000490Y-0000037604D03*
X0000004190Y-0000041304D03*
X0000000490Y-0000045004D03*
X0000004190Y-0000048704D03*
X-0000000100Y-0000021200D03*
X0000018300Y-0000028100D03*
X0000019300Y-0000006700D03*
X0000018129Y0000006212D03*
X0000000300Y0000021200D03*
X0000019329Y0000029712D03*
X0000013329Y0000046712D03*
X0000017929Y0000048812D03*
X0000014316Y0000053209D03*
X0000009486Y0000050158D03*
X0000002086D03*
X0000005786Y0000046458D03*
X0000009486Y0000042758D03*
X0000002086D03*
X0000005786Y0000039058D03*
X0000004500Y0000072500D03*
X0000012000D03*
X0000019400Y0000072700D03*
X0000012229Y0000058012D03*
X0000004729Y0000058412D03*
X0000018016Y0000056909D03*
X0000005786Y0000053858D03*
X0000015957Y0000069405D03*
X0000008557D03*
X0000001157D03*
X0000019657Y0000065705D03*
X0000012257D03*
X0000004857D03*
X0000015957Y0000062005D03*
X0000008557D03*
X0000001157D03*
X0000027700Y-0000060000D03*
X0000025600Y-0000055100D03*
X0000033954Y-0000059613D03*
X0000022100Y-0000060200D03*
X0000020826Y-0000056104D03*
X0000039496Y-0000064260D03*
X0000032096D03*
X0000024696D03*
X0000035796Y-0000067960D03*
X0000028396D03*
X0000020996D03*
X0000039496Y-0000071660D03*
X0000032096D03*
X0000024696D03*
X0000035700Y-0000044500D03*
X0000030900Y-0000035400D03*
X0000026500Y-0000037900D03*
X0000026100Y-0000032900D03*
X0000020800Y-0000031900D03*
X0000035608Y-0000037555D03*
X0000039308Y-0000041255D03*
X0000031908D03*
X0000033200Y-0000017800D03*
Y-0000010900D03*
X0000020200Y-0000011100D03*
X0000040771Y-0000010651D03*
X0000037071Y-0000014351D03*
X0000040771Y-0000018051D03*
X0000037071Y-0000021751D03*
X0000030900Y-0000006700D03*
X0000024800Y-0000006900D03*
X0000034029Y0000010412D03*
X0000029829Y0000006912D03*
X0000024229Y0000007312D03*
X0000020429Y0000011112D03*
X0000038218Y0000006742D03*
X0000037071Y-0000006951D03*
X0000032329Y0000022012D03*
X0000034629Y0000017812D03*
X0000038218Y0000021542D03*
Y0000014142D03*
X0000040929Y0000044612D03*
X0000031329Y0000041912D03*
X0000027329Y0000038312D03*
X0000021929Y0000033312D03*
X0000026929Y0000033912D03*
X0000036689Y0000041544D03*
X0000040073Y0000036572D03*
X0000032673D03*
X0000021716Y0000053209D03*
X0000026700Y0000072300D03*
X0000034500Y0000072700D03*
X0000034229Y0000058612D03*
X0000025416Y0000056909D03*
X0000038157Y0000069405D03*
X0000030757D03*
X0000023357D03*
X0000034457Y0000065705D03*
X0000027057D03*
X0000038157Y0000062005D03*
X0000030757D03*
X0000023357D03*
X0000043200Y-0000061600D03*
X0000057900Y-0000072300D03*
X0000043196Y-0000067960D03*
X0000045100Y-0000048800D03*
X0000043200Y-0000044400D03*
X0000050408Y-0000037555D03*
X0000043008D03*
X0000046708Y-0000041255D03*
X0000062300Y-0000017400D03*
X0000051200Y-0000014500D03*
X0000050200Y-0000022700D03*
X0000048171Y-0000010651D03*
X0000044471Y-0000014351D03*
X0000048171Y-0000018051D03*
X0000044471Y-0000021751D03*
X0000052029Y0000006512D03*
X0000049318Y0000010442D03*
X0000041918D03*
X0000045618Y0000006742D03*
X0000044471Y-0000006951D03*
X0000045618Y0000021542D03*
X0000049318Y0000017842D03*
X0000041918D03*
X0000045618Y0000014142D03*
X0000062500Y0000042700D03*
X0000057500Y0000044800D03*
X0000043729Y0000040612D03*
X0000047473Y0000036572D03*
X0000043700Y0000072300D03*
X0000059000D03*
X0000053300D03*
X0000041857Y0000065705D03*
X0000073400Y-0000053900D03*
X0000074100Y-0000061200D03*
X0000073700Y-0000072100D03*
X0000069200D03*
X0000063400D03*
X0000081693Y-0000053542D03*
X0000077993Y-0000057242D03*
X0000081693Y-0000060942D03*
X0000077993Y-0000064642D03*
X0000081693Y-0000068342D03*
X0000077993Y-0000072042D03*
X0000080300Y-0000032300D03*
X0000081693Y-0000046142D03*
X0000077993Y-0000049842D03*
X0000079900Y-0000026200D03*
X0000069700Y-0000016800D03*
X0000066700Y-0000013200D03*
X0000079700Y0000002900D03*
X0000079900Y-0000002900D03*
X0000079700Y0000027700D03*
X0000069900Y0000013000D03*
X0000066300Y0000016600D03*
X0000063000Y0000013200D03*
X0000064400Y0000046700D03*
X0000075500Y0000047200D03*
X0000075700Y0000052800D03*
X0000079900Y0000049500D03*
X0000072200Y0000057000D03*
X0000081000Y0000072100D03*
X0000076400Y0000060200D03*
X0000079700Y0000064800D03*
X0000080300Y0000056600D03*
X0000088194Y-0000054116D03*
X0000084494Y-0000057816D03*
X0000088194Y-0000061516D03*
X0000084494Y-0000065216D03*
X0000088194Y-0000068916D03*
X0000084494Y-0000072616D03*
X0000088194Y-0000031916D03*
X0000084494Y-0000035616D03*
X0000088194Y-0000039316D03*
X0000084494Y-0000043016D03*
X0000088194Y-0000046716D03*
X0000084494Y-0000050416D03*
Y-0000013416D03*
X0000088194Y-0000017116D03*
X0000084494Y-0000020816D03*
X0000088194Y-0000024516D03*
X0000084494Y-0000028216D03*
Y0000008784D03*
X0000088194Y0000005084D03*
X0000084494Y0000001384D03*
X0000088194Y-0000002316D03*
X0000084494Y-0000006016D03*
X0000088194Y-0000009716D03*
X0000084494Y0000030984D03*
X0000088194Y0000027284D03*
X0000084494Y0000023584D03*
X0000088194Y0000019884D03*
X0000084494Y0000016184D03*
X0000088194Y0000012484D03*
X0000084494Y0000053184D03*
X0000088194Y0000049484D03*
X0000084494Y0000045784D03*
X0000088194Y0000042084D03*
X0000084494Y0000038384D03*
X0000088194Y0000034684D03*
Y0000071684D03*
X0000084494Y0000067984D03*
X0000088194Y0000064284D03*
X0000084494Y0000060584D03*
X0000088194Y0000056884D03*
G54D11*
X-0000069000Y-0000067200D03*
X-0000076300Y-0000039400D03*
X-0000076100Y-0000009900D03*
X-0000076283Y0000019600D03*
X-0000069000Y0000047400D03*
X-0000049000Y-0000047200D03*
X-0000056300Y-0000019400D03*
X-0000056100Y0000010100D03*
X-0000056283Y0000039600D03*
X-0000049000Y0000067400D03*
X0000049900Y-0000047200D03*
X0000057300Y-0000019400D03*
X0000057100Y0000010100D03*
X0000057300Y0000039600D03*
X0000049900Y0000067300D03*
X0000069900Y-0000067200D03*
X0000077300Y-0000039400D03*
X0000077100Y-0000009900D03*
X0000077300Y0000019600D03*
X0000069900Y0000047300D03*
G54D12*
X-0000066600Y-0000057200D03*
X-0000071670Y-0000034770D03*
X-0000066300Y-0000037000D03*
Y-0000021800D03*
X-0000071670Y-0000024030D03*
X-0000073900Y-0000029400D03*
X-0000066100Y0000007700D03*
X-0000071470Y0000005470D03*
X-0000073700Y0000000100D03*
X-0000071470Y-0000005270D03*
X-0000066100Y-0000007500D03*
X-0000073883Y0000029600D03*
X-0000071653Y0000024230D03*
X-0000066283Y0000022000D03*
Y0000037200D03*
X-0000071653Y0000034970D03*
X-0000066600Y0000057400D03*
X-0000044162Y-0000058439D03*
X-0000047083Y-0000059124D03*
X-0000050034Y-0000059660D03*
X-0000053010Y-0000060043D03*
X-0000051887Y-0000053564D03*
X-0000048928Y-0000053070D03*
X-0000064370Y-0000062570D03*
X-0000059000Y-0000064800D03*
X-0000053630Y-0000062570D03*
X-0000046002Y-0000052408D03*
X-0000045300Y-0000032550D03*
X-0000048300D03*
X-0000051300D03*
X-0000054300D03*
X-0000057300D03*
X-0000060930Y-0000034770D03*
X-0000053630Y-0000051830D03*
X-0000059000Y-0000049600D03*
X-0000064370Y-0000051830D03*
X-0000059326Y-0000026250D03*
X-0000056326D03*
X-0000053326D03*
X-0000050326D03*
X-0000047326D03*
X-0000044326D03*
X-0000060930Y-0000024030D03*
X-0000045100Y-0000003050D03*
X-0000048100D03*
X-0000051100D03*
X-0000054100D03*
X-0000057100D03*
X-0000059309Y0000003250D03*
X-0000056309D03*
X-0000053309D03*
X-0000050309D03*
X-0000047309D03*
X-0000044309D03*
X-0000060730Y0000005470D03*
Y-0000005270D03*
X-0000045283Y0000026450D03*
X-0000048283D03*
X-0000051283D03*
X-0000054283D03*
X-0000057283D03*
X-0000060913Y0000024230D03*
X-0000058378Y0000032750D03*
X-0000055378D03*
X-0000052378D03*
X-0000049378D03*
X-0000046378D03*
X-0000044203Y0000052111D03*
X-0000060913Y0000034970D03*
X-0000064370Y0000052030D03*
X-0000059000Y0000049800D03*
X-0000053630Y0000052030D03*
X-0000050193Y0000059884D03*
X-0000047239Y0000059357D03*
X-0000044317Y0000058679D03*
X-0000053630Y0000062770D03*
X-0000059000Y0000065000D03*
X-0000064370Y0000062770D03*
X-0000030293Y-0000052830D03*
X-0000032944Y-0000054233D03*
X-0000035664Y-0000055499D03*
X-0000038445Y-0000056624D03*
X-0000041280Y-0000057604D03*
X-0000022817Y-0000047832D03*
X-0000025223Y-0000049625D03*
X-0000027717Y-0000051292D03*
X-0000043119Y-0000051578D03*
X-0000040289Y-0000050585D03*
X-0000037519Y-0000049431D03*
X-0000034821Y-0000048120D03*
X-0000032203Y-0000046656D03*
X-0000029672Y-0000045044D03*
X-0000027239Y-0000043289D03*
X-0000024910Y-0000041398D03*
X-0000022694Y-0000039376D03*
X-0000033356Y-0000031759D03*
X-0000036310Y-0000032280D03*
X-0000039300Y-0000032528D03*
X-0000042300Y-0000032550D03*
X-0000022382Y-0000027062D03*
X-0000024952Y-0000028610D03*
X-0000027653Y-0000029916D03*
X-0000030462Y-0000030969D03*
X-0000041326Y-0000026250D03*
X-0000038327Y-0000026160D03*
X-0000035357Y-0000025743D03*
X-0000032452Y-0000024991D03*
X-0000029652Y-0000023914D03*
X-0000026993Y-0000022525D03*
X-0000024100Y-0000003050D03*
X-0000027100D03*
X-0000030100D03*
X-0000033100D03*
X-0000036100D03*
X-0000039100D03*
X-0000042100D03*
X-0000041309Y0000003250D03*
X-0000038309D03*
X-0000035309D03*
X-0000032309D03*
X-0000029309D03*
X-0000026309D03*
X-0000023309D03*
X-0000025281Y0000021611D03*
X-0000027824Y0000023201D03*
X-0000030532Y0000024492D03*
X-0000033369Y0000025467D03*
X-0000036299Y0000026113D03*
X-0000039283Y0000026422D03*
X-0000042283Y0000026450D03*
X-0000034412Y0000032177D03*
X-0000031493Y0000031483D03*
X-0000028651Y0000030524D03*
X-0000025908Y0000029308D03*
X-0000023289Y0000027846D03*
X-0000043378Y0000032750D03*
X-0000040378D03*
X-0000037382Y0000032601D03*
X-0000023518Y0000040355D03*
X-0000025777Y0000042328D03*
X-0000028147Y0000044169D03*
X-0000030618Y0000045870D03*
X-0000033182Y0000047426D03*
X-0000035832Y0000048833D03*
X-0000038558Y0000050086D03*
X-0000041352Y0000051180D03*
X-0000030432Y0000053108D03*
X-0000027852Y0000051577D03*
X-0000025353Y0000049917D03*
X-0000022943Y0000048131D03*
X-0000041433Y0000057853D03*
X-0000038595Y0000056879D03*
X-0000035811Y0000055762D03*
X-0000033088Y0000054504D03*
X-0000008960Y-0000032200D03*
X-0000010583Y-0000034723D03*
X-0000012333Y-0000037160D03*
X-0000014205Y-0000039504D03*
X-0000016195Y-0000041749D03*
X-0000018298Y-0000043889D03*
X-0000020507Y-0000045918D03*
X-0000020597Y-0000037231D03*
X-0000018627Y-0000034968D03*
X-0000016790Y-0000032597D03*
X-0000001200Y-0000010100D03*
X-0000001700Y-0000012900D03*
X-0000007600Y-0000010700D03*
X-0000010000Y-0000010500D03*
X-0000010900Y-0000013300D03*
X-0000008100Y-0000013600D03*
X-0000002106Y-0000015630D03*
X-0000002890Y-0000018526D03*
X-0000003820Y-0000021378D03*
X-0000004895Y-0000024179D03*
X-0000006112Y-0000026921D03*
X-0000007469Y-0000029597D03*
X-0000015092Y-0000030123D03*
X-0000013539Y-0000027557D03*
X-0000012135Y-0000024905D03*
X-0000010886Y-0000022177D03*
X-0000009796Y-0000019383D03*
X-0000008868Y-0000016530D03*
X-0000012214Y-0000016207D03*
X-0000013830Y-0000018735D03*
X-0000015671Y-0000021103D03*
X-0000017722Y-0000023293D03*
X-0000019965Y-0000025284D03*
X-0000018415Y-0000014274D03*
X-0000016924Y-0000011670D03*
X-0000007800Y0000006700D03*
X-0000007200Y0000009700D03*
X-0000009500Y0000009500D03*
X-0000001200Y0000010600D03*
X-0000008600Y-0000005500D03*
X-0000006500Y-0000007100D03*
X-0000009100Y-0000008100D03*
X-0000015739Y-0000008914D03*
X-0000015200Y-0000006000D03*
X-0000015100Y-0000003050D03*
X-0000018100D03*
X-0000021100D03*
X-0000020309Y0000003250D03*
X-0000017309D03*
X-0000015300Y0000004700D03*
X-0000015115Y0000007169D03*
X-0000016083Y0000010008D03*
X-0000008100Y0000012400D03*
X-0000010400Y0000012100D03*
X-0000001300Y0000013300D03*
X-0000017367Y0000012719D03*
X-0000018952Y0000015267D03*
X-0000020815Y0000026149D03*
X-0000018507Y0000024232D03*
X-0000016385Y0000022111D03*
X-0000014466Y0000019805D03*
X-0000012768Y0000017332D03*
X-0000011604Y0000015119D03*
X-0000008791Y0000015347D03*
X-0000009200Y0000017814D03*
X-0000010189Y0000020646D03*
X-0000011340Y0000023417D03*
X-0000012648Y0000026117D03*
X-0000014108Y0000028737D03*
X-0000015717Y0000031269D03*
X-0000007545Y0000029937D03*
X-0000006181Y0000027265D03*
X-0000004957Y0000024527D03*
X-0000003874Y0000021729D03*
X-0000002935Y0000018879D03*
X-0000002144Y0000015985D03*
X-0000017468Y0000033705D03*
X-0000019356Y0000036037D03*
X-0000021375Y0000038256D03*
X-0000020628Y0000046223D03*
X-0000018413Y0000044200D03*
X-0000016305Y0000042065D03*
X-0000014308Y0000039826D03*
X-0000012430Y0000037487D03*
X-0000010673Y0000035055D03*
X-0000009043Y0000032536D03*
X0000016370Y-0000031397D03*
X0000018160Y-0000033805D03*
X0000020083Y-0000036107D03*
X0000018191Y-0000043264D03*
X0000016107Y-0000041106D03*
X0000014134Y-0000038845D03*
X0000012278Y-0000036488D03*
X0000010543Y-0000034041D03*
X0000008934Y-0000031509D03*
X0000001100Y-0000010100D03*
X0000001500Y-0000012500D03*
X0000010400Y-0000012300D03*
X0000007700D03*
X0000016483Y-0000010743D03*
X0000017872Y-0000013403D03*
X0000019553Y-0000015887D03*
X0000018433Y-0000023964D03*
X0000016317Y-0000021837D03*
X0000014406Y-0000019525D03*
X0000012900Y-0000017500D03*
X0000011700Y-0000015200D03*
X0000008710Y-0000015201D03*
X0000009598Y-0000018066D03*
X0000010647Y-0000020877D03*
X0000011852Y-0000023624D03*
X0000013211Y-0000026299D03*
X0000014718Y-0000028893D03*
X0000007455Y-0000028899D03*
X0000006110Y-0000026218D03*
X0000004901Y-0000023472D03*
X0000003832Y-0000020669D03*
X0000002906Y-0000017815D03*
X0000002200Y-0000015200D03*
X0000007700Y0000006900D03*
X0000007000Y0000009500D03*
X0000009300Y0000009400D03*
X0Y0000005600D03*
X-0000000100Y0000008200D03*
X0000001000Y0000010600D03*
X0Y-0000006500D03*
X0000008600Y-0000005400D03*
X0000006700Y-0000006400D03*
X0000007100Y-0000009200D03*
X0000009500Y-0000009600D03*
X0000015641Y0000008840D03*
X0000014808Y0000005958D03*
X0000016100Y0000003250D03*
X0000019100D03*
X0000016901Y-0000003050D03*
X0000015400Y-0000005200D03*
X0000015407Y-0000007943D03*
X0000010200Y0000012100D03*
X0000007800Y0000012800D03*
X0000001800Y0000013400D03*
X0000002427Y0000016205D03*
X0000003267Y0000019085D03*
X0000004251Y0000021919D03*
X0000005378Y0000024700D03*
X0000006643Y0000027420D03*
X0000008043Y0000030073D03*
X0000016210Y0000031269D03*
X0000014572Y0000028756D03*
X0000013078Y0000026154D03*
X0000011734Y0000023472D03*
X0000010543Y0000020719D03*
X0000009509Y0000017903D03*
X0000008700Y0000015400D03*
X0000011600Y0000015000D03*
X0000012726Y0000017266D03*
X0000014419Y0000019743D03*
X0000016332Y0000022054D03*
X0000018449Y0000024179D03*
X0000020007Y0000016665D03*
X0000018257Y0000014229D03*
X0000016795Y0000011609D03*
X0000009576Y0000032652D03*
X0000011237Y0000035150D03*
X0000013021Y0000037562D03*
X0000014925Y0000039880D03*
X0000016944Y0000042099D03*
X0000019072Y0000044214D03*
X0000019899Y0000035998D03*
X0000017988Y0000033686D03*
X0000041007Y-0000057268D03*
X0000038187Y-0000056243D03*
X0000035423Y-0000055078D03*
X0000032721Y-0000053774D03*
X0000030088Y-0000052336D03*
X0000040277Y-0000032549D03*
X0000037281Y-0000032391D03*
X0000034313Y-0000031958D03*
X0000022133Y-0000038298D03*
X0000024303Y-0000040369D03*
X0000026586Y-0000042314D03*
X0000028976Y-0000044128D03*
X0000031464Y-0000045804D03*
X0000034043Y-0000047337D03*
X0000036704Y-0000048722D03*
X0000039440Y-0000049954D03*
X0000027532Y-0000050766D03*
X0000025057Y-0000049070D03*
X0000022672Y-0000047251D03*
X0000020381Y-0000045314D03*
X0000026122Y-0000021982D03*
X0000028725Y-0000023473D03*
X0000031481Y-0000024659D03*
X0000034354Y-0000025523D03*
X0000037306Y-0000026056D03*
X0000040300Y-0000026249D03*
X0000031396Y-0000031255D03*
X0000028557Y-0000030287D03*
X0000025818Y-0000029063D03*
X0000023203Y-0000027592D03*
X0000020735Y-0000025888D03*
X0000022100Y0000003250D03*
X0000025100D03*
X0000028100D03*
X0000031100D03*
X0000034100D03*
X0000037100D03*
X0000040100D03*
X0000037901Y-0000003050D03*
X0000034901D03*
X0000031901D03*
X0000028901D03*
X0000025901D03*
X0000022901D03*
X0000019901D03*
X0000020753Y0000026101D03*
X0000023223Y0000027804D03*
X0000025838Y0000029273D03*
X0000028578Y0000030496D03*
X0000031418Y0000031462D03*
X0000034335Y0000032163D03*
X0000038037Y0000026335D03*
X0000035071Y0000025885D03*
X0000032175Y0000025101D03*
X0000029387Y0000023993D03*
X0000026744Y0000022575D03*
X0000021304Y0000046218D03*
X0000023634Y0000048108D03*
X0000026057Y0000049877D03*
X0000028566Y0000051522D03*
X0000031154Y0000053039D03*
X0000039183Y0000049946D03*
X0000036454Y0000048700D03*
X0000033800Y0000047301D03*
X0000031229Y0000045754D03*
X0000028750Y0000044066D03*
X0000026370Y0000042239D03*
X0000024096Y0000040282D03*
X0000021937Y0000038199D03*
X0000037304Y0000032593D03*
X0000040300Y0000032749D03*
X0000033816Y0000054422D03*
X0000036544Y0000055670D03*
X0000039332Y0000056779D03*
X0000048000Y-0000052701D03*
X0000050942Y-0000053290D03*
X0000052692Y-0000059912D03*
X0000049725Y-0000059473D03*
X0000046783Y-0000058885D03*
X0000043874Y-0000058150D03*
X0000054530Y-0000062570D03*
X0000059900Y-0000064800D03*
X0000058277Y-0000032550D03*
X0000055277D03*
X0000052277D03*
X0000049277D03*
X0000046277D03*
X0000043277D03*
X0000042240Y-0000051030D03*
X0000045096Y-0000051947D03*
X0000061930Y-0000034770D03*
X0000054530Y-0000051830D03*
X0000059900Y-0000049600D03*
X0000043300Y-0000026250D03*
X0000046300D03*
X0000049300D03*
X0000052300D03*
X0000055300D03*
X0000058300D03*
X0000061930Y-0000024030D03*
X0000043100Y0000003250D03*
X0000046100D03*
X0000049100D03*
X0000052100D03*
X0000055100D03*
X0000058100D03*
X0000058901Y-0000003050D03*
X0000055901D03*
X0000052901D03*
X0000049901D03*
X0000046901D03*
X0000043901D03*
X0000040901D03*
X0000061730Y0000005470D03*
Y-0000005270D03*
X0000059035Y0000026450D03*
X0000056035D03*
X0000053035D03*
X0000050035D03*
X0000047035D03*
X0000044035D03*
X0000041035D03*
X0000061930Y0000024230D03*
X0000044829Y0000051969D03*
X0000041977Y0000051037D03*
X0000043300Y0000032750D03*
X0000046300D03*
X0000049300D03*
X0000052300D03*
X0000055300D03*
X0000058300D03*
X0000061930Y0000034970D03*
X0000054530Y0000051930D03*
X0000059900Y0000049700D03*
X0000042172Y0000057745D03*
X0000045057Y0000058567D03*
X0000047980Y0000059243D03*
X0000050933Y0000059770D03*
X0000054530Y0000062670D03*
X0000059900Y0000064900D03*
X0000065270Y-0000062570D03*
X0000067500Y-0000057200D03*
X0000067300Y-0000037000D03*
X0000072670Y-0000034770D03*
X0000065270Y-0000051830D03*
X0000074900Y-0000029400D03*
X0000072670Y-0000024030D03*
X0000067300Y-0000021800D03*
X0000067100Y-0000007500D03*
X0000072470Y-0000005270D03*
X0000074700Y0000000100D03*
X0000072470Y0000005470D03*
X0000067100Y0000007700D03*
X0000067300Y0000022000D03*
X0000072670Y0000024230D03*
X0000074900Y0000029600D03*
X0000072670Y0000034970D03*
X0000067300Y0000037200D03*
X0000065270Y0000051930D03*
X0000067500Y0000057300D03*
X0000065270Y0000062670D03*
G54D13*
X-0000069000Y-0000047200D03*
X-0000076300Y-0000019400D03*
X-0000076100Y0000010100D03*
X-0000076283Y0000039600D03*
X-0000069000Y0000067400D03*
X-0000049000Y-0000067200D03*
X-0000056300Y-0000039400D03*
X-0000056100Y-0000009900D03*
X-0000056283Y0000019600D03*
X-0000049000Y0000047400D03*
X0000049900Y-0000067200D03*
X0000057300Y-0000039400D03*
X0000057100Y-0000009900D03*
X0000057300Y0000019600D03*
X0000049900Y0000047300D03*
X0000069900Y-0000047200D03*
X0000077300Y-0000019400D03*
X0000077100Y0000010100D03*
X0000077300Y0000039600D03*
X0000069900Y0000067300D03*
G54D14*
X-0000066300Y-0000029400D03*
X-0000066100Y0000000100D03*
X-0000066283Y0000029600D03*
X-0000059000Y-0000057200D03*
Y0000057400D03*
X0000059900Y-0000057200D03*
Y0000057300D03*
X0000067300Y-0000029400D03*
X0000067100Y0000000100D03*
X0000067300Y0000029600D03*
G54D15*
X-0000025481Y-0000014900D03*
Y0000015100D03*
X0000000500Y-0000029900D03*
Y0000030100D03*
X0000026481Y-0000014900D03*
Y0000015100D03*
M02*
