G04 ================== begin FILE IDENTIFICATION RECORD ==================*
G04 Layout Name:  filterboard.brd*
G04 Film Name:    BOTTOM*
G04 File Format:  Gerber RS274X*
G04 File Origin:  Cadence Allegro 16.6-S006*
G04 Origin Date:  Wed Aug 12 13:24:28 2015*
G04 *
G04 Layer:  ETCH/BOTTOM*
G04 Layer:  PIN/BOTTOM*
G04 Layer:  VIA CLASS/BOTTOM*
G04 *
G04 Offset:    (0.00 0.00)*
G04 Mirror:    No*
G04 Mode:      Positive*
G04 Rotation:  0*
G04 FullContactRelief:  No*
G04 UndefLineWidth:     5.00*
G04 ================== end FILE IDENTIFICATION RECORD ====================*
%FSAX55Y55*MOIN*%
%IR0*IPPOS*OFA0.00000B0.00000*MIA0B0*SFA1.00000B1.00000*%
%ADD14C,.02*%
%ADD12C,.03*%
%ADD10C,.05*%
%ADD11C,.035*%
%ADD13C,.09*%
%ADD16C,.1*%
%ADD15C,.001*%
%ADD17C,.019*%
%ADD18C,.06004*%
%ADD19C,.09504*%
%ADD20C,.10004*%
%ADD21R,.23804X.23804*%
G75*
%LPD*%
G75*
G36*
G01X0000132999Y0D02*
G02I-0000132999J0D01*
G37*
%LPC*%
G75*
G36*
G01X0000070640Y0000034933D02*
X0000051141Y0000021280D01*
X0000037488Y0000040779D01*
X0000056987Y0000054432D01*
X0000070640Y0000034933D01*
G37*
G36*
G01X0000056987Y-0000054432D02*
X0000037488Y-0000040779D01*
X0000051141Y-0000021280D01*
X0000070640Y-0000034933D01*
X0000056987Y-0000054432D01*
G37*
G36*
G01X-0000056987Y0000054432D02*
X-0000037488Y0000040779D01*
X-0000051141Y0000021280D01*
X-0000070640Y0000034933D01*
X-0000056987Y0000054432D01*
G37*
G36*
G01X-0000070640Y-0000034933D02*
X-0000051141Y-0000021280D01*
X-0000037488Y-0000040779D01*
X-0000056987Y-0000054432D01*
X-0000070640Y-0000034933D01*
G37*
G54D18*
X-0000107310Y-0000062932D03*
X-0000124000Y0000010000D03*
X-0000079456Y-0000067844D03*
X-0000104000Y-0000010000D03*
X-0000090927Y0000051461D03*
X-0000095839Y0000079315D03*
X-0000010000Y-0000124000D03*
Y0000104000D03*
X0000010000Y-0000104000D03*
Y0000124000D03*
X0000079456Y0000067844D03*
X0000095839Y-0000079315D03*
X0000090927Y-0000051461D03*
X0000104000Y0000010000D03*
X0000107310Y0000062932D03*
X0000124000Y-0000010000D03*
G54D19*
X-0000114000Y0D03*
X-0000093383Y-0000065388D03*
Y0000065388D03*
X0Y-0000114000D03*
Y0000114000D03*
X0000093383Y-0000065388D03*
X0000114000Y0D03*
X0000093383Y0000065388D03*
G54D20*
X-0000124000Y-0000010000D03*
X-0000104000Y0000010000D03*
X-0000107310Y0000062932D03*
X-0000095839Y-0000079315D03*
X-0000090927Y-0000051461D03*
X-0000079456Y0000067844D03*
X-0000010000Y-0000104000D03*
Y0000124000D03*
X0000010000Y-0000124000D03*
Y0000104000D03*
X0000079456Y-0000067844D03*
X0000090927Y0000051461D03*
X0000107310Y-0000062932D03*
X0000104000Y-0000010000D03*
X0000095839Y0000079315D03*
X0000124000Y0000010000D03*
G54D21*
X-0000063396Y0D03*
X0Y-0000063396D03*
Y0000063396D03*
X0000063396Y0D03*
%LPD*%
G75*
G54D10*
X-0000107310Y-0000062932D03*
X-0000124000Y0000010000D03*
X-0000079456Y-0000067844D03*
X-0000104000Y-0000010000D03*
X-0000090927Y0000051461D03*
X-0000095839Y0000079315D03*
X-0000010000Y-0000124000D03*
Y0000104000D03*
X0000010000Y-0000104000D03*
Y0000124000D03*
X0000079456Y0000067844D03*
X0000095839Y-0000079315D03*
X0000090927Y-0000051461D03*
X0000104000Y0000010000D03*
X0000107310Y0000062932D03*
X0000124000Y-0000010000D03*
G54D11*
X-0000117999Y-0000047999D03*
X-0000107999D03*
X-0000117999Y-0000037999D03*
X-0000107999D03*
X-0000117999Y-0000027999D03*
X-0000107999D03*
X-0000127999Y-0000017999D03*
X-0000117999D03*
X-0000107999D03*
X-0000117999Y0000022001D03*
X-0000107999D03*
X-0000117999Y0000032001D03*
X-0000107999D03*
X-0000117999Y0000042001D03*
X-0000107999D03*
X-0000117999Y0000052001D03*
X-0000107999D03*
X-0000077999Y-0000097999D03*
X-0000087999Y-0000087999D03*
X-0000077999D03*
Y-0000077999D03*
X-0000097999Y-0000037999D03*
X-0000087999D03*
X-0000077999D03*
X-0000097999Y-0000027999D03*
X-0000087999D03*
X-0000077999D03*
X-0000097999Y-0000017999D03*
X-0000087999D03*
X-0000077999D03*
X-0000097999Y-0000007999D03*
X-0000087999D03*
Y0000012001D03*
X-0000097999Y0000022001D03*
X-0000087999D03*
X-0000077999D03*
X-0000097999Y0000032001D03*
X-0000087999D03*
X-0000077999D03*
X-0000097999Y0000042001D03*
X-0000087999D03*
X-0000077999D03*
X-0000097999Y0000052001D03*
X-0000087999Y0000082001D03*
X-0000077999D03*
X-0000087999Y0000092001D03*
X-0000077999D03*
X-0000067999Y-0000107999D03*
X-0000057999D03*
X-0000067999Y-0000097999D03*
X-0000057999D03*
X-0000067999Y-0000087999D03*
X-0000057999D03*
X-0000067999Y-0000077999D03*
X-0000057999D03*
X-0000067999Y-0000067999D03*
X-0000057999D03*
X-0000067999Y-0000057999D03*
X-0000058000Y-0000018000D03*
X-0000067999Y-0000017999D03*
Y0000022001D03*
Y0000062001D03*
X-0000057999D03*
X-0000067999Y0000072001D03*
X-0000057999D03*
X-0000067999Y0000082001D03*
X-0000057999D03*
X-0000067999Y0000092001D03*
X-0000057999D03*
X-0000067999Y0000102001D03*
X-0000057999D03*
Y0000112001D03*
X-0000047999Y-0000117999D03*
X-0000037999D03*
X-0000027999D03*
X-0000047999Y-0000107999D03*
X-0000037999D03*
X-0000027999D03*
X-0000047999Y-0000097999D03*
X-0000037999D03*
X-0000027999D03*
X-0000047999Y-0000087999D03*
X-0000037999D03*
X-0000027999D03*
X-0000047999Y-0000077999D03*
X-0000037999D03*
X-0000027999D03*
X-0000047999Y-0000067999D03*
X-0000037999D03*
X-0000027999D03*
X-0000047999Y-0000057999D03*
X-0000037999D03*
X-0000027999Y-0000047999D03*
Y-0000037999D03*
Y-0000027999D03*
X-0000040600Y-0000015400D03*
X-0000038000Y-0000008000D03*
Y0000008000D03*
X-0000040600Y0000015700D03*
X-0000027999Y0000032001D03*
Y0000042001D03*
X-0000037999Y0000052001D03*
X-0000047999Y0000062001D03*
X-0000037999D03*
X-0000047999Y0000072001D03*
X-0000037999D03*
X-0000027999D03*
X-0000047999Y0000082001D03*
X-0000037999D03*
X-0000027999D03*
X-0000047999Y0000092001D03*
X-0000037999D03*
X-0000027999D03*
X-0000047999Y0000102001D03*
X-0000037999D03*
X-0000027999D03*
X-0000047999Y0000112001D03*
X-0000037999D03*
X-0000027999D03*
X-0000037999Y0000122001D03*
X-0000027999D03*
X-0000017999Y-0000127999D03*
X0000002001D03*
X-0000017999Y-0000117999D03*
Y-0000107999D03*
Y-0000097999D03*
Y-0000087999D03*
X-0000007999D03*
X-0000017999Y-0000077999D03*
Y-0000067999D03*
Y-0000057999D03*
Y-0000047999D03*
Y-0000037999D03*
X-0000007999D03*
X-0000017999Y0000042001D03*
X-0000007999D03*
X-0000017999Y0000052001D03*
Y0000062001D03*
Y0000072001D03*
Y0000082001D03*
Y0000092001D03*
X-0000007999D03*
X-0000017999Y0000102001D03*
Y0000112001D03*
Y0000122001D03*
X0000022001Y-0000117999D03*
X0000032001D03*
X0000022001Y-0000107999D03*
X0000032001D03*
X0000012001Y-0000097999D03*
X0000022001D03*
X0000032001D03*
X0000012001Y-0000087999D03*
X0000022001D03*
X0000032001D03*
X0000022001Y-0000077999D03*
X0000032001D03*
X0000022001Y-0000067999D03*
X0000032001D03*
X0000022001Y-0000057999D03*
X0000012001Y-0000047999D03*
X0000022001D03*
X0000032001D03*
X0000012001Y-0000037999D03*
X0000022001D03*
Y0000032001D03*
X0000032001D03*
X0000012001Y0000042001D03*
X0000022001D03*
Y0000052001D03*
Y0000062001D03*
Y0000072001D03*
X0000032001D03*
X0000012001Y0000082001D03*
X0000022001D03*
X0000032001D03*
X0000012001Y0000092001D03*
X0000022001D03*
X0000032001D03*
X0000022001Y0000102001D03*
X0000032001D03*
X0000022001Y0000112001D03*
X0000032001D03*
X0000022001Y0000122001D03*
X0000032001D03*
X0000042001Y-0000117999D03*
X0000052001D03*
X0000042001Y-0000107999D03*
X0000052001D03*
X0000042001Y-0000097999D03*
X0000052001D03*
X0000042001Y-0000087999D03*
X0000052001D03*
X0000042001Y-0000077999D03*
X0000052001D03*
X0000042001Y-0000067999D03*
X0000052001D03*
X0000042001Y-0000057999D03*
X0000042000Y-0000008000D03*
Y-0000018000D03*
X0000038300Y0000016100D03*
X0000046600Y0000014800D03*
X0000042300Y0000008300D03*
X0000042001Y0000062001D03*
X0000052001D03*
X0000042001Y0000072001D03*
X0000052001D03*
X0000042001Y0000082001D03*
X0000052001D03*
X0000042001Y0000092001D03*
X0000052001D03*
X0000042001Y0000102001D03*
X0000052001D03*
X0000042001Y0000112001D03*
X0000052001D03*
X0000042001Y0000122001D03*
X0000062001Y-0000107999D03*
Y-0000097999D03*
X0000072001D03*
X0000082001D03*
X0000062001Y-0000087999D03*
X0000072001D03*
X0000082001D03*
X0000062001Y-0000077999D03*
X0000072001D03*
X0000082001D03*
X0000062001Y-0000067999D03*
X0000072001Y-0000057999D03*
X0000082001Y-0000047999D03*
Y-0000037999D03*
X0000072001Y-0000027999D03*
X0000082001D03*
X0000062001Y-0000017999D03*
X0000072001D03*
X0000082001D03*
Y0000012001D03*
X0000072001Y0000022001D03*
X0000082001D03*
Y0000032001D03*
Y0000042001D03*
X0000062001Y0000062001D03*
X0000072001D03*
X0000062001Y0000072001D03*
X0000072001D03*
X0000062001Y0000082001D03*
X0000072001D03*
X0000082001D03*
X0000062001Y0000092001D03*
X0000072001D03*
X0000082001D03*
X0000062001Y0000102001D03*
X0000072001D03*
X0000062001Y0000112001D03*
X0000092001Y-0000087999D03*
X0000102001Y-0000047999D03*
X0000112001D03*
X0000092001Y-0000037999D03*
X0000102001D03*
X0000112001D03*
X0000092001Y-0000027999D03*
X0000102001D03*
X0000112001D03*
X0000092001Y-0000017999D03*
X0000102001D03*
X0000112001D03*
X0000092001Y-0000007999D03*
Y0000012001D03*
X0000112001D03*
X0000092001Y0000022001D03*
X0000102001D03*
X0000112001D03*
X0000092001Y0000032001D03*
X0000102001D03*
X0000112001D03*
X0000092001Y0000042001D03*
X0000102001D03*
X0000112001D03*
X0000102001Y0000052001D03*
X0000112001D03*
X0000122001Y-0000037999D03*
Y-0000027999D03*
Y-0000017999D03*
Y0000022001D03*
Y0000032001D03*
Y0000042001D03*
G54D12*
X-0000114000Y0D03*
X-0000093383Y-0000065388D03*
Y0000065388D03*
X0Y-0000114000D03*
Y0000114000D03*
X0000093383Y-0000065388D03*
X0000114000Y0D03*
X0000093383Y0000065388D03*
G54D13*
X-0000124000Y-0000010000D03*
X-0000104000Y0000010000D03*
X-0000107310Y0000062932D03*
X-0000095839Y-0000079315D03*
X-0000090927Y-0000051461D03*
X-0000079456Y0000067844D03*
X-0000010000Y-0000104000D03*
Y0000124000D03*
X0000010000Y-0000124000D03*
Y0000104000D03*
X0000079456Y-0000067844D03*
X0000090927Y0000051461D03*
X0000107310Y-0000062932D03*
X0000104000Y-0000010000D03*
X0000095839Y0000079315D03*
X0000124000Y0000010000D03*
G54D14*
X-0000108630Y-0000005370D03*
X-0000121600Y0D03*
X-0000119370Y-0000005370D03*
X-0000114000Y-0000007600D03*
X-0000108630Y0000005370D03*
X-0000114000Y0000007600D03*
X-0000119370Y0000005370D03*
X-0000084943Y-0000054778D03*
X-0000078887Y-0000059937D03*
X-0000082982Y-0000062805D03*
X-0000089024Y-0000071613D03*
X-0000094702Y-0000072867D03*
X-0000099609Y-0000069747D03*
X-0000100862Y-0000064069D03*
X-0000097743Y-0000059162D03*
X-0000092065Y-0000057909D03*
X-0000085904Y-0000066706D03*
X-0000080848Y-0000051911D03*
X-0000084000Y-0000003850D03*
X-0000089000D03*
X-0000094000D03*
X-0000099000D03*
X-0000104000D03*
X-0000101000Y0000003850D03*
X-0000096000D03*
X-0000091000D03*
X-0000086000D03*
X-0000083304Y0000053630D03*
X-0000079208Y0000050762D03*
X-0000080526Y0000061085D03*
X-0000087399Y0000056498D03*
X-0000097743Y0000059162D03*
X-0000100862Y0000064069D03*
X-0000099609Y0000069747D03*
X-0000094702Y0000072867D03*
X-0000089024Y0000071613D03*
X-0000085904Y0000066706D03*
X-0000092065Y0000057909D03*
X-0000070695Y-0000054202D03*
X-0000074791Y-0000057069D03*
X-0000076752Y-0000049043D03*
X-0000072656Y-0000046175D03*
X-0000066599Y-0000051334D03*
X-0000075112Y0000047895D03*
X-0000068239Y0000052482D03*
X-0000072335Y0000055350D03*
X-0000076431Y0000058218D03*
X-0000033833Y-0000028390D03*
X-0000024000Y-0000003850D03*
X-0000029000D03*
X-0000034000D03*
X-0000039000D03*
X-0000044000D03*
X-0000039890Y-0000023232D03*
X-0000035794Y-0000020364D03*
X-0000031699Y-0000017496D03*
X-0000027603Y-0000014628D03*
X-0000023507Y-0000011760D03*
X-0000025642Y-0000022655D03*
X-0000029738Y-0000025523D03*
X-0000041000Y0000003850D03*
X-0000036000D03*
X-0000031000D03*
X-0000026000D03*
X-0000038250Y0000022083D03*
X-0000034155Y0000019216D03*
X-0000030059Y0000016348D03*
X-0000025963Y0000013480D03*
X-0000023186Y0000020935D03*
X-0000027282Y0000023803D03*
X-0000031377Y0000026671D03*
X-0000035473Y0000029539D03*
X-0000007600Y-0000114000D03*
X-0000005370Y-0000119370D03*
X0Y-0000121600D03*
X0000003850Y-0000084000D03*
Y-0000089000D03*
Y-0000094000D03*
Y-0000099000D03*
Y-0000104000D03*
X-0000003850Y-0000101000D03*
Y-0000096000D03*
Y-0000091000D03*
Y-0000086000D03*
X-0000005370Y-0000108630D03*
X0000003850Y-0000029000D03*
Y-0000034000D03*
Y-0000039000D03*
X-0000003850Y-0000041000D03*
Y-0000036000D03*
Y-0000031000D03*
X-0000019000Y-0000003850D03*
X-0000019411Y-0000008892D03*
X-0000015316Y-0000006024D03*
X-0000017450Y-0000016919D03*
X-0000021546Y-0000019787D03*
X-0000011200Y-0000015800D03*
X0000003800D03*
X0000003850Y-0000019000D03*
Y-0000024000D03*
X-0000003850Y-0000016000D03*
Y-0000021000D03*
Y-0000026000D03*
X-0000021000Y0000003850D03*
X-0000016000D03*
X-0000014994Y0000015199D03*
X-0000019090Y0000018067D03*
X-0000017772Y0000007744D03*
X-0000021867Y0000010612D03*
X-0000003937Y0000015800D03*
X-0000008937D03*
X0000003850Y0000026000D03*
Y0000021000D03*
Y0000016000D03*
X-0000003850Y0000024000D03*
Y0000019000D03*
X0000003850Y0000041000D03*
Y0000036000D03*
Y0000031000D03*
X-0000003850Y0000034000D03*
Y0000029000D03*
Y0000044000D03*
Y0000039000D03*
X0000003850Y0000101000D03*
Y0000096000D03*
Y0000091000D03*
Y0000086000D03*
X-0000003850Y0000089000D03*
Y0000104000D03*
Y0000099000D03*
Y0000094000D03*
Y0000084000D03*
X-0000005370Y0000108630D03*
X0Y0000121600D03*
X-0000005370Y0000119370D03*
X-0000007600Y0000114000D03*
X0000005370Y-0000119370D03*
X0000007600Y-0000114000D03*
X0000005370Y-0000108630D03*
X0000031377Y-0000026671D03*
X0000031000Y-0000003850D03*
X0000026000D03*
X0000021000D03*
X0000016000D03*
X0000030059Y-0000016348D03*
X0000019090Y-0000018067D03*
X0000023186Y-0000020935D03*
X0000027282Y-0000023803D03*
X0000017772Y-0000007744D03*
X0000021867Y-0000010612D03*
X0000025963Y-0000013480D03*
X0000014994Y-0000015199D03*
X0000008800Y-0000015800D03*
X0000019000Y0000003850D03*
X0000024000D03*
X0000029000D03*
X0000017450Y0000016919D03*
X0000021546Y0000019787D03*
X0000025642Y0000022655D03*
X0000029738Y0000025523D03*
X0000031699Y0000017496D03*
X0000027603Y0000014628D03*
X0000023507Y0000011760D03*
X0000019411Y0000008892D03*
X0000016000Y0000005600D03*
X0000011063Y0000015800D03*
X0000005370Y0000108630D03*
X0000007600Y0000114000D03*
X0000005370Y0000119370D03*
X0000035473Y-0000029539D03*
X0000041000Y-0000003850D03*
X0000036000D03*
X0000034155Y-0000019216D03*
X0000038250Y-0000022083D03*
X0000034000Y0000003850D03*
X0000039000D03*
X0000044000D03*
X0000039890Y0000023232D03*
X0000035794Y0000020364D03*
X0000033833Y0000028390D03*
X0000076431Y-0000058218D03*
X0000072335Y-0000055350D03*
X0000087399Y-0000056498D03*
X0000080526Y-0000061085D03*
X0000085904Y-0000066706D03*
X0000071016Y-0000045027D03*
X0000079208Y-0000050762D03*
X0000075112Y-0000047895D03*
X0000068239Y-0000052482D03*
X0000083304Y-0000053630D03*
X0000086000Y-0000003850D03*
X0000081000D03*
X0000084000Y0000003850D03*
X0000070695Y0000054202D03*
X0000084943Y0000054778D03*
X0000080848Y0000051911D03*
X0000076752Y0000049043D03*
X0000072656Y0000046175D03*
X0000074791Y0000057069D03*
X0000078887Y0000059937D03*
X0000082982Y0000062805D03*
X0000085904Y0000066706D03*
X0000097743Y-0000059162D03*
X0000100862Y-0000064069D03*
X0000099609Y-0000069747D03*
X0000094702Y-0000072867D03*
X0000089024Y-0000071613D03*
X0000092065Y-0000057909D03*
X0000101000Y-0000003850D03*
X0000096000D03*
X0000091000D03*
X0000108630Y-0000005370D03*
X0000114000Y-0000007600D03*
X0000089000Y0000003850D03*
X0000094000D03*
X0000099000D03*
X0000104000D03*
X0000108630Y0000005370D03*
X0000114000Y0000007600D03*
X0000089024Y0000071613D03*
X0000094702Y0000072867D03*
X0000099609Y0000069747D03*
X0000100862Y0000064069D03*
X0000097743Y0000059162D03*
X0000092065Y0000057909D03*
X0000119370Y-0000005370D03*
X0000121600Y0D03*
X0000119370Y0000005370D03*
G54D15*
X-0000054064Y-0000037856D03*
X-0000063396Y0D03*
X-0000054064Y0000037856D03*
X0Y-0000063396D03*
Y0000063396D03*
X0000054064Y-0000037856D03*
X0000063396Y0D03*
X0000054064Y0000037856D03*
G54D16*
X-0000030475Y-0000058543D03*
Y0000058543D03*
X-0000015000Y-0000025981D03*
Y0000025981D03*
X0000030475Y-0000058543D03*
X0000015000Y-0000025981D03*
Y0000025981D03*
X0000030475Y0000058543D03*
G54D17*
G01X-0000124000Y-0000015202D02*
Y-0000010000D01*
G01D02*
Y-0000004798D01*
G01X-0000129202Y-0000010000D02*
X-0000124000D01*
G01D02*
X-0000118798D01*
G01X-0000109202Y0000010000D02*
X-0000104000D01*
G01X-0000107310Y0000057730D02*
Y0000062932D01*
G01D02*
Y0000068134D01*
G01X-0000112512Y0000062932D02*
X-0000107310D01*
G01D02*
X-0000102108D01*
G01X-0000095839Y-0000084517D02*
Y-0000079315D01*
G01X-0000090927Y-0000056663D02*
Y-0000051461D01*
G01X-0000095839Y-0000079315D02*
Y-0000074113D01*
G01X-0000101041Y-0000079315D02*
X-0000095839D01*
G01D02*
X-0000090637D01*
G01X-0000090927Y-0000051461D02*
Y-0000046259D01*
G01X-0000096129Y-0000051461D02*
X-0000090927D01*
G01D02*
X-0000085725D01*
G01X-0000104000Y0000004798D02*
Y0000010000D01*
G01D02*
Y0000015202D01*
G01Y0000010000D02*
X-0000098798D01*
G01X-0000079456Y0000062642D02*
Y0000067844D01*
G01D02*
Y0000073046D01*
G01X-0000084658Y0000067844D02*
X-0000079456D01*
G01D02*
X-0000074254D01*
G01X-0000010000Y-0000109202D02*
Y-0000104000D01*
G01D02*
Y-0000098798D01*
G01X-0000015202Y-0000104000D02*
X-0000010000D01*
G01D02*
X-0000004798D01*
G01X-0000010000Y0000118798D02*
Y0000124000D01*
G01D02*
Y0000129202D01*
G01X-0000015202Y0000124000D02*
X-0000010000D01*
G01D02*
X-0000004798D01*
G01X0000010000Y-0000129202D02*
Y-0000124000D01*
G01D02*
Y-0000118798D01*
G01X0000004798Y-0000124000D02*
X0000010000D01*
G01D02*
X0000015202D01*
G01X0000010000Y0000098798D02*
Y0000104000D01*
G01D02*
Y0000109202D01*
G01X0000004798Y0000104000D02*
X0000010000D01*
G01D02*
X0000015202D01*
G01X0000079456Y-0000073046D02*
Y-0000067844D01*
G01D02*
Y-0000062642D01*
G01X0000074254Y-0000067844D02*
X0000079456D01*
G01D02*
X0000084658D01*
G01X0000085725Y0000051461D02*
X0000090927D01*
G01X0000107310Y-0000068134D02*
Y-0000062932D01*
G01D02*
Y-0000057730D01*
G01X0000102108Y-0000062932D02*
X0000107310D01*
G01D02*
X0000112512D01*
G01X0000104000Y-0000015202D02*
Y-0000010000D01*
G01D02*
Y-0000004798D01*
G01X0000098798Y-0000010000D02*
X0000104000D01*
G01D02*
X0000109202D01*
G01X0000090927Y0000046259D02*
Y0000051461D01*
G01D02*
Y0000056663D01*
G01Y0000051461D02*
X0000096129D01*
G01X0000095839Y0000074113D02*
Y0000079315D01*
G01D02*
Y0000084517D01*
G01X0000090637Y0000079315D02*
X0000095839D01*
G01D02*
X0000101041D01*
G01X0000124000Y0000004798D02*
Y0000010000D01*
G01D02*
Y0000015202D01*
G01X0000118798Y0000010000D02*
X0000124000D01*
G01D02*
X0000129202D01*
M02*
