M48
INCH
T01C.01
T02C.015
T03C.018
T04C.025
T05C.064
T06C.07
;LEADER: 12 
;HEADER: 
;CODE  : ASCII 
;FILE  : FilterBoardDRL-1-4.drl for board #Taaaacj08509.tmp ... layers TOP and BOTTOM
;T01 Holesize 1. = 10.000000 Tolerance = +3.000000/-3.000000 PLATED MILS Quantity = 228
;T03 Holesize 2. = 18.000000 Tolerance = +3.000000/-3.000000 PLATED MILS Quantity = 285
;T04 Holesize 3. = 25.000000 Tolerance = +3.000000/-3.000000 PLATED MILS Quantity = 16
;T05 Holesize 4. = 64.000000 Tolerance = +3.000000/-3.000000 PLATED MILS Quantity = 16
;T06 Holesize 5. = 70.000000 Tolerance = +3.000000/-3.000000 PLATED MILS Quantity = 8
%
G90
T01
X-0121600Y0000000
X-0094702Y0072867
X-0099609Y0069747
X-0100862Y0064069
X-0097743Y0059162
X-0092065Y0057909
X-0114000Y0007600
X-0108630Y0005370
X-0119370Y0005370
X-0096000Y0003850
X-0091000Y0003850
X-0101000Y0003850
X-0094000Y-0003850
R02X-0005000
X-0119370Y-0005370
X-0108630Y-0005370
X-0114000Y-0007600
X-0092065Y-0057909
X-0097743Y-0059162
X-0100862Y-0064069
X-0099609Y-0069747
X-0094702Y-0072867
X-0089024Y-0071613
X-0085904Y-0066706
X-0082982Y-0062805
X-0078887Y-0059937
X-0074791Y-0057069
X-0084943Y-0054778
X-0070695Y-0054202
X-0080848Y-0051911
X-0066599Y-0051334
X-0076752Y-0049043
X-0072656Y-0046175
X-0089000Y-0003850
X-0084000Y-0003850
X-0086000Y0003850
X-0075112Y0047895
X-0079208Y0050762
X-0068239Y0052482
X-0083304Y0053630
X-0072335Y0055350
X-0087399Y0056498
X-0076431Y0058218
X-0080526Y0061085
X-0085904Y0066706
X-0089024Y0071613
X-0035473Y0029539
X-0031377Y0026671
X-0038250Y0022083
X-0034155Y0019216
X-0030059Y0016348
X-0041000Y0003850
X-0036000Y0003850
X-0031000Y0003850
X-0034000Y-0003850
R02X-0005000
X-0031699Y-0017496
X-0035794Y-0020364
X-0039890Y-0023232
X-0033833Y-0028390
X-0005370Y-0119370
X-0007600Y-0114000
X-0005370Y-0108630
X-0003850Y-0101000
X-0003850Y-0096000
R02Y0005000
X-0003850Y-0041000
R03Y0005000
X-0029738Y-0025523
X-0025642Y-0022655
X-0003850Y-0021000
X-0021546Y-0019787
X-0017450Y-0016919
X-0003850Y-0016000
X-0011200Y-0015800
X-0027603Y-0014628
X-0023507Y-0011760
X-0019411Y-0008892
X-0015316Y-0006024
X-0029000Y-0003850
X-0024000Y-0003850
X-0019000Y-0003850
X-0016000Y0003850
R02X-0005000
X-0017772Y0007744
X-0021867Y0010612
X-0025963Y0013480
X-0014994Y0015199
X-0003937Y0015800
X-0008937Y0015800
X-0019090Y0018067
X-0003850Y0019000
X-0023186Y0020935
X-0027282Y0023803
X-0003850Y0024000
R04Y0005000
X-0003850Y0084000
R04Y0005000
X-0005370Y0108630
X-0007600Y0114000
X-0005370Y0119370
X0000000Y0121600
X0005370Y0119370
X0007600Y0114000
X0005370Y0108630
X0003850Y0101000
X0003850Y0096000
R02Y-0005000
X0003850Y0041000
R03Y-0005000
X0029738Y0025523
X0025642Y0022655
X0003850Y0021000
X0021546Y0019787
X0017450Y0016919
X0003850Y0016000
X0011063Y0015800
X0027603Y0014628
X0023507Y0011760
X0019411Y0008892
X0016000Y0005600
X0029000Y0003850
X0024000Y0003850
X0019000Y0003850
X0016000Y-0003850
R02X0005000
X0017772Y-0007744
X0021867Y-0010612
X0025963Y-0013480
X0014994Y-0015199
X0003800Y-0015800
X0008800Y-0015800
X0019090Y-0018067
X0003850Y-0019000
X0023186Y-0020935
X0027282Y-0023803
X0003850Y-0024000
R03Y-0005000
X0003850Y-0084000
R04Y-0005000
X0005370Y-0108630
X0007600Y-0114000
X0005370Y-0119370
X0000000Y-0121600
X0035473Y-0029539
X0031377Y-0026671
X0038250Y-0022083
X0034155Y-0019216
X0030059Y-0016348
X0041000Y-0003850
X0036000Y-0003850
X0031000Y-0003850
X0034000Y0003850
R02X0005000
X0031699Y0017496
X0035794Y0020364
X0039890Y0023232
X0033833Y0028390
X0089024Y0071613
X0085904Y0066706
X0082982Y0062805
X0078887Y0059937
X0074791Y0057069
X0084943Y0054778
X0070695Y0054202
X0080848Y0051911
X0076752Y0049043
X0072656Y0046175
X0089000Y0003850
X0084000Y0003850
X0081000Y-0003850
X0086000Y-0003850
X0071016Y-0045027
X0075112Y-0047895
X0079208Y-0050762
X0068239Y-0052482
X0083304Y-0053630
X0072335Y-0055350
X0087399Y-0056498
X0076431Y-0058218
X0080526Y-0061085
X0085904Y-0066706
X0089024Y-0071613
X0094702Y-0072867
X0099609Y-0069747
X0100862Y-0064069
X0097743Y-0059162
X0092065Y-0057909
X0114000Y-0007600
X0108630Y-0005370
X0119370Y-0005370
X0096000Y-0003850
X0091000Y-0003850
X0101000Y-0003850
X0094000Y0003850
R02X0005000
X0119370Y0005370
X0108630Y0005370
X0114000Y0007600
X0092065Y0057909
X0097743Y0059162
X0100862Y0064069
X0099609Y0069747
X0094702Y0072867
X0121600Y0000000
T03
X0002001Y-0127999
X-0017999Y-0127999
X-0077999Y-0097999
X-0067999Y-0097999
X-0067999Y-0107999
X-0057999Y-0097999
X-0057999Y-0107999
X-0047999Y-0097999
X-0047999Y-0107999
X-0047999Y-0117999
X-0037999Y-0097999
R02Y-0010000
X-0027999Y-0097999
R02Y-0010000
X-0017999Y-0097999
R02Y-0010000
X0012001Y-0097999
X0022001Y-0117999
X0022001Y-0107999
X0022001Y-0097999
X0032001Y-0117999
R02Y0010000
X0042001Y-0117999
R02Y0010000
X0052001Y-0117999
R02Y0010000
X0062001Y-0107999
X0062001Y-0097999
X0072001Y-0097999
X0082001Y-0097999
X0092001Y-0087999
X0082001Y-0077999
X0082001Y-0087999
X0072001Y-0077999
X0072001Y-0087999
X0062001Y-0067999
X0062001Y-0077999
X0062001Y-0087999
X0052001Y-0067999
R02Y-0010000
X0042001Y-0067999
R02Y-0010000
X0032001Y-0067999
R02Y-0010000
X0022001Y-0067999
R02Y-0010000
X0012001Y-0087999
X-0007999Y-0087999
X-0017999Y-0087999
R02Y0010000
X-0027999Y-0087999
R02Y0010000
X-0037999Y-0087999
R02Y0010000
X-0047999Y-0087999
R02Y0010000
X-0057999Y-0087999
R02Y0010000
X-0067999Y-0087999
R02Y0010000
X-0077999Y-0087999
X-0077999Y-0077999
X-0087999Y-0087999
X-0117999Y-0047999
X-0117999Y-0037999
X-0107999Y-0047999
X-0107999Y-0037999
R03X0010000
X-0067999Y-0057999
X-0047999Y-0057999
X-0037999Y-0057999
X-0027999Y-0037999
X-0027999Y-0047999
X-0017999Y-0037999
X-0017999Y-0047999
X-0017999Y-0057999
X-0007999Y-0037999
X0012001Y-0047999
X0012001Y-0037999
X0022001Y-0057999
X0022001Y-0047999
X0022001Y-0037999
X0032001Y-0047999
X0042001Y-0057999
X0072001Y-0057999
X0082001Y-0047999
X0082001Y-0037999
R02X0010000
X0102001Y-0047999
X0112001Y-0037999
X0112001Y-0047999
X0122001Y-0037999
X0122001Y-0027999
X0122001Y-0017999
X0112001Y-0027999
X0112001Y-0017999
X0102001Y-0027999
X0102001Y-0017999
X0092001Y-0007999
X0092001Y-0017999
X0092001Y-0027999
X0082001Y-0017999
X0082001Y-0027999
X0072001Y-0017999
X0072001Y-0027999
X0062001Y-0017999
X0042000Y-0008000
X0042000Y-0018000
X-0027999Y-0027999
X-0038000Y-0008000
X-0040600Y-0015400
X-0058000Y-0018000
X-0067999Y-0017999
X-0077999Y-0027999
X-0077999Y-0017999
X-0087999Y-0027999
X-0087999Y-0017999
X-0087999Y-0007999
X-0097999Y-0027999
X-0097999Y-0017999
X-0097999Y-0007999
X-0107999Y-0017999
X-0107999Y-0027999
X-0117999Y-0017999
X-0117999Y-0027999
X-0127999Y-0017999
X-0117999Y0022001
R03X0010000
X-0087999Y0012001
X-0077999Y0022001
X-0067999Y0022001
X-0040600Y0015700
X-0038000Y0008000
X0038300Y0016100
X0042300Y0008300
X0046600Y0014800
X0072001Y0022001
X0082001Y0012001
X0082001Y0022001
X0092001Y0012001
X0092001Y0022001
R02X0010000
X0112001Y0012001
X0122001Y0022001
X0122001Y0032001
X0122001Y0042001
X0112001Y0032001
R02Y0010000
X0102001Y0032001
R02Y0010000
X0092001Y0042001
X0092001Y0032001
X0082001Y0042001
X0082001Y0032001
X0032001Y0032001
X0022001Y0052001
X0022001Y0042001
X0022001Y0032001
X0012001Y0042001
X-0007999Y0042001
X-0017999Y0042001
X-0017999Y0052001
X-0027999Y0032001
X-0027999Y0042001
X-0037999Y0052001
X-0077999Y0032001
X-0077999Y0042001
X-0087999Y0032001
X-0087999Y0042001
X-0097999Y0032001
X-0097999Y0042001
X-0097999Y0052001
X-0107999Y0052001
R02Y-0010000
X-0117999Y0052001
R02Y-0010000
X-0087999Y0082001
R02X0010000
X-0067999Y0072001
X-0067999Y0062001
X-0057999Y0082001
R02Y-0010000
X-0047999Y0082001
R02Y-0010000
X-0037999Y0082001
R02Y-0010000
X-0027999Y0082001
X-0027999Y0072001
X-0017999Y0082001
R02Y-0010000
X0012001Y0082001
X0022001Y0062001
X0022001Y0072001
X0022001Y0082001
X0032001Y0072001
X0032001Y0082001
X0042001Y0062001
R02Y0010000
X0052001Y0062001
R02Y0010000
X0062001Y0062001
R02Y0010000
X0072001Y0062001
R02Y0010000
X0082001Y0082001
X0082001Y0092001
X0072001Y0102001
X0072001Y0092001
X0062001Y0112001
R02Y-0010000
X0052001Y0112001
R02Y-0010000
X0042001Y0112001
R02Y-0010000
X0032001Y0112001
R02Y-0010000
X0022001Y0112001
R02Y-0010000
X0012001Y0092001
X-0007999Y0092001
X-0017999Y0092001
R02Y0010000
X-0027999Y0092001
R02Y0010000
X-0037999Y0092001
R02Y0010000
X-0047999Y0092001
R02Y0010000
X-0057999Y0092001
R02Y0010000
X-0067999Y0092001
X-0067999Y0102001
X-0077999Y0092001
X-0087999Y0092001
X-0037999Y0122001
X-0027999Y0122001
X-0017999Y0122001
X0022001Y0122001
X0032001Y0122001
X0042001Y0122001
T04
X-0079456Y-0067844
X-0107310Y-0062932
X-0104000Y-0010000
X-0124000Y0010000
X-0090927Y0051461
X-0095839Y0079315
X-0010000Y0104000
X-0010000Y-0124000
X0010000Y-0104000
X0010000Y0124000
X0079456Y0067844
X0107310Y0062932
X0104000Y0010000
X0124000Y-0010000
X0090927Y-0051461
X0095839Y-0079315
T05
X-0079456Y0067844
X-0107310Y0062932
X-0104000Y0010000
X-0124000Y-0010000
X-0090927Y-0051461
X-0095839Y-0079315
X-0010000Y-0104000
X-0010000Y0124000
X0010000Y0104000
X0010000Y-0124000
X0079456Y-0067844
X0107310Y-0062932
X0104000Y-0010000
X0124000Y0010000
X0090927Y0051461
X0095839Y0079315
T06
X0030475Y-0058543
X-0030475Y-0058543
X-0015000Y-0025981
X0015000Y-0025981
X0015000Y0025981
X-0015000Y0025981
X-0030475Y0058543
X0030475Y0058543
M30
