  0
SECTION
  2
HEADER
  9
$ACADVER
  1
AC1009
  9
$INSBASE
 10
0.000000
 20
0.000000
  9
$LIMMIN
 10
-10844.890000
 20
-9025.840000
  9
$LIMMAX
 10
23155.110000
 20
12974.160000
  9
$EXTMIN
 10
-10844.890000
 20
-9025.840000
  9
$EXTMAX
 10
23155.110000
 20
12974.160000
  9
$ATTMODE
 70
0
  9
$LUNITS
 70
2
  9
$LUPREC
 70
2
  9
$THICKNESS
 40
32.562500
  0
ENDSEC
  0
SECTION
  2
TABLES
  0
TABLE
  2
LTYPE
 70
1
  0
LTYPE
  3
Solid Line
  2
CONTINUOUS
 70
0
 72
65
 73
0
 40
0.000000
  0
ENDTAB
  0
TABLE
  2
LAYER
 70
26
  0
LAYER
  2
COND
 70
0
 62
1
  6
CONTINUOUS
  0
LAYER
  2
COND2
 70
0
 62
2
  6
CONTINUOUS
  0
LAYER
  2
PACKAGES
 70
0
 62
3
  6
CONTINUOUS
  0
LAYER
  2
PACKAGES
 70
0
 62
4
  6
CONTINUOUS
  0
LAYER
  2
PACKAGES
 70
0
 62
5
  6
CONTINUOUS
  0
LAYER
  2
COND
 70
0
 62
6
  6
CONTINUOUS
  0
LAYER
  2
COND2
 70
0
 62
7
  6
CONTINUOUS
  0
LAYER
  2
SOLDER_MASK
 70
0
 62
8
  6
CONTINUOUS
  0
LAYER
  2
SOLDER_MASK
 70
0
 62
9
  6
CONTINUOUS
  0
LAYER
  2
SILK_SCREEN
 70
0
 62
10
  6
CONTINUOUS
  0
LAYER
  2
SILK_SCREEN2
 70
0
 62
11
  6
CONTINUOUS
  0
LAYER
  2
SOLDER_MASK
 70
0
 62
12
  6
CONTINUOUS
  0
LAYER
  2
SOLDER_MASK
 70
0
 62
13
  6
CONTINUOUS
  0
LAYER
  2
SILK_SCREEN
 70
0
 62
14
  6
CONTINUOUS
  0
LAYER
  2
SILK_SCREEN
 70
0
 62
15
  6
CONTINUOUS
  0
LAYER
  2
BOUND
 70
0
 62
16
  6
CONTINUOUS
  0
LAYER
  2
BOUND
 70
0
 62
17
  6
CONTINUOUS
  0
LAYER
  2
TEXT
 70
0
 62
18
  6
CONTINUOUS
  0
LAYER
  2
TEXT
 70
0
 62
19
  6
CONTINUOUS
  0
LAYER
  2
ASSEMBLY
 70
0
 62
20
  6
CONTINUOUS
  0
LAYER
  2
ASSEMBLY
 70
0
 62
21
  6
CONTINUOUS
  0
LAYER
  2
TEXT
 70
0
 62
22
  6
CONTINUOUS
  0
LAYER
  2
TEXT
 70
0
 62
23
  6
CONTINUOUS
  0
LAYER
  2
TEXT
 70
0
 62
24
  6
CONTINUOUS
  0
LAYER
  2
TEXT
 70
0
 62
25
  6
CONTINUOUS
  0
LAYER
  2
PACKAGES
 70
0
 62
26
  6
CONTINUOUS
  0
ENDTAB
  0
TABLE
  2
STYLE
 70
1
  0
STYLE
  2
STANDARD
 70
0
 40
0.000000
 41
1.000000
 50
0.000000
 71
0
 42
0.200000
  3
txt
  0
ENDTAB
  0
ENDSEC
  0
SECTION
  2
BLOCKS
  0
BLOCK
  8
0
  2
FIGURE_CIRCLE
 70
0
 10
0.000000
 20
0.000000
  0
CIRCLE
  8
0
 10
0.000000
 20
0.000000
 40
0.500000
  0
ENDBLK
  0
BLOCK
  8
0
  2
FIGURE_SQUARE
 70
0
 10
0.000000
 20
0.000000
  0
POLYLINE
  8
0
 66
1
 70
1
 40
0.000000
 41
0.000000
 39
0.000000
  0
VERTEX
  8
0
 10
-0.500000
 20
-0.500000
 40
0.000000
 41
0.000000
 42
0.000000
  0
VERTEX
  8
0
 10
-0.500000
 20
0.500000
 40
0.000000
 41
0.000000
 42
0.000000
  0
VERTEX
  8
0
 10
0.500000
 20
0.500000
 40
0.000000
 41
0.000000
 42
0.000000
  0
VERTEX
  8
0
 10
0.500000
 20
-0.500000
 40
0.000000
 41
0.000000
 42
0.000000
  0
SEQEND
  0
ENDBLK
  0
BLOCK
  8
0
  2
FIGURE_HEX
 70
0
 10
0.000000
 20
0.000000
  0
POLYLINE
  8
0
 66
1
 70
1
 40
0.000000
 41
0.000000
 39
0.000000
  0
VERTEX
  8
0
 10
-0.500000
 20
0.000000
 40
0.000000
 41
0.000000
 42
0.000000
  0
VERTEX
  8
0
 10
-0.250000
 20
0.500000
 40
0.000000
 41
0.000000
 42
0.000000
  0
VERTEX
  8
0
 10
0.250000
 20
0.500000
 40
0.000000
 41
0.000000
 42
0.000000
  0
VERTEX
  8
0
 10
0.500000
 20
0.000000
 40
0.000000
 41
0.000000
 42
0.000000
  0
VERTEX
  8
0
 10
0.250000
 20
-0.500000
 40
0.000000
 41
0.000000
 42
0.000000
  0
VERTEX
  8
0
 10
-0.250000
 20
-0.500000
 40
0.000000
 41
0.000000
 42
0.000000
  0
SEQEND
  0
ENDBLK
  0
BLOCK
  8
0
  2
FIGURE_OCT
 70
0
 10
0.000000
 20
0.000000
  0
POLYLINE
  8
0
 66
1
 70
1
 40
0.000000
 41
0.000000
 39
0.000000
  0
VERTEX
  8
0
 10
-0.500000
 20
-0.207100
 40
0.000000
 41
0.000000
 42
0.000000
  0
VERTEX
  8
0
 10
-0.500000
 20
0.207100
 40
0.000000
 41
0.000000
 42
0.000000
  0
VERTEX
  8
0
 10
-0.207100
 20
0.500000
 40
0.000000
 41
0.000000
 42
0.000000
  0
VERTEX
  8
0
 10
0.207100
 20
0.500000
 40
0.000000
 41
0.000000
 42
0.000000
  0
VERTEX
  8
0
 10
0.500000
 20
0.207100
 40
0.000000
 41
0.000000
 42
0.000000
  0
VERTEX
  8
0
 10
0.500000
 20
-0.207100
 40
0.000000
 41
0.000000
 42
0.000000
  0
VERTEX
  8
0
 10
0.207100
 20
-0.500000
 40
0.000000
 41
0.000000
 42
0.000000
  0
VERTEX
  8
0
 10
-0.207100
 20
-0.500000
 40
0.000000
 41
0.000000
 42
0.000000
  0
SEQEND
  0
ENDBLK
  0
BLOCK
  8
0
  2
FIGURE_OBLONG
 70
0
 10
0.000000
 20
0.000000
  0
POLYLINE
  8
0
 66
1
 70
1
 40
0.000000
 41
0.000000
 39
0.000000
  0
VERTEX
  8
0
 10
-0.500000
 20
-0.125000
 40
0.000000
 41
0.000000
 42
0.000000
  0
VERTEX
  8
0
 10
-0.500000
 20
0.125000
 40
0.000000
 41
0.000000
 42
0.000000
  0
VERTEX
  8
0
 10
-0.416000
 20
0.375000
 40
0.000000
 41
0.000000
 42
0.000000
  0
VERTEX
  8
0
 10
-0.250000
 20
0.500000
 40
0.000000
 41
0.000000
 42
0.000000
  0
VERTEX
  8
0
 10
0.250000
 20
0.500000
 40
0.000000
 41
0.000000
 42
0.000000
  0
VERTEX
  8
0
 10
0.416000
 20
0.375000
 40
0.000000
 41
0.000000
 42
0.000000
  0
VERTEX
  8
0
 10
0.500000
 20
0.125000
 40
0.000000
 41
0.000000
 42
0.000000
  0
VERTEX
  8
0
 10
0.500000
 20
-0.125000
 40
0.000000
 41
0.000000
 42
0.000000
  0
VERTEX
  8
0
 10
0.416000
 20
-0.375000
 40
0.000000
 41
0.000000
 42
0.000000
  0
VERTEX
  8
0
 10
0.250000
 20
-0.500000
 40
0.000000
 41
0.000000
 42
0.000000
  0
VERTEX
  8
0
 10
-0.250000
 20
-0.500000
 40
0.000000
 41
0.000000
 42
0.000000
  0
VERTEX
  8
0
 10
-0.416000
 20
-0.375000
 40
0.000000
 41
0.000000
 42
0.000000
  0
SEQEND
  0
ENDBLK
  0
BLOCK
  8
0
  2
FIGURE_TRI
 70
0
 10
0.000000
 20
0.000000
  0
POLYLINE
  8
0
 66
1
 70
1
 40
0.000000
 41
0.000000
 39
0.000000
  0
VERTEX
  8
0
 10
-0.500000
 20
-0.500000
 40
0.000000
 41
0.000000
 42
0.000000
  0
VERTEX
  8
0
 10
0.000000
 20
0.500000
 40
0.000000
 41
0.000000
 42
0.000000
  0
VERTEX
  8
0
 10
0.500000
 20
-0.500000
 40
0.000000
 41
0.000000
 42
0.000000
  0
SEQEND
  0
ENDBLK
  0
BLOCK
  8
0
  2
FIGURE_CROSS
 70
0
 10
0.000000
 20
0.000000
  0
POLYLINE
  8
0
 66
1
 70
0
 40
0.000000
 41
0.000000
 39
0.000000
  0
VERTEX
  8
0
 10
-0.500000
 20
0.000000
 40
0.000000
 41
0.000000
 42
0.000000
  0
VERTEX
  8
0
 10
0.500000
 20
0.000000
 40
0.000000
 41
0.000000
 42
0.000000
  0
SEQEND
  0
POLYLINE
  8
0
 66
1
 70
0
 40
0.000000
 41
0.000000
 39
0.000000
  0
VERTEX
  8
0
 10
0.000000
 20
0.500000
 40
0.000000
 41
0.000000
 42
0.000000
  0
VERTEX
  8
0
 10
0.000000
 20
-0.500000
 40
0.000000
 41
0.000000
 42
0.000000
  0
SEQEND
  0
ENDBLK
  0
BLOCK
  8
0
  2
FIGURE_DIAMOND
 70
0
 10
0.000000
 20
0.000000
  0
POLYLINE
  8
0
 66
1
 70
1
 40
0.000000
 41
0.000000
 39
0.000000
  0
VERTEX
  8
0
 10
-0.500000
 20
0.000000
 40
0.000000
 41
0.000000
 42
0.000000
  0
VERTEX
  8
0
 10
0.000000
 20
0.500000
 40
0.000000
 41
0.000000
 42
0.000000
  0
VERTEX
  8
0
 10
0.500000
 20
0.000000
 40
0.000000
 41
0.000000
 42
0.000000
  0
VERTEX
  8
0
 10
0.000000
 20
-0.500000
 40
0.000000
 41
0.000000
 42
0.000000
  0
SEQEND
  0
ENDBLK
  0
ENDSEC
  0
SECTION
  2
ENTITIES
  0
POLYLINE
  8
COND
 66
1
 70
0
 40
0.000000
 41
0.000000
 39
0.000000
  0
VERTEX
  8
COND
 10
-930.000000
 20
-520.000000
 40
13.000000
 41
13.000000
 42
0.000000
  0
VERTEX
  8
COND
 10
-872.980000
 20
-520.000000
 40
13.000000
 41
13.000000
 42
0.000000
  0
SEQEND
  0
POLYLINE
  8
COND
 66
1
 70
0
 40
0.000000
 41
0.000000
 39
0.000000
  0
VERTEX
  8
COND
 10
-987.020000
 20
-520.000000
 40
13.000000
 41
13.000000
 42
0.000000
  0
VERTEX
  8
COND
 10
-930.000000
 20
-520.000000
 40
13.000000
 41
13.000000
 42
0.000000
  0
SEQEND
  0
POLYLINE
  8
COND
 66
1
 70
0
 40
0.000000
 41
0.000000
 39
0.000000
  0
VERTEX
  8
COND
 10
-930.000000
 20
-520.000000
 40
13.000000
 41
13.000000
 42
0.000000
  0
VERTEX
  8
COND
 10
-930.000000
 20
-462.980000
 40
13.000000
 41
13.000000
 42
0.000000
  0
SEQEND
  0
POLYLINE
  8
COND
 66
1
 70
0
 40
0.000000
 41
0.000000
 39
0.000000
  0
VERTEX
  8
COND
 10
-930.000000
 20
-577.020000
 40
13.000000
 41
13.000000
 42
0.000000
  0
VERTEX
  8
COND
 10
-930.000000
 20
-520.000000
 40
13.000000
 41
13.000000
 42
0.000000
  0
SEQEND
  0
POLYLINE
  8
COND
 66
1
 70
0
 40
0.000000
 41
0.000000
 39
0.000000
  0
VERTEX
  8
COND
 10
-1130.000000
 20
-320.000000
 40
13.000000
 41
13.000000
 42
0.000000
  0
VERTEX
  8
COND
 10
-1072.980000
 20
-320.000000
 40
13.000000
 41
13.000000
 42
0.000000
  0
SEQEND
  0
POLYLINE
  8
COND
 66
1
 70
0
 40
0.000000
 41
0.000000
 39
0.000000
  0
VERTEX
  8
COND
 10
-1187.020000
 20
-320.000000
 40
13.000000
 41
13.000000
 42
0.000000
  0
VERTEX
  8
COND
 10
-1130.000000
 20
-320.000000
 40
13.000000
 41
13.000000
 42
0.000000
  0
SEQEND
  0
POLYLINE
  8
COND
 66
1
 70
0
 40
0.000000
 41
0.000000
 39
0.000000
  0
VERTEX
  8
COND
 10
-1130.000000
 20
-320.000000
 40
13.000000
 41
13.000000
 42
0.000000
  0
VERTEX
  8
COND
 10
-1130.000000
 20
-262.980000
 40
13.000000
 41
13.000000
 42
0.000000
  0
SEQEND
  0
POLYLINE
  8
COND
 66
1
 70
0
 40
0.000000
 41
0.000000
 39
0.000000
  0
VERTEX
  8
COND
 10
-1130.000000
 20
-377.020000
 40
13.000000
 41
13.000000
 42
0.000000
  0
VERTEX
  8
COND
 10
-1130.000000
 20
-320.000000
 40
13.000000
 41
13.000000
 42
0.000000
  0
SEQEND
  0
POLYLINE
  8
COND
 66
1
 70
0
 40
0.000000
 41
0.000000
 39
0.000000
  0
VERTEX
  8
COND
 10
-1170.000000
 20
-100.000000
 40
13.000000
 41
13.000000
 42
0.000000
  0
VERTEX
  8
COND
 10
-1112.980000
 20
-100.000000
 40
13.000000
 41
13.000000
 42
0.000000
  0
SEQEND
  0
POLYLINE
  8
COND
 66
1
 70
0
 40
0.000000
 41
0.000000
 39
0.000000
  0
VERTEX
  8
COND
 10
-1227.020000
 20
-100.000000
 40
13.000000
 41
13.000000
 42
0.000000
  0
VERTEX
  8
COND
 10
-1170.000000
 20
-100.000000
 40
13.000000
 41
13.000000
 42
0.000000
  0
SEQEND
  0
POLYLINE
  8
COND
 66
1
 70
0
 40
0.000000
 41
0.000000
 39
0.000000
  0
VERTEX
  8
COND
 10
-1170.000000
 20
-100.000000
 40
13.000000
 41
13.000000
 42
0.000000
  0
VERTEX
  8
COND
 10
-1170.000000
 20
-42.980000
 40
13.000000
 41
13.000000
 42
0.000000
  0
SEQEND
  0
POLYLINE
  8
COND
 66
1
 70
0
 40
0.000000
 41
0.000000
 39
0.000000
  0
VERTEX
  8
COND
 10
-1170.000000
 20
-157.020000
 40
13.000000
 41
13.000000
 42
0.000000
  0
VERTEX
  8
COND
 10
-1170.000000
 20
-100.000000
 40
13.000000
 41
13.000000
 42
0.000000
  0
SEQEND
  0
POLYLINE
  8
COND
 66
1
 70
0
 40
0.000000
 41
0.000000
 39
0.000000
  0
VERTEX
  8
COND
 10
-1130.000000
 20
320.000000
 40
13.000000
 41
13.000000
 42
0.000000
  0
VERTEX
  8
COND
 10
-1072.980000
 20
320.000000
 40
13.000000
 41
13.000000
 42
0.000000
  0
SEQEND
  0
POLYLINE
  8
COND
 66
1
 70
0
 40
0.000000
 41
0.000000
 39
0.000000
  0
VERTEX
  8
COND
 10
-1187.020000
 20
320.000000
 40
13.000000
 41
13.000000
 42
0.000000
  0
VERTEX
  8
COND
 10
-1130.000000
 20
320.000000
 40
13.000000
 41
13.000000
 42
0.000000
  0
SEQEND
  0
POLYLINE
  8
COND
 66
1
 70
0
 40
0.000000
 41
0.000000
 39
0.000000
  0
VERTEX
  8
COND
 10
-1130.000000
 20
320.000000
 40
13.000000
 41
13.000000
 42
0.000000
  0
VERTEX
  8
COND
 10
-1130.000000
 20
377.020000
 40
13.000000
 41
13.000000
 42
0.000000
  0
SEQEND
  0
POLYLINE
  8
COND
 66
1
 70
0
 40
0.000000
 41
0.000000
 39
0.000000
  0
VERTEX
  8
COND
 10
-1130.000000
 20
262.980000
 40
13.000000
 41
13.000000
 42
0.000000
  0
VERTEX
  8
COND
 10
-1130.000000
 20
320.000000
 40
13.000000
 41
13.000000
 42
0.000000
  0
SEQEND
  0
POLYLINE
  8
COND
 66
1
 70
0
 40
0.000000
 41
0.000000
 39
0.000000
  0
VERTEX
  8
COND
 10
-970.000000
 20
100.000000
 40
13.000000
 41
13.000000
 42
0.000000
  0
VERTEX
  8
COND
 10
-912.980000
 20
100.000000
 40
13.000000
 41
13.000000
 42
0.000000
  0
SEQEND
  0
POLYLINE
  8
COND
 66
1
 70
0
 40
0.000000
 41
0.000000
 39
0.000000
  0
VERTEX
  8
COND
 10
-1027.020000
 20
100.000000
 40
13.000000
 41
13.000000
 42
0.000000
  0
VERTEX
  8
COND
 10
-970.000000
 20
100.000000
 40
13.000000
 41
13.000000
 42
0.000000
  0
SEQEND
  0
POLYLINE
  8
COND
 66
1
 70
0
 40
0.000000
 41
0.000000
 39
0.000000
  0
VERTEX
  8
COND
 10
-970.000000
 20
100.000000
 40
13.000000
 41
13.000000
 42
0.000000
  0
VERTEX
  8
COND
 10
-970.000000
 20
157.020000
 40
13.000000
 41
13.000000
 42
0.000000
  0
SEQEND
  0
POLYLINE
  8
COND
 66
1
 70
0
 40
0.000000
 41
0.000000
 39
0.000000
  0
VERTEX
  8
COND
 10
-970.000000
 20
42.980000
 40
13.000000
 41
13.000000
 42
0.000000
  0
VERTEX
  8
COND
 10
-970.000000
 20
100.000000
 40
13.000000
 41
13.000000
 42
0.000000
  0
SEQEND
  0
POLYLINE
  8
COND
 66
1
 70
0
 40
0.000000
 41
0.000000
 39
0.000000
  0
VERTEX
  8
COND
 10
-930.000000
 20
520.000000
 40
13.000000
 41
13.000000
 42
0.000000
  0
VERTEX
  8
COND
 10
-872.980000
 20
520.000000
 40
13.000000
 41
13.000000
 42
0.000000
  0
SEQEND
  0
POLYLINE
  8
COND
 66
1
 70
0
 40
0.000000
 41
0.000000
 39
0.000000
  0
VERTEX
  8
COND
 10
-987.020000
 20
520.000000
 40
13.000000
 41
13.000000
 42
0.000000
  0
VERTEX
  8
COND
 10
-930.000000
 20
520.000000
 40
13.000000
 41
13.000000
 42
0.000000
  0
SEQEND
  0
POLYLINE
  8
COND
 66
1
 70
0
 40
0.000000
 41
0.000000
 39
0.000000
  0
VERTEX
  8
COND
 10
-930.000000
 20
520.000000
 40
13.000000
 41
13.000000
 42
0.000000
  0
VERTEX
  8
COND
 10
-930.000000
 20
577.020000
 40
13.000000
 41
13.000000
 42
0.000000
  0
SEQEND
  0
POLYLINE
  8
COND
 66
1
 70
0
 40
0.000000
 41
0.000000
 39
0.000000
  0
VERTEX
  8
COND
 10
-930.000000
 20
462.980000
 40
13.000000
 41
13.000000
 42
0.000000
  0
VERTEX
  8
COND
 10
-930.000000
 20
520.000000
 40
13.000000
 41
13.000000
 42
0.000000
  0
SEQEND
  0
POLYLINE
  8
COND
 66
1
 70
0
 40
0.000000
 41
0.000000
 39
0.000000
  0
VERTEX
  8
COND
 10
-320.000000
 20
-1130.000000
 40
13.000000
 41
13.000000
 42
0.000000
  0
VERTEX
  8
COND
 10
-262.980000
 20
-1130.000000
 40
13.000000
 41
13.000000
 42
0.000000
  0
SEQEND
  0
POLYLINE
  8
COND
 66
1
 70
0
 40
0.000000
 41
0.000000
 39
0.000000
  0
VERTEX
  8
COND
 10
-377.020000
 20
-1130.000000
 40
13.000000
 41
13.000000
 42
0.000000
  0
VERTEX
  8
COND
 10
-320.000000
 20
-1130.000000
 40
13.000000
 41
13.000000
 42
0.000000
  0
SEQEND
  0
POLYLINE
  8
COND
 66
1
 70
0
 40
0.000000
 41
0.000000
 39
0.000000
  0
VERTEX
  8
COND
 10
-320.000000
 20
-1130.000000
 40
13.000000
 41
13.000000
 42
0.000000
  0
VERTEX
  8
COND
 10
-320.000000
 20
-1072.980000
 40
13.000000
 41
13.000000
 42
0.000000
  0
SEQEND
  0
POLYLINE
  8
COND
 66
1
 70
0
 40
0.000000
 41
0.000000
 39
0.000000
  0
VERTEX
  8
COND
 10
-320.000000
 20
-1187.020000
 40
13.000000
 41
13.000000
 42
0.000000
  0
VERTEX
  8
COND
 10
-320.000000
 20
-1130.000000
 40
13.000000
 41
13.000000
 42
0.000000
  0
SEQEND
  0
POLYLINE
  8
COND
 66
1
 70
0
 40
0.000000
 41
0.000000
 39
0.000000
  0
VERTEX
  8
COND
 10
-520.000000
 20
-930.000000
 40
13.000000
 41
13.000000
 42
0.000000
  0
VERTEX
  8
COND
 10
-462.980000
 20
-930.000000
 40
13.000000
 41
13.000000
 42
0.000000
  0
SEQEND
  0
POLYLINE
  8
COND
 66
1
 70
0
 40
0.000000
 41
0.000000
 39
0.000000
  0
VERTEX
  8
COND
 10
-577.020000
 20
-930.000000
 40
13.000000
 41
13.000000
 42
0.000000
  0
VERTEX
  8
COND
 10
-520.000000
 20
-930.000000
 40
13.000000
 41
13.000000
 42
0.000000
  0
SEQEND
  0
POLYLINE
  8
COND
 66
1
 70
0
 40
0.000000
 41
0.000000
 39
0.000000
  0
VERTEX
  8
COND
 10
-520.000000
 20
-930.000000
 40
13.000000
 41
13.000000
 42
0.000000
  0
VERTEX
  8
COND
 10
-520.000000
 20
-872.980000
 40
13.000000
 41
13.000000
 42
0.000000
  0
SEQEND
  0
POLYLINE
  8
COND
 66
1
 70
0
 40
0.000000
 41
0.000000
 39
0.000000
  0
VERTEX
  8
COND
 10
-520.000000
 20
-987.020000
 40
13.000000
 41
13.000000
 42
0.000000
  0
VERTEX
  8
COND
 10
-520.000000
 20
-930.000000
 40
13.000000
 41
13.000000
 42
0.000000
  0
SEQEND
  0
POLYLINE
  8
COND
 66
1
 70
0
 40
0.000000
 41
0.000000
 39
0.000000
  0
VERTEX
  8
COND
 10
-520.000000
 20
930.000000
 40
13.000000
 41
13.000000
 42
0.000000
  0
VERTEX
  8
COND
 10
-462.980000
 20
930.000000
 40
13.000000
 41
13.000000
 42
0.000000
  0
SEQEND
  0
POLYLINE
  8
COND
 66
1
 70
0
 40
0.000000
 41
0.000000
 39
0.000000
  0
VERTEX
  8
COND
 10
-577.020000
 20
930.000000
 40
13.000000
 41
13.000000
 42
0.000000
  0
VERTEX
  8
COND
 10
-520.000000
 20
930.000000
 40
13.000000
 41
13.000000
 42
0.000000
  0
SEQEND
  0
POLYLINE
  8
COND
 66
1
 70
0
 40
0.000000
 41
0.000000
 39
0.000000
  0
VERTEX
  8
COND
 10
-520.000000
 20
930.000000
 40
13.000000
 41
13.000000
 42
0.000000
  0
VERTEX
  8
COND
 10
-520.000000
 20
987.020000
 40
13.000000
 41
13.000000
 42
0.000000
  0
SEQEND
  0
POLYLINE
  8
COND
 66
1
 70
0
 40
0.000000
 41
0.000000
 39
0.000000
  0
VERTEX
  8
COND
 10
-520.000000
 20
872.980000
 40
13.000000
 41
13.000000
 42
0.000000
  0
VERTEX
  8
COND
 10
-520.000000
 20
930.000000
 40
13.000000
 41
13.000000
 42
0.000000
  0
SEQEND
  0
POLYLINE
  8
COND
 66
1
 70
0
 40
0.000000
 41
0.000000
 39
0.000000
  0
VERTEX
  8
COND
 10
-320.000000
 20
1130.000000
 40
13.000000
 41
13.000000
 42
0.000000
  0
VERTEX
  8
COND
 10
-262.980000
 20
1130.000000
 40
13.000000
 41
13.000000
 42
0.000000
  0
SEQEND
  0
POLYLINE
  8
COND
 66
1
 70
0
 40
0.000000
 41
0.000000
 39
0.000000
  0
VERTEX
  8
COND
 10
-377.020000
 20
1130.000000
 40
13.000000
 41
13.000000
 42
0.000000
  0
VERTEX
  8
COND
 10
-320.000000
 20
1130.000000
 40
13.000000
 41
13.000000
 42
0.000000
  0
SEQEND
  0
POLYLINE
  8
COND
 66
1
 70
0
 40
0.000000
 41
0.000000
 39
0.000000
  0
VERTEX
  8
COND
 10
-320.000000
 20
1130.000000
 40
13.000000
 41
13.000000
 42
0.000000
  0
VERTEX
  8
COND
 10
-320.000000
 20
1187.020000
 40
13.000000
 41
13.000000
 42
0.000000
  0
SEQEND
  0
POLYLINE
  8
COND
 66
1
 70
0
 40
0.000000
 41
0.000000
 39
0.000000
  0
VERTEX
  8
COND
 10
-320.000000
 20
1072.980000
 40
13.000000
 41
13.000000
 42
0.000000
  0
VERTEX
  8
COND
 10
-320.000000
 20
1130.000000
 40
13.000000
 41
13.000000
 42
0.000000
  0
SEQEND
  0
POLYLINE
  8
COND
 66
1
 70
0
 40
0.000000
 41
0.000000
 39
0.000000
  0
VERTEX
  8
COND
 10
-100.000000
 20
-1170.000000
 40
13.000000
 41
13.000000
 42
0.000000
  0
VERTEX
  8
COND
 10
-42.980000
 20
-1170.000000
 40
13.000000
 41
13.000000
 42
0.000000
  0
SEQEND
  0
POLYLINE
  8
COND
 66
1
 70
0
 40
0.000000
 41
0.000000
 39
0.000000
  0
VERTEX
  8
COND
 10
-157.020000
 20
-1170.000000
 40
13.000000
 41
13.000000
 42
0.000000
  0
VERTEX
  8
COND
 10
-100.000000
 20
-1170.000000
 40
13.000000
 41
13.000000
 42
0.000000
  0
SEQEND
  0
POLYLINE
  8
COND
 66
1
 70
0
 40
0.000000
 41
0.000000
 39
0.000000
  0
VERTEX
  8
COND
 10
-100.000000
 20
-1170.000000
 40
13.000000
 41
13.000000
 42
0.000000
  0
VERTEX
  8
COND
 10
-100.000000
 20
-1112.980000
 40
13.000000
 41
13.000000
 42
0.000000
  0
SEQEND
  0
POLYLINE
  8
COND
 66
1
 70
0
 40
0.000000
 41
0.000000
 39
0.000000
  0
VERTEX
  8
COND
 10
-100.000000
 20
-1227.020000
 40
13.000000
 41
13.000000
 42
0.000000
  0
VERTEX
  8
COND
 10
-100.000000
 20
-1170.000000
 40
13.000000
 41
13.000000
 42
0.000000
  0
SEQEND
  0
POLYLINE
  8
COND
 66
1
 70
0
 40
0.000000
 41
0.000000
 39
0.000000
  0
VERTEX
  8
COND
 10
-100.000000
 20
970.000000
 40
13.000000
 41
13.000000
 42
0.000000
  0
VERTEX
  8
COND
 10
-42.980000
 20
970.000000
 40
13.000000
 41
13.000000
 42
0.000000
  0
SEQEND
  0
POLYLINE
  8
COND
 66
1
 70
0
 40
0.000000
 41
0.000000
 39
0.000000
  0
VERTEX
  8
COND
 10
-157.020000
 20
970.000000
 40
13.000000
 41
13.000000
 42
0.000000
  0
VERTEX
  8
COND
 10
-100.000000
 20
970.000000
 40
13.000000
 41
13.000000
 42
0.000000
  0
SEQEND
  0
POLYLINE
  8
COND
 66
1
 70
0
 40
0.000000
 41
0.000000
 39
0.000000
  0
VERTEX
  8
COND
 10
-100.000000
 20
970.000000
 40
13.000000
 41
13.000000
 42
0.000000
  0
VERTEX
  8
COND
 10
-100.000000
 20
1027.020000
 40
13.000000
 41
13.000000
 42
0.000000
  0
SEQEND
  0
POLYLINE
  8
COND
 66
1
 70
0
 40
0.000000
 41
0.000000
 39
0.000000
  0
VERTEX
  8
COND
 10
-100.000000
 20
912.980000
 40
13.000000
 41
13.000000
 42
0.000000
  0
VERTEX
  8
COND
 10
-100.000000
 20
970.000000
 40
13.000000
 41
13.000000
 42
0.000000
  0
SEQEND
  0
POLYLINE
  8
COND
 66
1
 70
0
 40
0.000000
 41
0.000000
 39
0.000000
  0
VERTEX
  8
COND
 10
100.000000
 20
-970.000000
 40
13.000000
 41
13.000000
 42
0.000000
  0
VERTEX
  8
COND
 10
157.020000
 20
-970.000000
 40
13.000000
 41
13.000000
 42
0.000000
  0
SEQEND
  0
POLYLINE
  8
COND
 66
1
 70
0
 40
0.000000
 41
0.000000
 39
0.000000
  0
VERTEX
  8
COND
 10
42.980000
 20
-970.000000
 40
13.000000
 41
13.000000
 42
0.000000
  0
VERTEX
  8
COND
 10
100.000000
 20
-970.000000
 40
13.000000
 41
13.000000
 42
0.000000
  0
SEQEND
  0
POLYLINE
  8
COND
 66
1
 70
0
 40
0.000000
 41
0.000000
 39
0.000000
  0
VERTEX
  8
COND
 10
100.000000
 20
-970.000000
 40
13.000000
 41
13.000000
 42
0.000000
  0
VERTEX
  8
COND
 10
100.000000
 20
-912.980000
 40
13.000000
 41
13.000000
 42
0.000000
  0
SEQEND
  0
POLYLINE
  8
COND
 66
1
 70
0
 40
0.000000
 41
0.000000
 39
0.000000
  0
VERTEX
  8
COND
 10
100.000000
 20
-1027.020000
 40
13.000000
 41
13.000000
 42
0.000000
  0
VERTEX
  8
COND
 10
100.000000
 20
-970.000000
 40
13.000000
 41
13.000000
 42
0.000000
  0
SEQEND
  0
POLYLINE
  8
COND
 66
1
 70
0
 40
0.000000
 41
0.000000
 39
0.000000
  0
VERTEX
  8
COND
 10
100.000000
 20
1170.000000
 40
13.000000
 41
13.000000
 42
0.000000
  0
VERTEX
  8
COND
 10
157.020000
 20
1170.000000
 40
13.000000
 41
13.000000
 42
0.000000
  0
SEQEND
  0
POLYLINE
  8
COND
 66
1
 70
0
 40
0.000000
 41
0.000000
 39
0.000000
  0
VERTEX
  8
COND
 10
42.980000
 20
1170.000000
 40
13.000000
 41
13.000000
 42
0.000000
  0
VERTEX
  8
COND
 10
100.000000
 20
1170.000000
 40
13.000000
 41
13.000000
 42
0.000000
  0
SEQEND
  0
POLYLINE
  8
COND
 66
1
 70
0
 40
0.000000
 41
0.000000
 39
0.000000
  0
VERTEX
  8
COND
 10
100.000000
 20
1170.000000
 40
13.000000
 41
13.000000
 42
0.000000
  0
VERTEX
  8
COND
 10
100.000000
 20
1227.020000
 40
13.000000
 41
13.000000
 42
0.000000
  0
SEQEND
  0
POLYLINE
  8
COND
 66
1
 70
0
 40
0.000000
 41
0.000000
 39
0.000000
  0
VERTEX
  8
COND
 10
100.000000
 20
1112.980000
 40
13.000000
 41
13.000000
 42
0.000000
  0
VERTEX
  8
COND
 10
100.000000
 20
1170.000000
 40
13.000000
 41
13.000000
 42
0.000000
  0
SEQEND
  0
POLYLINE
  8
COND
 66
1
 70
0
 40
0.000000
 41
0.000000
 39
0.000000
  0
VERTEX
  8
COND
 10
320.000000
 20
-1130.000000
 40
13.000000
 41
13.000000
 42
0.000000
  0
VERTEX
  8
COND
 10
377.020000
 20
-1130.000000
 40
13.000000
 41
13.000000
 42
0.000000
  0
SEQEND
  0
POLYLINE
  8
COND
 66
1
 70
0
 40
0.000000
 41
0.000000
 39
0.000000
  0
VERTEX
  8
COND
 10
262.980000
 20
-1130.000000
 40
13.000000
 41
13.000000
 42
0.000000
  0
VERTEX
  8
COND
 10
320.000000
 20
-1130.000000
 40
13.000000
 41
13.000000
 42
0.000000
  0
SEQEND
  0
POLYLINE
  8
COND
 66
1
 70
0
 40
0.000000
 41
0.000000
 39
0.000000
  0
VERTEX
  8
COND
 10
320.000000
 20
-1130.000000
 40
13.000000
 41
13.000000
 42
0.000000
  0
VERTEX
  8
COND
 10
320.000000
 20
-1072.980000
 40
13.000000
 41
13.000000
 42
0.000000
  0
SEQEND
  0
POLYLINE
  8
COND
 66
1
 70
0
 40
0.000000
 41
0.000000
 39
0.000000
  0
VERTEX
  8
COND
 10
320.000000
 20
-1187.020000
 40
13.000000
 41
13.000000
 42
0.000000
  0
VERTEX
  8
COND
 10
320.000000
 20
-1130.000000
 40
13.000000
 41
13.000000
 42
0.000000
  0
SEQEND
  0
POLYLINE
  8
COND
 66
1
 70
0
 40
0.000000
 41
0.000000
 39
0.000000
  0
VERTEX
  8
COND
 10
520.000000
 20
-930.000000
 40
13.000000
 41
13.000000
 42
0.000000
  0
VERTEX
  8
COND
 10
577.020000
 20
-930.000000
 40
13.000000
 41
13.000000
 42
0.000000
  0
SEQEND
  0
POLYLINE
  8
COND
 66
1
 70
0
 40
0.000000
 41
0.000000
 39
0.000000
  0
VERTEX
  8
COND
 10
462.980000
 20
-930.000000
 40
13.000000
 41
13.000000
 42
0.000000
  0
VERTEX
  8
COND
 10
520.000000
 20
-930.000000
 40
13.000000
 41
13.000000
 42
0.000000
  0
SEQEND
  0
POLYLINE
  8
COND
 66
1
 70
0
 40
0.000000
 41
0.000000
 39
0.000000
  0
VERTEX
  8
COND
 10
520.000000
 20
-930.000000
 40
13.000000
 41
13.000000
 42
0.000000
  0
VERTEX
  8
COND
 10
520.000000
 20
-872.980000
 40
13.000000
 41
13.000000
 42
0.000000
  0
SEQEND
  0
POLYLINE
  8
COND
 66
1
 70
0
 40
0.000000
 41
0.000000
 39
0.000000
  0
VERTEX
  8
COND
 10
520.000000
 20
-987.020000
 40
13.000000
 41
13.000000
 42
0.000000
  0
VERTEX
  8
COND
 10
520.000000
 20
-930.000000
 40
13.000000
 41
13.000000
 42
0.000000
  0
SEQEND
  0
POLYLINE
  8
COND
 66
1
 70
0
 40
0.000000
 41
0.000000
 39
0.000000
  0
VERTEX
  8
COND
 10
520.000000
 20
930.000000
 40
13.000000
 41
13.000000
 42
0.000000
  0
VERTEX
  8
COND
 10
577.020000
 20
930.000000
 40
13.000000
 41
13.000000
 42
0.000000
  0
SEQEND
  0
POLYLINE
  8
COND
 66
1
 70
0
 40
0.000000
 41
0.000000
 39
0.000000
  0
VERTEX
  8
COND
 10
462.980000
 20
930.000000
 40
13.000000
 41
13.000000
 42
0.000000
  0
VERTEX
  8
COND
 10
520.000000
 20
930.000000
 40
13.000000
 41
13.000000
 42
0.000000
  0
SEQEND
  0
POLYLINE
  8
COND
 66
1
 70
0
 40
0.000000
 41
0.000000
 39
0.000000
  0
VERTEX
  8
COND
 10
520.000000
 20
930.000000
 40
13.000000
 41
13.000000
 42
0.000000
  0
VERTEX
  8
COND
 10
520.000000
 20
987.020000
 40
13.000000
 41
13.000000
 42
0.000000
  0
SEQEND
  0
POLYLINE
  8
COND
 66
1
 70
0
 40
0.000000
 41
0.000000
 39
0.000000
  0
VERTEX
  8
COND
 10
520.000000
 20
872.980000
 40
13.000000
 41
13.000000
 42
0.000000
  0
VERTEX
  8
COND
 10
520.000000
 20
930.000000
 40
13.000000
 41
13.000000
 42
0.000000
  0
SEQEND
  0
POLYLINE
  8
COND
 66
1
 70
0
 40
0.000000
 41
0.000000
 39
0.000000
  0
VERTEX
  8
COND
 10
320.000000
 20
1130.000000
 40
13.000000
 41
13.000000
 42
0.000000
  0
VERTEX
  8
COND
 10
377.020000
 20
1130.000000
 40
13.000000
 41
13.000000
 42
0.000000
  0
SEQEND
  0
POLYLINE
  8
COND
 66
1
 70
0
 40
0.000000
 41
0.000000
 39
0.000000
  0
VERTEX
  8
COND
 10
262.980000
 20
1130.000000
 40
13.000000
 41
13.000000
 42
0.000000
  0
VERTEX
  8
COND
 10
320.000000
 20
1130.000000
 40
13.000000
 41
13.000000
 42
0.000000
  0
SEQEND
  0
POLYLINE
  8
COND
 66
1
 70
0
 40
0.000000
 41
0.000000
 39
0.000000
  0
VERTEX
  8
COND
 10
320.000000
 20
1130.000000
 40
13.000000
 41
13.000000
 42
0.000000
  0
VERTEX
  8
COND
 10
320.000000
 20
1187.020000
 40
13.000000
 41
13.000000
 42
0.000000
  0
SEQEND
  0
POLYLINE
  8
COND
 66
1
 70
0
 40
0.000000
 41
0.000000
 39
0.000000
  0
VERTEX
  8
COND
 10
320.000000
 20
1072.980000
 40
13.000000
 41
13.000000
 42
0.000000
  0
VERTEX
  8
COND
 10
320.000000
 20
1130.000000
 40
13.000000
 41
13.000000
 42
0.000000
  0
SEQEND
  0
POLYLINE
  8
COND
 66
1
 70
0
 40
0.000000
 41
0.000000
 39
0.000000
  0
VERTEX
  8
COND
 10
930.000000
 20
-520.000000
 40
13.000000
 41
13.000000
 42
0.000000
  0
VERTEX
  8
COND
 10
987.020000
 20
-520.000000
 40
13.000000
 41
13.000000
 42
0.000000
  0
SEQEND
  0
POLYLINE
  8
COND
 66
1
 70
0
 40
0.000000
 41
0.000000
 39
0.000000
  0
VERTEX
  8
COND
 10
872.980000
 20
-520.000000
 40
13.000000
 41
13.000000
 42
0.000000
  0
VERTEX
  8
COND
 10
930.000000
 20
-520.000000
 40
13.000000
 41
13.000000
 42
0.000000
  0
SEQEND
  0
POLYLINE
  8
COND
 66
1
 70
0
 40
0.000000
 41
0.000000
 39
0.000000
  0
VERTEX
  8
COND
 10
930.000000
 20
-520.000000
 40
13.000000
 41
13.000000
 42
0.000000
  0
VERTEX
  8
COND
 10
930.000000
 20
-462.980000
 40
13.000000
 41
13.000000
 42
0.000000
  0
SEQEND
  0
POLYLINE
  8
COND
 66
1
 70
0
 40
0.000000
 41
0.000000
 39
0.000000
  0
VERTEX
  8
COND
 10
930.000000
 20
-577.020000
 40
13.000000
 41
13.000000
 42
0.000000
  0
VERTEX
  8
COND
 10
930.000000
 20
-520.000000
 40
13.000000
 41
13.000000
 42
0.000000
  0
SEQEND
  0
POLYLINE
  8
COND
 66
1
 70
0
 40
0.000000
 41
0.000000
 39
0.000000
  0
VERTEX
  8
COND
 10
1130.000000
 20
-320.000000
 40
13.000000
 41
13.000000
 42
0.000000
  0
VERTEX
  8
COND
 10
1187.020000
 20
-320.000000
 40
13.000000
 41
13.000000
 42
0.000000
  0
SEQEND
  0
POLYLINE
  8
COND
 66
1
 70
0
 40
0.000000
 41
0.000000
 39
0.000000
  0
VERTEX
  8
COND
 10
1072.980000
 20
-320.000000
 40
13.000000
 41
13.000000
 42
0.000000
  0
VERTEX
  8
COND
 10
1130.000000
 20
-320.000000
 40
13.000000
 41
13.000000
 42
0.000000
  0
SEQEND
  0
POLYLINE
  8
COND
 66
1
 70
0
 40
0.000000
 41
0.000000
 39
0.000000
  0
VERTEX
  8
COND
 10
1130.000000
 20
-320.000000
 40
13.000000
 41
13.000000
 42
0.000000
  0
VERTEX
  8
COND
 10
1130.000000
 20
-262.980000
 40
13.000000
 41
13.000000
 42
0.000000
  0
SEQEND
  0
POLYLINE
  8
COND
 66
1
 70
0
 40
0.000000
 41
0.000000
 39
0.000000
  0
VERTEX
  8
COND
 10
1130.000000
 20
-377.020000
 40
13.000000
 41
13.000000
 42
0.000000
  0
VERTEX
  8
COND
 10
1130.000000
 20
-320.000000
 40
13.000000
 41
13.000000
 42
0.000000
  0
SEQEND
  0
POLYLINE
  8
COND
 66
1
 70
0
 40
0.000000
 41
0.000000
 39
0.000000
  0
VERTEX
  8
COND
 10
970.000000
 20
-100.000000
 40
13.000000
 41
13.000000
 42
0.000000
  0
VERTEX
  8
COND
 10
1027.020000
 20
-100.000000
 40
13.000000
 41
13.000000
 42
0.000000
  0
SEQEND
  0
POLYLINE
  8
COND
 66
1
 70
0
 40
0.000000
 41
0.000000
 39
0.000000
  0
VERTEX
  8
COND
 10
912.980000
 20
-100.000000
 40
13.000000
 41
13.000000
 42
0.000000
  0
VERTEX
  8
COND
 10
970.000000
 20
-100.000000
 40
13.000000
 41
13.000000
 42
0.000000
  0
SEQEND
  0
POLYLINE
  8
COND
 66
1
 70
0
 40
0.000000
 41
0.000000
 39
0.000000
  0
VERTEX
  8
COND
 10
970.000000
 20
-100.000000
 40
13.000000
 41
13.000000
 42
0.000000
  0
VERTEX
  8
COND
 10
970.000000
 20
-42.980000
 40
13.000000
 41
13.000000
 42
0.000000
  0
SEQEND
  0
POLYLINE
  8
COND
 66
1
 70
0
 40
0.000000
 41
0.000000
 39
0.000000
  0
VERTEX
  8
COND
 10
970.000000
 20
-157.020000
 40
13.000000
 41
13.000000
 42
0.000000
  0
VERTEX
  8
COND
 10
970.000000
 20
-100.000000
 40
13.000000
 41
13.000000
 42
0.000000
  0
SEQEND
  0
POLYLINE
  8
COND
 66
1
 70
0
 40
0.000000
 41
0.000000
 39
0.000000
  0
VERTEX
  8
COND
 10
1130.000000
 20
320.000000
 40
13.000000
 41
13.000000
 42
0.000000
  0
VERTEX
  8
COND
 10
1187.020000
 20
320.000000
 40
13.000000
 41
13.000000
 42
0.000000
  0
SEQEND
  0
POLYLINE
  8
COND
 66
1
 70
0
 40
0.000000
 41
0.000000
 39
0.000000
  0
VERTEX
  8
COND
 10
1072.980000
 20
320.000000
 40
13.000000
 41
13.000000
 42
0.000000
  0
VERTEX
  8
COND
 10
1130.000000
 20
320.000000
 40
13.000000
 41
13.000000
 42
0.000000
  0
SEQEND
  0
POLYLINE
  8
COND
 66
1
 70
0
 40
0.000000
 41
0.000000
 39
0.000000
  0
VERTEX
  8
COND
 10
1130.000000
 20
320.000000
 40
13.000000
 41
13.000000
 42
0.000000
  0
VERTEX
  8
COND
 10
1130.000000
 20
377.020000
 40
13.000000
 41
13.000000
 42
0.000000
  0
SEQEND
  0
POLYLINE
  8
COND
 66
1
 70
0
 40
0.000000
 41
0.000000
 39
0.000000
  0
VERTEX
  8
COND
 10
1130.000000
 20
262.980000
 40
13.000000
 41
13.000000
 42
0.000000
  0
VERTEX
  8
COND
 10
1130.000000
 20
320.000000
 40
13.000000
 41
13.000000
 42
0.000000
  0
SEQEND
  0
POLYLINE
  8
COND
 66
1
 70
0
 40
0.000000
 41
0.000000
 39
0.000000
  0
VERTEX
  8
COND
 10
1170.000000
 20
100.000000
 40
13.000000
 41
13.000000
 42
0.000000
  0
VERTEX
  8
COND
 10
1227.020000
 20
100.000000
 40
13.000000
 41
13.000000
 42
0.000000
  0
SEQEND
  0
POLYLINE
  8
COND
 66
1
 70
0
 40
0.000000
 41
0.000000
 39
0.000000
  0
VERTEX
  8
COND
 10
1112.980000
 20
100.000000
 40
13.000000
 41
13.000000
 42
0.000000
  0
VERTEX
  8
COND
 10
1170.000000
 20
100.000000
 40
13.000000
 41
13.000000
 42
0.000000
  0
SEQEND
  0
POLYLINE
  8
COND
 66
1
 70
0
 40
0.000000
 41
0.000000
 39
0.000000
  0
VERTEX
  8
COND
 10
1170.000000
 20
100.000000
 40
13.000000
 41
13.000000
 42
0.000000
  0
VERTEX
  8
COND
 10
1170.000000
 20
157.020000
 40
13.000000
 41
13.000000
 42
0.000000
  0
SEQEND
  0
POLYLINE
  8
COND
 66
1
 70
0
 40
0.000000
 41
0.000000
 39
0.000000
  0
VERTEX
  8
COND
 10
1170.000000
 20
42.980000
 40
13.000000
 41
13.000000
 42
0.000000
  0
VERTEX
  8
COND
 10
1170.000000
 20
100.000000
 40
13.000000
 41
13.000000
 42
0.000000
  0
SEQEND
  0
POLYLINE
  8
COND
 66
1
 70
0
 40
0.000000
 41
0.000000
 39
0.000000
  0
VERTEX
  8
COND
 10
930.000000
 20
520.000000
 40
13.000000
 41
13.000000
 42
0.000000
  0
VERTEX
  8
COND
 10
987.020000
 20
520.000000
 40
13.000000
 41
13.000000
 42
0.000000
  0
SEQEND
  0
POLYLINE
  8
COND
 66
1
 70
0
 40
0.000000
 41
0.000000
 39
0.000000
  0
VERTEX
  8
COND
 10
872.980000
 20
520.000000
 40
13.000000
 41
13.000000
 42
0.000000
  0
VERTEX
  8
COND
 10
930.000000
 20
520.000000
 40
13.000000
 41
13.000000
 42
0.000000
  0
SEQEND
  0
POLYLINE
  8
COND
 66
1
 70
0
 40
0.000000
 41
0.000000
 39
0.000000
  0
VERTEX
  8
COND
 10
930.000000
 20
520.000000
 40
13.000000
 41
13.000000
 42
0.000000
  0
VERTEX
  8
COND
 10
930.000000
 20
577.020000
 40
13.000000
 41
13.000000
 42
0.000000
  0
SEQEND
  0
POLYLINE
  8
COND
 66
1
 70
0
 40
0.000000
 41
0.000000
 39
0.000000
  0
VERTEX
  8
COND
 10
930.000000
 20
462.980000
 40
13.000000
 41
13.000000
 42
0.000000
  0
VERTEX
  8
COND
 10
930.000000
 20
520.000000
 40
13.000000
 41
13.000000
 42
0.000000
  0
SEQEND
  0
POLYLINE
  8
COND2
 66
1
 70
0
 40
0.000000
 41
0.000000
 39
0.000000
  0
VERTEX
  8
COND2
 10
-930.000000
 20
-520.000000
 40
13.000000
 41
13.000000
 42
0.000000
  0
VERTEX
  8
COND2
 10
-877.980000
 20
-520.000000
 40
13.000000
 41
13.000000
 42
0.000000
  0
SEQEND
  0
POLYLINE
  8
COND2
 66
1
 70
0
 40
0.000000
 41
0.000000
 39
0.000000
  0
VERTEX
  8
COND2
 10
-982.020000
 20
-520.000000
 40
13.000000
 41
13.000000
 42
0.000000
  0
VERTEX
  8
COND2
 10
-930.000000
 20
-520.000000
 40
13.000000
 41
13.000000
 42
0.000000
  0
SEQEND
  0
POLYLINE
  8
COND2
 66
1
 70
0
 40
0.000000
 41
0.000000
 39
0.000000
  0
VERTEX
  8
COND2
 10
-930.000000
 20
-520.000000
 40
13.000000
 41
13.000000
 42
0.000000
  0
VERTEX
  8
COND2
 10
-930.000000
 20
-467.980000
 40
13.000000
 41
13.000000
 42
0.000000
  0
SEQEND
  0
POLYLINE
  8
COND2
 66
1
 70
0
 40
0.000000
 41
0.000000
 39
0.000000
  0
VERTEX
  8
COND2
 10
-930.000000
 20
-572.020000
 40
13.000000
 41
13.000000
 42
0.000000
  0
VERTEX
  8
COND2
 10
-930.000000
 20
-520.000000
 40
13.000000
 41
13.000000
 42
0.000000
  0
SEQEND
  0
POLYLINE
  8
COND2
 66
1
 70
0
 40
0.000000
 41
0.000000
 39
0.000000
  0
VERTEX
  8
COND2
 10
-1130.000000
 20
-320.000000
 40
13.000000
 41
13.000000
 42
0.000000
  0
VERTEX
  8
COND2
 10
-1077.980000
 20
-320.000000
 40
13.000000
 41
13.000000
 42
0.000000
  0
SEQEND
  0
POLYLINE
  8
COND2
 66
1
 70
0
 40
0.000000
 41
0.000000
 39
0.000000
  0
VERTEX
  8
COND2
 10
-1182.020000
 20
-320.000000
 40
13.000000
 41
13.000000
 42
0.000000
  0
VERTEX
  8
COND2
 10
-1130.000000
 20
-320.000000
 40
13.000000
 41
13.000000
 42
0.000000
  0
SEQEND
  0
POLYLINE
  8
COND2
 66
1
 70
0
 40
0.000000
 41
0.000000
 39
0.000000
  0
VERTEX
  8
COND2
 10
-1130.000000
 20
-320.000000
 40
13.000000
 41
13.000000
 42
0.000000
  0
VERTEX
  8
COND2
 10
-1130.000000
 20
-267.980000
 40
13.000000
 41
13.000000
 42
0.000000
  0
SEQEND
  0
POLYLINE
  8
COND2
 66
1
 70
0
 40
0.000000
 41
0.000000
 39
0.000000
  0
VERTEX
  8
COND2
 10
-1130.000000
 20
-372.020000
 40
13.000000
 41
13.000000
 42
0.000000
  0
VERTEX
  8
COND2
 10
-1130.000000
 20
-320.000000
 40
13.000000
 41
13.000000
 42
0.000000
  0
SEQEND
  0
POLYLINE
  8
COND2
 66
1
 70
0
 40
0.000000
 41
0.000000
 39
0.000000
  0
VERTEX
  8
COND2
 10
-1170.000000
 20
-100.000000
 40
13.000000
 41
13.000000
 42
0.000000
  0
VERTEX
  8
COND2
 10
-1117.980000
 20
-100.000000
 40
13.000000
 41
13.000000
 42
0.000000
  0
SEQEND
  0
POLYLINE
  8
COND2
 66
1
 70
0
 40
0.000000
 41
0.000000
 39
0.000000
  0
VERTEX
  8
COND2
 10
-1222.020000
 20
-100.000000
 40
13.000000
 41
13.000000
 42
0.000000
  0
VERTEX
  8
COND2
 10
-1170.000000
 20
-100.000000
 40
13.000000
 41
13.000000
 42
0.000000
  0
SEQEND
  0
POLYLINE
  8
COND2
 66
1
 70
0
 40
0.000000
 41
0.000000
 39
0.000000
  0
VERTEX
  8
COND2
 10
-1170.000000
 20
-100.000000
 40
13.000000
 41
13.000000
 42
0.000000
  0
VERTEX
  8
COND2
 10
-1170.000000
 20
-47.980000
 40
13.000000
 41
13.000000
 42
0.000000
  0
SEQEND
  0
POLYLINE
  8
COND2
 66
1
 70
0
 40
0.000000
 41
0.000000
 39
0.000000
  0
VERTEX
  8
COND2
 10
-1170.000000
 20
-152.020000
 40
13.000000
 41
13.000000
 42
0.000000
  0
VERTEX
  8
COND2
 10
-1170.000000
 20
-100.000000
 40
13.000000
 41
13.000000
 42
0.000000
  0
SEQEND
  0
POLYLINE
  8
COND2
 66
1
 70
0
 40
0.000000
 41
0.000000
 39
0.000000
  0
VERTEX
  8
COND2
 10
-1130.000000
 20
320.000000
 40
13.000000
 41
13.000000
 42
0.000000
  0
VERTEX
  8
COND2
 10
-1077.980000
 20
320.000000
 40
13.000000
 41
13.000000
 42
0.000000
  0
SEQEND
  0
POLYLINE
  8
COND2
 66
1
 70
0
 40
0.000000
 41
0.000000
 39
0.000000
  0
VERTEX
  8
COND2
 10
-1182.020000
 20
320.000000
 40
13.000000
 41
13.000000
 42
0.000000
  0
VERTEX
  8
COND2
 10
-1130.000000
 20
320.000000
 40
13.000000
 41
13.000000
 42
0.000000
  0
SEQEND
  0
POLYLINE
  8
COND2
 66
1
 70
0
 40
0.000000
 41
0.000000
 39
0.000000
  0
VERTEX
  8
COND2
 10
-1130.000000
 20
320.000000
 40
13.000000
 41
13.000000
 42
0.000000
  0
VERTEX
  8
COND2
 10
-1130.000000
 20
372.020000
 40
13.000000
 41
13.000000
 42
0.000000
  0
SEQEND
  0
POLYLINE
  8
COND2
 66
1
 70
0
 40
0.000000
 41
0.000000
 39
0.000000
  0
VERTEX
  8
COND2
 10
-1130.000000
 20
267.980000
 40
13.000000
 41
13.000000
 42
0.000000
  0
VERTEX
  8
COND2
 10
-1130.000000
 20
320.000000
 40
13.000000
 41
13.000000
 42
0.000000
  0
SEQEND
  0
POLYLINE
  8
COND2
 66
1
 70
0
 40
0.000000
 41
0.000000
 39
0.000000
  0
VERTEX
  8
COND2
 10
-970.000000
 20
100.000000
 40
13.000000
 41
13.000000
 42
0.000000
  0
VERTEX
  8
COND2
 10
-917.980000
 20
100.000000
 40
13.000000
 41
13.000000
 42
0.000000
  0
SEQEND
  0
POLYLINE
  8
COND2
 66
1
 70
0
 40
0.000000
 41
0.000000
 39
0.000000
  0
VERTEX
  8
COND2
 10
-1022.020000
 20
100.000000
 40
13.000000
 41
13.000000
 42
0.000000
  0
VERTEX
  8
COND2
 10
-970.000000
 20
100.000000
 40
13.000000
 41
13.000000
 42
0.000000
  0
SEQEND
  0
POLYLINE
  8
COND2
 66
1
 70
0
 40
0.000000
 41
0.000000
 39
0.000000
  0
VERTEX
  8
COND2
 10
-970.000000
 20
100.000000
 40
13.000000
 41
13.000000
 42
0.000000
  0
VERTEX
  8
COND2
 10
-970.000000
 20
152.020000
 40
13.000000
 41
13.000000
 42
0.000000
  0
SEQEND
  0
POLYLINE
  8
COND2
 66
1
 70
0
 40
0.000000
 41
0.000000
 39
0.000000
  0
VERTEX
  8
COND2
 10
-970.000000
 20
47.980000
 40
13.000000
 41
13.000000
 42
0.000000
  0
VERTEX
  8
COND2
 10
-970.000000
 20
100.000000
 40
13.000000
 41
13.000000
 42
0.000000
  0
SEQEND
  0
POLYLINE
  8
COND2
 66
1
 70
0
 40
0.000000
 41
0.000000
 39
0.000000
  0
VERTEX
  8
COND2
 10
-930.000000
 20
520.000000
 40
13.000000
 41
13.000000
 42
0.000000
  0
VERTEX
  8
COND2
 10
-877.980000
 20
520.000000
 40
13.000000
 41
13.000000
 42
0.000000
  0
SEQEND
  0
POLYLINE
  8
COND2
 66
1
 70
0
 40
0.000000
 41
0.000000
 39
0.000000
  0
VERTEX
  8
COND2
 10
-982.020000
 20
520.000000
 40
13.000000
 41
13.000000
 42
0.000000
  0
VERTEX
  8
COND2
 10
-930.000000
 20
520.000000
 40
13.000000
 41
13.000000
 42
0.000000
  0
SEQEND
  0
POLYLINE
  8
COND2
 66
1
 70
0
 40
0.000000
 41
0.000000
 39
0.000000
  0
VERTEX
  8
COND2
 10
-930.000000
 20
520.000000
 40
13.000000
 41
13.000000
 42
0.000000
  0
VERTEX
  8
COND2
 10
-930.000000
 20
572.020000
 40
13.000000
 41
13.000000
 42
0.000000
  0
SEQEND
  0
POLYLINE
  8
COND2
 66
1
 70
0
 40
0.000000
 41
0.000000
 39
0.000000
  0
VERTEX
  8
COND2
 10
-930.000000
 20
467.980000
 40
13.000000
 41
13.000000
 42
0.000000
  0
VERTEX
  8
COND2
 10
-930.000000
 20
520.000000
 40
13.000000
 41
13.000000
 42
0.000000
  0
SEQEND
  0
POLYLINE
  8
COND2
 66
1
 70
0
 40
0.000000
 41
0.000000
 39
0.000000
  0
VERTEX
  8
COND2
 10
-320.000000
 20
-1130.000000
 40
13.000000
 41
13.000000
 42
0.000000
  0
VERTEX
  8
COND2
 10
-267.980000
 20
-1130.000000
 40
13.000000
 41
13.000000
 42
0.000000
  0
SEQEND
  0
POLYLINE
  8
COND2
 66
1
 70
0
 40
0.000000
 41
0.000000
 39
0.000000
  0
VERTEX
  8
COND2
 10
-372.020000
 20
-1130.000000
 40
13.000000
 41
13.000000
 42
0.000000
  0
VERTEX
  8
COND2
 10
-320.000000
 20
-1130.000000
 40
13.000000
 41
13.000000
 42
0.000000
  0
SEQEND
  0
POLYLINE
  8
COND2
 66
1
 70
0
 40
0.000000
 41
0.000000
 39
0.000000
  0
VERTEX
  8
COND2
 10
-320.000000
 20
-1130.000000
 40
13.000000
 41
13.000000
 42
0.000000
  0
VERTEX
  8
COND2
 10
-320.000000
 20
-1077.980000
 40
13.000000
 41
13.000000
 42
0.000000
  0
SEQEND
  0
POLYLINE
  8
COND2
 66
1
 70
0
 40
0.000000
 41
0.000000
 39
0.000000
  0
VERTEX
  8
COND2
 10
-320.000000
 20
-1182.020000
 40
13.000000
 41
13.000000
 42
0.000000
  0
VERTEX
  8
COND2
 10
-320.000000
 20
-1130.000000
 40
13.000000
 41
13.000000
 42
0.000000
  0
SEQEND
  0
POLYLINE
  8
COND2
 66
1
 70
0
 40
0.000000
 41
0.000000
 39
0.000000
  0
VERTEX
  8
COND2
 10
-520.000000
 20
-930.000000
 40
13.000000
 41
13.000000
 42
0.000000
  0
VERTEX
  8
COND2
 10
-467.980000
 20
-930.000000
 40
13.000000
 41
13.000000
 42
0.000000
  0
SEQEND
  0
POLYLINE
  8
COND2
 66
1
 70
0
 40
0.000000
 41
0.000000
 39
0.000000
  0
VERTEX
  8
COND2
 10
-572.020000
 20
-930.000000
 40
13.000000
 41
13.000000
 42
0.000000
  0
VERTEX
  8
COND2
 10
-520.000000
 20
-930.000000
 40
13.000000
 41
13.000000
 42
0.000000
  0
SEQEND
  0
POLYLINE
  8
COND2
 66
1
 70
0
 40
0.000000
 41
0.000000
 39
0.000000
  0
VERTEX
  8
COND2
 10
-520.000000
 20
-930.000000
 40
13.000000
 41
13.000000
 42
0.000000
  0
VERTEX
  8
COND2
 10
-520.000000
 20
-877.980000
 40
13.000000
 41
13.000000
 42
0.000000
  0
SEQEND
  0
POLYLINE
  8
COND2
 66
1
 70
0
 40
0.000000
 41
0.000000
 39
0.000000
  0
VERTEX
  8
COND2
 10
-520.000000
 20
-982.020000
 40
13.000000
 41
13.000000
 42
0.000000
  0
VERTEX
  8
COND2
 10
-520.000000
 20
-930.000000
 40
13.000000
 41
13.000000
 42
0.000000
  0
SEQEND
  0
POLYLINE
  8
COND2
 66
1
 70
0
 40
0.000000
 41
0.000000
 39
0.000000
  0
VERTEX
  8
COND2
 10
-520.000000
 20
930.000000
 40
13.000000
 41
13.000000
 42
0.000000
  0
VERTEX
  8
COND2
 10
-467.980000
 20
930.000000
 40
13.000000
 41
13.000000
 42
0.000000
  0
SEQEND
  0
POLYLINE
  8
COND2
 66
1
 70
0
 40
0.000000
 41
0.000000
 39
0.000000
  0
VERTEX
  8
COND2
 10
-572.020000
 20
930.000000
 40
13.000000
 41
13.000000
 42
0.000000
  0
VERTEX
  8
COND2
 10
-520.000000
 20
930.000000
 40
13.000000
 41
13.000000
 42
0.000000
  0
SEQEND
  0
POLYLINE
  8
COND2
 66
1
 70
0
 40
0.000000
 41
0.000000
 39
0.000000
  0
VERTEX
  8
COND2
 10
-520.000000
 20
930.000000
 40
13.000000
 41
13.000000
 42
0.000000
  0
VERTEX
  8
COND2
 10
-520.000000
 20
982.020000
 40
13.000000
 41
13.000000
 42
0.000000
  0
SEQEND
  0
POLYLINE
  8
COND2
 66
1
 70
0
 40
0.000000
 41
0.000000
 39
0.000000
  0
VERTEX
  8
COND2
 10
-520.000000
 20
877.980000
 40
13.000000
 41
13.000000
 42
0.000000
  0
VERTEX
  8
COND2
 10
-520.000000
 20
930.000000
 40
13.000000
 41
13.000000
 42
0.000000
  0
SEQEND
  0
POLYLINE
  8
COND2
 66
1
 70
0
 40
0.000000
 41
0.000000
 39
0.000000
  0
VERTEX
  8
COND2
 10
-320.000000
 20
1130.000000
 40
13.000000
 41
13.000000
 42
0.000000
  0
VERTEX
  8
COND2
 10
-267.980000
 20
1130.000000
 40
13.000000
 41
13.000000
 42
0.000000
  0
SEQEND
  0
POLYLINE
  8
COND2
 66
1
 70
0
 40
0.000000
 41
0.000000
 39
0.000000
  0
VERTEX
  8
COND2
 10
-372.020000
 20
1130.000000
 40
13.000000
 41
13.000000
 42
0.000000
  0
VERTEX
  8
COND2
 10
-320.000000
 20
1130.000000
 40
13.000000
 41
13.000000
 42
0.000000
  0
SEQEND
  0
POLYLINE
  8
COND2
 66
1
 70
0
 40
0.000000
 41
0.000000
 39
0.000000
  0
VERTEX
  8
COND2
 10
-320.000000
 20
1130.000000
 40
13.000000
 41
13.000000
 42
0.000000
  0
VERTEX
  8
COND2
 10
-320.000000
 20
1182.020000
 40
13.000000
 41
13.000000
 42
0.000000
  0
SEQEND
  0
POLYLINE
  8
COND2
 66
1
 70
0
 40
0.000000
 41
0.000000
 39
0.000000
  0
VERTEX
  8
COND2
 10
-320.000000
 20
1077.980000
 40
13.000000
 41
13.000000
 42
0.000000
  0
VERTEX
  8
COND2
 10
-320.000000
 20
1130.000000
 40
13.000000
 41
13.000000
 42
0.000000
  0
SEQEND
  0
POLYLINE
  8
COND2
 66
1
 70
0
 40
0.000000
 41
0.000000
 39
0.000000
  0
VERTEX
  8
COND2
 10
-100.000000
 20
-1170.000000
 40
13.000000
 41
13.000000
 42
0.000000
  0
VERTEX
  8
COND2
 10
-47.980000
 20
-1170.000000
 40
13.000000
 41
13.000000
 42
0.000000
  0
SEQEND
  0
POLYLINE
  8
COND2
 66
1
 70
0
 40
0.000000
 41
0.000000
 39
0.000000
  0
VERTEX
  8
COND2
 10
-152.020000
 20
-1170.000000
 40
13.000000
 41
13.000000
 42
0.000000
  0
VERTEX
  8
COND2
 10
-100.000000
 20
-1170.000000
 40
13.000000
 41
13.000000
 42
0.000000
  0
SEQEND
  0
POLYLINE
  8
COND2
 66
1
 70
0
 40
0.000000
 41
0.000000
 39
0.000000
  0
VERTEX
  8
COND2
 10
-100.000000
 20
-1170.000000
 40
13.000000
 41
13.000000
 42
0.000000
  0
VERTEX
  8
COND2
 10
-100.000000
 20
-1117.980000
 40
13.000000
 41
13.000000
 42
0.000000
  0
SEQEND
  0
POLYLINE
  8
COND2
 66
1
 70
0
 40
0.000000
 41
0.000000
 39
0.000000
  0
VERTEX
  8
COND2
 10
-100.000000
 20
-1222.020000
 40
13.000000
 41
13.000000
 42
0.000000
  0
VERTEX
  8
COND2
 10
-100.000000
 20
-1170.000000
 40
13.000000
 41
13.000000
 42
0.000000
  0
SEQEND
  0
POLYLINE
  8
COND2
 66
1
 70
0
 40
0.000000
 41
0.000000
 39
0.000000
  0
VERTEX
  8
COND2
 10
-100.000000
 20
970.000000
 40
13.000000
 41
13.000000
 42
0.000000
  0
VERTEX
  8
COND2
 10
-47.980000
 20
970.000000
 40
13.000000
 41
13.000000
 42
0.000000
  0
SEQEND
  0
POLYLINE
  8
COND2
 66
1
 70
0
 40
0.000000
 41
0.000000
 39
0.000000
  0
VERTEX
  8
COND2
 10
-152.020000
 20
970.000000
 40
13.000000
 41
13.000000
 42
0.000000
  0
VERTEX
  8
COND2
 10
-100.000000
 20
970.000000
 40
13.000000
 41
13.000000
 42
0.000000
  0
SEQEND
  0
POLYLINE
  8
COND2
 66
1
 70
0
 40
0.000000
 41
0.000000
 39
0.000000
  0
VERTEX
  8
COND2
 10
-100.000000
 20
970.000000
 40
13.000000
 41
13.000000
 42
0.000000
  0
VERTEX
  8
COND2
 10
-100.000000
 20
1022.020000
 40
13.000000
 41
13.000000
 42
0.000000
  0
SEQEND
  0
POLYLINE
  8
COND2
 66
1
 70
0
 40
0.000000
 41
0.000000
 39
0.000000
  0
VERTEX
  8
COND2
 10
-100.000000
 20
917.980000
 40
13.000000
 41
13.000000
 42
0.000000
  0
VERTEX
  8
COND2
 10
-100.000000
 20
970.000000
 40
13.000000
 41
13.000000
 42
0.000000
  0
SEQEND
  0
POLYLINE
  8
COND2
 66
1
 70
0
 40
0.000000
 41
0.000000
 39
0.000000
  0
VERTEX
  8
COND2
 10
100.000000
 20
-970.000000
 40
13.000000
 41
13.000000
 42
0.000000
  0
VERTEX
  8
COND2
 10
152.020000
 20
-970.000000
 40
13.000000
 41
13.000000
 42
0.000000
  0
SEQEND
  0
POLYLINE
  8
COND2
 66
1
 70
0
 40
0.000000
 41
0.000000
 39
0.000000
  0
VERTEX
  8
COND2
 10
47.980000
 20
-970.000000
 40
13.000000
 41
13.000000
 42
0.000000
  0
VERTEX
  8
COND2
 10
100.000000
 20
-970.000000
 40
13.000000
 41
13.000000
 42
0.000000
  0
SEQEND
  0
POLYLINE
  8
COND2
 66
1
 70
0
 40
0.000000
 41
0.000000
 39
0.000000
  0
VERTEX
  8
COND2
 10
100.000000
 20
-970.000000
 40
13.000000
 41
13.000000
 42
0.000000
  0
VERTEX
  8
COND2
 10
100.000000
 20
-917.980000
 40
13.000000
 41
13.000000
 42
0.000000
  0
SEQEND
  0
POLYLINE
  8
COND2
 66
1
 70
0
 40
0.000000
 41
0.000000
 39
0.000000
  0
VERTEX
  8
COND2
 10
100.000000
 20
-1022.020000
 40
13.000000
 41
13.000000
 42
0.000000
  0
VERTEX
  8
COND2
 10
100.000000
 20
-970.000000
 40
13.000000
 41
13.000000
 42
0.000000
  0
SEQEND
  0
POLYLINE
  8
COND2
 66
1
 70
0
 40
0.000000
 41
0.000000
 39
0.000000
  0
VERTEX
  8
COND2
 10
100.000000
 20
1170.000000
 40
13.000000
 41
13.000000
 42
0.000000
  0
VERTEX
  8
COND2
 10
152.020000
 20
1170.000000
 40
13.000000
 41
13.000000
 42
0.000000
  0
SEQEND
  0
POLYLINE
  8
COND2
 66
1
 70
0
 40
0.000000
 41
0.000000
 39
0.000000
  0
VERTEX
  8
COND2
 10
47.980000
 20
1170.000000
 40
13.000000
 41
13.000000
 42
0.000000
  0
VERTEX
  8
COND2
 10
100.000000
 20
1170.000000
 40
13.000000
 41
13.000000
 42
0.000000
  0
SEQEND
  0
POLYLINE
  8
COND2
 66
1
 70
0
 40
0.000000
 41
0.000000
 39
0.000000
  0
VERTEX
  8
COND2
 10
100.000000
 20
1170.000000
 40
13.000000
 41
13.000000
 42
0.000000
  0
VERTEX
  8
COND2
 10
100.000000
 20
1222.020000
 40
13.000000
 41
13.000000
 42
0.000000
  0
SEQEND
  0
POLYLINE
  8
COND2
 66
1
 70
0
 40
0.000000
 41
0.000000
 39
0.000000
  0
VERTEX
  8
COND2
 10
100.000000
 20
1117.980000
 40
13.000000
 41
13.000000
 42
0.000000
  0
VERTEX
  8
COND2
 10
100.000000
 20
1170.000000
 40
13.000000
 41
13.000000
 42
0.000000
  0
SEQEND
  0
POLYLINE
  8
COND2
 66
1
 70
0
 40
0.000000
 41
0.000000
 39
0.000000
  0
VERTEX
  8
COND2
 10
320.000000
 20
-1130.000000
 40
13.000000
 41
13.000000
 42
0.000000
  0
VERTEX
  8
COND2
 10
372.020000
 20
-1130.000000
 40
13.000000
 41
13.000000
 42
0.000000
  0
SEQEND
  0
POLYLINE
  8
COND2
 66
1
 70
0
 40
0.000000
 41
0.000000
 39
0.000000
  0
VERTEX
  8
COND2
 10
267.980000
 20
-1130.000000
 40
13.000000
 41
13.000000
 42
0.000000
  0
VERTEX
  8
COND2
 10
320.000000
 20
-1130.000000
 40
13.000000
 41
13.000000
 42
0.000000
  0
SEQEND
  0
POLYLINE
  8
COND2
 66
1
 70
0
 40
0.000000
 41
0.000000
 39
0.000000
  0
VERTEX
  8
COND2
 10
320.000000
 20
-1130.000000
 40
13.000000
 41
13.000000
 42
0.000000
  0
VERTEX
  8
COND2
 10
320.000000
 20
-1077.980000
 40
13.000000
 41
13.000000
 42
0.000000
  0
SEQEND
  0
POLYLINE
  8
COND2
 66
1
 70
0
 40
0.000000
 41
0.000000
 39
0.000000
  0
VERTEX
  8
COND2
 10
320.000000
 20
-1182.020000
 40
13.000000
 41
13.000000
 42
0.000000
  0
VERTEX
  8
COND2
 10
320.000000
 20
-1130.000000
 40
13.000000
 41
13.000000
 42
0.000000
  0
SEQEND
  0
POLYLINE
  8
COND2
 66
1
 70
0
 40
0.000000
 41
0.000000
 39
0.000000
  0
VERTEX
  8
COND2
 10
520.000000
 20
-930.000000
 40
13.000000
 41
13.000000
 42
0.000000
  0
VERTEX
  8
COND2
 10
572.020000
 20
-930.000000
 40
13.000000
 41
13.000000
 42
0.000000
  0
SEQEND
  0
POLYLINE
  8
COND2
 66
1
 70
0
 40
0.000000
 41
0.000000
 39
0.000000
  0
VERTEX
  8
COND2
 10
467.980000
 20
-930.000000
 40
13.000000
 41
13.000000
 42
0.000000
  0
VERTEX
  8
COND2
 10
520.000000
 20
-930.000000
 40
13.000000
 41
13.000000
 42
0.000000
  0
SEQEND
  0
POLYLINE
  8
COND2
 66
1
 70
0
 40
0.000000
 41
0.000000
 39
0.000000
  0
VERTEX
  8
COND2
 10
520.000000
 20
-930.000000
 40
13.000000
 41
13.000000
 42
0.000000
  0
VERTEX
  8
COND2
 10
520.000000
 20
-877.980000
 40
13.000000
 41
13.000000
 42
0.000000
  0
SEQEND
  0
POLYLINE
  8
COND2
 66
1
 70
0
 40
0.000000
 41
0.000000
 39
0.000000
  0
VERTEX
  8
COND2
 10
520.000000
 20
-982.020000
 40
13.000000
 41
13.000000
 42
0.000000
  0
VERTEX
  8
COND2
 10
520.000000
 20
-930.000000
 40
13.000000
 41
13.000000
 42
0.000000
  0
SEQEND
  0
POLYLINE
  8
COND2
 66
1
 70
0
 40
0.000000
 41
0.000000
 39
0.000000
  0
VERTEX
  8
COND2
 10
520.000000
 20
930.000000
 40
13.000000
 41
13.000000
 42
0.000000
  0
VERTEX
  8
COND2
 10
572.020000
 20
930.000000
 40
13.000000
 41
13.000000
 42
0.000000
  0
SEQEND
  0
POLYLINE
  8
COND2
 66
1
 70
0
 40
0.000000
 41
0.000000
 39
0.000000
  0
VERTEX
  8
COND2
 10
467.980000
 20
930.000000
 40
13.000000
 41
13.000000
 42
0.000000
  0
VERTEX
  8
COND2
 10
520.000000
 20
930.000000
 40
13.000000
 41
13.000000
 42
0.000000
  0
SEQEND
  0
POLYLINE
  8
COND2
 66
1
 70
0
 40
0.000000
 41
0.000000
 39
0.000000
  0
VERTEX
  8
COND2
 10
520.000000
 20
930.000000
 40
13.000000
 41
13.000000
 42
0.000000
  0
VERTEX
  8
COND2
 10
520.000000
 20
982.020000
 40
13.000000
 41
13.000000
 42
0.000000
  0
SEQEND
  0
POLYLINE
  8
COND2
 66
1
 70
0
 40
0.000000
 41
0.000000
 39
0.000000
  0
VERTEX
  8
COND2
 10
520.000000
 20
877.980000
 40
13.000000
 41
13.000000
 42
0.000000
  0
VERTEX
  8
COND2
 10
520.000000
 20
930.000000
 40
13.000000
 41
13.000000
 42
0.000000
  0
SEQEND
  0
POLYLINE
  8
COND2
 66
1
 70
0
 40
0.000000
 41
0.000000
 39
0.000000
  0
VERTEX
  8
COND2
 10
320.000000
 20
1130.000000
 40
13.000000
 41
13.000000
 42
0.000000
  0
VERTEX
  8
COND2
 10
372.020000
 20
1130.000000
 40
13.000000
 41
13.000000
 42
0.000000
  0
SEQEND
  0
POLYLINE
  8
COND2
 66
1
 70
0
 40
0.000000
 41
0.000000
 39
0.000000
  0
VERTEX
  8
COND2
 10
267.980000
 20
1130.000000
 40
13.000000
 41
13.000000
 42
0.000000
  0
VERTEX
  8
COND2
 10
320.000000
 20
1130.000000
 40
13.000000
 41
13.000000
 42
0.000000
  0
SEQEND
  0
POLYLINE
  8
COND2
 66
1
 70
0
 40
0.000000
 41
0.000000
 39
0.000000
  0
VERTEX
  8
COND2
 10
320.000000
 20
1130.000000
 40
13.000000
 41
13.000000
 42
0.000000
  0
VERTEX
  8
COND2
 10
320.000000
 20
1182.020000
 40
13.000000
 41
13.000000
 42
0.000000
  0
SEQEND
  0
POLYLINE
  8
COND2
 66
1
 70
0
 40
0.000000
 41
0.000000
 39
0.000000
  0
VERTEX
  8
COND2
 10
320.000000
 20
1077.980000
 40
13.000000
 41
13.000000
 42
0.000000
  0
VERTEX
  8
COND2
 10
320.000000
 20
1130.000000
 40
13.000000
 41
13.000000
 42
0.000000
  0
SEQEND
  0
POLYLINE
  8
COND2
 66
1
 70
0
 40
0.000000
 41
0.000000
 39
0.000000
  0
VERTEX
  8
COND2
 10
930.000000
 20
-520.000000
 40
13.000000
 41
13.000000
 42
0.000000
  0
VERTEX
  8
COND2
 10
982.020000
 20
-520.000000
 40
13.000000
 41
13.000000
 42
0.000000
  0
SEQEND
  0
POLYLINE
  8
COND2
 66
1
 70
0
 40
0.000000
 41
0.000000
 39
0.000000
  0
VERTEX
  8
COND2
 10
877.980000
 20
-520.000000
 40
13.000000
 41
13.000000
 42
0.000000
  0
VERTEX
  8
COND2
 10
930.000000
 20
-520.000000
 40
13.000000
 41
13.000000
 42
0.000000
  0
SEQEND
  0
POLYLINE
  8
COND2
 66
1
 70
0
 40
0.000000
 41
0.000000
 39
0.000000
  0
VERTEX
  8
COND2
 10
930.000000
 20
-520.000000
 40
13.000000
 41
13.000000
 42
0.000000
  0
VERTEX
  8
COND2
 10
930.000000
 20
-467.980000
 40
13.000000
 41
13.000000
 42
0.000000
  0
SEQEND
  0
POLYLINE
  8
COND2
 66
1
 70
0
 40
0.000000
 41
0.000000
 39
0.000000
  0
VERTEX
  8
COND2
 10
930.000000
 20
-572.020000
 40
13.000000
 41
13.000000
 42
0.000000
  0
VERTEX
  8
COND2
 10
930.000000
 20
-520.000000
 40
13.000000
 41
13.000000
 42
0.000000
  0
SEQEND
  0
POLYLINE
  8
COND2
 66
1
 70
0
 40
0.000000
 41
0.000000
 39
0.000000
  0
VERTEX
  8
COND2
 10
1130.000000
 20
-320.000000
 40
13.000000
 41
13.000000
 42
0.000000
  0
VERTEX
  8
COND2
 10
1182.020000
 20
-320.000000
 40
13.000000
 41
13.000000
 42
0.000000
  0
SEQEND
  0
POLYLINE
  8
COND2
 66
1
 70
0
 40
0.000000
 41
0.000000
 39
0.000000
  0
VERTEX
  8
COND2
 10
1077.980000
 20
-320.000000
 40
13.000000
 41
13.000000
 42
0.000000
  0
VERTEX
  8
COND2
 10
1130.000000
 20
-320.000000
 40
13.000000
 41
13.000000
 42
0.000000
  0
SEQEND
  0
POLYLINE
  8
COND2
 66
1
 70
0
 40
0.000000
 41
0.000000
 39
0.000000
  0
VERTEX
  8
COND2
 10
1130.000000
 20
-320.000000
 40
13.000000
 41
13.000000
 42
0.000000
  0
VERTEX
  8
COND2
 10
1130.000000
 20
-267.980000
 40
13.000000
 41
13.000000
 42
0.000000
  0
SEQEND
  0
POLYLINE
  8
COND2
 66
1
 70
0
 40
0.000000
 41
0.000000
 39
0.000000
  0
VERTEX
  8
COND2
 10
1130.000000
 20
-372.020000
 40
13.000000
 41
13.000000
 42
0.000000
  0
VERTEX
  8
COND2
 10
1130.000000
 20
-320.000000
 40
13.000000
 41
13.000000
 42
0.000000
  0
SEQEND
  0
POLYLINE
  8
COND2
 66
1
 70
0
 40
0.000000
 41
0.000000
 39
0.000000
  0
VERTEX
  8
COND2
 10
970.000000
 20
-100.000000
 40
13.000000
 41
13.000000
 42
0.000000
  0
VERTEX
  8
COND2
 10
1022.020000
 20
-100.000000
 40
13.000000
 41
13.000000
 42
0.000000
  0
SEQEND
  0
POLYLINE
  8
COND2
 66
1
 70
0
 40
0.000000
 41
0.000000
 39
0.000000
  0
VERTEX
  8
COND2
 10
917.980000
 20
-100.000000
 40
13.000000
 41
13.000000
 42
0.000000
  0
VERTEX
  8
COND2
 10
970.000000
 20
-100.000000
 40
13.000000
 41
13.000000
 42
0.000000
  0
SEQEND
  0
POLYLINE
  8
COND2
 66
1
 70
0
 40
0.000000
 41
0.000000
 39
0.000000
  0
VERTEX
  8
COND2
 10
970.000000
 20
-100.000000
 40
13.000000
 41
13.000000
 42
0.000000
  0
VERTEX
  8
COND2
 10
970.000000
 20
-47.980000
 40
13.000000
 41
13.000000
 42
0.000000
  0
SEQEND
  0
POLYLINE
  8
COND2
 66
1
 70
0
 40
0.000000
 41
0.000000
 39
0.000000
  0
VERTEX
  8
COND2
 10
970.000000
 20
-152.020000
 40
13.000000
 41
13.000000
 42
0.000000
  0
VERTEX
  8
COND2
 10
970.000000
 20
-100.000000
 40
13.000000
 41
13.000000
 42
0.000000
  0
SEQEND
  0
POLYLINE
  8
COND2
 66
1
 70
0
 40
0.000000
 41
0.000000
 39
0.000000
  0
VERTEX
  8
COND2
 10
1130.000000
 20
320.000000
 40
13.000000
 41
13.000000
 42
0.000000
  0
VERTEX
  8
COND2
 10
1182.020000
 20
320.000000
 40
13.000000
 41
13.000000
 42
0.000000
  0
SEQEND
  0
POLYLINE
  8
COND2
 66
1
 70
0
 40
0.000000
 41
0.000000
 39
0.000000
  0
VERTEX
  8
COND2
 10
1077.980000
 20
320.000000
 40
13.000000
 41
13.000000
 42
0.000000
  0
VERTEX
  8
COND2
 10
1130.000000
 20
320.000000
 40
13.000000
 41
13.000000
 42
0.000000
  0
SEQEND
  0
POLYLINE
  8
COND2
 66
1
 70
0
 40
0.000000
 41
0.000000
 39
0.000000
  0
VERTEX
  8
COND2
 10
1130.000000
 20
320.000000
 40
13.000000
 41
13.000000
 42
0.000000
  0
VERTEX
  8
COND2
 10
1130.000000
 20
372.020000
 40
13.000000
 41
13.000000
 42
0.000000
  0
SEQEND
  0
POLYLINE
  8
COND2
 66
1
 70
0
 40
0.000000
 41
0.000000
 39
0.000000
  0
VERTEX
  8
COND2
 10
1130.000000
 20
267.980000
 40
13.000000
 41
13.000000
 42
0.000000
  0
VERTEX
  8
COND2
 10
1130.000000
 20
320.000000
 40
13.000000
 41
13.000000
 42
0.000000
  0
SEQEND
  0
POLYLINE
  8
COND2
 66
1
 70
0
 40
0.000000
 41
0.000000
 39
0.000000
  0
VERTEX
  8
COND2
 10
1170.000000
 20
100.000000
 40
13.000000
 41
13.000000
 42
0.000000
  0
VERTEX
  8
COND2
 10
1222.020000
 20
100.000000
 40
13.000000
 41
13.000000
 42
0.000000
  0
SEQEND
  0
POLYLINE
  8
COND2
 66
1
 70
0
 40
0.000000
 41
0.000000
 39
0.000000
  0
VERTEX
  8
COND2
 10
1117.980000
 20
100.000000
 40
13.000000
 41
13.000000
 42
0.000000
  0
VERTEX
  8
COND2
 10
1170.000000
 20
100.000000
 40
13.000000
 41
13.000000
 42
0.000000
  0
SEQEND
  0
POLYLINE
  8
COND2
 66
1
 70
0
 40
0.000000
 41
0.000000
 39
0.000000
  0
VERTEX
  8
COND2
 10
1170.000000
 20
100.000000
 40
13.000000
 41
13.000000
 42
0.000000
  0
VERTEX
  8
COND2
 10
1170.000000
 20
152.020000
 40
13.000000
 41
13.000000
 42
0.000000
  0
SEQEND
  0
POLYLINE
  8
COND2
 66
1
 70
0
 40
0.000000
 41
0.000000
 39
0.000000
  0
VERTEX
  8
COND2
 10
1170.000000
 20
47.980000
 40
13.000000
 41
13.000000
 42
0.000000
  0
VERTEX
  8
COND2
 10
1170.000000
 20
100.000000
 40
13.000000
 41
13.000000
 42
0.000000
  0
SEQEND
  0
POLYLINE
  8
COND2
 66
1
 70
0
 40
0.000000
 41
0.000000
 39
0.000000
  0
VERTEX
  8
COND2
 10
930.000000
 20
520.000000
 40
13.000000
 41
13.000000
 42
0.000000
  0
VERTEX
  8
COND2
 10
982.020000
 20
520.000000
 40
13.000000
 41
13.000000
 42
0.000000
  0
SEQEND
  0
POLYLINE
  8
COND2
 66
1
 70
0
 40
0.000000
 41
0.000000
 39
0.000000
  0
VERTEX
  8
COND2
 10
877.980000
 20
520.000000
 40
13.000000
 41
13.000000
 42
0.000000
  0
VERTEX
  8
COND2
 10
930.000000
 20
520.000000
 40
13.000000
 41
13.000000
 42
0.000000
  0
SEQEND
  0
POLYLINE
  8
COND2
 66
1
 70
0
 40
0.000000
 41
0.000000
 39
0.000000
  0
VERTEX
  8
COND2
 10
930.000000
 20
520.000000
 40
13.000000
 41
13.000000
 42
0.000000
  0
VERTEX
  8
COND2
 10
930.000000
 20
572.020000
 40
13.000000
 41
13.000000
 42
0.000000
  0
SEQEND
  0
POLYLINE
  8
COND2
 66
1
 70
0
 40
0.000000
 41
0.000000
 39
0.000000
  0
VERTEX
  8
COND2
 10
930.000000
 20
467.980000
 40
13.000000
 41
13.000000
 42
0.000000
  0
VERTEX
  8
COND2
 10
930.000000
 20
520.000000
 40
13.000000
 41
13.000000
 42
0.000000
  0
SEQEND
  0
POLYLINE
  8
COND2
 66
1
 70
1
 40
0.000000
 41
0.000000
 39
0.000000
  0
VERTEX
  8
COND2
 10
1329.990000
 20
0.000000
 40
0.000000
 41
0.000000
 42
1.000000
  0
VERTEX
  8
COND2
 10
-1329.990000
 20
0.000000
 40
0.000000
 41
0.000000
 42
1.000000
  0
SEQEND
  0
POLYLINE
  8
COND2
 66
1
 70
1
 40
0.000000
 41
0.000000
 39
0.000000
  0
VERTEX
  8
COND2
 10
980.020000
 20
520.000000
 40
0.000000
 41
0.000000
 42
1.000000
  0
VERTEX
  8
COND2
 10
879.980000
 20
520.000000
 40
0.000000
 41
0.000000
 42
1.000000
  0
SEQEND
  0
POLYLINE
  8
COND2
 66
1
 70
1
 40
0.000000
 41
0.000000
 39
0.000000
  0
VERTEX
  8
COND2
 10
1077.520000
 20
420.000000
 40
0.000000
 41
0.000000
 42
1.000000
  0
VERTEX
  8
COND2
 10
982.480000
 20
420.000000
 40
0.000000
 41
0.000000
 42
1.000000
  0
SEQEND
  0
POLYLINE
  8
COND2
 66
1
 70
1
 40
0.000000
 41
0.000000
 39
0.000000
  0
VERTEX
  8
COND2
 10
960.020000
 20
320.000000
 40
0.000000
 41
0.000000
 42
1.000000
  0
VERTEX
  8
COND2
 10
899.980000
 20
320.000000
 40
0.000000
 41
0.000000
 42
1.000000
  0
SEQEND
  0
POLYLINE
  8
COND2
 66
1
 70
1
 40
0.000000
 41
0.000000
 39
0.000000
  0
VERTEX
  8
COND2
 10
1160.020000
 20
520.000000
 40
0.000000
 41
0.000000
 42
1.000000
  0
VERTEX
  8
COND2
 10
1099.980000
 20
520.000000
 40
0.000000
 41
0.000000
 42
1.000000
  0
SEQEND
  0
POLYLINE
  8
COND2
 66
1
 70
1
 40
0.000000
 41
0.000000
 39
0.000000
  0
VERTEX
  8
COND2
 10
1220.020000
 20
100.000000
 40
0.000000
 41
0.000000
 42
1.000000
  0
VERTEX
  8
COND2
 10
1119.980000
 20
100.000000
 40
0.000000
 41
0.000000
 42
1.000000
  0
SEQEND
  0
POLYLINE
  8
COND2
 66
1
 70
1
 40
0.000000
 41
0.000000
 39
0.000000
  0
VERTEX
  8
COND2
 10
1117.520000
 20
0.000000
 40
0.000000
 41
0.000000
 42
1.000000
  0
VERTEX
  8
COND2
 10
1022.480000
 20
0.000000
 40
0.000000
 41
0.000000
 42
1.000000
  0
SEQEND
  0
POLYLINE
  8
COND2
 66
1
 70
1
 40
0.000000
 41
0.000000
 39
0.000000
  0
VERTEX
  8
COND2
 10
1000.020000
 20
100.000000
 40
0.000000
 41
0.000000
 42
1.000000
  0
VERTEX
  8
COND2
 10
939.980000
 20
100.000000
 40
0.000000
 41
0.000000
 42
1.000000
  0
SEQEND
  0
POLYLINE
  8
COND2
 66
1
 70
1
 40
0.000000
 41
0.000000
 39
0.000000
  0
VERTEX
  8
COND2
 10
1180.020000
 20
320.000000
 40
0.000000
 41
0.000000
 42
1.000000
  0
VERTEX
  8
COND2
 10
1079.980000
 20
320.000000
 40
0.000000
 41
0.000000
 42
1.000000
  0
SEQEND
  0
POLYLINE
  8
COND2
 66
1
 70
1
 40
0.000000
 41
0.000000
 39
0.000000
  0
VERTEX
  8
COND2
 10
1020.020000
 20
-100.000000
 40
0.000000
 41
0.000000
 42
1.000000
  0
VERTEX
  8
COND2
 10
919.980000
 20
-100.000000
 40
0.000000
 41
0.000000
 42
1.000000
  0
SEQEND
  0
POLYLINE
  8
COND2
 66
1
 70
1
 40
0.000000
 41
0.000000
 39
0.000000
  0
VERTEX
  8
COND2
 10
1200.020000
 20
-100.000000
 40
0.000000
 41
0.000000
 42
1.000000
  0
VERTEX
  8
COND2
 10
1139.980000
 20
-100.000000
 40
0.000000
 41
0.000000
 42
1.000000
  0
SEQEND
  0
POLYLINE
  8
COND2
 66
1
 70
1
 40
0.000000
 41
0.000000
 39
0.000000
  0
VERTEX
  8
COND2
 10
1180.020000
 20
-320.000000
 40
0.000000
 41
0.000000
 42
1.000000
  0
VERTEX
  8
COND2
 10
1079.980000
 20
-320.000000
 40
0.000000
 41
0.000000
 42
1.000000
  0
SEQEND
  0
POLYLINE
  8
COND2
 66
1
 70
1
 40
0.000000
 41
0.000000
 39
0.000000
  0
VERTEX
  8
COND2
 10
980.020000
 20
-520.000000
 40
0.000000
 41
0.000000
 42
1.000000
  0
VERTEX
  8
COND2
 10
879.980000
 20
-520.000000
 40
0.000000
 41
0.000000
 42
1.000000
  0
SEQEND
  0
POLYLINE
  8
COND2
 66
1
 70
1
 40
0.000000
 41
0.000000
 39
0.000000
  0
VERTEX
  8
COND2
 10
1077.520000
 20
-420.000000
 40
0.000000
 41
0.000000
 42
1.000000
  0
VERTEX
  8
COND2
 10
982.480000
 20
-420.000000
 40
0.000000
 41
0.000000
 42
1.000000
  0
SEQEND
  0
POLYLINE
  8
COND2
 66
1
 70
1
 40
0.000000
 41
0.000000
 39
0.000000
  0
VERTEX
  8
COND2
 10
960.020000
 20
-320.000000
 40
0.000000
 41
0.000000
 42
1.000000
  0
VERTEX
  8
COND2
 10
899.980000
 20
-320.000000
 40
0.000000
 41
0.000000
 42
1.000000
  0
SEQEND
  0
POLYLINE
  8
COND2
 66
1
 70
1
 40
0.000000
 41
0.000000
 39
0.000000
  0
VERTEX
  8
COND2
 10
1160.020000
 20
-520.000000
 40
0.000000
 41
0.000000
 42
1.000000
  0
VERTEX
  8
COND2
 10
1099.980000
 20
-520.000000
 40
0.000000
 41
0.000000
 42
1.000000
  0
SEQEND
  0
POLYLINE
  8
COND2
 66
1
 70
1
 40
0.000000
 41
0.000000
 39
0.000000
  0
VERTEX
  8
COND2
 10
370.020000
 20
1130.000000
 40
0.000000
 41
0.000000
 42
1.000000
  0
VERTEX
  8
COND2
 10
269.980000
 20
1130.000000
 40
0.000000
 41
0.000000
 42
1.000000
  0
SEQEND
  0
POLYLINE
  8
COND2
 66
1
 70
1
 40
0.000000
 41
0.000000
 39
0.000000
  0
VERTEX
  8
COND2
 10
570.020000
 20
930.000000
 40
0.000000
 41
0.000000
 42
1.000000
  0
VERTEX
  8
COND2
 10
469.980000
 20
930.000000
 40
0.000000
 41
0.000000
 42
1.000000
  0
SEQEND
  0
POLYLINE
  8
COND2
 66
1
 70
1
 40
0.000000
 41
0.000000
 39
0.000000
  0
VERTEX
  8
COND2
 10
467.520000
 20
1030.000000
 40
0.000000
 41
0.000000
 42
1.000000
  0
VERTEX
  8
COND2
 10
372.480000
 20
1030.000000
 40
0.000000
 41
0.000000
 42
1.000000
  0
SEQEND
  0
POLYLINE
  8
COND2
 66
1
 70
1
 40
0.000000
 41
0.000000
 39
0.000000
  0
VERTEX
  8
COND2
 10
350.020000
 20
930.000000
 40
0.000000
 41
0.000000
 42
1.000000
  0
VERTEX
  8
COND2
 10
289.980000
 20
930.000000
 40
0.000000
 41
0.000000
 42
1.000000
  0
SEQEND
  0
POLYLINE
  8
COND2
 66
1
 70
1
 40
0.000000
 41
0.000000
 39
0.000000
  0
VERTEX
  8
COND2
 10
550.020000
 20
1130.000000
 40
0.000000
 41
0.000000
 42
1.000000
  0
VERTEX
  8
COND2
 10
489.980000
 20
1130.000000
 40
0.000000
 41
0.000000
 42
1.000000
  0
SEQEND
  0
POLYLINE
  8
COND2
 66
1
 70
1
 40
0.000000
 41
0.000000
 39
0.000000
  0
VERTEX
  8
COND2
 10
570.020000
 20
-930.000000
 40
0.000000
 41
0.000000
 42
1.000000
  0
VERTEX
  8
COND2
 10
469.980000
 20
-930.000000
 40
0.000000
 41
0.000000
 42
1.000000
  0
SEQEND
  0
POLYLINE
  8
COND2
 66
1
 70
1
 40
0.000000
 41
0.000000
 39
0.000000
  0
VERTEX
  8
COND2
 10
370.020000
 20
-1130.000000
 40
0.000000
 41
0.000000
 42
1.000000
  0
VERTEX
  8
COND2
 10
269.980000
 20
-1130.000000
 40
0.000000
 41
0.000000
 42
1.000000
  0
SEQEND
  0
POLYLINE
  8
COND2
 66
1
 70
1
 40
0.000000
 41
0.000000
 39
0.000000
  0
VERTEX
  8
COND2
 10
467.520000
 20
-1030.000000
 40
0.000000
 41
0.000000
 42
1.000000
  0
VERTEX
  8
COND2
 10
372.480000
 20
-1030.000000
 40
0.000000
 41
0.000000
 42
1.000000
  0
SEQEND
  0
POLYLINE
  8
COND2
 66
1
 70
1
 40
0.000000
 41
0.000000
 39
0.000000
  0
VERTEX
  8
COND2
 10
350.020000
 20
-930.000000
 40
0.000000
 41
0.000000
 42
1.000000
  0
VERTEX
  8
COND2
 10
289.980000
 20
-930.000000
 40
0.000000
 41
0.000000
 42
1.000000
  0
SEQEND
  0
POLYLINE
  8
COND2
 66
1
 70
1
 40
0.000000
 41
0.000000
 39
0.000000
  0
VERTEX
  8
COND2
 10
550.020000
 20
-1130.000000
 40
0.000000
 41
0.000000
 42
1.000000
  0
VERTEX
  8
COND2
 10
489.980000
 20
-1130.000000
 40
0.000000
 41
0.000000
 42
1.000000
  0
SEQEND
  0
POLYLINE
  8
COND2
 66
1
 70
1
 40
0.000000
 41
0.000000
 39
0.000000
  0
VERTEX
  8
COND2
 10
150.020000
 20
1170.000000
 40
0.000000
 41
0.000000
 42
1.000000
  0
VERTEX
  8
COND2
 10
49.980000
 20
1170.000000
 40
0.000000
 41
0.000000
 42
1.000000
  0
SEQEND
  0
POLYLINE
  8
COND2
 66
1
 70
1
 40
0.000000
 41
0.000000
 39
0.000000
  0
VERTEX
  8
COND2
 10
47.520000
 20
1070.000000
 40
0.000000
 41
0.000000
 42
1.000000
  0
VERTEX
  8
COND2
 10
-47.520000
 20
1070.000000
 40
0.000000
 41
0.000000
 42
1.000000
  0
SEQEND
  0
POLYLINE
  8
COND2
 66
1
 70
1
 40
0.000000
 41
0.000000
 39
0.000000
  0
VERTEX
  8
COND2
 10
130.020000
 20
970.000000
 40
0.000000
 41
0.000000
 42
1.000000
  0
VERTEX
  8
COND2
 10
69.980000
 20
970.000000
 40
0.000000
 41
0.000000
 42
1.000000
  0
SEQEND
  0
POLYLINE
  8
COND2
 66
1
 70
1
 40
0.000000
 41
0.000000
 39
0.000000
  0
VERTEX
  8
COND2
 10
150.020000
 20
-970.000000
 40
0.000000
 41
0.000000
 42
1.000000
  0
VERTEX
  8
COND2
 10
49.980000
 20
-970.000000
 40
0.000000
 41
0.000000
 42
1.000000
  0
SEQEND
  0
POLYLINE
  8
COND2
 66
1
 70
1
 40
0.000000
 41
0.000000
 39
0.000000
  0
VERTEX
  8
COND2
 10
47.520000
 20
-1070.000000
 40
0.000000
 41
0.000000
 42
1.000000
  0
VERTEX
  8
COND2
 10
-47.520000
 20
-1070.000000
 40
0.000000
 41
0.000000
 42
1.000000
  0
SEQEND
  0
POLYLINE
  8
COND2
 66
1
 70
1
 40
0.000000
 41
0.000000
 39
0.000000
  0
VERTEX
  8
COND2
 10
130.020000
 20
-1170.000000
 40
0.000000
 41
0.000000
 42
1.000000
  0
VERTEX
  8
COND2
 10
69.980000
 20
-1170.000000
 40
0.000000
 41
0.000000
 42
1.000000
  0
SEQEND
  0
POLYLINE
  8
COND2
 66
1
 70
1
 40
0.000000
 41
0.000000
 39
0.000000
  0
VERTEX
  8
COND2
 10
-49.980000
 20
970.000000
 40
0.000000
 41
0.000000
 42
1.000000
  0
VERTEX
  8
COND2
 10
-150.020000
 20
970.000000
 40
0.000000
 41
0.000000
 42
1.000000
  0
SEQEND
  0
POLYLINE
  8
COND2
 66
1
 70
1
 40
0.000000
 41
0.000000
 39
0.000000
  0
VERTEX
  8
COND2
 10
-69.980000
 20
1170.000000
 40
0.000000
 41
0.000000
 42
1.000000
  0
VERTEX
  8
COND2
 10
-130.020000
 20
1170.000000
 40
0.000000
 41
0.000000
 42
1.000000
  0
SEQEND
  0
POLYLINE
  8
COND2
 66
1
 70
1
 40
0.000000
 41
0.000000
 39
0.000000
  0
VERTEX
  8
COND2
 10
-49.980000
 20
-1170.000000
 40
0.000000
 41
0.000000
 42
1.000000
  0
VERTEX
  8
COND2
 10
-150.020000
 20
-1170.000000
 40
0.000000
 41
0.000000
 42
1.000000
  0
SEQEND
  0
POLYLINE
  8
COND2
 66
1
 70
1
 40
0.000000
 41
0.000000
 39
0.000000
  0
VERTEX
  8
COND2
 10
-69.980000
 20
-970.000000
 40
0.000000
 41
0.000000
 42
1.000000
  0
VERTEX
  8
COND2
 10
-130.020000
 20
-970.000000
 40
0.000000
 41
0.000000
 42
1.000000
  0
SEQEND
  0
POLYLINE
  8
COND2
 66
1
 70
1
 40
0.000000
 41
0.000000
 39
0.000000
  0
VERTEX
  8
COND2
 10
-269.980000
 20
1130.000000
 40
0.000000
 41
0.000000
 42
1.000000
  0
VERTEX
  8
COND2
 10
-370.020000
 20
1130.000000
 40
0.000000
 41
0.000000
 42
1.000000
  0
SEQEND
  0
POLYLINE
  8
COND2
 66
1
 70
1
 40
0.000000
 41
0.000000
 39
0.000000
  0
VERTEX
  8
COND2
 10
-469.980000
 20
930.000000
 40
0.000000
 41
0.000000
 42
1.000000
  0
VERTEX
  8
COND2
 10
-570.020000
 20
930.000000
 40
0.000000
 41
0.000000
 42
1.000000
  0
SEQEND
  0
POLYLINE
  8
COND2
 66
1
 70
1
 40
0.000000
 41
0.000000
 39
0.000000
  0
VERTEX
  8
COND2
 10
-372.480000
 20
1030.000000
 40
0.000000
 41
0.000000
 42
1.000000
  0
VERTEX
  8
COND2
 10
-467.520000
 20
1030.000000
 40
0.000000
 41
0.000000
 42
1.000000
  0
SEQEND
  0
POLYLINE
  8
COND2
 66
1
 70
1
 40
0.000000
 41
0.000000
 39
0.000000
  0
VERTEX
  8
COND2
 10
-489.980000
 20
1130.000000
 40
0.000000
 41
0.000000
 42
1.000000
  0
VERTEX
  8
COND2
 10
-550.020000
 20
1130.000000
 40
0.000000
 41
0.000000
 42
1.000000
  0
SEQEND
  0
POLYLINE
  8
COND2
 66
1
 70
1
 40
0.000000
 41
0.000000
 39
0.000000
  0
VERTEX
  8
COND2
 10
-289.980000
 20
930.000000
 40
0.000000
 41
0.000000
 42
1.000000
  0
VERTEX
  8
COND2
 10
-350.020000
 20
930.000000
 40
0.000000
 41
0.000000
 42
1.000000
  0
SEQEND
  0
POLYLINE
  8
COND2
 66
1
 70
1
 40
0.000000
 41
0.000000
 39
0.000000
  0
VERTEX
  8
COND2
 10
-469.980000
 20
-930.000000
 40
0.000000
 41
0.000000
 42
1.000000
  0
VERTEX
  8
COND2
 10
-570.020000
 20
-930.000000
 40
0.000000
 41
0.000000
 42
1.000000
  0
SEQEND
  0
POLYLINE
  8
COND2
 66
1
 70
1
 40
0.000000
 41
0.000000
 39
0.000000
  0
VERTEX
  8
COND2
 10
-269.980000
 20
-1130.000000
 40
0.000000
 41
0.000000
 42
1.000000
  0
VERTEX
  8
COND2
 10
-370.020000
 20
-1130.000000
 40
0.000000
 41
0.000000
 42
1.000000
  0
SEQEND
  0
POLYLINE
  8
COND2
 66
1
 70
1
 40
0.000000
 41
0.000000
 39
0.000000
  0
VERTEX
  8
COND2
 10
-372.480000
 20
-1030.000000
 40
0.000000
 41
0.000000
 42
1.000000
  0
VERTEX
  8
COND2
 10
-467.520000
 20
-1030.000000
 40
0.000000
 41
0.000000
 42
1.000000
  0
SEQEND
  0
POLYLINE
  8
COND2
 66
1
 70
1
 40
0.000000
 41
0.000000
 39
0.000000
  0
VERTEX
  8
COND2
 10
-489.980000
 20
-1130.000000
 40
0.000000
 41
0.000000
 42
1.000000
  0
VERTEX
  8
COND2
 10
-550.020000
 20
-1130.000000
 40
0.000000
 41
0.000000
 42
1.000000
  0
SEQEND
  0
POLYLINE
  8
COND2
 66
1
 70
1
 40
0.000000
 41
0.000000
 39
0.000000
  0
VERTEX
  8
COND2
 10
-289.980000
 20
-930.000000
 40
0.000000
 41
0.000000
 42
1.000000
  0
VERTEX
  8
COND2
 10
-350.020000
 20
-930.000000
 40
0.000000
 41
0.000000
 42
1.000000
  0
SEQEND
  0
POLYLINE
  8
COND2
 66
1
 70
1
 40
0.000000
 41
0.000000
 39
0.000000
  0
VERTEX
  8
COND2
 10
-879.980000
 20
520.000000
 40
0.000000
 41
0.000000
 42
1.000000
  0
VERTEX
  8
COND2
 10
-980.020000
 20
520.000000
 40
0.000000
 41
0.000000
 42
1.000000
  0
SEQEND
  0
POLYLINE
  8
COND2
 66
1
 70
1
 40
0.000000
 41
0.000000
 39
0.000000
  0
VERTEX
  8
COND2
 10
-982.480000
 20
420.000000
 40
0.000000
 41
0.000000
 42
1.000000
  0
VERTEX
  8
COND2
 10
-1077.520000
 20
420.000000
 40
0.000000
 41
0.000000
 42
1.000000
  0
SEQEND
  0
POLYLINE
  8
COND2
 66
1
 70
1
 40
0.000000
 41
0.000000
 39
0.000000
  0
VERTEX
  8
COND2
 10
-1099.980000
 20
520.000000
 40
0.000000
 41
0.000000
 42
1.000000
  0
VERTEX
  8
COND2
 10
-1160.020000
 20
520.000000
 40
0.000000
 41
0.000000
 42
1.000000
  0
SEQEND
  0
POLYLINE
  8
COND2
 66
1
 70
1
 40
0.000000
 41
0.000000
 39
0.000000
  0
VERTEX
  8
COND2
 10
-899.980000
 20
320.000000
 40
0.000000
 41
0.000000
 42
1.000000
  0
VERTEX
  8
COND2
 10
-960.020000
 20
320.000000
 40
0.000000
 41
0.000000
 42
1.000000
  0
SEQEND
  0
POLYLINE
  8
COND2
 66
1
 70
1
 40
0.000000
 41
0.000000
 39
0.000000
  0
VERTEX
  8
COND2
 10
-919.980000
 20
100.000000
 40
0.000000
 41
0.000000
 42
1.000000
  0
VERTEX
  8
COND2
 10
-1020.020000
 20
100.000000
 40
0.000000
 41
0.000000
 42
1.000000
  0
SEQEND
  0
POLYLINE
  8
COND2
 66
1
 70
1
 40
0.000000
 41
0.000000
 39
0.000000
  0
VERTEX
  8
COND2
 10
-1022.480000
 20
0.000000
 40
0.000000
 41
0.000000
 42
1.000000
  0
VERTEX
  8
COND2
 10
-1117.520000
 20
0.000000
 40
0.000000
 41
0.000000
 42
1.000000
  0
SEQEND
  0
POLYLINE
  8
COND2
 66
1
 70
1
 40
0.000000
 41
0.000000
 39
0.000000
  0
VERTEX
  8
COND2
 10
-1139.980000
 20
100.000000
 40
0.000000
 41
0.000000
 42
1.000000
  0
VERTEX
  8
COND2
 10
-1200.020000
 20
100.000000
 40
0.000000
 41
0.000000
 42
1.000000
  0
SEQEND
  0
POLYLINE
  8
COND2
 66
1
 70
1
 40
0.000000
 41
0.000000
 39
0.000000
  0
VERTEX
  8
COND2
 10
-1079.980000
 20
320.000000
 40
0.000000
 41
0.000000
 42
1.000000
  0
VERTEX
  8
COND2
 10
-1180.020000
 20
320.000000
 40
0.000000
 41
0.000000
 42
1.000000
  0
SEQEND
  0
POLYLINE
  8
COND2
 66
1
 70
1
 40
0.000000
 41
0.000000
 39
0.000000
  0
VERTEX
  8
COND2
 10
-1119.980000
 20
-100.000000
 40
0.000000
 41
0.000000
 42
1.000000
  0
VERTEX
  8
COND2
 10
-1220.020000
 20
-100.000000
 40
0.000000
 41
0.000000
 42
1.000000
  0
SEQEND
  0
POLYLINE
  8
COND2
 66
1
 70
1
 40
0.000000
 41
0.000000
 39
0.000000
  0
VERTEX
  8
COND2
 10
-939.980000
 20
-100.000000
 40
0.000000
 41
0.000000
 42
1.000000
  0
VERTEX
  8
COND2
 10
-1000.020000
 20
-100.000000
 40
0.000000
 41
0.000000
 42
1.000000
  0
SEQEND
  0
POLYLINE
  8
COND2
 66
1
 70
1
 40
0.000000
 41
0.000000
 39
0.000000
  0
VERTEX
  8
COND2
 10
-1079.980000
 20
-320.000000
 40
0.000000
 41
0.000000
 42
1.000000
  0
VERTEX
  8
COND2
 10
-1180.020000
 20
-320.000000
 40
0.000000
 41
0.000000
 42
1.000000
  0
SEQEND
  0
POLYLINE
  8
COND2
 66
1
 70
1
 40
0.000000
 41
0.000000
 39
0.000000
  0
VERTEX
  8
COND2
 10
-879.980000
 20
-520.000000
 40
0.000000
 41
0.000000
 42
1.000000
  0
VERTEX
  8
COND2
 10
-980.020000
 20
-520.000000
 40
0.000000
 41
0.000000
 42
1.000000
  0
SEQEND
  0
POLYLINE
  8
COND2
 66
1
 70
1
 40
0.000000
 41
0.000000
 39
0.000000
  0
VERTEX
  8
COND2
 10
-982.480000
 20
-420.000000
 40
0.000000
 41
0.000000
 42
1.000000
  0
VERTEX
  8
COND2
 10
-1077.520000
 20
-420.000000
 40
0.000000
 41
0.000000
 42
1.000000
  0
SEQEND
  0
POLYLINE
  8
COND2
 66
1
 70
1
 40
0.000000
 41
0.000000
 39
0.000000
  0
VERTEX
  8
COND2
 10
-1099.980000
 20
-520.000000
 40
0.000000
 41
0.000000
 42
1.000000
  0
VERTEX
  8
COND2
 10
-1160.020000
 20
-520.000000
 40
0.000000
 41
0.000000
 42
1.000000
  0
SEQEND
  0
POLYLINE
  8
COND2
 66
1
 70
1
 40
0.000000
 41
0.000000
 39
0.000000
  0
VERTEX
  8
COND2
 10
-899.980000
 20
-320.000000
 40
0.000000
 41
0.000000
 42
1.000000
  0
VERTEX
  8
COND2
 10
-960.020000
 20
-320.000000
 40
0.000000
 41
0.000000
 42
1.000000
  0
SEQEND
  0
POLYLINE
  8
COND
 66
1
 70
1
 40
0.000000
 41
0.000000
 39
0.000000
  0
VERTEX
  8
COND
 10
1329.990000
 20
0.000000
 40
0.000000
 41
0.000000
 42
1.000000
  0
VERTEX
  8
COND
 10
-1329.990000
 20
0.000000
 40
0.000000
 41
0.000000
 42
1.000000
  0
SEQEND
  0
POLYLINE
  8
COND
 66
1
 70
1
 40
0.000000
 41
0.000000
 39
0.000000
  0
VERTEX
  8
COND
 10
985.020000
 20
520.000000
 40
0.000000
 41
0.000000
 42
1.000000
  0
VERTEX
  8
COND
 10
874.980000
 20
520.000000
 40
0.000000
 41
0.000000
 42
1.000000
  0
SEQEND
  0
POLYLINE
  8
COND
 66
1
 70
1
 40
0.000000
 41
0.000000
 39
0.000000
  0
VERTEX
  8
COND
 10
960.020000
 20
320.000000
 40
0.000000
 41
0.000000
 42
1.000000
  0
VERTEX
  8
COND
 10
899.980000
 20
320.000000
 40
0.000000
 41
0.000000
 42
1.000000
  0
SEQEND
  0
POLYLINE
  8
COND
 66
1
 70
1
 40
0.000000
 41
0.000000
 39
0.000000
  0
VERTEX
  8
COND
 10
1160.020000
 20
520.000000
 40
0.000000
 41
0.000000
 42
1.000000
  0
VERTEX
  8
COND
 10
1099.980000
 20
520.000000
 40
0.000000
 41
0.000000
 42
1.000000
  0
SEQEND
  0
POLYLINE
  8
COND
 66
1
 70
1
 40
0.000000
 41
0.000000
 39
0.000000
  0
VERTEX
  8
COND
 10
1225.020000
 20
100.000000
 40
0.000000
 41
0.000000
 42
1.000000
  0
VERTEX
  8
COND
 10
1114.980000
 20
100.000000
 40
0.000000
 41
0.000000
 42
1.000000
  0
SEQEND
  0
POLYLINE
  8
COND
 66
1
 70
1
 40
0.000000
 41
0.000000
 39
0.000000
  0
VERTEX
  8
COND
 10
1000.020000
 20
100.000000
 40
0.000000
 41
0.000000
 42
1.000000
  0
VERTEX
  8
COND
 10
939.980000
 20
100.000000
 40
0.000000
 41
0.000000
 42
1.000000
  0
SEQEND
  0
POLYLINE
  8
COND
 66
1
 70
1
 40
0.000000
 41
0.000000
 39
0.000000
  0
VERTEX
  8
COND
 10
1185.020000
 20
320.000000
 40
0.000000
 41
0.000000
 42
1.000000
  0
VERTEX
  8
COND
 10
1074.980000
 20
320.000000
 40
0.000000
 41
0.000000
 42
1.000000
  0
SEQEND
  0
POLYLINE
  8
COND
 66
1
 70
1
 40
0.000000
 41
0.000000
 39
0.000000
  0
VERTEX
  8
COND
 10
1025.020000
 20
-100.000000
 40
0.000000
 41
0.000000
 42
1.000000
  0
VERTEX
  8
COND
 10
914.980000
 20
-100.000000
 40
0.000000
 41
0.000000
 42
1.000000
  0
SEQEND
  0
POLYLINE
  8
COND
 66
1
 70
1
 40
0.000000
 41
0.000000
 39
0.000000
  0
VERTEX
  8
COND
 10
1200.020000
 20
-100.000000
 40
0.000000
 41
0.000000
 42
1.000000
  0
VERTEX
  8
COND
 10
1139.980000
 20
-100.000000
 40
0.000000
 41
0.000000
 42
1.000000
  0
SEQEND
  0
POLYLINE
  8
COND
 66
1
 70
1
 40
0.000000
 41
0.000000
 39
0.000000
  0
VERTEX
  8
COND
 10
1185.020000
 20
-320.000000
 40
0.000000
 41
0.000000
 42
1.000000
  0
VERTEX
  8
COND
 10
1074.980000
 20
-320.000000
 40
0.000000
 41
0.000000
 42
1.000000
  0
SEQEND
  0
POLYLINE
  8
COND
 66
1
 70
1
 40
0.000000
 41
0.000000
 39
0.000000
  0
VERTEX
  8
COND
 10
985.020000
 20
-520.000000
 40
0.000000
 41
0.000000
 42
1.000000
  0
VERTEX
  8
COND
 10
874.980000
 20
-520.000000
 40
0.000000
 41
0.000000
 42
1.000000
  0
SEQEND
  0
POLYLINE
  8
COND
 66
1
 70
1
 40
0.000000
 41
0.000000
 39
0.000000
  0
VERTEX
  8
COND
 10
960.020000
 20
-320.000000
 40
0.000000
 41
0.000000
 42
1.000000
  0
VERTEX
  8
COND
 10
899.980000
 20
-320.000000
 40
0.000000
 41
0.000000
 42
1.000000
  0
SEQEND
  0
POLYLINE
  8
COND
 66
1
 70
1
 40
0.000000
 41
0.000000
 39
0.000000
  0
VERTEX
  8
COND
 10
1160.020000
 20
-520.000000
 40
0.000000
 41
0.000000
 42
1.000000
  0
VERTEX
  8
COND
 10
1099.980000
 20
-520.000000
 40
0.000000
 41
0.000000
 42
1.000000
  0
SEQEND
  0
POLYLINE
  8
COND
 66
1
 70
1
 40
0.000000
 41
0.000000
 39
0.000000
  0
VERTEX
  8
COND
 10
375.020000
 20
1130.000000
 40
0.000000
 41
0.000000
 42
1.000000
  0
VERTEX
  8
COND
 10
264.980000
 20
1130.000000
 40
0.000000
 41
0.000000
 42
1.000000
  0
SEQEND
  0
POLYLINE
  8
COND
 66
1
 70
1
 40
0.000000
 41
0.000000
 39
0.000000
  0
VERTEX
  8
COND
 10
575.020000
 20
930.000000
 40
0.000000
 41
0.000000
 42
1.000000
  0
VERTEX
  8
COND
 10
464.980000
 20
930.000000
 40
0.000000
 41
0.000000
 42
1.000000
  0
SEQEND
  0
POLYLINE
  8
COND
 66
1
 70
1
 40
0.000000
 41
0.000000
 39
0.000000
  0
VERTEX
  8
COND
 10
350.020000
 20
930.000000
 40
0.000000
 41
0.000000
 42
1.000000
  0
VERTEX
  8
COND
 10
289.980000
 20
930.000000
 40
0.000000
 41
0.000000
 42
1.000000
  0
SEQEND
  0
POLYLINE
  8
COND
 66
1
 70
1
 40
0.000000
 41
0.000000
 39
0.000000
  0
VERTEX
  8
COND
 10
550.020000
 20
1130.000000
 40
0.000000
 41
0.000000
 42
1.000000
  0
VERTEX
  8
COND
 10
489.980000
 20
1130.000000
 40
0.000000
 41
0.000000
 42
1.000000
  0
SEQEND
  0
POLYLINE
  8
COND
 66
1
 70
1
 40
0.000000
 41
0.000000
 39
0.000000
  0
VERTEX
  8
COND
 10
575.020000
 20
-930.000000
 40
0.000000
 41
0.000000
 42
1.000000
  0
VERTEX
  8
COND
 10
464.980000
 20
-930.000000
 40
0.000000
 41
0.000000
 42
1.000000
  0
SEQEND
  0
POLYLINE
  8
COND
 66
1
 70
1
 40
0.000000
 41
0.000000
 39
0.000000
  0
VERTEX
  8
COND
 10
375.020000
 20
-1130.000000
 40
0.000000
 41
0.000000
 42
1.000000
  0
VERTEX
  8
COND
 10
264.980000
 20
-1130.000000
 40
0.000000
 41
0.000000
 42
1.000000
  0
SEQEND
  0
POLYLINE
  8
COND
 66
1
 70
1
 40
0.000000
 41
0.000000
 39
0.000000
  0
VERTEX
  8
COND
 10
350.020000
 20
-930.000000
 40
0.000000
 41
0.000000
 42
1.000000
  0
VERTEX
  8
COND
 10
289.980000
 20
-930.000000
 40
0.000000
 41
0.000000
 42
1.000000
  0
SEQEND
  0
POLYLINE
  8
COND
 66
1
 70
1
 40
0.000000
 41
0.000000
 39
0.000000
  0
VERTEX
  8
COND
 10
550.020000
 20
-1130.000000
 40
0.000000
 41
0.000000
 42
1.000000
  0
VERTEX
  8
COND
 10
489.980000
 20
-1130.000000
 40
0.000000
 41
0.000000
 42
1.000000
  0
SEQEND
  0
POLYLINE
  8
COND
 66
1
 70
1
 40
0.000000
 41
0.000000
 39
0.000000
  0
VERTEX
  8
COND
 10
155.020000
 20
1170.000000
 40
0.000000
 41
0.000000
 42
1.000000
  0
VERTEX
  8
COND
 10
44.980000
 20
1170.000000
 40
0.000000
 41
0.000000
 42
1.000000
  0
SEQEND
  0
POLYLINE
  8
COND
 66
1
 70
1
 40
0.000000
 41
0.000000
 39
0.000000
  0
VERTEX
  8
COND
 10
130.020000
 20
970.000000
 40
0.000000
 41
0.000000
 42
1.000000
  0
VERTEX
  8
COND
 10
69.980000
 20
970.000000
 40
0.000000
 41
0.000000
 42
1.000000
  0
SEQEND
  0
POLYLINE
  8
COND
 66
1
 70
1
 40
0.000000
 41
0.000000
 39
0.000000
  0
VERTEX
  8
COND
 10
155.020000
 20
-970.000000
 40
0.000000
 41
0.000000
 42
1.000000
  0
VERTEX
  8
COND
 10
44.980000
 20
-970.000000
 40
0.000000
 41
0.000000
 42
1.000000
  0
SEQEND
  0
POLYLINE
  8
COND
 66
1
 70
1
 40
0.000000
 41
0.000000
 39
0.000000
  0
VERTEX
  8
COND
 10
130.020000
 20
-1170.000000
 40
0.000000
 41
0.000000
 42
1.000000
  0
VERTEX
  8
COND
 10
69.980000
 20
-1170.000000
 40
0.000000
 41
0.000000
 42
1.000000
  0
SEQEND
  0
POLYLINE
  8
COND
 66
1
 70
1
 40
0.000000
 41
0.000000
 39
0.000000
  0
VERTEX
  8
COND
 10
-44.980000
 20
970.000000
 40
0.000000
 41
0.000000
 42
1.000000
  0
VERTEX
  8
COND
 10
-155.020000
 20
970.000000
 40
0.000000
 41
0.000000
 42
1.000000
  0
SEQEND
  0
POLYLINE
  8
COND
 66
1
 70
1
 40
0.000000
 41
0.000000
 39
0.000000
  0
VERTEX
  8
COND
 10
-69.980000
 20
1170.000000
 40
0.000000
 41
0.000000
 42
1.000000
  0
VERTEX
  8
COND
 10
-130.020000
 20
1170.000000
 40
0.000000
 41
0.000000
 42
1.000000
  0
SEQEND
  0
POLYLINE
  8
COND
 66
1
 70
1
 40
0.000000
 41
0.000000
 39
0.000000
  0
VERTEX
  8
COND
 10
-44.980000
 20
-1170.000000
 40
0.000000
 41
0.000000
 42
1.000000
  0
VERTEX
  8
COND
 10
-155.020000
 20
-1170.000000
 40
0.000000
 41
0.000000
 42
1.000000
  0
SEQEND
  0
POLYLINE
  8
COND
 66
1
 70
1
 40
0.000000
 41
0.000000
 39
0.000000
  0
VERTEX
  8
COND
 10
-69.980000
 20
-970.000000
 40
0.000000
 41
0.000000
 42
1.000000
  0
VERTEX
  8
COND
 10
-130.020000
 20
-970.000000
 40
0.000000
 41
0.000000
 42
1.000000
  0
SEQEND
  0
POLYLINE
  8
COND
 66
1
 70
1
 40
0.000000
 41
0.000000
 39
0.000000
  0
VERTEX
  8
COND
 10
-264.980000
 20
1130.000000
 40
0.000000
 41
0.000000
 42
1.000000
  0
VERTEX
  8
COND
 10
-375.020000
 20
1130.000000
 40
0.000000
 41
0.000000
 42
1.000000
  0
SEQEND
  0
POLYLINE
  8
COND
 66
1
 70
1
 40
0.000000
 41
0.000000
 39
0.000000
  0
VERTEX
  8
COND
 10
-464.980000
 20
930.000000
 40
0.000000
 41
0.000000
 42
1.000000
  0
VERTEX
  8
COND
 10
-575.020000
 20
930.000000
 40
0.000000
 41
0.000000
 42
1.000000
  0
SEQEND
  0
POLYLINE
  8
COND
 66
1
 70
1
 40
0.000000
 41
0.000000
 39
0.000000
  0
VERTEX
  8
COND
 10
-489.980000
 20
1130.000000
 40
0.000000
 41
0.000000
 42
1.000000
  0
VERTEX
  8
COND
 10
-550.020000
 20
1130.000000
 40
0.000000
 41
0.000000
 42
1.000000
  0
SEQEND
  0
POLYLINE
  8
COND
 66
1
 70
1
 40
0.000000
 41
0.000000
 39
0.000000
  0
VERTEX
  8
COND
 10
-289.980000
 20
930.000000
 40
0.000000
 41
0.000000
 42
1.000000
  0
VERTEX
  8
COND
 10
-350.020000
 20
930.000000
 40
0.000000
 41
0.000000
 42
1.000000
  0
SEQEND
  0
POLYLINE
  8
COND
 66
1
 70
1
 40
0.000000
 41
0.000000
 39
0.000000
  0
VERTEX
  8
COND
 10
-464.980000
 20
-930.000000
 40
0.000000
 41
0.000000
 42
1.000000
  0
VERTEX
  8
COND
 10
-575.020000
 20
-930.000000
 40
0.000000
 41
0.000000
 42
1.000000
  0
SEQEND
  0
POLYLINE
  8
COND
 66
1
 70
1
 40
0.000000
 41
0.000000
 39
0.000000
  0
VERTEX
  8
COND
 10
-264.980000
 20
-1130.000000
 40
0.000000
 41
0.000000
 42
1.000000
  0
VERTEX
  8
COND
 10
-375.020000
 20
-1130.000000
 40
0.000000
 41
0.000000
 42
1.000000
  0
SEQEND
  0
POLYLINE
  8
COND
 66
1
 70
1
 40
0.000000
 41
0.000000
 39
0.000000
  0
VERTEX
  8
COND
 10
-489.980000
 20
-1130.000000
 40
0.000000
 41
0.000000
 42
1.000000
  0
VERTEX
  8
COND
 10
-550.020000
 20
-1130.000000
 40
0.000000
 41
0.000000
 42
1.000000
  0
SEQEND
  0
POLYLINE
  8
COND
 66
1
 70
1
 40
0.000000
 41
0.000000
 39
0.000000
  0
VERTEX
  8
COND
 10
-289.980000
 20
-930.000000
 40
0.000000
 41
0.000000
 42
1.000000
  0
VERTEX
  8
COND
 10
-350.020000
 20
-930.000000
 40
0.000000
 41
0.000000
 42
1.000000
  0
SEQEND
  0
POLYLINE
  8
COND
 66
1
 70
1
 40
0.000000
 41
0.000000
 39
0.000000
  0
VERTEX
  8
COND
 10
-874.980000
 20
520.000000
 40
0.000000
 41
0.000000
 42
1.000000
  0
VERTEX
  8
COND
 10
-985.020000
 20
520.000000
 40
0.000000
 41
0.000000
 42
1.000000
  0
SEQEND
  0
POLYLINE
  8
COND
 66
1
 70
1
 40
0.000000
 41
0.000000
 39
0.000000
  0
VERTEX
  8
COND
 10
-1099.980000
 20
520.000000
 40
0.000000
 41
0.000000
 42
1.000000
  0
VERTEX
  8
COND
 10
-1160.020000
 20
520.000000
 40
0.000000
 41
0.000000
 42
1.000000
  0
SEQEND
  0
POLYLINE
  8
COND
 66
1
 70
1
 40
0.000000
 41
0.000000
 39
0.000000
  0
VERTEX
  8
COND
 10
-899.980000
 20
320.000000
 40
0.000000
 41
0.000000
 42
1.000000
  0
VERTEX
  8
COND
 10
-960.020000
 20
320.000000
 40
0.000000
 41
0.000000
 42
1.000000
  0
SEQEND
  0
POLYLINE
  8
COND
 66
1
 70
1
 40
0.000000
 41
0.000000
 39
0.000000
  0
VERTEX
  8
COND
 10
-914.980000
 20
100.000000
 40
0.000000
 41
0.000000
 42
1.000000
  0
VERTEX
  8
COND
 10
-1025.020000
 20
100.000000
 40
0.000000
 41
0.000000
 42
1.000000
  0
SEQEND
  0
POLYLINE
  8
COND
 66
1
 70
1
 40
0.000000
 41
0.000000
 39
0.000000
  0
VERTEX
  8
COND
 10
-1139.980000
 20
100.000000
 40
0.000000
 41
0.000000
 42
1.000000
  0
VERTEX
  8
COND
 10
-1200.020000
 20
100.000000
 40
0.000000
 41
0.000000
 42
1.000000
  0
SEQEND
  0
POLYLINE
  8
COND
 66
1
 70
1
 40
0.000000
 41
0.000000
 39
0.000000
  0
VERTEX
  8
COND
 10
-1074.980000
 20
320.000000
 40
0.000000
 41
0.000000
 42
1.000000
  0
VERTEX
  8
COND
 10
-1185.020000
 20
320.000000
 40
0.000000
 41
0.000000
 42
1.000000
  0
SEQEND
  0
POLYLINE
  8
COND
 66
1
 70
1
 40
0.000000
 41
0.000000
 39
0.000000
  0
VERTEX
  8
COND
 10
-1114.980000
 20
-100.000000
 40
0.000000
 41
0.000000
 42
1.000000
  0
VERTEX
  8
COND
 10
-1225.020000
 20
-100.000000
 40
0.000000
 41
0.000000
 42
1.000000
  0
SEQEND
  0
POLYLINE
  8
COND
 66
1
 70
1
 40
0.000000
 41
0.000000
 39
0.000000
  0
VERTEX
  8
COND
 10
-939.980000
 20
-100.000000
 40
0.000000
 41
0.000000
 42
1.000000
  0
VERTEX
  8
COND
 10
-1000.020000
 20
-100.000000
 40
0.000000
 41
0.000000
 42
1.000000
  0
SEQEND
  0
POLYLINE
  8
COND
 66
1
 70
1
 40
0.000000
 41
0.000000
 39
0.000000
  0
VERTEX
  8
COND
 10
-1074.980000
 20
-320.000000
 40
0.000000
 41
0.000000
 42
1.000000
  0
VERTEX
  8
COND
 10
-1185.020000
 20
-320.000000
 40
0.000000
 41
0.000000
 42
1.000000
  0
SEQEND
  0
POLYLINE
  8
COND
 66
1
 70
1
 40
0.000000
 41
0.000000
 39
0.000000
  0
VERTEX
  8
COND
 10
-874.980000
 20
-520.000000
 40
0.000000
 41
0.000000
 42
1.000000
  0
VERTEX
  8
COND
 10
-985.020000
 20
-520.000000
 40
0.000000
 41
0.000000
 42
1.000000
  0
SEQEND
  0
POLYLINE
  8
COND
 66
1
 70
1
 40
0.000000
 41
0.000000
 39
0.000000
  0
VERTEX
  8
COND
 10
-1099.980000
 20
-520.000000
 40
0.000000
 41
0.000000
 42
1.000000
  0
VERTEX
  8
COND
 10
-1160.020000
 20
-520.000000
 40
0.000000
 41
0.000000
 42
1.000000
  0
SEQEND
  0
POLYLINE
  8
COND
 66
1
 70
1
 40
0.000000
 41
0.000000
 39
0.000000
  0
VERTEX
  8
COND
 10
-899.980000
 20
-320.000000
 40
0.000000
 41
0.000000
 42
1.000000
  0
VERTEX
  8
COND
 10
-960.020000
 20
-320.000000
 40
0.000000
 41
0.000000
 42
1.000000
  0
SEQEND
  0
CIRCLE
  8
COND
 10
-772.740000
 20
772.740000
 40
50.000000
  0
CIRCLE
  8
COND2
 10
-772.740000
 20
772.740000
 40
50.000000
  0
TEXT
  8
TEXT
 10
-777.073333
 20
772.740000
 11
-772.740000
 21
772.740000
 40
13.000000
 41
1.076923
 50
0.000000
  7
STANDARD
 71
0
 72
2
  1
1
 73
0
  0
POLYLINE
  8
BOUND
 66
1
 70
1
 40
0.000000
 41
0.000000
 39
0.000000
  0
VERTEX
  8
BOUND
 10
-824.740000
 20
720.740000
 40
0.000000
 41
0.000000
 42
0.000000
  0
VERTEX
  8
BOUND
 10
-824.740000
 20
824.740000
 40
0.000000
 41
0.000000
 42
0.000000
  0
VERTEX
  8
BOUND
 10
-720.740000
 20
824.740000
 40
0.000000
 41
0.000000
 42
0.000000
  0
VERTEX
  8
BOUND
 10
-720.740000
 20
720.740000
 40
0.000000
 41
0.000000
 42
0.000000
  0
SEQEND
  0
TEXT
  8
TEXT
 10
-772.740000
 20
772.740000
 11
0.000000
 21
0.000000
 40
13.000000
 41
1.076923
 50
0.000000
  7
STANDARD
 71
0
 72
0
  1
MTG12
 73
0
  0
CIRCLE
  8
COND
 10
-772.740000
 20
-772.740000
 40
50.000000
  0
CIRCLE
  8
COND2
 10
-772.740000
 20
-772.740000
 40
50.000000
  0
TEXT
  8
TEXT
 10
-777.073333
 20
-772.740000
 11
-772.740000
 21
-772.740000
 40
13.000000
 41
1.076923
 50
0.000000
  7
STANDARD
 71
0
 72
2
  1
1
 73
0
  0
POLYLINE
  8
BOUND
 66
1
 70
1
 40
0.000000
 41
0.000000
 39
0.000000
  0
VERTEX
  8
BOUND
 10
-824.740000
 20
-824.740000
 40
0.000000
 41
0.000000
 42
0.000000
  0
VERTEX
  8
BOUND
 10
-824.740000
 20
-720.740000
 40
0.000000
 41
0.000000
 42
0.000000
  0
VERTEX
  8
BOUND
 10
-720.740000
 20
-720.740000
 40
0.000000
 41
0.000000
 42
0.000000
  0
VERTEX
  8
BOUND
 10
-720.740000
 20
-824.740000
 40
0.000000
 41
0.000000
 42
0.000000
  0
SEQEND
  0
TEXT
  8
TEXT
 10
-772.740000
 20
-772.740000
 11
0.000000
 21
0.000000
 40
13.000000
 41
1.076923
 50
0.000000
  7
STANDARD
 71
0
 72
0
  1
MTG11
 73
0
  0
CIRCLE
  8
COND
 10
772.740000
 20
-772.740000
 40
50.000000
  0
CIRCLE
  8
COND2
 10
772.740000
 20
-772.740000
 40
50.000000
  0
TEXT
  8
TEXT
 10
768.406667
 20
-772.740000
 11
772.740000
 21
-772.740000
 40
13.000000
 41
1.076923
 50
0.000000
  7
STANDARD
 71
0
 72
2
  1
1
 73
0
  0
POLYLINE
  8
BOUND
 66
1
 70
1
 40
0.000000
 41
0.000000
 39
0.000000
  0
VERTEX
  8
BOUND
 10
720.740000
 20
-824.740000
 40
0.000000
 41
0.000000
 42
0.000000
  0
VERTEX
  8
BOUND
 10
720.740000
 20
-720.740000
 40
0.000000
 41
0.000000
 42
0.000000
  0
VERTEX
  8
BOUND
 10
824.740000
 20
-720.740000
 40
0.000000
 41
0.000000
 42
0.000000
  0
VERTEX
  8
BOUND
 10
824.740000
 20
-824.740000
 40
0.000000
 41
0.000000
 42
0.000000
  0
SEQEND
  0
TEXT
  8
TEXT
 10
772.740000
 20
-772.740000
 11
0.000000
 21
0.000000
 40
13.000000
 41
1.076923
 50
0.000000
  7
STANDARD
 71
0
 72
0
  1
MTG10
 73
0
  0
CIRCLE
  8
COND
 10
772.740000
 20
772.740000
 40
50.000000
  0
CIRCLE
  8
COND2
 10
772.740000
 20
772.740000
 40
50.000000
  0
TEXT
  8
TEXT
 10
768.406667
 20
772.740000
 11
772.740000
 21
772.740000
 40
13.000000
 41
1.076923
 50
0.000000
  7
STANDARD
 71
0
 72
2
  1
1
 73
0
  0
POLYLINE
  8
BOUND
 66
1
 70
1
 40
0.000000
 41
0.000000
 39
0.000000
  0
VERTEX
  8
BOUND
 10
720.740000
 20
720.740000
 40
0.000000
 41
0.000000
 42
0.000000
  0
VERTEX
  8
BOUND
 10
720.740000
 20
824.740000
 40
0.000000
 41
0.000000
 42
0.000000
  0
VERTEX
  8
BOUND
 10
824.740000
 20
824.740000
 40
0.000000
 41
0.000000
 42
0.000000
  0
VERTEX
  8
BOUND
 10
824.740000
 20
720.740000
 40
0.000000
 41
0.000000
 42
0.000000
  0
SEQEND
  0
TEXT
  8
TEXT
 10
772.740000
 20
772.740000
 11
0.000000
 21
0.000000
 40
13.000000
 41
1.076923
 50
0.000000
  7
STANDARD
 71
0
 72
0
  1
MTG9
 73
0
  0
CIRCLE
  8
COND
 10
772.740000
 20
-207.060000
 40
50.000000
  0
CIRCLE
  8
COND2
 10
772.740000
 20
-207.060000
 40
50.000000
  0
TEXT
  8
TEXT
 10
768.406667
 20
-207.060000
 11
772.740000
 21
-207.060000
 40
13.000000
 41
1.076923
 50
0.000000
  7
STANDARD
 71
0
 72
2
  1
1
 73
0
  0
POLYLINE
  8
BOUND
 66
1
 70
1
 40
0.000000
 41
0.000000
 39
0.000000
  0
VERTEX
  8
BOUND
 10
720.740000
 20
-259.060000
 40
0.000000
 41
0.000000
 42
0.000000
  0
VERTEX
  8
BOUND
 10
720.740000
 20
-155.060000
 40
0.000000
 41
0.000000
 42
0.000000
  0
VERTEX
  8
BOUND
 10
824.740000
 20
-155.060000
 40
0.000000
 41
0.000000
 42
0.000000
  0
VERTEX
  8
BOUND
 10
824.740000
 20
-259.060000
 40
0.000000
 41
0.000000
 42
0.000000
  0
SEQEND
  0
TEXT
  8
TEXT
 10
772.740000
 20
-207.060000
 11
0.000000
 21
0.000000
 40
13.000000
 41
1.076923
 50
0.000000
  7
STANDARD
 71
0
 72
0
  1
MTG8
 73
0
  0
CIRCLE
  8
COND
 10
207.060000
 20
-772.740000
 40
50.000000
  0
CIRCLE
  8
COND2
 10
207.060000
 20
-772.740000
 40
50.000000
  0
TEXT
  8
TEXT
 10
202.726667
 20
-772.740000
 11
207.060000
 21
-772.740000
 40
13.000000
 41
1.076923
 50
0.000000
  7
STANDARD
 71
0
 72
2
  1
1
 73
0
  0
POLYLINE
  8
BOUND
 66
1
 70
1
 40
0.000000
 41
0.000000
 39
0.000000
  0
VERTEX
  8
BOUND
 10
155.060000
 20
-824.740000
 40
0.000000
 41
0.000000
 42
0.000000
  0
VERTEX
  8
BOUND
 10
155.060000
 20
-720.740000
 40
0.000000
 41
0.000000
 42
0.000000
  0
VERTEX
  8
BOUND
 10
259.060000
 20
-720.740000
 40
0.000000
 41
0.000000
 42
0.000000
  0
VERTEX
  8
BOUND
 10
259.060000
 20
-824.740000
 40
0.000000
 41
0.000000
 42
0.000000
  0
SEQEND
  0
TEXT
  8
TEXT
 10
207.060000
 20
-772.740000
 11
0.000000
 21
0.000000
 40
13.000000
 41
1.076923
 50
0.000000
  7
STANDARD
 71
0
 72
0
  1
MTG7
 73
0
  0
CIRCLE
  8
COND
 10
-207.060000
 20
-772.740000
 40
50.000000
  0
CIRCLE
  8
COND2
 10
-207.060000
 20
-772.740000
 40
50.000000
  0
TEXT
  8
TEXT
 10
-211.393333
 20
-772.740000
 11
-207.060000
 21
-772.740000
 40
13.000000
 41
1.076923
 50
0.000000
  7
STANDARD
 71
0
 72
2
  1
1
 73
0
  0
POLYLINE
  8
BOUND
 66
1
 70
1
 40
0.000000
 41
0.000000
 39
0.000000
  0
VERTEX
  8
BOUND
 10
-259.060000
 20
-824.740000
 40
0.000000
 41
0.000000
 42
0.000000
  0
VERTEX
  8
BOUND
 10
-259.060000
 20
-720.740000
 40
0.000000
 41
0.000000
 42
0.000000
  0
VERTEX
  8
BOUND
 10
-155.060000
 20
-720.740000
 40
0.000000
 41
0.000000
 42
0.000000
  0
VERTEX
  8
BOUND
 10
-155.060000
 20
-824.740000
 40
0.000000
 41
0.000000
 42
0.000000
  0
SEQEND
  0
TEXT
  8
TEXT
 10
-207.060000
 20
-772.740000
 11
0.000000
 21
0.000000
 40
13.000000
 41
1.076923
 50
0.000000
  7
STANDARD
 71
0
 72
0
  1
MTG6
 73
0
  0
CIRCLE
  8
COND
 10
-772.740000
 20
-207.060000
 40
50.000000
  0
CIRCLE
  8
COND2
 10
-772.740000
 20
-207.060000
 40
50.000000
  0
TEXT
  8
TEXT
 10
-777.073333
 20
-207.060000
 11
-772.740000
 21
-207.060000
 40
13.000000
 41
1.076923
 50
0.000000
  7
STANDARD
 71
0
 72
2
  1
1
 73
0
  0
POLYLINE
  8
BOUND
 66
1
 70
1
 40
0.000000
 41
0.000000
 39
0.000000
  0
VERTEX
  8
BOUND
 10
-824.740000
 20
-259.060000
 40
0.000000
 41
0.000000
 42
0.000000
  0
VERTEX
  8
BOUND
 10
-824.740000
 20
-155.060000
 40
0.000000
 41
0.000000
 42
0.000000
  0
VERTEX
  8
BOUND
 10
-720.740000
 20
-155.060000
 40
0.000000
 41
0.000000
 42
0.000000
  0
VERTEX
  8
BOUND
 10
-720.740000
 20
-259.060000
 40
0.000000
 41
0.000000
 42
0.000000
  0
SEQEND
  0
TEXT
  8
TEXT
 10
-772.740000
 20
-207.060000
 11
0.000000
 21
0.000000
 40
13.000000
 41
1.076923
 50
0.000000
  7
STANDARD
 71
0
 72
0
  1
MTG5
 73
0
  0
CIRCLE
  8
COND
 10
-772.740000
 20
207.060000
 40
50.000000
  0
CIRCLE
  8
COND2
 10
-772.740000
 20
207.060000
 40
50.000000
  0
TEXT
  8
TEXT
 10
-777.073333
 20
207.060000
 11
-772.740000
 21
207.060000
 40
13.000000
 41
1.076923
 50
0.000000
  7
STANDARD
 71
0
 72
2
  1
1
 73
0
  0
POLYLINE
  8
BOUND
 66
1
 70
1
 40
0.000000
 41
0.000000
 39
0.000000
  0
VERTEX
  8
BOUND
 10
-824.740000
 20
155.060000
 40
0.000000
 41
0.000000
 42
0.000000
  0
VERTEX
  8
BOUND
 10
-824.740000
 20
259.060000
 40
0.000000
 41
0.000000
 42
0.000000
  0
VERTEX
  8
BOUND
 10
-720.740000
 20
259.060000
 40
0.000000
 41
0.000000
 42
0.000000
  0
VERTEX
  8
BOUND
 10
-720.740000
 20
155.060000
 40
0.000000
 41
0.000000
 42
0.000000
  0
SEQEND
  0
TEXT
  8
TEXT
 10
-772.740000
 20
207.060000
 11
0.000000
 21
0.000000
 40
13.000000
 41
1.076923
 50
0.000000
  7
STANDARD
 71
0
 72
0
  1
MTG4
 73
0
  0
CIRCLE
  8
COND
 10
-207.060000
 20
772.740000
 40
50.000000
  0
CIRCLE
  8
COND2
 10
-207.060000
 20
772.740000
 40
50.000000
  0
TEXT
  8
TEXT
 10
-211.393333
 20
772.740000
 11
-207.060000
 21
772.740000
 40
13.000000
 41
1.076923
 50
0.000000
  7
STANDARD
 71
0
 72
2
  1
1
 73
0
  0
POLYLINE
  8
BOUND
 66
1
 70
1
 40
0.000000
 41
0.000000
 39
0.000000
  0
VERTEX
  8
BOUND
 10
-259.060000
 20
720.740000
 40
0.000000
 41
0.000000
 42
0.000000
  0
VERTEX
  8
BOUND
 10
-259.060000
 20
824.740000
 40
0.000000
 41
0.000000
 42
0.000000
  0
VERTEX
  8
BOUND
 10
-155.060000
 20
824.740000
 40
0.000000
 41
0.000000
 42
0.000000
  0
VERTEX
  8
BOUND
 10
-155.060000
 20
720.740000
 40
0.000000
 41
0.000000
 42
0.000000
  0
SEQEND
  0
TEXT
  8
TEXT
 10
-207.060000
 20
772.740000
 11
0.000000
 21
0.000000
 40
13.000000
 41
1.076923
 50
0.000000
  7
STANDARD
 71
0
 72
0
  1
MTG3
 73
0
  0
CIRCLE
  8
COND
 10
207.060000
 20
772.740000
 40
50.000000
  0
CIRCLE
  8
COND2
 10
207.060000
 20
772.740000
 40
50.000000
  0
TEXT
  8
TEXT
 10
202.726667
 20
772.740000
 11
207.060000
 21
772.740000
 40
13.000000
 41
1.076923
 50
0.000000
  7
STANDARD
 71
0
 72
2
  1
1
 73
0
  0
POLYLINE
  8
BOUND
 66
1
 70
1
 40
0.000000
 41
0.000000
 39
0.000000
  0
VERTEX
  8
BOUND
 10
155.060000
 20
720.740000
 40
0.000000
 41
0.000000
 42
0.000000
  0
VERTEX
  8
BOUND
 10
155.060000
 20
824.740000
 40
0.000000
 41
0.000000
 42
0.000000
  0
VERTEX
  8
BOUND
 10
259.060000
 20
824.740000
 40
0.000000
 41
0.000000
 42
0.000000
  0
VERTEX
  8
BOUND
 10
259.060000
 20
720.740000
 40
0.000000
 41
0.000000
 42
0.000000
  0
SEQEND
  0
TEXT
  8
TEXT
 10
207.060000
 20
772.740000
 11
0.000000
 21
0.000000
 40
13.000000
 41
1.076923
 50
0.000000
  7
STANDARD
 71
0
 72
0
  1
MTG2
 73
0
  0
CIRCLE
  8
COND
 10
772.740000
 20
207.060000
 40
50.000000
  0
CIRCLE
  8
COND2
 10
772.740000
 20
207.060000
 40
50.000000
  0
TEXT
  8
TEXT
 10
768.406667
 20
207.060000
 11
772.740000
 21
207.060000
 40
13.000000
 41
1.076923
 50
0.000000
  7
STANDARD
 71
0
 72
2
  1
1
 73
0
  0
POLYLINE
  8
BOUND
 66
1
 70
1
 40
0.000000
 41
0.000000
 39
0.000000
  0
VERTEX
  8
BOUND
 10
720.740000
 20
155.060000
 40
0.000000
 41
0.000000
 42
0.000000
  0
VERTEX
  8
BOUND
 10
720.740000
 20
259.060000
 40
0.000000
 41
0.000000
 42
0.000000
  0
VERTEX
  8
BOUND
 10
824.740000
 20
259.060000
 40
0.000000
 41
0.000000
 42
0.000000
  0
VERTEX
  8
BOUND
 10
824.740000
 20
155.060000
 40
0.000000
 41
0.000000
 42
0.000000
  0
SEQEND
  0
TEXT
  8
TEXT
 10
772.740000
 20
207.060000
 11
0.000000
 21
0.000000
 40
13.000000
 41
1.076923
 50
0.000000
  7
STANDARD
 71
0
 72
0
  1
MTG1
 73
0
  0
CIRCLE
  8
COND
 10
1130.000000
 20
-320.000000
 40
50.000000
  0
CIRCLE
  8
COND2
 10
1130.000000
 20
-320.000000
 40
45.000000
  0
TEXT
  8
TEXT
 10
1125.833333
 20
-320.000000
 11
1130.000000
 21
-320.000000
 40
12.500000
 41
1.120000
 50
0.000000
  7
STANDARD
 71
2
 72
2
  1
2
 73
0
  0
CIRCLE
  8
COND
 10
930.000000
 20
-520.000000
 40
50.000000
  0
CIRCLE
  8
COND2
 10
930.000000
 20
-520.000000
 40
45.000000
  0
TEXT
  8
TEXT
 10
925.833333
 20
-520.000000
 11
930.000000
 21
-520.000000
 40
12.500000
 41
1.120000
 50
0.000000
  7
STANDARD
 71
2
 72
2
  1
3
 73
0
  0
CIRCLE
  8
COND2
 10
1030.000000
 20
-420.000000
 40
15.000000
  0
TEXT
  8
TEXT
 10
1025.833333
 20
-420.000000
 11
1030.000000
 21
-420.000000
 40
12.500000
 41
1.120000
 50
0.000000
  7
STANDARD
 71
2
 72
2
  1
1
 73
0
  0
CIRCLE
  8
COND
 10
930.000000
 20
-320.000000
 40
25.000000
  0
CIRCLE
  8
COND2
 10
930.000000
 20
-320.000000
 40
25.000000
  0
CIRCLE
  8
COND
 10
1130.000000
 20
-520.000000
 40
25.000000
  0
CIRCLE
  8
COND2
 10
1130.000000
 20
-520.000000
 40
25.000000
  0
POLYLINE
  8
ASSEMBLY
 66
1
 70
1
 40
0.000000
 41
0.000000
 39
0.000000
  0
VERTEX
  8
ASSEMBLY
 10
1156.000000
 20
-294.000000
 40
0.000000
 41
0.000000
 42
0.000000
  0
VERTEX
  8
ASSEMBLY
 10
904.000000
 20
-294.000000
 40
0.000000
 41
0.000000
 42
0.000000
  0
VERTEX
  8
ASSEMBLY
 10
904.000000
 20
-546.000000
 40
0.000000
 41
0.000000
 42
0.000000
  0
VERTEX
  8
ASSEMBLY
 10
1156.000000
 20
-546.000000
 40
0.000000
 41
0.000000
 42
0.000000
  0
SEQEND
  0
POLYLINE
  8
SILK_SCREEN
 66
1
 70
1
 40
0.000000
 41
0.000000
 39
0.000000
  0
VERTEX
  8
SILK_SCREEN
 10
1156.000000
 20
-294.000000
 40
0.000000
 41
0.000000
 42
0.000000
  0
VERTEX
  8
SILK_SCREEN
 10
904.000000
 20
-294.000000
 40
0.000000
 41
0.000000
 42
0.000000
  0
VERTEX
  8
SILK_SCREEN
 10
904.000000
 20
-546.000000
 40
0.000000
 41
0.000000
 42
0.000000
  0
VERTEX
  8
SILK_SCREEN
 10
1156.000000
 20
-546.000000
 40
0.000000
 41
0.000000
 42
0.000000
  0
SEQEND
  0
POLYLINE
  8
BOUND
 66
1
 70
1
 40
0.000000
 41
0.000000
 39
0.000000
  0
VERTEX
  8
BOUND
 10
1160.000000
 20
-550.000000
 40
0.000000
 41
0.000000
 42
0.000000
  0
VERTEX
  8
BOUND
 10
900.000000
 20
-550.000000
 40
0.000000
 41
0.000000
 42
0.000000
  0
VERTEX
  8
BOUND
 10
900.000000
 20
-290.000000
 40
0.000000
 41
0.000000
 42
0.000000
  0
VERTEX
  8
BOUND
 10
1160.000000
 20
-290.000000
 40
0.000000
 41
0.000000
 42
0.000000
  0
SEQEND
  0
TEXT
  8
TEXT
 10
994.000000
 20
-444.500000
 11
0.000000
 21
0.000000
 40
50.000000
 41
1.020000
 50
0.000000
  7
STANDARD
 71
2
 72
0
  1
J12
 73
0
  0
TEXT
  8
TEXT
 10
1164.000000
 20
-445.500000
 11
0.000000
 21
0.000000
 40
50.000000
 41
1.020000
 50
0.000000
  7
STANDARD
 71
2
 72
0
  1
J12
 73
0
  0
CIRCLE
  8
COND
 10
520.000000
 20
-930.000000
 40
50.000000
  0
CIRCLE
  8
COND2
 10
520.000000
 20
-930.000000
 40
45.000000
  0
TEXT
  8
TEXT
 10
515.833333
 20
-930.000000
 11
520.000000
 21
-930.000000
 40
12.500000
 41
1.120000
 50
0.000000
  7
STANDARD
 71
2
 72
2
  1
2
 73
0
  0
CIRCLE
  8
COND
 10
320.000000
 20
-1130.000000
 40
50.000000
  0
CIRCLE
  8
COND2
 10
320.000000
 20
-1130.000000
 40
45.000000
  0
TEXT
  8
TEXT
 10
315.833333
 20
-1130.000000
 11
320.000000
 21
-1130.000000
 40
12.500000
 41
1.120000
 50
0.000000
  7
STANDARD
 71
2
 72
2
  1
3
 73
0
  0
CIRCLE
  8
COND2
 10
420.000000
 20
-1030.000000
 40
15.000000
  0
TEXT
  8
TEXT
 10
415.833333
 20
-1030.000000
 11
420.000000
 21
-1030.000000
 40
12.500000
 41
1.120000
 50
0.000000
  7
STANDARD
 71
2
 72
2
  1
1
 73
0
  0
CIRCLE
  8
COND
 10
320.000000
 20
-930.000000
 40
25.000000
  0
CIRCLE
  8
COND2
 10
320.000000
 20
-930.000000
 40
25.000000
  0
CIRCLE
  8
COND
 10
520.000000
 20
-1130.000000
 40
25.000000
  0
CIRCLE
  8
COND2
 10
520.000000
 20
-1130.000000
 40
25.000000
  0
POLYLINE
  8
ASSEMBLY
 66
1
 70
1
 40
0.000000
 41
0.000000
 39
0.000000
  0
VERTEX
  8
ASSEMBLY
 10
546.000000
 20
-904.000000
 40
0.000000
 41
0.000000
 42
0.000000
  0
VERTEX
  8
ASSEMBLY
 10
294.000000
 20
-904.000000
 40
0.000000
 41
0.000000
 42
0.000000
  0
VERTEX
  8
ASSEMBLY
 10
294.000000
 20
-1156.000000
 40
0.000000
 41
0.000000
 42
0.000000
  0
VERTEX
  8
ASSEMBLY
 10
546.000000
 20
-1156.000000
 40
0.000000
 41
0.000000
 42
0.000000
  0
SEQEND
  0
POLYLINE
  8
SILK_SCREEN
 66
1
 70
1
 40
0.000000
 41
0.000000
 39
0.000000
  0
VERTEX
  8
SILK_SCREEN
 10
546.000000
 20
-904.000000
 40
0.000000
 41
0.000000
 42
0.000000
  0
VERTEX
  8
SILK_SCREEN
 10
294.000000
 20
-904.000000
 40
0.000000
 41
0.000000
 42
0.000000
  0
VERTEX
  8
SILK_SCREEN
 10
294.000000
 20
-1156.000000
 40
0.000000
 41
0.000000
 42
0.000000
  0
VERTEX
  8
SILK_SCREEN
 10
546.000000
 20
-1156.000000
 40
0.000000
 41
0.000000
 42
0.000000
  0
SEQEND
  0
POLYLINE
  8
BOUND
 66
1
 70
1
 40
0.000000
 41
0.000000
 39
0.000000
  0
VERTEX
  8
BOUND
 10
550.000000
 20
-1160.000000
 40
0.000000
 41
0.000000
 42
0.000000
  0
VERTEX
  8
BOUND
 10
290.000000
 20
-1160.000000
 40
0.000000
 41
0.000000
 42
0.000000
  0
VERTEX
  8
BOUND
 10
290.000000
 20
-900.000000
 40
0.000000
 41
0.000000
 42
0.000000
  0
VERTEX
  8
BOUND
 10
550.000000
 20
-900.000000
 40
0.000000
 41
0.000000
 42
0.000000
  0
SEQEND
  0
TEXT
  8
TEXT
 10
384.000000
 20
-1054.500000
 11
0.000000
 21
0.000000
 40
50.000000
 41
1.020000
 50
0.000000
  7
STANDARD
 71
2
 72
0
  1
J11
 73
0
  0
TEXT
  8
TEXT
 10
554.000000
 20
-1055.500000
 11
0.000000
 21
0.000000
 40
50.000000
 41
1.020000
 50
0.000000
  7
STANDARD
 71
2
 72
0
  1
J11
 73
0
  0
CIRCLE
  8
COND
 10
100.000000
 20
-970.000000
 40
50.000000
  0
CIRCLE
  8
COND2
 10
100.000000
 20
-970.000000
 40
45.000000
  0
TEXT
  8
TEXT
 10
95.833333
 20
-970.000000
 11
100.000000
 21
-970.000000
 40
12.500000
 41
1.120000
 50
0.000000
  7
STANDARD
 71
2
 72
2
  1
2
 73
0
  0
CIRCLE
  8
COND
 10
-100.000000
 20
-1170.000000
 40
50.000000
  0
CIRCLE
  8
COND2
 10
-100.000000
 20
-1170.000000
 40
45.000000
  0
TEXT
  8
TEXT
 10
-104.166667
 20
-1170.000000
 11
-100.000000
 21
-1170.000000
 40
12.500000
 41
1.120000
 50
0.000000
  7
STANDARD
 71
2
 72
2
  1
3
 73
0
  0
CIRCLE
  8
COND2
 10
0.000000
 20
-1070.000000
 40
15.000000
  0
TEXT
  8
TEXT
 10
-4.166667
 20
-1070.000000
 11
0.000000
 21
-1070.000000
 40
12.500000
 41
1.120000
 50
0.000000
  7
STANDARD
 71
2
 72
2
  1
1
 73
0
  0
CIRCLE
  8
COND
 10
-100.000000
 20
-970.000000
 40
25.000000
  0
CIRCLE
  8
COND2
 10
-100.000000
 20
-970.000000
 40
25.000000
  0
CIRCLE
  8
COND
 10
100.000000
 20
-1170.000000
 40
25.000000
  0
CIRCLE
  8
COND2
 10
100.000000
 20
-1170.000000
 40
25.000000
  0
POLYLINE
  8
ASSEMBLY
 66
1
 70
1
 40
0.000000
 41
0.000000
 39
0.000000
  0
VERTEX
  8
ASSEMBLY
 10
126.000000
 20
-944.000000
 40
0.000000
 41
0.000000
 42
0.000000
  0
VERTEX
  8
ASSEMBLY
 10
-126.000000
 20
-944.000000
 40
0.000000
 41
0.000000
 42
0.000000
  0
VERTEX
  8
ASSEMBLY
 10
-126.000000
 20
-1196.000000
 40
0.000000
 41
0.000000
 42
0.000000
  0
VERTEX
  8
ASSEMBLY
 10
126.000000
 20
-1196.000000
 40
0.000000
 41
0.000000
 42
0.000000
  0
SEQEND
  0
POLYLINE
  8
SILK_SCREEN
 66
1
 70
1
 40
0.000000
 41
0.000000
 39
0.000000
  0
VERTEX
  8
SILK_SCREEN
 10
126.000000
 20
-944.000000
 40
0.000000
 41
0.000000
 42
0.000000
  0
VERTEX
  8
SILK_SCREEN
 10
-126.000000
 20
-944.000000
 40
0.000000
 41
0.000000
 42
0.000000
  0
VERTEX
  8
SILK_SCREEN
 10
-126.000000
 20
-1196.000000
 40
0.000000
 41
0.000000
 42
0.000000
  0
VERTEX
  8
SILK_SCREEN
 10
126.000000
 20
-1196.000000
 40
0.000000
 41
0.000000
 42
0.000000
  0
SEQEND
  0
POLYLINE
  8
BOUND
 66
1
 70
1
 40
0.000000
 41
0.000000
 39
0.000000
  0
VERTEX
  8
BOUND
 10
130.000000
 20
-1200.000000
 40
0.000000
 41
0.000000
 42
0.000000
  0
VERTEX
  8
BOUND
 10
-130.000000
 20
-1200.000000
 40
0.000000
 41
0.000000
 42
0.000000
  0
VERTEX
  8
BOUND
 10
-130.000000
 20
-940.000000
 40
0.000000
 41
0.000000
 42
0.000000
  0
VERTEX
  8
BOUND
 10
130.000000
 20
-940.000000
 40
0.000000
 41
0.000000
 42
0.000000
  0
SEQEND
  0
TEXT
  8
TEXT
 10
-36.000000
 20
-1094.500000
 11
0.000000
 21
0.000000
 40
50.000000
 41
1.020000
 50
0.000000
  7
STANDARD
 71
2
 72
0
  1
J10
 73
0
  0
TEXT
  8
TEXT
 10
134.000000
 20
-1095.500000
 11
0.000000
 21
0.000000
 40
50.000000
 41
1.020000
 50
0.000000
  7
STANDARD
 71
2
 72
0
  1
J10
 73
0
  0
CIRCLE
  8
COND
 10
-520.000000
 20
-930.000000
 40
50.000000
  0
CIRCLE
  8
COND2
 10
-520.000000
 20
-930.000000
 40
45.000000
  0
TEXT
  8
TEXT
 10
-524.166667
 20
-930.000000
 11
-520.000000
 21
-930.000000
 40
12.500000
 41
1.120000
 50
90.000000
  7
STANDARD
 71
2
 72
2
  1
2
 73
0
  0
CIRCLE
  8
COND
 10
-320.000000
 20
-1130.000000
 40
50.000000
  0
CIRCLE
  8
COND2
 10
-320.000000
 20
-1130.000000
 40
45.000000
  0
TEXT
  8
TEXT
 10
-324.166667
 20
-1130.000000
 11
-320.000000
 21
-1130.000000
 40
12.500000
 41
1.120000
 50
90.000000
  7
STANDARD
 71
2
 72
2
  1
3
 73
0
  0
CIRCLE
  8
COND2
 10
-420.000000
 20
-1030.000000
 40
15.000000
  0
TEXT
  8
TEXT
 10
-424.166667
 20
-1030.000000
 11
-420.000000
 21
-1030.000000
 40
12.500000
 41
1.120000
 50
90.000000
  7
STANDARD
 71
2
 72
2
  1
1
 73
0
  0
CIRCLE
  8
COND
 10
-520.000000
 20
-1130.000000
 40
25.000000
  0
CIRCLE
  8
COND2
 10
-520.000000
 20
-1130.000000
 40
25.000000
  0
CIRCLE
  8
COND
 10
-320.000000
 20
-930.000000
 40
25.000000
  0
CIRCLE
  8
COND2
 10
-320.000000
 20
-930.000000
 40
25.000000
  0
POLYLINE
  8
ASSEMBLY
 66
1
 70
1
 40
0.000000
 41
0.000000
 39
0.000000
  0
VERTEX
  8
ASSEMBLY
 10
-546.000000
 20
-904.000000
 40
0.000000
 41
0.000000
 42
0.000000
  0
VERTEX
  8
ASSEMBLY
 10
-546.000000
 20
-1156.000000
 40
0.000000
 41
0.000000
 42
0.000000
  0
VERTEX
  8
ASSEMBLY
 10
-294.000000
 20
-1156.000000
 40
0.000000
 41
0.000000
 42
0.000000
  0
VERTEX
  8
ASSEMBLY
 10
-294.000000
 20
-904.000000
 40
0.000000
 41
0.000000
 42
0.000000
  0
SEQEND
  0
POLYLINE
  8
SILK_SCREEN
 66
1
 70
1
 40
0.000000
 41
0.000000
 39
0.000000
  0
VERTEX
  8
SILK_SCREEN
 10
-546.000000
 20
-904.000000
 40
0.000000
 41
0.000000
 42
0.000000
  0
VERTEX
  8
SILK_SCREEN
 10
-546.000000
 20
-1156.000000
 40
0.000000
 41
0.000000
 42
0.000000
  0
VERTEX
  8
SILK_SCREEN
 10
-294.000000
 20
-1156.000000
 40
0.000000
 41
0.000000
 42
0.000000
  0
VERTEX
  8
SILK_SCREEN
 10
-294.000000
 20
-904.000000
 40
0.000000
 41
0.000000
 42
0.000000
  0
SEQEND
  0
POLYLINE
  8
BOUND
 66
1
 70
1
 40
0.000000
 41
0.000000
 39
0.000000
  0
VERTEX
  8
BOUND
 10
-290.000000
 20
-900.000000
 40
0.000000
 41
0.000000
 42
0.000000
  0
VERTEX
  8
BOUND
 10
-290.000000
 20
-1160.000000
 40
0.000000
 41
0.000000
 42
0.000000
  0
VERTEX
  8
BOUND
 10
-550.000000
 20
-1160.000000
 40
0.000000
 41
0.000000
 42
0.000000
  0
VERTEX
  8
BOUND
 10
-550.000000
 20
-900.000000
 40
0.000000
 41
0.000000
 42
0.000000
  0
SEQEND
  0
TEXT
  8
TEXT
 10
-395.500000
 20
-1066.000000
 11
0.000000
 21
0.000000
 40
50.000000
 41
1.020000
 50
90.000000
  7
STANDARD
 71
2
 72
0
  1
J9
 73
0
  0
TEXT
  8
TEXT
 10
-394.500000
 20
-896.000000
 11
0.000000
 21
0.000000
 40
50.000000
 41
1.020000
 50
90.000000
  7
STANDARD
 71
2
 72
0
  1
J9
 73
0
  0
CIRCLE
  8
COND
 10
-1130.000000
 20
-320.000000
 40
50.000000
  0
CIRCLE
  8
COND2
 10
-1130.000000
 20
-320.000000
 40
45.000000
  0
TEXT
  8
TEXT
 10
-1134.166667
 20
-320.000000
 11
-1130.000000
 21
-320.000000
 40
12.500000
 41
1.120000
 50
90.000000
  7
STANDARD
 71
2
 72
2
  1
2
 73
0
  0
CIRCLE
  8
COND
 10
-930.000000
 20
-520.000000
 40
50.000000
  0
CIRCLE
  8
COND2
 10
-930.000000
 20
-520.000000
 40
45.000000
  0
TEXT
  8
TEXT
 10
-934.166667
 20
-520.000000
 11
-930.000000
 21
-520.000000
 40
12.500000
 41
1.120000
 50
90.000000
  7
STANDARD
 71
2
 72
2
  1
3
 73
0
  0
CIRCLE
  8
COND2
 10
-1030.000000
 20
-420.000000
 40
15.000000
  0
TEXT
  8
TEXT
 10
-1034.166667
 20
-420.000000
 11
-1030.000000
 21
-420.000000
 40
12.500000
 41
1.120000
 50
90.000000
  7
STANDARD
 71
2
 72
2
  1
1
 73
0
  0
CIRCLE
  8
COND
 10
-1130.000000
 20
-520.000000
 40
25.000000
  0
CIRCLE
  8
COND2
 10
-1130.000000
 20
-520.000000
 40
25.000000
  0
CIRCLE
  8
COND
 10
-930.000000
 20
-320.000000
 40
25.000000
  0
CIRCLE
  8
COND2
 10
-930.000000
 20
-320.000000
 40
25.000000
  0
POLYLINE
  8
ASSEMBLY
 66
1
 70
1
 40
0.000000
 41
0.000000
 39
0.000000
  0
VERTEX
  8
ASSEMBLY
 10
-1156.000000
 20
-294.000000
 40
0.000000
 41
0.000000
 42
0.000000
  0
VERTEX
  8
ASSEMBLY
 10
-1156.000000
 20
-546.000000
 40
0.000000
 41
0.000000
 42
0.000000
  0
VERTEX
  8
ASSEMBLY
 10
-904.000000
 20
-546.000000
 40
0.000000
 41
0.000000
 42
0.000000
  0
VERTEX
  8
ASSEMBLY
 10
-904.000000
 20
-294.000000
 40
0.000000
 41
0.000000
 42
0.000000
  0
SEQEND
  0
POLYLINE
  8
SILK_SCREEN
 66
1
 70
1
 40
0.000000
 41
0.000000
 39
0.000000
  0
VERTEX
  8
SILK_SCREEN
 10
-1156.000000
 20
-294.000000
 40
0.000000
 41
0.000000
 42
0.000000
  0
VERTEX
  8
SILK_SCREEN
 10
-1156.000000
 20
-546.000000
 40
0.000000
 41
0.000000
 42
0.000000
  0
VERTEX
  8
SILK_SCREEN
 10
-904.000000
 20
-546.000000
 40
0.000000
 41
0.000000
 42
0.000000
  0
VERTEX
  8
SILK_SCREEN
 10
-904.000000
 20
-294.000000
 40
0.000000
 41
0.000000
 42
0.000000
  0
SEQEND
  0
POLYLINE
  8
BOUND
 66
1
 70
1
 40
0.000000
 41
0.000000
 39
0.000000
  0
VERTEX
  8
BOUND
 10
-900.000000
 20
-290.000000
 40
0.000000
 41
0.000000
 42
0.000000
  0
VERTEX
  8
BOUND
 10
-900.000000
 20
-550.000000
 40
0.000000
 41
0.000000
 42
0.000000
  0
VERTEX
  8
BOUND
 10
-1160.000000
 20
-550.000000
 40
0.000000
 41
0.000000
 42
0.000000
  0
VERTEX
  8
BOUND
 10
-1160.000000
 20
-290.000000
 40
0.000000
 41
0.000000
 42
0.000000
  0
SEQEND
  0
TEXT
  8
TEXT
 10
-1005.500000
 20
-456.000000
 11
0.000000
 21
0.000000
 40
50.000000
 41
1.020000
 50
90.000000
  7
STANDARD
 71
2
 72
0
  1
J8
 73
0
  0
TEXT
  8
TEXT
 10
-1004.500000
 20
-286.000000
 11
0.000000
 21
0.000000
 40
50.000000
 41
1.020000
 50
90.000000
  7
STANDARD
 71
2
 72
0
  1
J8
 73
0
  0
CIRCLE
  8
COND
 10
-970.000000
 20
100.000000
 40
50.000000
  0
CIRCLE
  8
COND2
 10
-970.000000
 20
100.000000
 40
45.000000
  0
TEXT
  8
TEXT
 10
-974.166667
 20
100.000000
 11
-970.000000
 21
100.000000
 40
12.500000
 41
1.120000
 50
0.000000
  7
STANDARD
 71
2
 72
2
  1
2
 73
0
  0
CIRCLE
  8
COND
 10
-1170.000000
 20
-100.000000
 40
50.000000
  0
CIRCLE
  8
COND2
 10
-1170.000000
 20
-100.000000
 40
45.000000
  0
TEXT
  8
TEXT
 10
-1174.166667
 20
-100.000000
 11
-1170.000000
 21
-100.000000
 40
12.500000
 41
1.120000
 50
0.000000
  7
STANDARD
 71
2
 72
2
  1
3
 73
0
  0
CIRCLE
  8
COND2
 10
-1070.000000
 20
0.000000
 40
15.000000
  0
TEXT
  8
TEXT
 10
-1074.166667
 20
0.000000
 11
-1070.000000
 21
0.000000
 40
12.500000
 41
1.120000
 50
0.000000
  7
STANDARD
 71
2
 72
2
  1
1
 73
0
  0
CIRCLE
  8
COND
 10
-1170.000000
 20
100.000000
 40
25.000000
  0
CIRCLE
  8
COND2
 10
-1170.000000
 20
100.000000
 40
25.000000
  0
CIRCLE
  8
COND
 10
-970.000000
 20
-100.000000
 40
25.000000
  0
CIRCLE
  8
COND2
 10
-970.000000
 20
-100.000000
 40
25.000000
  0
POLYLINE
  8
ASSEMBLY
 66
1
 70
1
 40
0.000000
 41
0.000000
 39
0.000000
  0
VERTEX
  8
ASSEMBLY
 10
-944.000000
 20
126.000000
 40
0.000000
 41
0.000000
 42
0.000000
  0
VERTEX
  8
ASSEMBLY
 10
-1196.000000
 20
126.000000
 40
0.000000
 41
0.000000
 42
0.000000
  0
VERTEX
  8
ASSEMBLY
 10
-1196.000000
 20
-126.000000
 40
0.000000
 41
0.000000
 42
0.000000
  0
VERTEX
  8
ASSEMBLY
 10
-944.000000
 20
-126.000000
 40
0.000000
 41
0.000000
 42
0.000000
  0
SEQEND
  0
POLYLINE
  8
SILK_SCREEN
 66
1
 70
1
 40
0.000000
 41
0.000000
 39
0.000000
  0
VERTEX
  8
SILK_SCREEN
 10
-944.000000
 20
126.000000
 40
0.000000
 41
0.000000
 42
0.000000
  0
VERTEX
  8
SILK_SCREEN
 10
-1196.000000
 20
126.000000
 40
0.000000
 41
0.000000
 42
0.000000
  0
VERTEX
  8
SILK_SCREEN
 10
-1196.000000
 20
-126.000000
 40
0.000000
 41
0.000000
 42
0.000000
  0
VERTEX
  8
SILK_SCREEN
 10
-944.000000
 20
-126.000000
 40
0.000000
 41
0.000000
 42
0.000000
  0
SEQEND
  0
POLYLINE
  8
BOUND
 66
1
 70
1
 40
0.000000
 41
0.000000
 39
0.000000
  0
VERTEX
  8
BOUND
 10
-940.000000
 20
-130.000000
 40
0.000000
 41
0.000000
 42
0.000000
  0
VERTEX
  8
BOUND
 10
-1200.000000
 20
-130.000000
 40
0.000000
 41
0.000000
 42
0.000000
  0
VERTEX
  8
BOUND
 10
-1200.000000
 20
130.000000
 40
0.000000
 41
0.000000
 42
0.000000
  0
VERTEX
  8
BOUND
 10
-940.000000
 20
130.000000
 40
0.000000
 41
0.000000
 42
0.000000
  0
SEQEND
  0
TEXT
  8
TEXT
 10
-1106.000000
 20
-24.500000
 11
0.000000
 21
0.000000
 40
50.000000
 41
1.020000
 50
0.000000
  7
STANDARD
 71
2
 72
0
  1
J7
 73
0
  0
TEXT
  8
TEXT
 10
-936.000000
 20
-25.500000
 11
0.000000
 21
0.000000
 40
50.000000
 41
1.020000
 50
0.000000
  7
STANDARD
 71
2
 72
0
  1
J7
 73
0
  0
CIRCLE
  8
COND
 10
-930.000000
 20
520.000000
 40
50.000000
  0
CIRCLE
  8
COND2
 10
-930.000000
 20
520.000000
 40
45.000000
  0
TEXT
  8
TEXT
 10
-934.166667
 20
520.010000
 11
-930.000000
 21
520.010000
 40
12.500000
 41
1.120000
 50
0.000000
  7
STANDARD
 71
2
 72
2
  1
2
 73
0
  0
CIRCLE
  8
COND
 10
-1130.000000
 20
320.000000
 40
50.000000
  0
CIRCLE
  8
COND2
 10
-1130.000000
 20
320.000000
 40
45.000000
  0
TEXT
  8
TEXT
 10
-1134.166667
 20
319.990000
 11
-1130.000000
 21
319.990000
 40
12.500000
 41
1.120000
 50
0.000000
  7
STANDARD
 71
2
 72
2
  1
3
 73
0
  0
CIRCLE
  8
COND2
 10
-1030.000000
 20
420.000000
 40
15.000000
  0
TEXT
  8
TEXT
 10
-1034.166667
 20
420.000000
 11
-1030.000000
 21
420.000000
 40
12.500000
 41
1.120000
 50
0.000000
  7
STANDARD
 71
2
 72
2
  1
1
 73
0
  0
CIRCLE
  8
COND
 10
-1130.000000
 20
520.000000
 40
25.000000
  0
CIRCLE
  8
COND2
 10
-1130.000000
 20
520.000000
 40
25.000000
  0
CIRCLE
  8
COND
 10
-930.000000
 20
320.000000
 40
25.000000
  0
CIRCLE
  8
COND2
 10
-930.000000
 20
320.000000
 40
25.000000
  0
POLYLINE
  8
ASSEMBLY
 66
1
 70
1
 40
0.000000
 41
0.000000
 39
0.000000
  0
VERTEX
  8
ASSEMBLY
 10
-904.000000
 20
546.000000
 40
0.000000
 41
0.000000
 42
0.000000
  0
VERTEX
  8
ASSEMBLY
 10
-1156.000000
 20
546.000000
 40
0.000000
 41
0.000000
 42
0.000000
  0
VERTEX
  8
ASSEMBLY
 10
-1156.000000
 20
294.000000
 40
0.000000
 41
0.000000
 42
0.000000
  0
VERTEX
  8
ASSEMBLY
 10
-904.000000
 20
294.000000
 40
0.000000
 41
0.000000
 42
0.000000
  0
SEQEND
  0
POLYLINE
  8
SILK_SCREEN
 66
1
 70
1
 40
0.000000
 41
0.000000
 39
0.000000
  0
VERTEX
  8
SILK_SCREEN
 10
-904.000000
 20
546.000000
 40
0.000000
 41
0.000000
 42
0.000000
  0
VERTEX
  8
SILK_SCREEN
 10
-1156.000000
 20
546.000000
 40
0.000000
 41
0.000000
 42
0.000000
  0
VERTEX
  8
SILK_SCREEN
 10
-1156.000000
 20
294.000000
 40
0.000000
 41
0.000000
 42
0.000000
  0
VERTEX
  8
SILK_SCREEN
 10
-904.000000
 20
294.000000
 40
0.000000
 41
0.000000
 42
0.000000
  0
SEQEND
  0
POLYLINE
  8
BOUND
 66
1
 70
1
 40
0.000000
 41
0.000000
 39
0.000000
  0
VERTEX
  8
BOUND
 10
-900.000000
 20
290.000000
 40
0.000000
 41
0.000000
 42
0.000000
  0
VERTEX
  8
BOUND
 10
-1160.000000
 20
290.000000
 40
0.000000
 41
0.000000
 42
0.000000
  0
VERTEX
  8
BOUND
 10
-1160.000000
 20
550.000000
 40
0.000000
 41
0.000000
 42
0.000000
  0
VERTEX
  8
BOUND
 10
-900.000000
 20
550.000000
 40
0.000000
 41
0.000000
 42
0.000000
  0
SEQEND
  0
TEXT
  8
TEXT
 10
-1066.000000
 20
395.500000
 11
0.000000
 21
0.000000
 40
50.000000
 41
1.020000
 50
0.000000
  7
STANDARD
 71
2
 72
0
  1
J6
 73
0
  0
TEXT
  8
TEXT
 10
-896.000000
 20
394.500000
 11
0.000000
 21
0.000000
 40
50.000000
 41
1.020000
 50
0.000000
  7
STANDARD
 71
2
 72
0
  1
J6
 73
0
  0
CIRCLE
  8
COND
 10
-320.000000
 20
1130.000000
 40
50.000000
  0
CIRCLE
  8
COND2
 10
-320.000000
 20
1130.000000
 40
45.000000
  0
TEXT
  8
TEXT
 10
-324.166667
 20
1130.000000
 11
-320.000000
 21
1130.000000
 40
12.500000
 41
1.120000
 50
0.000000
  7
STANDARD
 71
2
 72
2
  1
2
 73
0
  0
CIRCLE
  8
COND
 10
-520.000000
 20
930.000000
 40
50.000000
  0
CIRCLE
  8
COND2
 10
-520.000000
 20
930.000000
 40
45.000000
  0
TEXT
  8
TEXT
 10
-524.166667
 20
930.000000
 11
-520.000000
 21
930.000000
 40
12.500000
 41
1.120000
 50
0.000000
  7
STANDARD
 71
2
 72
2
  1
3
 73
0
  0
CIRCLE
  8
COND2
 10
-420.000000
 20
1030.000000
 40
15.000000
  0
TEXT
  8
TEXT
 10
-424.166667
 20
1030.000000
 11
-420.000000
 21
1030.000000
 40
12.500000
 41
1.120000
 50
0.000000
  7
STANDARD
 71
2
 72
2
  1
1
 73
0
  0
CIRCLE
  8
COND
 10
-520.000000
 20
1130.000000
 40
25.000000
  0
CIRCLE
  8
COND2
 10
-520.000000
 20
1130.000000
 40
25.000000
  0
CIRCLE
  8
COND
 10
-320.000000
 20
930.000000
 40
25.000000
  0
CIRCLE
  8
COND2
 10
-320.000000
 20
930.000000
 40
25.000000
  0
POLYLINE
  8
ASSEMBLY
 66
1
 70
1
 40
0.000000
 41
0.000000
 39
0.000000
  0
VERTEX
  8
ASSEMBLY
 10
-294.000000
 20
1156.000000
 40
0.000000
 41
0.000000
 42
0.000000
  0
VERTEX
  8
ASSEMBLY
 10
-546.000000
 20
1156.000000
 40
0.000000
 41
0.000000
 42
0.000000
  0
VERTEX
  8
ASSEMBLY
 10
-546.000000
 20
904.000000
 40
0.000000
 41
0.000000
 42
0.000000
  0
VERTEX
  8
ASSEMBLY
 10
-294.000000
 20
904.000000
 40
0.000000
 41
0.000000
 42
0.000000
  0
SEQEND
  0
POLYLINE
  8
SILK_SCREEN
 66
1
 70
1
 40
0.000000
 41
0.000000
 39
0.000000
  0
VERTEX
  8
SILK_SCREEN
 10
-294.000000
 20
1156.000000
 40
0.000000
 41
0.000000
 42
0.000000
  0
VERTEX
  8
SILK_SCREEN
 10
-546.000000
 20
1156.000000
 40
0.000000
 41
0.000000
 42
0.000000
  0
VERTEX
  8
SILK_SCREEN
 10
-546.000000
 20
904.000000
 40
0.000000
 41
0.000000
 42
0.000000
  0
VERTEX
  8
SILK_SCREEN
 10
-294.000000
 20
904.000000
 40
0.000000
 41
0.000000
 42
0.000000
  0
SEQEND
  0
POLYLINE
  8
BOUND
 66
1
 70
1
 40
0.000000
 41
0.000000
 39
0.000000
  0
VERTEX
  8
BOUND
 10
-290.000000
 20
900.000000
 40
0.000000
 41
0.000000
 42
0.000000
  0
VERTEX
  8
BOUND
 10
-550.000000
 20
900.000000
 40
0.000000
 41
0.000000
 42
0.000000
  0
VERTEX
  8
BOUND
 10
-550.000000
 20
1160.000000
 40
0.000000
 41
0.000000
 42
0.000000
  0
VERTEX
  8
BOUND
 10
-290.000000
 20
1160.000000
 40
0.000000
 41
0.000000
 42
0.000000
  0
SEQEND
  0
TEXT
  8
TEXT
 10
-456.000000
 20
1005.500000
 11
0.000000
 21
0.000000
 40
50.000000
 41
1.020000
 50
0.000000
  7
STANDARD
 71
2
 72
0
  1
J5
 73
0
  0
TEXT
  8
TEXT
 10
-286.000000
 20
1004.500000
 11
0.000000
 21
0.000000
 40
50.000000
 41
1.020000
 50
0.000000
  7
STANDARD
 71
2
 72
0
  1
J5
 73
0
  0
CIRCLE
  8
COND
 10
100.000000
 20
1170.000000
 40
50.000000
  0
CIRCLE
  8
COND2
 10
100.000000
 20
1170.000000
 40
45.000000
  0
TEXT
  8
TEXT
 10
95.833333
 20
1170.000000
 11
100.000000
 21
1170.000000
 40
12.500000
 41
1.120000
 50
0.000000
  7
STANDARD
 71
2
 72
2
  1
2
 73
0
  0
CIRCLE
  8
COND
 10
-100.000000
 20
970.000000
 40
50.000000
  0
CIRCLE
  8
COND2
 10
-100.000000
 20
970.000000
 40
45.000000
  0
TEXT
  8
TEXT
 10
-104.166667
 20
970.000000
 11
-100.000000
 21
970.000000
 40
12.500000
 41
1.120000
 50
0.000000
  7
STANDARD
 71
2
 72
2
  1
3
 73
0
  0
CIRCLE
  8
COND2
 10
0.000000
 20
1070.000000
 40
15.000000
  0
TEXT
  8
TEXT
 10
-4.166667
 20
1070.000000
 11
0.000000
 21
1070.000000
 40
12.500000
 41
1.120000
 50
0.000000
  7
STANDARD
 71
2
 72
2
  1
1
 73
0
  0
CIRCLE
  8
COND
 10
-100.000000
 20
1170.000000
 40
25.000000
  0
CIRCLE
  8
COND2
 10
-100.000000
 20
1170.000000
 40
25.000000
  0
CIRCLE
  8
COND
 10
100.000000
 20
970.000000
 40
25.000000
  0
CIRCLE
  8
COND2
 10
100.000000
 20
970.000000
 40
25.000000
  0
POLYLINE
  8
ASSEMBLY
 66
1
 70
1
 40
0.000000
 41
0.000000
 39
0.000000
  0
VERTEX
  8
ASSEMBLY
 10
126.000000
 20
1196.000000
 40
0.000000
 41
0.000000
 42
0.000000
  0
VERTEX
  8
ASSEMBLY
 10
-126.000000
 20
1196.000000
 40
0.000000
 41
0.000000
 42
0.000000
  0
VERTEX
  8
ASSEMBLY
 10
-126.000000
 20
944.000000
 40
0.000000
 41
0.000000
 42
0.000000
  0
VERTEX
  8
ASSEMBLY
 10
126.000000
 20
944.000000
 40
0.000000
 41
0.000000
 42
0.000000
  0
SEQEND
  0
POLYLINE
  8
SILK_SCREEN
 66
1
 70
1
 40
0.000000
 41
0.000000
 39
0.000000
  0
VERTEX
  8
SILK_SCREEN
 10
126.000000
 20
1196.000000
 40
0.000000
 41
0.000000
 42
0.000000
  0
VERTEX
  8
SILK_SCREEN
 10
-126.000000
 20
1196.000000
 40
0.000000
 41
0.000000
 42
0.000000
  0
VERTEX
  8
SILK_SCREEN
 10
-126.000000
 20
944.000000
 40
0.000000
 41
0.000000
 42
0.000000
  0
VERTEX
  8
SILK_SCREEN
 10
126.000000
 20
944.000000
 40
0.000000
 41
0.000000
 42
0.000000
  0
SEQEND
  0
POLYLINE
  8
BOUND
 66
1
 70
1
 40
0.000000
 41
0.000000
 39
0.000000
  0
VERTEX
  8
BOUND
 10
130.000000
 20
940.000000
 40
0.000000
 41
0.000000
 42
0.000000
  0
VERTEX
  8
BOUND
 10
-130.000000
 20
940.000000
 40
0.000000
 41
0.000000
 42
0.000000
  0
VERTEX
  8
BOUND
 10
-130.000000
 20
1200.000000
 40
0.000000
 41
0.000000
 42
0.000000
  0
VERTEX
  8
BOUND
 10
130.000000
 20
1200.000000
 40
0.000000
 41
0.000000
 42
0.000000
  0
SEQEND
  0
TEXT
  8
TEXT
 10
-36.000000
 20
1045.500000
 11
0.000000
 21
0.000000
 40
50.000000
 41
1.020000
 50
0.000000
  7
STANDARD
 71
2
 72
0
  1
J4
 73
0
  0
TEXT
  8
TEXT
 10
134.000000
 20
1044.500000
 11
0.000000
 21
0.000000
 40
50.000000
 41
1.020000
 50
0.000000
  7
STANDARD
 71
2
 72
0
  1
J4
 73
0
  0
CIRCLE
  8
COND
 10
320.000000
 20
1130.000000
 40
50.000000
  0
CIRCLE
  8
COND2
 10
320.000000
 20
1130.000000
 40
45.000000
  0
TEXT
  8
TEXT
 10
315.843333
 20
1130.000000
 11
320.010000
 21
1130.000000
 40
12.500000
 41
1.120000
 50
90.000000
  7
STANDARD
 71
2
 72
2
  1
2
 73
0
  0
CIRCLE
  8
COND
 10
520.000000
 20
930.000000
 40
50.000000
  0
CIRCLE
  8
COND2
 10
520.000000
 20
930.000000
 40
45.000000
  0
TEXT
  8
TEXT
 10
515.823333
 20
930.000000
 11
519.990000
 21
930.000000
 40
12.500000
 41
1.120000
 50
90.000000
  7
STANDARD
 71
2
 72
2
  1
3
 73
0
  0
CIRCLE
  8
COND2
 10
420.000000
 20
1030.000000
 40
15.000000
  0
TEXT
  8
TEXT
 10
415.833333
 20
1030.000000
 11
420.000000
 21
1030.000000
 40
12.500000
 41
1.120000
 50
90.000000
  7
STANDARD
 71
2
 72
2
  1
1
 73
0
  0
CIRCLE
  8
COND
 10
320.000000
 20
930.000000
 40
25.000000
  0
CIRCLE
  8
COND2
 10
320.000000
 20
930.000000
 40
25.000000
  0
CIRCLE
  8
COND
 10
520.000000
 20
1130.000000
 40
25.000000
  0
CIRCLE
  8
COND2
 10
520.000000
 20
1130.000000
 40
25.000000
  0
POLYLINE
  8
ASSEMBLY
 66
1
 70
1
 40
0.000000
 41
0.000000
 39
0.000000
  0
VERTEX
  8
ASSEMBLY
 10
294.000000
 20
1155.990000
 40
0.000000
 41
0.000000
 42
0.000000
  0
VERTEX
  8
ASSEMBLY
 10
294.010000
 20
904.000000
 40
0.000000
 41
0.000000
 42
0.000000
  0
VERTEX
  8
ASSEMBLY
 10
546.000000
 20
904.010000
 40
0.000000
 41
0.000000
 42
0.000000
  0
VERTEX
  8
ASSEMBLY
 10
545.990000
 20
1156.000000
 40
0.000000
 41
0.000000
 42
0.000000
  0
SEQEND
  0
POLYLINE
  8
SILK_SCREEN
 66
1
 70
1
 40
0.000000
 41
0.000000
 39
0.000000
  0
VERTEX
  8
SILK_SCREEN
 10
294.000000
 20
1155.990000
 40
0.000000
 41
0.000000
 42
0.000000
  0
VERTEX
  8
SILK_SCREEN
 10
294.010000
 20
904.000000
 40
0.000000
 41
0.000000
 42
0.000000
  0
VERTEX
  8
SILK_SCREEN
 10
546.000000
 20
904.010000
 40
0.000000
 41
0.000000
 42
0.000000
  0
VERTEX
  8
SILK_SCREEN
 10
545.990000
 20
1156.000000
 40
0.000000
 41
0.000000
 42
0.000000
  0
SEQEND
  0
POLYLINE
  8
BOUND
 66
1
 70
1
 40
0.000000
 41
0.000000
 39
0.000000
  0
VERTEX
  8
BOUND
 10
550.000000
 20
1160.000000
 40
0.000000
 41
0.000000
 42
0.000000
  0
VERTEX
  8
BOUND
 10
550.000000
 20
900.000000
 40
0.000000
 41
0.000000
 42
0.000000
  0
VERTEX
  8
BOUND
 10
290.000000
 20
900.000000
 40
0.000000
 41
0.000000
 42
0.000000
  0
VERTEX
  8
BOUND
 10
290.000000
 20
1160.000000
 40
0.000000
 41
0.000000
 42
0.000000
  0
SEQEND
  0
TEXT
  8
TEXT
 10
444.500000
 20
994.000000
 11
0.000000
 21
0.000000
 40
50.000000
 41
1.020000
 50
90.000000
  7
STANDARD
 71
2
 72
0
  1
J3
 73
0
  0
TEXT
  8
TEXT
 10
445.500000
 20
1164.000000
 11
0.000000
 21
0.000000
 40
50.000000
 41
1.020000
 50
90.000000
  7
STANDARD
 71
2
 72
0
  1
J3
 73
0
  0
CIRCLE
  8
COND
 10
930.000000
 20
520.000000
 40
50.000000
  0
CIRCLE
  8
COND2
 10
930.000000
 20
520.000000
 40
45.000000
  0
TEXT
  8
TEXT
 10
925.833333
 20
520.000000
 11
930.000000
 21
520.000000
 40
12.500000
 41
1.120000
 50
90.000000
  7
STANDARD
 71
2
 72
2
  1
2
 73
0
  0
CIRCLE
  8
COND
 10
1130.000000
 20
320.000000
 40
50.000000
  0
CIRCLE
  8
COND2
 10
1130.000000
 20
320.000000
 40
45.000000
  0
TEXT
  8
TEXT
 10
1125.833333
 20
320.000000
 11
1130.000000
 21
320.000000
 40
12.500000
 41
1.120000
 50
90.000000
  7
STANDARD
 71
2
 72
2
  1
3
 73
0
  0
CIRCLE
  8
COND2
 10
1030.000000
 20
420.000000
 40
15.000000
  0
TEXT
  8
TEXT
 10
1025.833333
 20
420.000000
 11
1030.000000
 21
420.000000
 40
12.500000
 41
1.120000
 50
90.000000
  7
STANDARD
 71
2
 72
2
  1
1
 73
0
  0
CIRCLE
  8
COND
 10
930.000000
 20
320.000000
 40
25.000000
  0
CIRCLE
  8
COND2
 10
930.000000
 20
320.000000
 40
25.000000
  0
CIRCLE
  8
COND
 10
1130.000000
 20
520.000000
 40
25.000000
  0
CIRCLE
  8
COND2
 10
1130.000000
 20
520.000000
 40
25.000000
  0
POLYLINE
  8
ASSEMBLY
 66
1
 70
1
 40
0.000000
 41
0.000000
 39
0.000000
  0
VERTEX
  8
ASSEMBLY
 10
904.000000
 20
546.000000
 40
0.000000
 41
0.000000
 42
0.000000
  0
VERTEX
  8
ASSEMBLY
 10
904.000000
 20
294.000000
 40
0.000000
 41
0.000000
 42
0.000000
  0
VERTEX
  8
ASSEMBLY
 10
1156.000000
 20
294.000000
 40
0.000000
 41
0.000000
 42
0.000000
  0
VERTEX
  8
ASSEMBLY
 10
1156.000000
 20
546.000000
 40
0.000000
 41
0.000000
 42
0.000000
  0
SEQEND
  0
POLYLINE
  8
SILK_SCREEN
 66
1
 70
1
 40
0.000000
 41
0.000000
 39
0.000000
  0
VERTEX
  8
SILK_SCREEN
 10
904.000000
 20
546.000000
 40
0.000000
 41
0.000000
 42
0.000000
  0
VERTEX
  8
SILK_SCREEN
 10
904.000000
 20
294.000000
 40
0.000000
 41
0.000000
 42
0.000000
  0
VERTEX
  8
SILK_SCREEN
 10
1156.000000
 20
294.000000
 40
0.000000
 41
0.000000
 42
0.000000
  0
VERTEX
  8
SILK_SCREEN
 10
1156.000000
 20
546.000000
 40
0.000000
 41
0.000000
 42
0.000000
  0
SEQEND
  0
POLYLINE
  8
BOUND
 66
1
 70
1
 40
0.000000
 41
0.000000
 39
0.000000
  0
VERTEX
  8
BOUND
 10
1160.000000
 20
550.000000
 40
0.000000
 41
0.000000
 42
0.000000
  0
VERTEX
  8
BOUND
 10
1160.000000
 20
290.000000
 40
0.000000
 41
0.000000
 42
0.000000
  0
VERTEX
  8
BOUND
 10
900.000000
 20
290.000000
 40
0.000000
 41
0.000000
 42
0.000000
  0
VERTEX
  8
BOUND
 10
900.000000
 20
550.000000
 40
0.000000
 41
0.000000
 42
0.000000
  0
SEQEND
  0
TEXT
  8
TEXT
 10
1054.500000
 20
384.000000
 11
0.000000
 21
0.000000
 40
50.000000
 41
1.020000
 50
90.000000
  7
STANDARD
 71
2
 72
0
  1
J2
 73
0
  0
TEXT
  8
TEXT
 10
1055.500000
 20
554.000000
 11
0.000000
 21
0.000000
 40
50.000000
 41
1.020000
 50
90.000000
  7
STANDARD
 71
2
 72
0
  1
J2
 73
0
  0
CIRCLE
  8
COND
 10
1170.000000
 20
100.000000
 40
50.000000
  0
CIRCLE
  8
COND2
 10
1170.000000
 20
100.000000
 40
45.000000
  0
TEXT
  8
TEXT
 10
1165.833333
 20
100.000000
 11
1170.000000
 21
100.000000
 40
12.500000
 41
1.120000
 50
0.000000
  7
STANDARD
 71
2
 72
2
  1
2
 73
0
  0
CIRCLE
  8
COND
 10
970.000000
 20
-100.000000
 40
50.000000
  0
CIRCLE
  8
COND2
 10
970.000000
 20
-100.000000
 40
45.000000
  0
TEXT
  8
TEXT
 10
965.833333
 20
-100.000000
 11
970.000000
 21
-100.000000
 40
12.500000
 41
1.120000
 50
0.000000
  7
STANDARD
 71
2
 72
2
  1
3
 73
0
  0
CIRCLE
  8
COND2
 10
1070.000000
 20
0.000000
 40
15.000000
  0
TEXT
  8
TEXT
 10
1065.833333
 20
0.000000
 11
1070.000000
 21
0.000000
 40
12.500000
 41
1.120000
 50
0.000000
  7
STANDARD
 71
2
 72
2
  1
1
 73
0
  0
CIRCLE
  8
COND
 10
970.000000
 20
100.000000
 40
25.000000
  0
CIRCLE
  8
COND2
 10
970.000000
 20
100.000000
 40
25.000000
  0
CIRCLE
  8
COND
 10
1170.000000
 20
-100.000000
 40
25.000000
  0
CIRCLE
  8
COND2
 10
1170.000000
 20
-100.000000
 40
25.000000
  0
POLYLINE
  8
ASSEMBLY
 66
1
 70
1
 40
0.000000
 41
0.000000
 39
0.000000
  0
VERTEX
  8
ASSEMBLY
 10
1196.000000
 20
126.000000
 40
0.000000
 41
0.000000
 42
0.000000
  0
VERTEX
  8
ASSEMBLY
 10
944.000000
 20
126.000000
 40
0.000000
 41
0.000000
 42
0.000000
  0
VERTEX
  8
ASSEMBLY
 10
944.000000
 20
-126.000000
 40
0.000000
 41
0.000000
 42
0.000000
  0
VERTEX
  8
ASSEMBLY
 10
1196.000000
 20
-126.000000
 40
0.000000
 41
0.000000
 42
0.000000
  0
SEQEND
  0
POLYLINE
  8
SILK_SCREEN
 66
1
 70
1
 40
0.000000
 41
0.000000
 39
0.000000
  0
VERTEX
  8
SILK_SCREEN
 10
1196.000000
 20
126.000000
 40
0.000000
 41
0.000000
 42
0.000000
  0
VERTEX
  8
SILK_SCREEN
 10
944.000000
 20
126.000000
 40
0.000000
 41
0.000000
 42
0.000000
  0
VERTEX
  8
SILK_SCREEN
 10
944.000000
 20
-126.000000
 40
0.000000
 41
0.000000
 42
0.000000
  0
VERTEX
  8
SILK_SCREEN
 10
1196.000000
 20
-126.000000
 40
0.000000
 41
0.000000
 42
0.000000
  0
SEQEND
  0
POLYLINE
  8
BOUND
 66
1
 70
1
 40
0.000000
 41
0.000000
 39
0.000000
  0
VERTEX
  8
BOUND
 10
1200.000000
 20
-130.000000
 40
0.000000
 41
0.000000
 42
0.000000
  0
VERTEX
  8
BOUND
 10
940.000000
 20
-130.000000
 40
0.000000
 41
0.000000
 42
0.000000
  0
VERTEX
  8
BOUND
 10
940.000000
 20
130.000000
 40
0.000000
 41
0.000000
 42
0.000000
  0
VERTEX
  8
BOUND
 10
1200.000000
 20
130.000000
 40
0.000000
 41
0.000000
 42
0.000000
  0
SEQEND
  0
TEXT
  8
TEXT
 10
1034.000000
 20
-24.500000
 11
0.000000
 21
0.000000
 40
50.000000
 41
1.020000
 50
0.000000
  7
STANDARD
 71
2
 72
0
  1
J1
 73
0
  0
TEXT
  8
TEXT
 10
1204.000000
 20
-25.500000
 11
0.000000
 21
0.000000
 40
50.000000
 41
1.020000
 50
0.000000
  7
STANDARD
 71
2
 72
0
  1
J1
 73
0
  0
POLYLINE
  8
PACKAGES
 66
1
 70
1
 40
0.000000
 41
0.000000
 39
0.000000
  0
VERTEX
  8
PACKAGES
 10
1330.000000
 20
0.000000
 40
0.000000
 41
0.000000
 42
1.000000
  0
VERTEX
  8
PACKAGES
 10
-1330.000000
 20
0.000000
 40
0.000000
 41
0.000000
 42
1.000000
  0
SEQEND
  0
ENDSEC
  0
EOF
