G04 ================== begin FILE IDENTIFICATION RECORD ==================*
G04 Layout Name:  filterboard_PARTIAL.brd*
G04 Film Name:    02_GND*
G04 File Format:  Gerber RS274X*
G04 File Origin:  Cadence Allegro 16.6-S006*
G04 Origin Date:  Thu Aug  6 10:09:11 2015*
G04 *
G04 Layer:  ETCH/02_GND*
G04 Layer:  PIN/02_GND*
G04 Layer:  VIA CLASS/02_GND*
G04 *
G04 Offset:    (0.00 0.00)*
G04 Mirror:    No*
G04 Mode:      Negative*
G04 Rotation:  0*
G04 FullContactRelief:  No*
G04 UndefLineWidth:     5.00*
G04 ================== end FILE IDENTIFICATION RECORD ====================*
%FSAX55Y55*MOIN*%
%IR0*IPPOS*OFA0.00000B0.00000*MIA0B0*SFA1.00000B1.00000*%
%AMMACRO28*
4,1,36,-.0025,0.0,
-.002462,.000434,
-.002349,.000855,
-.002165,.00125,
-.001915,.001607,
-.001607,.001915,
-.00125,.002165,
-.000855,.002349,
-.000434,.002462,
0.0,.0025,
.000434,.002462,
.000855,.002349,
.00125,.002165,
.001607,.001915,
.001915,.001607,
.002165,.00125,
.002349,.000855,
.002462,.000434,
.0025,0.0,
.002462,-.000434,
.002349,-.000855,
.002165,-.00125,
.001915,-.001607,
.001607,-.001915,
.00125,-.002165,
.000855,-.002349,
.000434,-.002462,
0.0,-.0025,
-.000434,-.002462,
-.000855,-.002349,
-.00125,-.002165,
-.001607,-.001915,
-.001915,-.001607,
-.002165,-.00125,
-.002349,-.000855,
-.002462,-.000434,
-.0025,0.0,
100.*
%
%ADD28MACRO28*%
%AMMACRO47*
4,1,36,.0025,0.0,
.002462,.000434,
.002349,.000855,
.002165,.00125,
.001915,.001607,
.001607,.001915,
.00125,.002165,
.000855,.002349,
.000434,.002462,
0.0,.0025,
-.000434,.002462,
-.000855,.002349,
-.00125,.002165,
-.001607,.001915,
-.001915,.001607,
-.002165,.00125,
-.002349,.000855,
-.002462,.000434,
-.0025,0.0,
-.002462,-.000434,
-.002349,-.000855,
-.002165,-.00125,
-.001915,-.001607,
-.001607,-.001915,
-.00125,-.002165,
-.000855,-.002349,
-.000434,-.002462,
0.0,-.0025,
.000434,-.002462,
.000855,-.002349,
.00125,-.002165,
.001607,-.001915,
.001915,-.001607,
.002165,-.00125,
.002349,-.000855,
.002462,-.000434,
.0025,0.0,
330.*
%
%ADD47MACRO47*%
%AMMACRO41*
4,1,36,.0025,0.0,
.002462,.000434,
.002349,.000855,
.002165,.00125,
.001915,.001607,
.001607,.001915,
.00125,.002165,
.000855,.002349,
.000434,.002462,
0.0,.0025,
-.000434,.002462,
-.000855,.002349,
-.00125,.002165,
-.001607,.001915,
-.001915,.001607,
-.002165,.00125,
-.002349,.000855,
-.002462,.000434,
-.0025,0.0,
-.002462,-.000434,
-.002349,-.000855,
-.002165,-.00125,
-.001915,-.001607,
-.001607,-.001915,
-.00125,-.002165,
-.000855,-.002349,
-.000434,-.002462,
0.0,-.0025,
.000434,-.002462,
.000855,-.002349,
.00125,-.002165,
.001607,-.001915,
.001915,-.001607,
.002165,-.00125,
.002349,-.000855,
.002462,-.000434,
.0025,0.0,
150.*
%
%ADD41MACRO41*%
%ADD14C,.045*%
%AMMACRO35*
4,1,36,.0025,0.0,
.002462,.000434,
.002349,.000855,
.002165,.00125,
.001915,.001607,
.001607,.001915,
.00125,.002165,
.000855,.002349,
.000434,.002462,
0.0,.0025,
-.000434,.002462,
-.000855,.002349,
-.00125,.002165,
-.001607,.001915,
-.001915,.001607,
-.002165,.00125,
-.002349,.000855,
-.002462,.000434,
-.0025,0.0,
-.002462,-.000434,
-.002349,-.000855,
-.002165,-.00125,
-.001915,-.001607,
-.001607,-.001915,
-.00125,-.002165,
-.000855,-.002349,
-.000434,-.002462,
0.0,-.0025,
.000434,-.002462,
.000855,-.002349,
.00125,-.002165,
.001607,-.001915,
.001915,-.001607,
.002165,-.00125,
.002349,-.000855,
.002462,-.000434,
.0025,0.0,
215.*
%
%ADD35MACRO35*%
%AMMACRO52*
4,1,36,-.0025,0.0,
-.002462,.000434,
-.002349,.000855,
-.002165,.00125,
-.001915,.001607,
-.001607,.001915,
-.00125,.002165,
-.000855,.002349,
-.000434,.002462,
0.0,.0025,
.000434,.002462,
.000855,.002349,
.00125,.002165,
.001607,.001915,
.001915,.001607,
.002165,.00125,
.002349,.000855,
.002462,.000434,
.0025,0.0,
.002462,-.000434,
.002349,-.000855,
.002165,-.00125,
.001915,-.001607,
.001607,-.001915,
.00125,-.002165,
.000855,-.002349,
.000434,-.002462,
0.0,-.0025,
-.000434,-.002462,
-.000855,-.002349,
-.00125,-.002165,
-.001607,-.001915,
-.001915,-.001607,
-.002165,-.00125,
-.002349,-.000855,
-.002462,-.000434,
-.0025,0.0,
260.*
%
%ADD52MACRO52*%
%AMMACRO44*
4,1,36,.0025,0.0,
.002462,.000434,
.002349,.000855,
.002165,.00125,
.001915,.001607,
.001607,.001915,
.00125,.002165,
.000855,.002349,
.000434,.002462,
0.0,.0025,
-.000434,.002462,
-.000855,.002349,
-.00125,.002165,
-.001607,.001915,
-.001915,.001607,
-.002165,.00125,
-.002349,.000855,
-.002462,.000434,
-.0025,0.0,
-.002462,-.000434,
-.002349,-.000855,
-.002165,-.00125,
-.001915,-.001607,
-.001607,-.001915,
-.00125,-.002165,
-.000855,-.002349,
-.000434,-.002462,
0.0,-.0025,
.000434,-.002462,
.000855,-.002349,
.00125,-.002165,
.001607,-.001915,
.001915,-.001607,
.002165,-.00125,
.002349,-.000855,
.002462,-.000434,
.0025,0.0,
270.*
%
%ADD44MACRO44*%
%AMMACRO34*
4,1,36,-.0025,0.0,
-.002462,.000434,
-.002349,.000855,
-.002165,.00125,
-.001915,.001607,
-.001607,.001915,
-.00125,.002165,
-.000855,.002349,
-.000434,.002462,
0.0,.0025,
.000434,.002462,
.000855,.002349,
.00125,.002165,
.001607,.001915,
.001915,.001607,
.002165,.00125,
.002349,.000855,
.002462,.000434,
.0025,0.0,
.002462,-.000434,
.002349,-.000855,
.002165,-.00125,
.001915,-.001607,
.001607,-.001915,
.00125,-.002165,
.000855,-.002349,
.000434,-.002462,
0.0,-.0025,
-.000434,-.002462,
-.000855,-.002349,
-.00125,-.002165,
-.001607,-.001915,
-.001915,-.001607,
-.002165,-.00125,
-.002349,-.000855,
-.002462,-.000434,
-.0025,0.0,
215.*
%
%ADD34MACRO34*%
%AMMACRO33*
4,1,36,-.0025,0.0,
-.002462,.000434,
-.002349,.000855,
-.002165,.00125,
-.001915,.001607,
-.001607,.001915,
-.00125,.002165,
-.000855,.002349,
-.000434,.002462,
0.0,.0025,
.000434,.002462,
.000855,.002349,
.00125,.002165,
.001607,.001915,
.001915,.001607,
.002165,.00125,
.002349,.000855,
.002462,.000434,
.0025,0.0,
.002462,-.000434,
.002349,-.000855,
.002165,-.00125,
.001915,-.001607,
.001607,-.001915,
.00125,-.002165,
.000855,-.002349,
.000434,-.002462,
0.0,-.0025,
-.000434,-.002462,
-.000855,-.002349,
-.00125,-.002165,
-.001607,-.001915,
-.001915,-.001607,
-.002165,-.00125,
-.002349,-.000855,
-.002462,-.000434,
-.0025,0.0,
170.*
%
%ADD33MACRO33*%
%AMMACRO22*
4,1,36,.0025,0.0,
.002462,.000434,
.002349,.000855,
.002165,.00125,
.001915,.001607,
.001607,.001915,
.00125,.002165,
.000855,.002349,
.000434,.002462,
0.0,.0025,
-.000434,.002462,
-.000855,.002349,
-.00125,.002165,
-.001607,.001915,
-.001915,.001607,
-.002165,.00125,
-.002349,.000855,
-.002462,.000434,
-.0025,0.0,
-.002462,-.000434,
-.002349,-.000855,
-.002165,-.00125,
-.001915,-.001607,
-.001607,-.001915,
-.00125,-.002165,
-.000855,-.002349,
-.000434,-.002462,
0.0,-.0025,
.000434,-.002462,
.000855,-.002349,
.00125,-.002165,
.001607,-.001915,
.001915,-.001607,
.002165,-.00125,
.002349,-.000855,
.002462,-.000434,
.0025,0.0,
180.*
%
%ADD22MACRO22*%
%AMMACRO21*
4,1,36,-.0025,0.0,
-.002462,.000434,
-.002349,.000855,
-.002165,.00125,
-.001915,.001607,
-.001607,.001915,
-.00125,.002165,
-.000855,.002349,
-.000434,.002462,
0.0,.0025,
.000434,.002462,
.000855,.002349,
.00125,.002165,
.001607,.001915,
.001915,.001607,
.002165,.00125,
.002349,.000855,
.002462,.000434,
.0025,0.0,
.002462,-.000434,
.002349,-.000855,
.002165,-.00125,
.001915,-.001607,
.001607,-.001915,
.00125,-.002165,
.000855,-.002349,
.000434,-.002462,
0.0,-.0025,
-.000434,-.002462,
-.000855,-.002349,
-.00125,-.002165,
-.001607,-.001915,
-.001915,-.001607,
-.002165,-.00125,
-.002349,-.000855,
-.002462,-.000434,
-.0025,0.0,
305.*
%
%ADD21MACRO21*%
%AMMACRO20*
4,1,36,-.0025,0.0,
-.002462,.000434,
-.002349,.000855,
-.002165,.00125,
-.001915,.001607,
-.001607,.001915,
-.00125,.002165,
-.000855,.002349,
-.000434,.002462,
0.0,.0025,
.000434,.002462,
.000855,.002349,
.00125,.002165,
.001607,.001915,
.001915,.001607,
.002165,.00125,
.002349,.000855,
.002462,.000434,
.0025,0.0,
.002462,-.000434,
.002349,-.000855,
.002165,-.00125,
.001915,-.001607,
.001607,-.001915,
.00125,-.002165,
.000855,-.002349,
.000434,-.002462,
0.0,-.0025,
-.000434,-.002462,
-.000855,-.002349,
-.00125,-.002165,
-.001607,-.001915,
-.001915,-.001607,
-.002165,-.00125,
-.002349,-.000855,
-.002462,-.000434,
-.0025,0.0,
350.*
%
%ADD20MACRO20*%
%AMMACRO17*
4,1,36,-.0025,0.0,
-.002462,.000434,
-.002349,.000855,
-.002165,.00125,
-.001915,.001607,
-.001607,.001915,
-.00125,.002165,
-.000855,.002349,
-.000434,.002462,
0.0,.0025,
.000434,.002462,
.000855,.002349,
.00125,.002165,
.001607,.001915,
.001915,.001607,
.002165,.00125,
.002349,.000855,
.002462,.000434,
.0025,0.0,
.002462,-.000434,
.002349,-.000855,
.002165,-.00125,
.001915,-.001607,
.001607,-.001915,
.00125,-.002165,
.000855,-.002349,
.000434,-.002462,
0.0,-.0025,
-.000434,-.002462,
-.000855,-.002349,
-.00125,-.002165,
-.001607,-.001915,
-.001915,-.001607,
-.002165,-.00125,
-.002349,-.000855,
-.002462,-.000434,
-.0025,0.0,
125.*
%
%ADD17MACRO17*%
%AMMACRO46*
4,1,36,-.0025,0.0,
-.002462,.000434,
-.002349,.000855,
-.002165,.00125,
-.001915,.001607,
-.001607,.001915,
-.00125,.002165,
-.000855,.002349,
-.000434,.002462,
0.0,.0025,
.000434,.002462,
.000855,.002349,
.00125,.002165,
.001607,.001915,
.001915,.001607,
.002165,.00125,
.002349,.000855,
.002462,.000434,
.0025,0.0,
.002462,-.000434,
.002349,-.000855,
.002165,-.00125,
.001915,-.001607,
.001607,-.001915,
.00125,-.002165,
.000855,-.002349,
.000434,-.002462,
0.0,-.0025,
-.000434,-.002462,
-.000855,-.002349,
-.00125,-.002165,
-.001607,-.001915,
-.001915,-.001607,
-.002165,-.00125,
-.002349,-.000855,
-.002462,-.000434,
-.0025,0.0,
225.*
%
%ADD46MACRO46*%
%AMMACRO38*
4,1,36,.0025,0.0,
.002462,.000434,
.002349,.000855,
.002165,.00125,
.001915,.001607,
.001607,.001915,
.00125,.002165,
.000855,.002349,
.000434,.002462,
0.0,.0025,
-.000434,.002462,
-.000855,.002349,
-.00125,.002165,
-.001607,.001915,
-.001915,.001607,
-.002165,.00125,
-.002349,.000855,
-.002462,.000434,
-.0025,0.0,
-.002462,-.000434,
-.002349,-.000855,
-.002165,-.00125,
-.001915,-.001607,
-.001607,-.001915,
-.00125,-.002165,
-.000855,-.002349,
-.000434,-.002462,
0.0,-.0025,
.000434,-.002462,
.000855,-.002349,
.00125,-.002165,
.001607,-.001915,
.001915,-.001607,
.002165,-.00125,
.002349,-.000855,
.002462,-.000434,
.0025,0.0,
145.*
%
%ADD38MACRO38*%
%AMMACRO37*
4,1,36,.0025,0.0,
.002462,.000434,
.002349,.000855,
.002165,.00125,
.001915,.001607,
.001607,.001915,
.00125,.002165,
.000855,.002349,
.000434,.002462,
0.0,.0025,
-.000434,.002462,
-.000855,.002349,
-.00125,.002165,
-.001607,.001915,
-.001915,.001607,
-.002165,.00125,
-.002349,.000855,
-.002462,.000434,
-.0025,0.0,
-.002462,-.000434,
-.002349,-.000855,
-.002165,-.00125,
-.001915,-.001607,
-.001607,-.001915,
-.00125,-.002165,
-.000855,-.002349,
-.000434,-.002462,
0.0,-.0025,
.000434,-.002462,
.000855,-.002349,
.00125,-.002165,
.001607,-.001915,
.001915,-.001607,
.002165,-.00125,
.002349,-.000855,
.002462,-.000434,
.0025,0.0,
325.*
%
%ADD37MACRO37*%
%AMMACRO26*
4,1,36,-.0025,0.0,
-.002462,.000434,
-.002349,.000855,
-.002165,.00125,
-.001915,.001607,
-.001607,.001915,
-.00125,.002165,
-.000855,.002349,
-.000434,.002462,
0.0,.0025,
.000434,.002462,
.000855,.002349,
.00125,.002165,
.001607,.001915,
.001915,.001607,
.002165,.00125,
.002349,.000855,
.002462,.000434,
.0025,0.0,
.002462,-.000434,
.002349,-.000855,
.002165,-.00125,
.001915,-.001607,
.001607,-.001915,
.00125,-.002165,
.000855,-.002349,
.000434,-.002462,
0.0,-.0025,
-.000434,-.002462,
-.000855,-.002349,
-.00125,-.002165,
-.001607,-.001915,
-.001915,-.001607,
-.002165,-.00125,
-.002349,-.000855,
-.002462,-.000434,
-.0025,0.0,
315.*
%
%ADD26MACRO26*%
%AMMACRO25*
4,1,36,-.0025,0.0,
-.002462,.000434,
-.002349,.000855,
-.002165,.00125,
-.001915,.001607,
-.001607,.001915,
-.00125,.002165,
-.000855,.002349,
-.000434,.002462,
0.0,.0025,
.000434,.002462,
.000855,.002349,
.00125,.002165,
.001607,.001915,
.001915,.001607,
.002165,.00125,
.002349,.000855,
.002462,.000434,
.0025,0.0,
.002462,-.000434,
.002349,-.000855,
.002165,-.00125,
.001915,-.001607,
.001607,-.001915,
.00125,-.002165,
.000855,-.002349,
.000434,-.002462,
0.0,-.0025,
-.000434,-.002462,
-.000855,-.002349,
-.00125,-.002165,
-.001607,-.001915,
-.001915,-.001607,
-.002165,-.00125,
-.002349,-.000855,
-.002462,-.000434,
-.0025,0.0,
270.*
%
%ADD25MACRO25*%
%AMMACRO24*
4,1,36,-.0025,0.0,
-.002462,.000434,
-.002349,.000855,
-.002165,.00125,
-.001915,.001607,
-.001607,.001915,
-.00125,.002165,
-.000855,.002349,
-.000434,.002462,
0.0,.0025,
.000434,.002462,
.000855,.002349,
.00125,.002165,
.001607,.001915,
.001915,.001607,
.002165,.00125,
.002349,.000855,
.002462,.000434,
.0025,0.0,
.002462,-.000434,
.002349,-.000855,
.002165,-.00125,
.001915,-.001607,
.001607,-.001915,
.00125,-.002165,
.000855,-.002349,
.000434,-.002462,
0.0,-.0025,
-.000434,-.002462,
-.000855,-.002349,
-.00125,-.002165,
-.001607,-.001915,
-.001915,-.001607,
-.002165,-.00125,
-.002349,-.000855,
-.002462,-.000434,
-.0025,0.0,
135.*
%
%ADD24MACRO24*%
%AMMACRO23*
4,1,36,-.0025,0.0,
-.002462,.000434,
-.002349,.000855,
-.002165,.00125,
-.001915,.001607,
-.001607,.001915,
-.00125,.002165,
-.000855,.002349,
-.000434,.002462,
0.0,.0025,
.000434,.002462,
.000855,.002349,
.00125,.002165,
.001607,.001915,
.001915,.001607,
.002165,.00125,
.002349,.000855,
.002462,.000434,
.0025,0.0,
.002462,-.000434,
.002349,-.000855,
.002165,-.00125,
.001915,-.001607,
.001607,-.001915,
.00125,-.002165,
.000855,-.002349,
.000434,-.002462,
0.0,-.0025,
-.000434,-.002462,
-.000855,-.002349,
-.00125,-.002165,
-.001607,-.001915,
-.001915,-.001607,
-.002165,-.00125,
-.002349,-.000855,
-.002462,-.000434,
-.0025,0.0,
180.*
%
%ADD23MACRO23*%
%AMMACRO49*
4,1,36,-.0025,0.0,
-.002462,.000434,
-.002349,.000855,
-.002165,.00125,
-.001915,.001607,
-.001607,.001915,
-.00125,.002165,
-.000855,.002349,
-.000434,.002462,
0.0,.0025,
.000434,.002462,
.000855,.002349,
.00125,.002165,
.001607,.001915,
.001915,.001607,
.002165,.00125,
.002349,.000855,
.002462,.000434,
.0025,0.0,
.002462,-.000434,
.002349,-.000855,
.002165,-.00125,
.001915,-.001607,
.001607,-.001915,
.00125,-.002165,
.000855,-.002349,
.000434,-.002462,
0.0,-.0025,
-.000434,-.002462,
-.000855,-.002349,
-.00125,-.002165,
-.001607,-.001915,
-.001915,-.001607,
-.002165,-.00125,
-.002349,-.000855,
-.002462,-.000434,
-.0025,0.0,
190.*
%
%ADD49MACRO49*%
%AMMACRO40*
4,1,36,-.0025,0.0,
-.002462,.000434,
-.002349,.000855,
-.002165,.00125,
-.001915,.001607,
-.001607,.001915,
-.00125,.002165,
-.000855,.002349,
-.000434,.002462,
0.0,.0025,
.000434,.002462,
.000855,.002349,
.00125,.002165,
.001607,.001915,
.001915,.001607,
.002165,.00125,
.002349,.000855,
.002462,.000434,
.0025,0.0,
.002462,-.000434,
.002349,-.000855,
.002165,-.00125,
.001915,-.001607,
.001607,-.001915,
.00125,-.002165,
.000855,-.002349,
.000434,-.002462,
0.0,-.0025,
-.000434,-.002462,
-.000855,-.002349,
-.00125,-.002165,
-.001607,-.001915,
-.001915,-.001607,
-.002165,-.00125,
-.002349,-.000855,
-.002462,-.000434,
-.0025,0.0,
235.*
%
%ADD40MACRO40*%
%AMMACRO39*
4,1,36,-.0025,0.0,
-.002462,.000434,
-.002349,.000855,
-.002165,.00125,
-.001915,.001607,
-.001607,.001915,
-.00125,.002165,
-.000855,.002349,
-.000434,.002462,
0.0,.0025,
.000434,.002462,
.000855,.002349,
.00125,.002165,
.001607,.001915,
.001915,.001607,
.002165,.00125,
.002349,.000855,
.002462,.000434,
.0025,0.0,
.002462,-.000434,
.002349,-.000855,
.002165,-.00125,
.001915,-.001607,
.001607,-.001915,
.00125,-.002165,
.000855,-.002349,
.000434,-.002462,
0.0,-.0025,
-.000434,-.002462,
-.000855,-.002349,
-.00125,-.002165,
-.001607,-.001915,
-.001915,-.001607,
-.002165,-.00125,
-.002349,-.000855,
-.002462,-.000434,
-.0025,0.0,
280.*
%
%ADD39MACRO39*%
%AMMACRO32*
4,1,36,-.0025,0.0,
-.002462,.000434,
-.002349,.000855,
-.002165,.00125,
-.001915,.001607,
-.001607,.001915,
-.00125,.002165,
-.000855,.002349,
-.000434,.002462,
0.0,.0025,
.000434,.002462,
.000855,.002349,
.00125,.002165,
.001607,.001915,
.001915,.001607,
.002165,.00125,
.002349,.000855,
.002462,.000434,
.0025,0.0,
.002462,-.000434,
.002349,-.000855,
.002165,-.00125,
.001915,-.001607,
.001607,-.001915,
.00125,-.002165,
.000855,-.002349,
.000434,-.002462,
0.0,-.0025,
-.000434,-.002462,
-.000855,-.002349,
-.00125,-.002165,
-.001607,-.001915,
-.001915,-.001607,
-.002165,-.00125,
-.002349,-.000855,
-.002462,-.000434,
-.0025,0.0,
145.*
%
%ADD32MACRO32*%
%AMMACRO31*
4,1,36,-.0025,0.0,
-.002462,.000434,
-.002349,.000855,
-.002165,.00125,
-.001915,.001607,
-.001607,.001915,
-.00125,.002165,
-.000855,.002349,
-.000434,.002462,
0.0,.0025,
.000434,.002462,
.000855,.002349,
.00125,.002165,
.001607,.001915,
.001915,.001607,
.002165,.00125,
.002349,.000855,
.002462,.000434,
.0025,0.0,
.002462,-.000434,
.002349,-.000855,
.002165,-.00125,
.001915,-.001607,
.001607,-.001915,
.00125,-.002165,
.000855,-.002349,
.000434,-.002462,
0.0,-.0025,
-.000434,-.002462,
-.000855,-.002349,
-.00125,-.002165,
-.001607,-.001915,
-.001915,-.001607,
-.002165,-.00125,
-.002349,-.000855,
-.002462,-.000434,
-.0025,0.0,
325.*
%
%ADD31MACRO31*%
%AMMACRO51*
4,1,18,.026,.037,
.01918,.040953,
.011777,.043661,
.004017,.045043,
-.003866,.045056,
-.011631,.0437,
-.019043,.041017,
-.025876,.037087,
-.026,.037,
-.033,.044,
-.024858,.049062,
-.015961,.052633,
-.006579,.054605,
.003003,.054918,
.012494,.053562,
.021605,.050579,
.03006,.046059,
.033,.044,
.026,.037,
305.*
4,1,18,.037,-.026,
.040953,-.01918,
.043661,-.011777,
.045043,-.004017,
.045056,.003866,
.0437,.011631,
.041017,.019043,
.037087,.025876,
.037,.026,
.044,.033,
.049062,.024858,
.052633,.015961,
.054605,.006579,
.054918,-.003003,
.053562,-.012494,
.050579,-.021605,
.046059,-.03006,
.044,-.033,
.037,-.026,
305.*
4,1,18,-.026,-.037,
-.01918,-.040953,
-.011777,-.043661,
-.004017,-.045043,
.003866,-.045056,
.011631,-.0437,
.019043,-.041017,
.025876,-.037087,
.026,-.037,
.033,-.044,
.024858,-.049062,
.015961,-.052633,
.006579,-.054605,
-.003003,-.054918,
-.012494,-.053562,
-.021605,-.050579,
-.03006,-.046059,
-.033,-.044,
-.026,-.037,
305.*
4,1,18,-.037,.026,
-.040953,.01918,
-.043661,.011777,
-.045043,.004017,
-.045056,-.003866,
-.0437,-.011631,
-.041017,-.019043,
-.037087,-.025876,
-.037,-.026,
-.044,-.033,
-.049062,-.024858,
-.052633,-.015961,
-.054605,-.006579,
-.054918,.003003,
-.053562,.012494,
-.050579,.021605,
-.046059,.03006,
-.044,.033,
-.037,.026,
305.*
%
%ADD51MACRO51*%
%AMMACRO16*
4,1,18,.026,.037,
.01918,.040953,
.011777,.043661,
.004017,.045043,
-.003866,.045056,
-.011631,.0437,
-.019043,.041017,
-.025876,.037087,
-.026,.037,
-.033,.044,
-.024858,.049062,
-.015961,.052633,
-.006579,.054605,
.003003,.054918,
.012494,.053562,
.021605,.050579,
.03006,.046059,
.033,.044,
.026,.037,
125.*
4,1,18,.037,-.026,
.040953,-.01918,
.043661,-.011777,
.045043,-.004017,
.045056,.003866,
.0437,.011631,
.041017,.019043,
.037087,.025876,
.037,.026,
.044,.033,
.049062,.024858,
.052633,.015961,
.054605,.006579,
.054918,-.003003,
.053562,-.012494,
.050579,-.021605,
.046059,-.03006,
.044,-.033,
.037,-.026,
125.*
4,1,18,-.026,-.037,
-.01918,-.040953,
-.011777,-.043661,
-.004017,-.045043,
.003866,-.045056,
.011631,-.0437,
.019043,-.041017,
.025876,-.037087,
.026,-.037,
.033,-.044,
.024858,-.049062,
.015961,-.052633,
.006579,-.054605,
-.003003,-.054918,
-.012494,-.053562,
-.021605,-.050579,
-.03006,-.046059,
-.033,-.044,
-.026,-.037,
125.*
4,1,18,-.037,.026,
-.040953,.01918,
-.043661,.011777,
-.045043,.004017,
-.045056,-.003866,
-.0437,-.011631,
-.041017,-.019043,
-.037087,-.025876,
-.037,-.026,
-.044,-.033,
-.049062,-.024858,
-.052633,-.015961,
-.054605,-.006579,
-.054918,.003003,
-.053562,.012494,
-.050579,.021605,
-.046059,.03006,
-.044,.033,
-.037,.026,
125.*
%
%ADD16MACRO16*%
%AMMACRO50*
4,1,18,.026,.037,
.01918,.040953,
.011777,.043661,
.004017,.045043,
-.003866,.045056,
-.011631,.0437,
-.019043,.041017,
-.025876,.037087,
-.026,.037,
-.033,.044,
-.024858,.049062,
-.015961,.052633,
-.006579,.054605,
.003003,.054918,
.012494,.053562,
.021605,.050579,
.03006,.046059,
.033,.044,
.026,.037,
270.*
4,1,18,.037,-.026,
.040953,-.01918,
.043661,-.011777,
.045043,-.004017,
.045056,.003866,
.0437,.011631,
.041017,.019043,
.037087,.025876,
.037,.026,
.044,.033,
.049062,.024858,
.052633,.015961,
.054605,.006579,
.054918,-.003003,
.053562,-.012494,
.050579,-.021605,
.046059,-.03006,
.044,-.033,
.037,-.026,
270.*
4,1,18,-.026,-.037,
-.01918,-.040953,
-.011777,-.043661,
-.004017,-.045043,
.003866,-.045056,
.011631,-.0437,
.019043,-.041017,
.025876,-.037087,
.026,-.037,
.033,-.044,
.024858,-.049062,
.015961,-.052633,
.006579,-.054605,
-.003003,-.054918,
-.012494,-.053562,
-.021605,-.050579,
-.03006,-.046059,
-.033,-.044,
-.026,-.037,
270.*
4,1,18,-.037,.026,
-.040953,.01918,
-.043661,.011777,
-.045043,.004017,
-.045056,-.003866,
-.0437,-.011631,
-.041017,-.019043,
-.037087,-.025876,
-.037,-.026,
-.044,-.033,
-.049062,-.024858,
-.052633,-.015961,
-.054605,-.006579,
-.054918,.003003,
-.053562,.012494,
-.050579,.021605,
-.046059,.03006,
-.044,.033,
-.037,.026,
270.*
%
%ADD50MACRO50*%
%AMMACRO42*
4,1,18,.026,.037,
.01918,.040953,
.011777,.043661,
.004017,.045043,
-.003866,.045056,
-.011631,.0437,
-.019043,.041017,
-.025876,.037087,
-.026,.037,
-.033,.044,
-.024858,.049062,
-.015961,.052633,
-.006579,.054605,
.003003,.054918,
.012494,.053562,
.021605,.050579,
.03006,.046059,
.033,.044,
.026,.037,
180.*
4,1,18,.037,-.026,
.040953,-.01918,
.043661,-.011777,
.045043,-.004017,
.045056,.003866,
.0437,.011631,
.041017,.019043,
.037087,.025876,
.037,.026,
.044,.033,
.049062,.024858,
.052633,.015961,
.054605,.006579,
.054918,-.003003,
.053562,-.012494,
.050579,-.021605,
.046059,-.03006,
.044,-.033,
.037,-.026,
180.*
4,1,18,-.026,-.037,
-.01918,-.040953,
-.011777,-.043661,
-.004017,-.045043,
.003866,-.045056,
.011631,-.0437,
.019043,-.041017,
.025876,-.037087,
.026,-.037,
.033,-.044,
.024858,-.049062,
.015961,-.052633,
.006579,-.054605,
-.003003,-.054918,
-.012494,-.053562,
-.021605,-.050579,
-.03006,-.046059,
-.033,-.044,
-.026,-.037,
180.*
4,1,18,-.037,.026,
-.040953,.01918,
-.043661,.011777,
-.045043,.004017,
-.045056,-.003866,
-.0437,-.011631,
-.041017,-.019043,
-.037087,-.025876,
-.037,-.026,
-.044,-.033,
-.049062,-.024858,
-.052633,-.015961,
-.054605,-.006579,
-.054918,.003003,
-.053562,.012494,
-.050579,.021605,
-.046059,.03006,
-.044,.033,
-.037,.026,
180.*
%
%ADD42MACRO42*%
%AMMACRO48*
4,1,18,.026,.037,
.01918,.040953,
.011777,.043661,
.004017,.045043,
-.003866,.045056,
-.011631,.0437,
-.019043,.041017,
-.025876,.037087,
-.026,.037,
-.033,.044,
-.024858,.049062,
-.015961,.052633,
-.006579,.054605,
.003003,.054918,
.012494,.053562,
.021605,.050579,
.03006,.046059,
.033,.044,
.026,.037,
235.*
4,1,18,.037,-.026,
.040953,-.01918,
.043661,-.011777,
.045043,-.004017,
.045056,.003866,
.0437,.011631,
.041017,.019043,
.037087,.025876,
.037,.026,
.044,.033,
.049062,.024858,
.052633,.015961,
.054605,.006579,
.054918,-.003003,
.053562,-.012494,
.050579,-.021605,
.046059,-.03006,
.044,-.033,
.037,-.026,
235.*
4,1,18,-.026,-.037,
-.01918,-.040953,
-.011777,-.043661,
-.004017,-.045043,
.003866,-.045056,
.011631,-.0437,
.019043,-.041017,
.025876,-.037087,
.026,-.037,
.033,-.044,
.024858,-.049062,
.015961,-.052633,
.006579,-.054605,
-.003003,-.054918,
-.012494,-.053562,
-.021605,-.050579,
-.03006,-.046059,
-.033,-.044,
-.026,-.037,
235.*
4,1,18,-.037,.026,
-.040953,.01918,
-.043661,.011777,
-.045043,.004017,
-.045056,-.003866,
-.0437,-.011631,
-.041017,-.019043,
-.037087,-.025876,
-.037,-.026,
-.044,-.033,
-.049062,-.024858,
-.052633,-.015961,
-.054605,-.006579,
-.054918,.003003,
-.053562,.012494,
-.050579,.021605,
-.046059,.03006,
-.044,.033,
-.037,.026,
235.*
%
%ADD48MACRO48*%
%AMMACRO30*
4,1,36,-.0025,0.0,
-.002462,.000434,
-.002349,.000855,
-.002165,.00125,
-.001915,.001607,
-.001607,.001915,
-.00125,.002165,
-.000855,.002349,
-.000434,.002462,
0.0,.0025,
.000434,.002462,
.000855,.002349,
.00125,.002165,
.001607,.001915,
.001915,.001607,
.002165,.00125,
.002349,.000855,
.002462,.000434,
.0025,0.0,
.002462,-.000434,
.002349,-.000855,
.002165,-.00125,
.001915,-.001607,
.001607,-.001915,
.00125,-.002165,
.000855,-.002349,
.000434,-.002462,
0.0,-.0025,
-.000434,-.002462,
-.000855,-.002349,
-.00125,-.002165,
-.001607,-.001915,
-.001915,-.001607,
-.002165,-.00125,
-.002349,-.000855,
-.002462,-.000434,
-.0025,0.0,
10.*
%
%ADD30MACRO30*%
%AMMACRO36*
4,1,36,.0025,0.0,
.002462,.000434,
.002349,.000855,
.002165,.00125,
.001915,.001607,
.001607,.001915,
.00125,.002165,
.000855,.002349,
.000434,.002462,
0.0,.0025,
-.000434,.002462,
-.000855,.002349,
-.00125,.002165,
-.001607,.001915,
-.001915,.001607,
-.002165,.00125,
-.002349,.000855,
-.002462,.000434,
-.0025,0.0,
-.002462,-.000434,
-.002349,-.000855,
-.002165,-.00125,
-.001915,-.001607,
-.001607,-.001915,
-.00125,-.002165,
-.000855,-.002349,
-.000434,-.002462,
0.0,-.0025,
.000434,-.002462,
.000855,-.002349,
.00125,-.002165,
.001607,-.001915,
.001915,-.001607,
.002165,-.00125,
.002349,-.000855,
.002462,-.000434,
.0025,0.0,
35.*
%
%ADD36MACRO36*%
%AMMACRO43*
4,1,36,.0025,0.0,
.002462,.000434,
.002349,.000855,
.002165,.00125,
.001915,.001607,
.001607,.001915,
.00125,.002165,
.000855,.002349,
.000434,.002462,
0.0,.0025,
-.000434,.002462,
-.000855,.002349,
-.00125,.002165,
-.001607,.001915,
-.001915,.001607,
-.002165,.00125,
-.002349,.000855,
-.002462,.000434,
-.0025,0.0,
-.002462,-.000434,
-.002349,-.000855,
-.002165,-.00125,
-.001915,-.001607,
-.001607,-.001915,
-.00125,-.002165,
-.000855,-.002349,
-.000434,-.002462,
0.0,-.0025,
.000434,-.002462,
.000855,-.002349,
.00125,-.002165,
.001607,-.001915,
.001915,-.001607,
.002165,-.00125,
.002349,-.000855,
.002462,-.000434,
.0025,0.0,
90.*
%
%ADD43MACRO43*%
%AMMACRO19*
4,1,36,-.0025,0.0,
-.002462,.000434,
-.002349,.000855,
-.002165,.00125,
-.001915,.001607,
-.001607,.001915,
-.00125,.002165,
-.000855,.002349,
-.000434,.002462,
0.0,.0025,
.000434,.002462,
.000855,.002349,
.00125,.002165,
.001607,.001915,
.001915,.001607,
.002165,.00125,
.002349,.000855,
.002462,.000434,
.0025,0.0,
.002462,-.000434,
.002349,-.000855,
.002165,-.00125,
.001915,-.001607,
.001607,-.001915,
.00125,-.002165,
.000855,-.002349,
.000434,-.002462,
0.0,-.0025,
-.000434,-.002462,
-.000855,-.002349,
-.00125,-.002165,
-.001607,-.001915,
-.001915,-.001607,
-.002165,-.00125,
-.002349,-.000855,
-.002462,-.000434,
-.0025,0.0,
35.*
%
%ADD19MACRO19*%
%AMMACRO18*
4,1,36,-.0025,0.0,
-.002462,.000434,
-.002349,.000855,
-.002165,.00125,
-.001915,.001607,
-.001607,.001915,
-.00125,.002165,
-.000855,.002349,
-.000434,.002462,
0.0,.0025,
.000434,.002462,
.000855,.002349,
.00125,.002165,
.001607,.001915,
.001915,.001607,
.002165,.00125,
.002349,.000855,
.002462,.000434,
.0025,0.0,
.002462,-.000434,
.002349,-.000855,
.002165,-.00125,
.001915,-.001607,
.001607,-.001915,
.00125,-.002165,
.000855,-.002349,
.000434,-.002462,
0.0,-.0025,
-.000434,-.002462,
-.000855,-.002349,
-.00125,-.002165,
-.001607,-.001915,
-.001915,-.001607,
-.002165,-.00125,
-.002349,-.000855,
-.002462,-.000434,
-.0025,0.0,
80.*
%
%ADD18MACRO18*%
%AMMACRO13*
4,1,36,-.0025,0.0,
-.002462,.000434,
-.002349,.000855,
-.002165,.00125,
-.001915,.001607,
-.001607,.001915,
-.00125,.002165,
-.000855,.002349,
-.000434,.002462,
0.0,.0025,
.000434,.002462,
.000855,.002349,
.00125,.002165,
.001607,.001915,
.001915,.001607,
.002165,.00125,
.002349,.000855,
.002462,.000434,
.0025,0.0,
.002462,-.000434,
.002349,-.000855,
.002165,-.00125,
.001915,-.001607,
.001607,-.001915,
.00125,-.002165,
.000855,-.002349,
.000434,-.002462,
0.0,-.0025,
-.000434,-.002462,
-.000855,-.002349,
-.00125,-.002165,
-.001607,-.001915,
-.001915,-.001607,
-.002165,-.00125,
-.002349,-.000855,
-.002462,-.000434,
-.0025,0.0,
90.*
%
%ADD13MACRO13*%
%AMMACRO12*
4,1,36,-.0025,0.0,
-.002462,.000434,
-.002349,.000855,
-.002165,.00125,
-.001915,.001607,
-.001607,.001915,
-.00125,.002165,
-.000855,.002349,
-.000434,.002462,
0.0,.0025,
.000434,.002462,
.000855,.002349,
.00125,.002165,
.001607,.001915,
.001915,.001607,
.002165,.00125,
.002349,.000855,
.002462,.000434,
.0025,0.0,
.002462,-.000434,
.002349,-.000855,
.002165,-.00125,
.001915,-.001607,
.001607,-.001915,
.00125,-.002165,
.000855,-.002349,
.000434,-.002462,
0.0,-.0025,
-.000434,-.002462,
-.000855,-.002349,
-.00125,-.002165,
-.001607,-.001915,
-.001915,-.001607,
-.002165,-.00125,
-.002349,-.000855,
-.002462,-.000434,
-.0025,0.0,
45.*
%
%ADD12MACRO12*%
%AMMACRO10*
4,1,36,.0025,0.0,
.002462,.000434,
.002349,.000855,
.002165,.00125,
.001915,.001607,
.001607,.001915,
.00125,.002165,
.000855,.002349,
.000434,.002462,
0.0,.0025,
-.000434,.002462,
-.000855,.002349,
-.00125,.002165,
-.001607,.001915,
-.001915,.001607,
-.002165,.00125,
-.002349,.000855,
-.002462,.000434,
-.0025,0.0,
-.002462,-.000434,
-.002349,-.000855,
-.002165,-.00125,
-.001915,-.001607,
-.001607,-.001915,
-.00125,-.002165,
-.000855,-.002349,
-.000434,-.002462,
0.0,-.0025,
.000434,-.002462,
.000855,-.002349,
.00125,-.002165,
.001607,-.001915,
.001915,-.001607,
.002165,-.00125,
.002349,-.000855,
.002462,-.000434,
.0025,0.0,
0.0*
%
%ADD10MACRO10*%
%AMMACRO29*
4,1,36,-.0025,0.0,
-.002462,.000434,
-.002349,.000855,
-.002165,.00125,
-.001915,.001607,
-.001607,.001915,
-.00125,.002165,
-.000855,.002349,
-.000434,.002462,
0.0,.0025,
.000434,.002462,
.000855,.002349,
.00125,.002165,
.001607,.001915,
.001915,.001607,
.002165,.00125,
.002349,.000855,
.002462,.000434,
.0025,0.0,
.002462,-.000434,
.002349,-.000855,
.002165,-.00125,
.001915,-.001607,
.001607,-.001915,
.00125,-.002165,
.000855,-.002349,
.000434,-.002462,
0.0,-.0025,
-.000434,-.002462,
-.000855,-.002349,
-.00125,-.002165,
-.001607,-.001915,
-.001915,-.001607,
-.002165,-.00125,
-.002349,-.000855,
-.002462,-.000434,
-.0025,0.0,
55.*
%
%ADD29MACRO29*%
%AMMACRO15*
4,1,36,-.0025,0.0,
-.002462,.000434,
-.002349,.000855,
-.002165,.00125,
-.001915,.001607,
-.001607,.001915,
-.00125,.002165,
-.000855,.002349,
-.000434,.002462,
0.0,.0025,
.000434,.002462,
.000855,.002349,
.00125,.002165,
.001607,.001915,
.001915,.001607,
.002165,.00125,
.002349,.000855,
.002462,.000434,
.0025,0.0,
.002462,-.000434,
.002349,-.000855,
.002165,-.00125,
.001915,-.001607,
.001607,-.001915,
.00125,-.002165,
.000855,-.002349,
.000434,-.002462,
0.0,-.0025,
-.000434,-.002462,
-.000855,-.002349,
-.00125,-.002165,
-.001607,-.001915,
-.001915,-.001607,
-.002165,-.00125,
-.002349,-.000855,
-.002462,-.000434,
-.0025,0.0,
0.0*
%
%ADD15MACRO15*%
%AMMACRO11*
4,1,18,.026,.037,
.01918,.040953,
.011777,.043661,
.004017,.045043,
-.003866,.045056,
-.011631,.0437,
-.019043,.041017,
-.025876,.037087,
-.026,.037,
-.033,.044,
-.024858,.049062,
-.015961,.052633,
-.006579,.054605,
.003003,.054918,
.012494,.053562,
.021605,.050579,
.03006,.046059,
.033,.044,
.026,.037,
90.*
4,1,18,.037,-.026,
.040953,-.01918,
.043661,-.011777,
.045043,-.004017,
.045056,.003866,
.0437,.011631,
.041017,.019043,
.037087,.025876,
.037,.026,
.044,.033,
.049062,.024858,
.052633,.015961,
.054605,.006579,
.054918,-.003003,
.053562,-.012494,
.050579,-.021605,
.046059,-.03006,
.044,-.033,
.037,-.026,
90.*
4,1,18,-.026,-.037,
-.01918,-.040953,
-.011777,-.043661,
-.004017,-.045043,
.003866,-.045056,
.011631,-.0437,
.019043,-.041017,
.025876,-.037087,
.026,-.037,
.033,-.044,
.024858,-.049062,
.015961,-.052633,
.006579,-.054605,
-.003003,-.054918,
-.012494,-.053562,
-.021605,-.050579,
-.03006,-.046059,
-.033,-.044,
-.026,-.037,
90.*
4,1,18,-.037,.026,
-.040953,.01918,
-.043661,.011777,
-.045043,.004017,
-.045056,-.003866,
-.0437,-.011631,
-.041017,-.019043,
-.037087,-.025876,
-.037,-.026,
-.044,-.033,
-.049062,-.024858,
-.052633,-.015961,
-.054605,-.006579,
-.054918,.003003,
-.053562,.012494,
-.050579,.021605,
-.046059,.03006,
-.044,.033,
-.037,.026,
90.*
%
%ADD11MACRO11*%
%AMMACRO45*
4,1,18,.026,.037,
.01918,.040953,
.011777,.043661,
.004017,.045043,
-.003866,.045056,
-.011631,.0437,
-.019043,.041017,
-.025876,.037087,
-.026,.037,
-.033,.044,
-.024858,.049062,
-.015961,.052633,
-.006579,.054605,
.003003,.054918,
.012494,.053562,
.021605,.050579,
.03006,.046059,
.033,.044,
.026,.037,
0.0*
4,1,18,.037,-.026,
.040953,-.01918,
.043661,-.011777,
.045043,-.004017,
.045056,.003866,
.0437,.011631,
.041017,.019043,
.037087,.025876,
.037,.026,
.044,.033,
.049062,.024858,
.052633,.015961,
.054605,.006579,
.054918,-.003003,
.053562,-.012494,
.050579,-.021605,
.046059,-.03006,
.044,-.033,
.037,-.026,
0.0*
4,1,18,-.026,-.037,
-.01918,-.040953,
-.011777,-.043661,
-.004017,-.045043,
.003866,-.045056,
.011631,-.0437,
.019043,-.041017,
.025876,-.037087,
.026,-.037,
.033,-.044,
.024858,-.049062,
.015961,-.052633,
.006579,-.054605,
-.003003,-.054918,
-.012494,-.053562,
-.021605,-.050579,
-.03006,-.046059,
-.033,-.044,
-.026,-.037,
0.0*
4,1,18,-.037,.026,
-.040953,.01918,
-.043661,.011777,
-.045043,.004017,
-.045056,-.003866,
-.0437,-.011631,
-.041017,-.019043,
-.037087,-.025876,
-.037,-.026,
-.044,-.033,
-.049062,-.024858,
-.052633,-.015961,
-.054605,-.006579,
-.054918,.003003,
-.053562,.012494,
-.050579,.021605,
-.046059,.03006,
-.044,.033,
-.037,.026,
0.0*
%
%ADD45MACRO45*%
%AMMACRO27*
4,1,18,.026,.037,
.01918,.040953,
.011777,.043661,
.004017,.045043,
-.003866,.045056,
-.011631,.0437,
-.019043,.041017,
-.025876,.037087,
-.026,.037,
-.033,.044,
-.024858,.049062,
-.015961,.052633,
-.006579,.054605,
.003003,.054918,
.012494,.053562,
.021605,.050579,
.03006,.046059,
.033,.044,
.026,.037,
55.*
4,1,18,.037,-.026,
.040953,-.01918,
.043661,-.011777,
.045043,-.004017,
.045056,.003866,
.0437,.011631,
.041017,.019043,
.037087,.025876,
.037,.026,
.044,.033,
.049062,.024858,
.052633,.015961,
.054605,.006579,
.054918,-.003003,
.053562,-.012494,
.050579,-.021605,
.046059,-.03006,
.044,-.033,
.037,-.026,
55.*
4,1,18,-.026,-.037,
-.01918,-.040953,
-.011777,-.043661,
-.004017,-.045043,
.003866,-.045056,
.011631,-.0437,
.019043,-.041017,
.025876,-.037087,
.026,-.037,
.033,-.044,
.024858,-.049062,
.015961,-.052633,
.006579,-.054605,
-.003003,-.054918,
-.012494,-.053562,
-.021605,-.050579,
-.03006,-.046059,
-.033,-.044,
-.026,-.037,
55.*
4,1,18,-.037,.026,
-.040953,.01918,
-.043661,.011777,
-.045043,.004017,
-.045056,-.003866,
-.0437,-.011631,
-.041017,-.019043,
-.037087,-.025876,
-.037,-.026,
-.044,-.033,
-.049062,-.024858,
-.052633,-.015961,
-.054605,-.006579,
-.054918,.003003,
-.053562,.012494,
-.050579,.021605,
-.046059,.03006,
-.044,.033,
-.037,.026,
55.*
%
%ADD27MACRO27*%
G75*
%LPD*%
G75*
G36*
G01X-0000143000Y-0000143000D02*
X0000143000D01*
Y0000143000D01*
X-0000143000D01*
Y-0000143000D01*
G37*
%LPC*%
G75*
G36*
G01X0000132999Y0D02*
G02I-0000132999J0D01*
G37*
%LPD*%
G75*
G54D28*
X-0000097743Y0000059162D03*
X0000089024Y-0000071613D03*
G54D14*
X-0000124000Y0000010000D03*
X-0000107310Y-0000062932D03*
X-0000104000Y-0000010000D03*
X-0000090927Y0000051461D03*
X-0000095839Y0000079315D03*
X-0000079456Y-0000067844D03*
X-0000010000Y-0000124000D03*
Y0000104000D03*
X0000010000Y-0000104000D03*
Y0000124000D03*
X0000095839Y-0000079315D03*
X0000090927Y-0000051461D03*
X0000079456Y0000067844D03*
X0000124000Y-0000010000D03*
X0000104000Y0000010000D03*
X0000107310Y0000062932D03*
G54D41*
X-0000015000Y0000025981D03*
G54D47*
X0000015000Y-0000025981D03*
G54D35*
X-0000084943Y-0000054778D03*
X-0000080848Y-0000051911D03*
X-0000076752Y-0000049043D03*
X-0000072656Y-0000046175D03*
X-0000039890Y-0000023232D03*
X-0000035794Y-0000020364D03*
X-0000031699Y-0000017496D03*
X-0000027603Y-0000014628D03*
X-0000023507Y-0000011760D03*
X-0000019411Y-0000008892D03*
X-0000015316Y-0000006024D03*
X0000017450Y0000016919D03*
X0000021546Y0000019787D03*
X0000025642Y0000022655D03*
X0000029738Y0000025523D03*
X0000033833Y0000028390D03*
X0000066599Y0000051334D03*
X0000070695Y0000054202D03*
X0000074791Y0000057069D03*
X0000078887Y0000059937D03*
X0000082982Y0000062805D03*
G54D17*
X-0000094702Y-0000072867D03*
X0000092065Y0000057909D03*
G54D20*
X-0000097743Y-0000059162D03*
X0000089024Y0000071613D03*
G54D21*
X-0000092065Y-0000057909D03*
X0000094702Y0000072867D03*
G54D22*
X-0000101000Y0000003850D03*
X-0000096000D03*
X-0000091000D03*
X-0000086000D03*
X-0000081000D03*
X-0000046000D03*
X-0000041000D03*
X-0000036000D03*
X-0000031000D03*
X-0000026000D03*
X-0000021000D03*
X-0000016000D03*
X-0000003937Y0000015800D03*
X-0000008937D03*
X0000019000Y0000003850D03*
X0000024000D03*
X0000029000D03*
X0000011063Y0000015800D03*
X0000034000Y0000003850D03*
X0000039000D03*
X0000044000D03*
X0000084000D03*
X0000089000D03*
X0000094000D03*
X0000099000D03*
X0000104000D03*
X0000109000D03*
X0000114000D03*
G54D33*
X-0000089024Y-0000071613D03*
X0000097743Y0000059162D03*
G54D34*
X-0000085904Y-0000066706D03*
X0000100862Y0000064069D03*
G54D44*
X-0000003850Y-0000101000D03*
Y-0000096000D03*
Y-0000091000D03*
Y-0000086000D03*
X-0000015000Y-0000025981D03*
X-0000003850Y-0000041000D03*
Y-0000036000D03*
Y-0000031000D03*
Y-0000021000D03*
Y-0000026000D03*
Y-0000016000D03*
Y0000029000D03*
Y0000024000D03*
Y0000019000D03*
Y0000034000D03*
Y0000044000D03*
Y0000039000D03*
Y0000089000D03*
Y0000099000D03*
Y0000094000D03*
Y0000084000D03*
Y0000104000D03*
G54D52*
X0000099609Y0000069747D03*
G54D23*
X-0000108630Y-0000005370D03*
X0000005370Y-0000119370D03*
Y0000108630D03*
X0000119370Y-0000005370D03*
G54D24*
X-0000114000Y-0000007600D03*
X0Y-0000121600D03*
X0000114000Y-0000007600D03*
G54D25*
X-0000108630Y0000005370D03*
X0000005370Y-0000108630D03*
Y0000119370D03*
X0000119370Y0000005370D03*
G54D26*
X-0000114000Y0000007600D03*
X0Y0000121600D03*
X0000114000Y0000007600D03*
G54D37*
X-0000083304Y0000053630D03*
X-0000079208Y0000050762D03*
X-0000075112Y0000047895D03*
X-0000071016Y0000045027D03*
X-0000087399Y0000056498D03*
X-0000038250Y0000022083D03*
X-0000034155Y0000019216D03*
X-0000030059Y0000016348D03*
X-0000025963Y0000013480D03*
X-0000021867Y0000010612D03*
X-0000017772Y0000007744D03*
X0000023186Y-0000020935D03*
X0000027282Y-0000023803D03*
X0000019090Y-0000018067D03*
X0000014994Y-0000015199D03*
X0000031377Y-0000026671D03*
X0000035473Y-0000029539D03*
X0000076431Y-0000058218D03*
X0000072335Y-0000055350D03*
X0000068239Y-0000052482D03*
X0000080526Y-0000061085D03*
G54D38*
X-0000068239Y0000052482D03*
X-0000072335Y0000055350D03*
X-0000076431Y0000058218D03*
X-0000080526Y0000061085D03*
X-0000019090Y0000018067D03*
X-0000023186Y0000020935D03*
X-0000027282Y0000023803D03*
X-0000031377Y0000026671D03*
X-0000035473Y0000029539D03*
X-0000014994Y0000015199D03*
X0000017772Y-0000007744D03*
X0000021867Y-0000010612D03*
X0000025963Y-0000013480D03*
X0000034155Y-0000019216D03*
X0000038250Y-0000022083D03*
X0000030059Y-0000016348D03*
X0000071016Y-0000045027D03*
X0000075112Y-0000047895D03*
X0000079208Y-0000050762D03*
X0000087399Y-0000056498D03*
X0000083304Y-0000053630D03*
G54D46*
X0000007600Y-0000114000D03*
Y0000114000D03*
X0000121600Y0D03*
G54D31*
X-0000094702Y0000072867D03*
X0000092065Y-0000057909D03*
G54D32*
X-0000092065Y0000057909D03*
X0000094702Y-0000072867D03*
G54D39*
X-0000089024Y0000071613D03*
X0000097743Y-0000059162D03*
G54D40*
X-0000085904Y0000066706D03*
X0000100862Y-0000064069D03*
G54D49*
X0000099609Y-0000069747D03*
G54D16*
X-0000095839Y-0000079315D03*
X-0000090927Y-0000051461D03*
G54D51*
X0000090927Y0000051461D03*
X0000095839Y0000079315D03*
G54D42*
X-0000010000Y-0000104000D03*
X0000010000Y-0000124000D03*
G54D50*
X0000104000Y-0000010000D03*
X0000124000Y0000010000D03*
G54D48*
X0000079456Y-0000067844D03*
X0000107310Y-0000062932D03*
G54D30*
X-0000099609Y0000069747D03*
G54D36*
X-0000066599Y-0000051334D03*
X-0000070695Y-0000054202D03*
X-0000074791Y-0000057069D03*
X-0000078887Y-0000059937D03*
X-0000082982Y-0000062805D03*
X-0000021546Y-0000019787D03*
X-0000025642Y-0000022655D03*
X-0000029738Y-0000025523D03*
X-0000033833Y-0000028390D03*
X-0000037929Y-0000031258D03*
X-0000017450Y-0000016919D03*
X0000027603Y0000014628D03*
X0000023507Y0000011760D03*
X0000019411Y0000008892D03*
X0000039890Y0000023232D03*
X0000035794Y0000020364D03*
X0000031699Y0000017496D03*
X0000076752Y0000049043D03*
X0000072656Y0000046175D03*
X0000080848Y0000051911D03*
X0000084943Y0000054778D03*
G54D18*
X-0000099609Y-0000069747D03*
G54D19*
X-0000100862Y-0000064069D03*
X0000085904Y0000066706D03*
G54D43*
X0000003850Y-0000094000D03*
Y-0000099000D03*
Y-0000104000D03*
Y-0000084000D03*
Y-0000089000D03*
Y-0000049000D03*
Y-0000019000D03*
Y-0000024000D03*
Y-0000029000D03*
Y-0000034000D03*
Y-0000039000D03*
Y0000026000D03*
Y0000021000D03*
Y0000016000D03*
Y0000041000D03*
Y0000036000D03*
Y0000031000D03*
Y0000101000D03*
Y0000096000D03*
Y0000091000D03*
Y0000086000D03*
X0000015000Y0000025981D03*
X0000016000Y0000005600D03*
G54D10*
X-0000117999Y-0000047999D03*
Y-0000037999D03*
Y-0000027999D03*
X-0000127999Y-0000017999D03*
X-0000117999D03*
Y0000022001D03*
Y0000032001D03*
Y0000042001D03*
Y0000052001D03*
X-0000107999Y-0000047999D03*
Y-0000037999D03*
X-0000097999D03*
X-0000107999Y-0000027999D03*
X-0000097999D03*
X-0000094000Y-0000003850D03*
X-0000099000D03*
X-0000104000D03*
X-0000107999Y-0000017999D03*
X-0000097999D03*
Y-0000007999D03*
X-0000107999Y0000022001D03*
X-0000097999D03*
X-0000107999Y0000032001D03*
X-0000097999D03*
X-0000107999Y0000042001D03*
X-0000097999D03*
X-0000107999Y0000052001D03*
X-0000097999D03*
X-0000067999Y-0000107999D03*
X-0000077999Y-0000097999D03*
X-0000067999D03*
X-0000087999Y-0000087999D03*
X-0000077999D03*
X-0000067999D03*
X-0000077999Y-0000077999D03*
X-0000067999D03*
Y-0000067999D03*
Y-0000057999D03*
X-0000068000Y-0000028000D03*
X-0000087999Y-0000037999D03*
X-0000077999D03*
X-0000087999Y-0000027999D03*
X-0000077999D03*
X-0000079000Y-0000003850D03*
X-0000084000D03*
X-0000089000D03*
X-0000087999Y-0000017999D03*
X-0000077999D03*
X-0000067999D03*
X-0000087999Y-0000007999D03*
Y0000012001D03*
Y0000022001D03*
X-0000077999D03*
X-0000067999D03*
X-0000087999Y0000032001D03*
X-0000077999D03*
X-0000087999Y0000042001D03*
X-0000077999D03*
X-0000067999Y0000062001D03*
Y0000072001D03*
X-0000087999Y0000082001D03*
X-0000077999D03*
X-0000067999D03*
X-0000087999Y0000092001D03*
X-0000077999D03*
X-0000067999D03*
Y0000102001D03*
X-0000047999Y-0000117999D03*
X-0000057999Y-0000107999D03*
X-0000047999D03*
X-0000057999Y-0000097999D03*
X-0000047999D03*
X-0000057999Y-0000087999D03*
X-0000047999D03*
X-0000057999Y-0000077999D03*
X-0000047999D03*
X-0000057999Y-0000067999D03*
X-0000047999D03*
X-0000057999Y-0000057999D03*
X-0000047999D03*
X-0000044000Y-0000003850D03*
X-0000048000Y-0000018000D03*
X-0000058000D03*
Y0000018000D03*
X-0000048000D03*
X-0000057999Y0000062001D03*
X-0000047999D03*
X-0000057999Y0000072001D03*
X-0000047999D03*
X-0000057999Y0000082001D03*
X-0000047999D03*
X-0000057999Y0000092001D03*
X-0000047999D03*
X-0000057999Y0000102001D03*
X-0000047999D03*
X-0000057999Y0000112001D03*
X-0000047999D03*
X-0000037999Y-0000117999D03*
X-0000027999D03*
X-0000037999Y-0000107999D03*
X-0000027999D03*
X-0000037999Y-0000097999D03*
X-0000027999D03*
X-0000037999Y-0000087999D03*
X-0000027999D03*
X-0000037999Y-0000077999D03*
X-0000027999D03*
X-0000037999Y-0000067999D03*
X-0000027999D03*
X-0000037999Y-0000057999D03*
X-0000027999D03*
X-0000037999Y-0000047999D03*
X-0000027999D03*
Y-0000037999D03*
Y-0000027999D03*
X-0000019000Y-0000003850D03*
X-0000024000D03*
X-0000029000D03*
X-0000034000D03*
X-0000039000D03*
X-0000040600Y-0000015400D03*
X-0000038000Y-0000008000D03*
Y0000008000D03*
X-0000040600Y0000015700D03*
X-0000027999Y0000032001D03*
Y0000042001D03*
X-0000037999Y0000052001D03*
X-0000027999D03*
X-0000037999Y0000062001D03*
X-0000027999D03*
X-0000037999Y0000072001D03*
X-0000027999D03*
X-0000037999Y0000082001D03*
X-0000027999D03*
X-0000037999Y0000092001D03*
X-0000027999D03*
X-0000037999Y0000102001D03*
X-0000027999D03*
X-0000037999Y0000112001D03*
X-0000027999D03*
X-0000037999Y0000122001D03*
X-0000027999D03*
X-0000017999Y-0000127999D03*
X0000002001D03*
X-0000017999Y-0000117999D03*
Y-0000107999D03*
Y-0000097999D03*
Y-0000087999D03*
X-0000007999D03*
X-0000017999Y-0000077999D03*
Y-0000067999D03*
Y-0000057999D03*
Y-0000047999D03*
Y-0000037999D03*
X-0000007999D03*
Y-0000017999D03*
X-0000011200Y-0000015800D03*
X0000003800D03*
X-0000017999Y0000042001D03*
X-0000007999D03*
X-0000017999Y0000052001D03*
Y0000062001D03*
Y0000072001D03*
Y0000082001D03*
Y0000092001D03*
X-0000007999D03*
X-0000017999Y0000102001D03*
Y0000112001D03*
Y0000122001D03*
X0000022001Y-0000117999D03*
Y-0000107999D03*
X0000012001Y-0000097999D03*
X0000022001D03*
X0000012001Y-0000087999D03*
X0000022001D03*
Y-0000077999D03*
Y-0000067999D03*
Y-0000057999D03*
X0000012001Y-0000047999D03*
X0000022001D03*
X0000012001Y-0000037999D03*
X0000022001D03*
X0000026000Y-0000003850D03*
X0000021000D03*
X0000016000D03*
X0000012001Y-0000017999D03*
X0000008800Y-0000015800D03*
X0000022001Y0000032001D03*
X0000012001Y0000042001D03*
X0000022001D03*
Y0000052001D03*
Y0000062001D03*
Y0000072001D03*
X0000012001Y0000082001D03*
X0000022001D03*
X0000012001Y0000092001D03*
X0000022001D03*
Y0000102001D03*
Y0000112001D03*
Y0000122001D03*
X0000032001Y-0000117999D03*
X0000042001D03*
X0000052001D03*
X0000032001Y-0000107999D03*
X0000042001D03*
X0000052001D03*
X0000032001Y-0000097999D03*
X0000042001D03*
X0000052001D03*
X0000032001Y-0000087999D03*
X0000042001D03*
X0000052001D03*
X0000032001Y-0000077999D03*
X0000042001D03*
X0000052001D03*
X0000032001Y-0000067999D03*
X0000042001D03*
X0000052001D03*
X0000032001Y-0000057999D03*
X0000042001D03*
X0000052001D03*
X0000032001Y-0000047999D03*
Y-0000037999D03*
X0000046000Y-0000003850D03*
X0000041000D03*
X0000036000D03*
X0000031000D03*
X0000042000Y-0000008000D03*
Y-0000018000D03*
X0000052000D03*
X0000038300Y0000016100D03*
X0000046600Y0000014800D03*
X0000042300Y0000008300D03*
X0000032001Y0000032001D03*
Y0000042001D03*
Y0000052001D03*
X0000042001D03*
X0000032001Y0000062001D03*
X0000042001D03*
X0000052001D03*
X0000032001Y0000072001D03*
X0000042001D03*
X0000052001D03*
X0000032001Y0000082001D03*
X0000042001D03*
X0000052001D03*
X0000032001Y0000092001D03*
X0000042001D03*
X0000052001D03*
X0000032001Y0000102001D03*
X0000042001D03*
X0000052001D03*
X0000032001Y0000112001D03*
X0000042001D03*
X0000052001D03*
X0000032001Y0000122001D03*
X0000042001D03*
X0000062001Y-0000107999D03*
Y-0000097999D03*
X0000072001D03*
X0000062001Y-0000087999D03*
X0000072001D03*
X0000062001Y-0000077999D03*
X0000072001D03*
X0000062001Y-0000067999D03*
Y-0000057999D03*
X0000072001D03*
Y-0000027999D03*
X0000062001Y-0000017999D03*
X0000072001D03*
X0000057100Y0000015400D03*
X0000067300D03*
X0000062001Y0000022001D03*
X0000072001D03*
X0000062001Y0000062001D03*
X0000072001D03*
X0000062001Y0000072001D03*
X0000072001D03*
X0000062001Y0000082001D03*
X0000072001D03*
X0000062001Y0000092001D03*
X0000072001D03*
X0000062001Y0000102001D03*
X0000072001D03*
X0000062001Y0000112001D03*
X0000082001Y-0000097999D03*
Y-0000087999D03*
X0000092001D03*
X0000082001Y-0000077999D03*
Y-0000047999D03*
Y-0000037999D03*
X0000092001D03*
X0000082001Y-0000027999D03*
X0000092001D03*
X0000101000Y-0000003850D03*
X0000096000D03*
X0000091000D03*
X0000086000D03*
X0000081000D03*
X0000082001Y-0000017999D03*
X0000092001D03*
Y-0000007999D03*
X0000082001Y0000012001D03*
X0000092001D03*
X0000082001Y0000022001D03*
X0000092001D03*
X0000082001Y0000032001D03*
X0000092001D03*
X0000082001Y0000042001D03*
X0000092001D03*
X0000082001Y0000082001D03*
Y0000092001D03*
X0000102001Y-0000047999D03*
X0000112001D03*
X0000102001Y-0000037999D03*
X0000112001D03*
X0000122001D03*
X0000102001Y-0000027999D03*
X0000112001D03*
X0000122001D03*
X0000111000Y-0000003850D03*
X0000106000D03*
X0000102001Y-0000017999D03*
X0000112001D03*
X0000122001D03*
X0000112001Y0000012001D03*
X0000102001Y0000022001D03*
X0000112001D03*
X0000122001D03*
X0000102001Y0000032001D03*
X0000112001D03*
X0000122001D03*
X0000102001Y0000042001D03*
X0000112001D03*
X0000122001D03*
X0000102001Y0000052001D03*
X0000112001D03*
G54D12*
X-0000121600Y0D03*
X-0000007600Y-0000114000D03*
Y0000114000D03*
G54D13*
X-0000119370Y-0000005370D03*
X-0000005370Y-0000119370D03*
Y0000108630D03*
X0000108630Y-0000005370D03*
G54D15*
X-0000119370Y0000005370D03*
X-0000005370Y-0000108630D03*
Y0000119370D03*
X0000108630Y0000005370D03*
G54D29*
X-0000100862Y0000064069D03*
X0000085904Y-0000066706D03*
G54D11*
X-0000124000Y-0000010000D03*
X-0000104000Y0000010000D03*
G54D27*
X-0000107310Y0000062932D03*
X-0000079456Y0000067844D03*
G54D45*
X-0000010000Y0000124000D03*
X0000010000Y0000104000D03*
M02*
