M48
INCH
T01C.01
T02C.015
T03C.018
T04C.025
T05C.064
T06C.07
;LEADER: 12 
;HEADER: 
;CODE  : ASCII 
;FILE  : FilterBoardPartialDRL-1-4.drl for board #Taaaacv08509.tmp ... layers TOP and BOTTOM
;T01 Holesize 1. = 10.000000 Tolerance = +3.000000/-3.000000 PLATED MILS Quantity = 286
;T03 Holesize 2. = 18.000000 Tolerance = +3.000000/-3.000000 PLATED MILS Quantity = 307
;T04 Holesize 3. = 25.000000 Tolerance = +3.000000/-3.000000 PLATED MILS Quantity = 16
;T05 Holesize 4. = 64.000000 Tolerance = +3.000000/-3.000000 PLATED MILS Quantity = 16
;T06 Holesize 5. = 70.000000 Tolerance = +3.000000/-3.000000 PLATED MILS Quantity = 8
%
G90
T01
X-0121600Y0000000
X-0100862Y-0064069
X-0114000Y-0007600
X-0108630Y-0005370
X-0119370Y-0005370
X-0104000Y-0003850
X-0101000Y0003850
X-0119370Y0005370
X-0108630Y0005370
X-0114000Y0007600
X-0100862Y0064069
X-0094702Y0072867
X-0089024Y0071613
X-0099609Y0069747
X-0085904Y0066706
X-0097743Y0059162
X-0092065Y0057909
X-0087858Y0055842
X-0083763Y0052974
X-0096000Y0003850
X-0091000Y0003850
R02X0005000
X-0084000Y-0003850
R03X-0005000
X-0081307Y-0051255
X-0085402Y-0054122
X-0092065Y-0057909
X-0097743Y-0059162
X-0082523Y-0063461
X-0085904Y-0066706
X-0099609Y-0069747
X-0089024Y-0071613
X-0094702Y-0072867
X-0078428Y-0060593
X-0074332Y-0057725
X-0070236Y-0054858
X-0066140Y-0051990
X-0062045Y-0049122
X-0077211Y-0048387
X-0073115Y-0045519
X-0069019Y-0042651
X-0064924Y-0039783
X-0060828Y-0036915
X-0063284Y0038635
X-0067380Y0041503
X-0071475Y0044371
X-0075571Y0047239
X-0079667Y0050106
X-0063684Y0050270
X-0067780Y0053138
X-0071876Y0056006
X-0075972Y0058874
X-0059589Y0047402
X-0055493Y0044534
X-0051397Y0041666
X-0047301Y0038798
X-0043206Y0035930
X-0059188Y0035767
X-0055092Y0032899
X-0050997Y0030031
X-0046901Y0027163
X-0042805Y0024295
X-0041000Y0003850
X-0044000Y-0003850
X-0040349Y-0022576
X-0044445Y-0025443
X-0048541Y-0028311
X-0052636Y-0031179
X-0056732Y-0034047
X-0041566Y-0034782
X-0045662Y-0037650
X-0049757Y-0040518
X-0053853Y-0043386
X-0057949Y-0046254
X-0037470Y-0031914
X-0033374Y-0029046
X-0029279Y-0026179
X-0025183Y-0023311
X-0021087Y-0020443
X-0036253Y-0019708
X-0032158Y-0016840
X-0028062Y-0013972
X-0023966Y-0011104
X-0039000Y-0003850
X-0034000Y-0003850
R02X0005000
X-0021000Y0003850
R03X-0005000
X-0022326Y0009956
X-0026422Y0012824
X-0030518Y0015692
X-0034614Y0018560
X-0038709Y0021427
X-0022727Y0021591
X-0026823Y0024459
X-0030918Y0027327
X-0035014Y0030195
X-0039110Y0033062
X-0005370Y0119370
X-0007600Y0114000
X-0005370Y0108630
X-0003850Y0104000
X-0003850Y0099000
R03Y-0005000
X-0003850Y0044000
R05Y-0005000
X-0018631Y0018723
X-0014535Y0015855
X-0008937Y0015800
X-0003937Y0015800
X-0018231Y0007088
X-0016000Y0003850
X-0019000Y-0003850
X-0015775Y-0005368
X-0019870Y-0008236
X-0011200Y-0015800
X-0003850Y-0016000
X-0016991Y-0017575
X-0003850Y-0021000
R04Y-0005000
X-0003850Y-0086000
R03Y-0005000
X-0005370Y-0108630
X-0007600Y-0114000
X-0005370Y-0119370
X0000000Y-0121600
X0005370Y-0119370
X0007600Y-0114000
X0005370Y-0108630
X0003850Y-0104000
X0003850Y-0099000
R03Y0005000
X0003850Y-0039000
R04Y0005000
X0018631Y-0018723
X0014535Y-0015855
X0008800Y-0015800
X0003800Y-0015800
X0018231Y-0007088
X0016000Y-0003850
X0019000Y0003850
X0015775Y0005368
X0016000Y0005600
X0019870Y0008236
X0011063Y0015800
X0003850Y0016000
X0016991Y0017575
X0003850Y0021000
X0003850Y0026000
R03Y0005000
X0003850Y0086000
R03Y0005000
X0005370Y0108630
X0007600Y0114000
X0005370Y0119370
X0000000Y0121600
X0037470Y0031914
X0033374Y0029046
X0029279Y0026179
X0025183Y0023311
X0021087Y0020443
X0036253Y0019708
X0032158Y0016840
X0028062Y0013972
X0023966Y0011104
X0039000Y0003850
X0034000Y0003850
R02X-0005000
X0021000Y-0003850
R03X0005000
X0022326Y-0009956
X0026422Y-0012824
X0030518Y-0015692
X0034614Y-0018560
X0038709Y-0021427
X0022727Y-0021591
X0026823Y-0024459
X0030918Y-0027327
X0035014Y-0030195
X0039110Y-0033062
X0059589Y-0047402
X0055493Y-0044534
X0051397Y-0041666
X0047301Y-0038798
X0043206Y-0035930
X0059188Y-0035767
X0055092Y-0032899
X0050997Y-0030031
X0046901Y-0027163
X0042805Y-0024295
X0041000Y-0003850
X0044000Y0003850
X0040349Y0022576
X0044445Y0025443
X0048541Y0028311
X0052636Y0031179
X0056732Y0034047
X0041566Y0034782
X0045662Y0037650
X0049757Y0040518
X0053853Y0043386
X0057949Y0046254
X0078428Y0060593
X0074332Y0057725
X0070236Y0054858
X0066140Y0051990
X0062045Y0049122
X0077211Y0048387
X0073115Y0045519
X0069019Y0042651
X0064924Y0039783
X0060828Y0036915
X0063284Y-0038635
X0067380Y-0041503
X0071475Y-0044371
X0075571Y-0047239
X0079667Y-0050106
X0063684Y-0050270
X0067780Y-0053138
X0071876Y-0056006
X0075972Y-0058874
X0094702Y-0072867
X0089024Y-0071613
X0099609Y-0069747
X0085904Y-0066706
X0080067Y-0061741
X0097743Y-0059162
X0092065Y-0057909
X0087858Y-0055842
X0083763Y-0052974
X0096000Y-0003850
R02X-0005000
X0084000Y0003850
R03X0005000
X0081307Y0051255
X0085402Y0054122
X0092065Y0057909
X0097743Y0059162
X0082523Y0063461
X0085904Y0066706
X0099609Y0069747
X0089024Y0071613
X0094702Y0072867
X0100862Y0064069
X0114000Y0007600
X0108630Y0005370
X0119370Y0005370
X0104000Y0003850
X0101000Y-0003850
X0119370Y-0005370
X0108630Y-0005370
X0114000Y-0007600
X0100862Y-0064069
X0121600Y0000000
T03
X0002001Y-0127999
X-0017999Y-0127999
X-0067999Y-0107999
R02X0010000
X-0047999Y-0117999
X-0037999Y-0107999
X-0037999Y-0117999
X-0027999Y-0107999
X-0027999Y-0117999
X-0017999Y-0107999
X-0017999Y-0117999
X0022001Y-0117999
X0022001Y-0107999
X0032001Y-0117999
X0032001Y-0107999
X0042001Y-0117999
X0042001Y-0107999
X0052001Y-0117999
X0052001Y-0107999
X0062001Y-0107999
X0092001Y-0087999
X0082001Y-0087999
X0082001Y-0097999
X0072001Y-0087999
X0072001Y-0097999
X0062001Y-0087999
X0062001Y-0097999
X0052001Y-0087999
X0052001Y-0097999
X0042001Y-0087999
X0042001Y-0097999
X0032001Y-0087999
X0032001Y-0097999
X0022001Y-0087999
X0022001Y-0097999
X0012001Y-0087999
X0012001Y-0097999
X-0007999Y-0087999
X-0017999Y-0097999
X-0017999Y-0087999
X-0027999Y-0097999
X-0027999Y-0087999
X-0037999Y-0097999
X-0037999Y-0087999
X-0047999Y-0097999
X-0047999Y-0087999
X-0057999Y-0097999
X-0057999Y-0087999
X-0067999Y-0097999
X-0067999Y-0087999
X-0077999Y-0097999
X-0077999Y-0087999
X-0087999Y-0087999
X-0077999Y-0077999
X-0067999Y-0067999
X-0067999Y-0077999
X-0057999Y-0067999
X-0057999Y-0077999
X-0047999Y-0067999
X-0047999Y-0077999
X-0037999Y-0067999
X-0037999Y-0077999
X-0027999Y-0067999
X-0027999Y-0077999
X-0017999Y-0067999
X-0017999Y-0077999
X0022001Y-0077999
X0022001Y-0067999
X0032001Y-0077999
X0032001Y-0067999
X0042001Y-0077999
X0042001Y-0067999
X0052001Y-0077999
X0052001Y-0067999
X0062001Y-0077999
X0062001Y-0067999
X0072001Y-0077999
X0082001Y-0077999
X0112001Y-0047999
X0102001Y-0047999
X0062001Y-0057999
X0052164Y-0050230
X0052001Y-0057999
X0042164Y-0040230
X0042164Y-0050230
X0042001Y-0057999
X0032001Y-0047999
X0022001Y-0047999
X0022001Y-0057999
X-0017999Y-0057999
X-0017999Y-0047999
X-0027999Y-0047999
X-0037999Y-0047999
X-0047999Y-0057999
X-0048275Y-0048205
X-0057999Y-0057999
X-0067999Y-0057999
X-0107999Y-0047999
X-0117999Y-0047999
R02Y0010000
X-0107999Y-0037999
X-0107999Y-0027999
X-0097999Y-0027999
X-0097999Y-0037999
X-0087999Y-0027999
X-0087999Y-0037999
X-0077999Y-0027999
X-0077999Y-0037999
X-0068000Y-0028000
X-0058275Y-0028205
X-0027999Y-0027999
X-0027999Y-0037999
X-0017999Y-0037999
X-0007999Y-0037999
X0012001Y-0037999
X0022001Y-0037999
X0032001Y-0037999
X0052164Y-0030230
X0062414Y-0032410
X0072001Y-0027999
X0082001Y-0037999
X0082001Y-0027999
X0092001Y-0037999
X0092001Y-0027999
X0102001Y-0027999
X0102001Y-0037999
X0112001Y-0027999
X0112001Y-0037999
X0122001Y-0027999
X0122001Y-0037999
X0122001Y-0017999
R02X-0010000
X0092001Y-0007999
X0092001Y-0017999
X0082001Y-0017999
X0062001Y-0017999
X0052000Y-0018000
X0042000Y-0008000
X0042000Y-0018000
X0012001Y-0017999
X-0007999Y-0017999
X-0038000Y-0008000
X-0040600Y-0015400
X-0048000Y-0018000
X-0077999Y-0017999
X-0087999Y-0017999
X-0087999Y-0007999
X-0097999Y-0017999
X-0097999Y-0007999
X-0107999Y-0017999
X-0117999Y-0017999
X-0127999Y-0017999
X-0087999Y0012001
X-0058000Y0018000
X-0048000Y0018000
X-0040600Y0015700
X-0038000Y0008000
X0038300Y0016100
X0042300Y0008300
X0082001Y0012001
X0092001Y0012001
X0112001Y0012001
X0122001Y0022001
X0122001Y0032001
X0112001Y0022001
X0112001Y0032001
X0102001Y0022001
X0102001Y0032001
X0092001Y0032001
X0092001Y0022001
X0082001Y0032001
X0082001Y0022001
X0072001Y0022001
X0071479Y0031174
X0062001Y0022001
X0061479Y0031174
X0032001Y0032001
X0022001Y0032001
X-0027999Y0032001
X-0067999Y0022001
X-0068804Y0032389
X-0077999Y0022001
X-0077999Y0032001
X-0087999Y0022001
X-0087999Y0032001
X-0097999Y0022001
X-0097999Y0032001
X-0107999Y0032001
X-0107999Y0022001
X-0117999Y0032001
X-0117999Y0022001
X-0117999Y0042001
X-0117999Y0052001
X-0107999Y0042001
X-0107999Y0052001
X-0097999Y0052001
X-0097999Y0042001
R02X0010000
X-0058804Y0052389
X-0048804Y0052389
X-0037999Y0052001
X-0027999Y0052001
X-0027999Y0042001
X-0017999Y0052001
X-0017999Y0042001
X-0007999Y0042001
X0012001Y0042001
X0022001Y0042001
X0022001Y0052001
X0032001Y0042001
X0032001Y0052001
X0042001Y0052001
X0051479Y0051174
X0082001Y0042001
X0092001Y0042001
X0102001Y0052001
X0102001Y0042001
X0112001Y0052001
X0112001Y0042001
X0122001Y0042001
X0072001Y0072001
X0072001Y0062001
X0062001Y0072001
X0062001Y0062001
X0052001Y0072001
X0052001Y0062001
X0042001Y0072001
X0042001Y0062001
X0032001Y0072001
X0022001Y0072001
X0022001Y0062001
X-0017999Y0062001
X-0017999Y0072001
X-0027999Y0072001
X-0037999Y0062001
X-0037999Y0072001
X-0047999Y0062001
X-0047999Y0072001
X-0057999Y0062001
X-0057999Y0072001
X-0067999Y0062001
X-0067999Y0072001
X-0087999Y0092001
X-0087999Y0082001
X-0077999Y0092001
X-0077999Y0082001
X-0067999Y0092001
X-0067999Y0082001
X-0057999Y0092001
X-0057999Y0082001
X-0047999Y0092001
X-0047999Y0082001
X-0037999Y0092001
X-0037999Y0082001
X-0027999Y0092001
X-0027999Y0082001
X-0017999Y0092001
X-0017999Y0082001
X-0007999Y0092001
X0012001Y0082001
X0012001Y0092001
X0022001Y0082001
X0022001Y0092001
X0032001Y0082001
X0032001Y0092001
X0042001Y0082001
X0042001Y0092001
X0052001Y0082001
X0052001Y0092001
X0062001Y0082001
X0062001Y0092001
X0072001Y0082001
X0072001Y0092001
X0082001Y0082001
X0082001Y0092001
X0072001Y0102001
X0062001Y0112001
X0062001Y0102001
X0052001Y0112001
X0052001Y0102001
X0042001Y0112001
X0042001Y0102001
X0032001Y0112001
X0032001Y0102001
X0022001Y0112001
X0022001Y0102001
X-0017999Y0102001
X-0017999Y0112001
X-0027999Y0102001
X-0027999Y0112001
X-0037999Y0102001
X-0037999Y0112001
X-0047999Y0102001
X-0047999Y0112001
X-0057999Y0102001
X-0057999Y0112001
X-0067999Y0102001
X-0037999Y0122001
X-0027999Y0122001
X-0017999Y0122001
X0022001Y0122001
X0032001Y0122001
X0042001Y0122001
T04
X-0079456Y-0067844
X-0107310Y-0062932
X-0104000Y-0010000
X-0124000Y0010000
X-0090927Y0051461
X-0095839Y0079315
X-0010000Y0104000
X-0010000Y-0124000
X0010000Y-0104000
X0010000Y0124000
X0079456Y0067844
X0107310Y0062932
X0104000Y0010000
X0124000Y-0010000
X0090927Y-0051461
X0095839Y-0079315
T05
X-0079456Y0067844
X-0107310Y0062932
X-0104000Y0010000
X-0124000Y-0010000
X-0090927Y-0051461
X-0095839Y-0079315
X-0010000Y-0104000
X-0010000Y0124000
X0010000Y0104000
X0010000Y-0124000
X0079456Y-0067844
X0107310Y-0062932
X0104000Y-0010000
X0124000Y0010000
X0090927Y0051461
X0095839Y0079315
T06
X0030475Y-0058543
X-0030475Y-0058543
X-0015000Y-0025981
X0015000Y-0025981
X0015000Y0025981
X-0015000Y0025981
X-0030475Y0058543
X0030475Y0058543
M30
