G04 ================== begin FILE IDENTIFICATION RECORD ==================*
G04 Layout Name:  newBoardCircle_squarechug_viadone_139in.brd*
G04 Film Name:    02_GND*
G04 File Format:  Gerber RS274X*
G04 File Origin:  Cadence Allegro 16.6-S006*
G04 Origin Date:  Mon Jul 27 10:48:20 2015*
G04 *
G04 Layer:  ETCH/02_GND*
G04 Layer:  PIN/02_GND*
G04 Layer:  VIA CLASS/02_GND*
G04 *
G04 Offset:    (0.00 0.00)*
G04 Mirror:    No*
G04 Mode:      Negative*
G04 Rotation:  0*
G04 FullContactRelief:  No*
G04 UndefLineWidth:     5.00*
G04 ================== end FILE IDENTIFICATION RECORD ====================*
%FSLAX55Y55*MOIN*%
%IR0*IPPOS*OFA0.00000B0.00000*MIA0B0*SFA1.00000B1.00000*%
%ADD12C,.045*%
%AMMACRO21*
4,1,36,-.0025,0.0,
-.002462,.000434,
-.002349,.000855,
-.002165,.00125,
-.001915,.001607,
-.001607,.001915,
-.00125,.002165,
-.000855,.002349,
-.000434,.002462,
0.0,.0025,
.000434,.002462,
.000855,.002349,
.00125,.002165,
.001607,.001915,
.001915,.001607,
.002165,.00125,
.002349,.000855,
.002462,.000434,
.0025,0.0,
.002462,-.000434,
.002349,-.000855,
.002165,-.00125,
.001915,-.001607,
.001607,-.001915,
.00125,-.002165,
.000855,-.002349,
.000434,-.002462,
0.0,-.0025,
-.000434,-.002462,
-.000855,-.002349,
-.00125,-.002165,
-.001607,-.001915,
-.001915,-.001607,
-.002165,-.00125,
-.002349,-.000855,
-.002462,-.000434,
-.0025,0.0,
180.*
%
%ADD21MACRO21*%
%AMMACRO20*
4,1,36,-.0025,0.0,
-.002462,.000434,
-.002349,.000855,
-.002165,.00125,
-.001915,.001607,
-.001607,.001915,
-.00125,.002165,
-.000855,.002349,
-.000434,.002462,
0.0,.0025,
.000434,.002462,
.000855,.002349,
.00125,.002165,
.001607,.001915,
.001915,.001607,
.002165,.00125,
.002349,.000855,
.002462,.000434,
.0025,0.0,
.002462,-.000434,
.002349,-.000855,
.002165,-.00125,
.001915,-.001607,
.001607,-.001915,
.00125,-.002165,
.000855,-.002349,
.000434,-.002462,
0.0,-.0025,
-.000434,-.002462,
-.000855,-.002349,
-.00125,-.002165,
-.001607,-.001915,
-.001915,-.001607,
-.002165,-.00125,
-.002349,-.000855,
-.002462,-.000434,
-.0025,0.0,
315.*
%
%ADD20MACRO20*%
%AMMACRO19*
4,1,36,-.0025,0.0,
-.002462,.000434,
-.002349,.000855,
-.002165,.00125,
-.001915,.001607,
-.001607,.001915,
-.00125,.002165,
-.000855,.002349,
-.000434,.002462,
0.0,.0025,
.000434,.002462,
.000855,.002349,
.00125,.002165,
.001607,.001915,
.001915,.001607,
.002165,.00125,
.002349,.000855,
.002462,.000434,
.0025,0.0,
.002462,-.000434,
.002349,-.000855,
.002165,-.00125,
.001915,-.001607,
.001607,-.001915,
.00125,-.002165,
.000855,-.002349,
.000434,-.002462,
0.0,-.0025,
-.000434,-.002462,
-.000855,-.002349,
-.00125,-.002165,
-.001607,-.001915,
-.001915,-.001607,
-.002165,-.00125,
-.002349,-.000855,
-.002462,-.000434,
-.0025,0.0,
270.*
%
%ADD19MACRO19*%
%AMMACRO16*
4,1,36,-.0025,0.0,
-.002462,.000434,
-.002349,.000855,
-.002165,.00125,
-.001915,.001607,
-.001607,.001915,
-.00125,.002165,
-.000855,.002349,
-.000434,.002462,
0.0,.0025,
.000434,.002462,
.000855,.002349,
.00125,.002165,
.001607,.001915,
.001915,.001607,
.002165,.00125,
.002349,.000855,
.002462,.000434,
.0025,0.0,
.002462,-.000434,
.002349,-.000855,
.002165,-.00125,
.001915,-.001607,
.001607,-.001915,
.00125,-.002165,
.000855,-.002349,
.000434,-.002462,
0.0,-.0025,
-.000434,-.002462,
-.000855,-.002349,
-.00125,-.002165,
-.001607,-.001915,
-.001915,-.001607,
-.002165,-.00125,
-.002349,-.000855,
-.002462,-.000434,
-.0025,0.0,
225.*
%
%ADD16MACRO16*%
%AMMACRO15*
4,1,36,-.0025,0.0,
-.002462,.000434,
-.002349,.000855,
-.002165,.00125,
-.001915,.001607,
-.001607,.001915,
-.00125,.002165,
-.000855,.002349,
-.000434,.002462,
0.0,.0025,
.000434,.002462,
.000855,.002349,
.00125,.002165,
.001607,.001915,
.001915,.001607,
.002165,.00125,
.002349,.000855,
.002462,.000434,
.0025,0.0,
.002462,-.000434,
.002349,-.000855,
.002165,-.00125,
.001915,-.001607,
.001607,-.001915,
.00125,-.002165,
.000855,-.002349,
.000434,-.002462,
0.0,-.0025,
-.000434,-.002462,
-.000855,-.002349,
-.00125,-.002165,
-.001607,-.001915,
-.001915,-.001607,
-.002165,-.00125,
-.002349,-.000855,
-.002462,-.000434,
-.0025,0.0,
135.*
%
%ADD15MACRO15*%
%AMMACRO11*
4,1,18,.026,.037,
.01918,.040953,
.011777,.043661,
.004017,.045043,
-.003866,.045056,
-.011631,.0437,
-.019043,.041017,
-.025876,.037087,
-.026,.037,
-.033,.044,
-.024858,.049062,
-.015961,.052633,
-.006579,.054605,
.003003,.054918,
.012494,.053562,
.021605,.050579,
.03006,.046059,
.033,.044,
.026,.037,
270.*
4,1,18,.037,-.026,
.040953,-.01918,
.043661,-.011777,
.045043,-.004017,
.045056,.003866,
.0437,.011631,
.041017,.019043,
.037087,.025876,
.037,.026,
.044,.033,
.049062,.024858,
.052633,.015961,
.054605,.006579,
.054918,-.003003,
.053562,-.012494,
.050579,-.021605,
.046059,-.03006,
.044,-.033,
.037,-.026,
270.*
4,1,18,-.026,-.037,
-.01918,-.040953,
-.011777,-.043661,
-.004017,-.045043,
.003866,-.045056,
.011631,-.0437,
.019043,-.041017,
.025876,-.037087,
.026,-.037,
.033,-.044,
.024858,-.049062,
.015961,-.052633,
.006579,-.054605,
-.003003,-.054918,
-.012494,-.053562,
-.021605,-.050579,
-.03006,-.046059,
-.033,-.044,
-.026,-.037,
270.*
4,1,18,-.037,.026,
-.040953,.01918,
-.043661,.011777,
-.045043,.004017,
-.045056,-.003866,
-.0437,-.011631,
-.041017,-.019043,
-.037087,-.025876,
-.037,-.026,
-.044,-.033,
-.049062,-.024858,
-.052633,-.015961,
-.054605,-.006579,
-.054918,.003003,
-.053562,.012494,
-.050579,.021605,
-.046059,.03006,
-.044,.033,
-.037,.026,
270.*
%
%ADD11MACRO11*%
%AMMACRO22*
4,1,36,.0025,0.0,
.002462,.000434,
.002349,.000855,
.002165,.00125,
.001915,.001607,
.001607,.001915,
.00125,.002165,
.000855,.002349,
.000434,.002462,
0.0,.0025,
-.000434,.002462,
-.000855,.002349,
-.00125,.002165,
-.001607,.001915,
-.001915,.001607,
-.002165,.00125,
-.002349,.000855,
-.002462,.000434,
-.0025,0.0,
-.002462,-.000434,
-.002349,-.000855,
-.002165,-.00125,
-.001915,-.001607,
-.001607,-.001915,
-.00125,-.002165,
-.000855,-.002349,
-.000434,-.002462,
0.0,-.0025,
.000434,-.002462,
.000855,-.002349,
.00125,-.002165,
.001607,-.001915,
.001915,-.001607,
.002165,-.00125,
.002349,-.000855,
.002462,-.000434,
.0025,0.0,
90.*
%
%ADD22MACRO22*%
%AMMACRO18*
4,1,36,-.0025,0.0,
-.002462,.000434,
-.002349,.000855,
-.002165,.00125,
-.001915,.001607,
-.001607,.001915,
-.00125,.002165,
-.000855,.002349,
-.000434,.002462,
0.0,.0025,
.000434,.002462,
.000855,.002349,
.00125,.002165,
.001607,.001915,
.001915,.001607,
.002165,.00125,
.002349,.000855,
.002462,.000434,
.0025,0.0,
.002462,-.000434,
.002349,-.000855,
.002165,-.00125,
.001915,-.001607,
.001607,-.001915,
.00125,-.002165,
.000855,-.002349,
.000434,-.002462,
0.0,-.0025,
-.000434,-.002462,
-.000855,-.002349,
-.00125,-.002165,
-.001607,-.001915,
-.001915,-.001607,
-.002165,-.00125,
-.002349,-.000855,
-.002462,-.000434,
-.0025,0.0,
45.*
%
%ADD18MACRO18*%
%AMMACRO14*
4,1,36,-.0025,0.0,
-.002462,.000434,
-.002349,.000855,
-.002165,.00125,
-.001915,.001607,
-.001607,.001915,
-.00125,.002165,
-.000855,.002349,
-.000434,.002462,
0.0,.0025,
.000434,.002462,
.000855,.002349,
.00125,.002165,
.001607,.001915,
.001915,.001607,
.002165,.00125,
.002349,.000855,
.002462,.000434,
.0025,0.0,
.002462,-.000434,
.002349,-.000855,
.002165,-.00125,
.001915,-.001607,
.001607,-.001915,
.00125,-.002165,
.000855,-.002349,
.000434,-.002462,
0.0,-.0025,
-.000434,-.002462,
-.000855,-.002349,
-.00125,-.002165,
-.001607,-.001915,
-.001915,-.001607,
-.002165,-.00125,
-.002349,-.000855,
-.002462,-.000434,
-.0025,0.0,
90.*
%
%ADD14MACRO14*%
%AMMACRO10*
4,1,36,.0025,0.0,
.002462,.000434,
.002349,.000855,
.002165,.00125,
.001915,.001607,
.001607,.001915,
.00125,.002165,
.000855,.002349,
.000434,.002462,
0.0,.0025,
-.000434,.002462,
-.000855,.002349,
-.00125,.002165,
-.001607,.001915,
-.001915,.001607,
-.002165,.00125,
-.002349,.000855,
-.002462,.000434,
-.0025,0.0,
-.002462,-.000434,
-.002349,-.000855,
-.002165,-.00125,
-.001915,-.001607,
-.001607,-.001915,
-.00125,-.002165,
-.000855,-.002349,
-.000434,-.002462,
0.0,-.0025,
.000434,-.002462,
.000855,-.002349,
.00125,-.002165,
.001607,-.001915,
.001915,-.001607,
.002165,-.00125,
.002349,-.000855,
.002462,-.000434,
.0025,0.0,
0.0*
%
%ADD10MACRO10*%
%AMMACRO17*
4,1,36,-.0025,0.0,
-.002462,.000434,
-.002349,.000855,
-.002165,.00125,
-.001915,.001607,
-.001607,.001915,
-.00125,.002165,
-.000855,.002349,
-.000434,.002462,
0.0,.0025,
.000434,.002462,
.000855,.002349,
.00125,.002165,
.001607,.001915,
.001915,.001607,
.002165,.00125,
.002349,.000855,
.002462,.000434,
.0025,0.0,
.002462,-.000434,
.002349,-.000855,
.002165,-.00125,
.001915,-.001607,
.001607,-.001915,
.00125,-.002165,
.000855,-.002349,
.000434,-.002462,
0.0,-.0025,
-.000434,-.002462,
-.000855,-.002349,
-.00125,-.002165,
-.001607,-.001915,
-.001915,-.001607,
-.002165,-.00125,
-.002349,-.000855,
-.002462,-.000434,
-.0025,0.0,
0.0*
%
%ADD17MACRO17*%
%AMMACRO13*
4,1,18,.026,.037,
.01918,.040953,
.011777,.043661,
.004017,.045043,
-.003866,.045056,
-.011631,.0437,
-.019043,.041017,
-.025876,.037087,
-.026,.037,
-.033,.044,
-.024858,.049062,
-.015961,.052633,
-.006579,.054605,
.003003,.054918,
.012494,.053562,
.021605,.050579,
.03006,.046059,
.033,.044,
.026,.037,
0.0*
4,1,18,.037,-.026,
.040953,-.01918,
.043661,-.011777,
.045043,-.004017,
.045056,.003866,
.0437,.011631,
.041017,.019043,
.037087,.025876,
.037,.026,
.044,.033,
.049062,.024858,
.052633,.015961,
.054605,.006579,
.054918,-.003003,
.053562,-.012494,
.050579,-.021605,
.046059,-.03006,
.044,-.033,
.037,-.026,
0.0*
4,1,18,-.026,-.037,
-.01918,-.040953,
-.011777,-.043661,
-.004017,-.045043,
.003866,-.045056,
.011631,-.0437,
.019043,-.041017,
.025876,-.037087,
.026,-.037,
.033,-.044,
.024858,-.049062,
.015961,-.052633,
.006579,-.054605,
-.003003,-.054918,
-.012494,-.053562,
-.021605,-.050579,
-.03006,-.046059,
-.033,-.044,
-.026,-.037,
0.0*
4,1,18,-.037,.026,
-.040953,.01918,
-.043661,.011777,
-.045043,.004017,
-.045056,-.003866,
-.0437,-.011631,
-.041017,-.019043,
-.037087,-.025876,
-.037,-.026,
-.044,-.033,
-.049062,-.024858,
-.052633,-.015961,
-.054605,-.006579,
-.054918,.003003,
-.053562,.012494,
-.050579,.021605,
-.046059,.03006,
-.044,.033,
-.037,.026,
0.0*
%
%ADD13MACRO13*%
G75*
%LPD*%
G75*
G36*
G01X-143000Y-143000D02*
X143000D01*
Y143000D01*
X-143000D01*
Y-143000D01*
G37*
%LPC*%
G75*
G36*
G01X132999Y0D02*
G02I-132999J0D01*
G37*
%LPD*%
G75*
G54D12*
X-113000Y-52000D03*
X-97000Y-10000D03*
X-117000Y10000D03*
X-113000Y52000D03*
X-93000Y-32000D03*
Y32000D03*
X-52000Y-113000D03*
X-32000Y-93000D03*
Y93000D03*
X-52000Y113000D03*
X-10000Y-97000D03*
Y117000D03*
X10000Y-117000D03*
Y97000D03*
X32000Y-93000D03*
Y93000D03*
X52000Y-113000D03*
Y113000D03*
X93000Y-32000D03*
X97000Y10000D03*
X93000Y32000D03*
X113000Y-52000D03*
X117000Y-10000D03*
X113000Y52000D03*
G54D15*
X-103000Y-49600D03*
X-107000Y-7600D03*
X-103000Y34400D03*
X-42000Y-110600D03*
X-34600Y103600D03*
X0Y-114600D03*
X42000Y-110600D03*
X103000Y-49600D03*
X107000Y-7600D03*
G54D16*
X-103200Y-34400D03*
X-34400Y-103000D03*
X7600Y-107000D03*
Y107000D03*
X49600Y-103000D03*
Y103000D03*
X110600Y-42000D03*
X114600Y0D03*
X110600Y42000D03*
G54D19*
X-101630Y5370D03*
X-97630Y-36630D03*
Y47370D03*
X-36630Y-97629D03*
X-36629Y108370D03*
X5370Y-101630D03*
Y112370D03*
X47370Y-97629D03*
Y108371D03*
X108370Y-36629D03*
X112370Y5370D03*
X108371Y47370D03*
G54D20*
X-107000Y7600D03*
X-103000Y49600D03*
X-42000Y110600D03*
X-7100Y-106900D03*
X0Y114600D03*
X34500Y-103000D03*
X42000Y110600D03*
X103000Y-34400D03*
Y49600D03*
X107000Y7600D03*
G54D21*
X-101630Y-5370D03*
X-97630Y-47370D03*
Y36630D03*
X-36629Y-108370D03*
X-36630Y97629D03*
X5370Y-112370D03*
Y101630D03*
X47371Y-108370D03*
Y97630D03*
X108371Y-47370D03*
X112370Y-5370D03*
X108370Y36629D03*
G54D11*
X-117000Y-10000D03*
X-97000Y10000D03*
X-113000Y32000D03*
X-93000Y52000D03*
X-52000Y93000D03*
X-32000Y113000D03*
X-10000Y-117000D03*
Y97000D03*
X10000Y-97000D03*
Y117000D03*
X32000Y-113000D03*
X52000Y-93000D03*
X93000Y-52000D03*
X97000Y-10000D03*
X113000Y-32000D03*
X117000Y10000D03*
G54D22*
X-77274Y-77274D03*
Y-20706D03*
Y20706D03*
Y77274D03*
X-20706Y-77274D03*
Y77274D03*
X20706Y-77274D03*
Y77274D03*
X77274Y-77274D03*
Y-20706D03*
Y20706D03*
Y77274D03*
G54D10*
X-124999Y-34999D03*
Y-29999D03*
Y-24999D03*
Y-19999D03*
Y-14999D03*
X-129999Y-9999D03*
X-124999D03*
X-129999Y-4999D03*
X-124999D03*
X-129999Y1D03*
X-124999D03*
X-129999Y5001D03*
X-124999D03*
X-129999Y10001D03*
X-124999D03*
X-129999Y15001D03*
X-124999D03*
Y20001D03*
Y25001D03*
Y30001D03*
Y35001D03*
X-99999Y-79999D03*
X-104999Y-74999D03*
X-99999D03*
X-109999Y-69999D03*
X-104999D03*
X-99999D03*
X-109999Y-64999D03*
X-104999D03*
X-99999D03*
X-114999Y-59999D03*
X-109999D03*
X-104999D03*
X-99999D03*
X-119999Y-49999D03*
Y-44999D03*
Y-39999D03*
Y-34999D03*
Y-29999D03*
Y-24999D03*
X-114999D03*
X-109999D03*
X-104999D03*
X-99999D03*
X-119999Y-19999D03*
X-114999D03*
X-109999D03*
X-104999D03*
X-99999D03*
X-109999Y-14999D03*
X-104999D03*
X-99999D03*
X-119999Y20001D03*
X-114999D03*
X-109999D03*
X-104999D03*
X-99999D03*
X-119999Y25001D03*
X-114999D03*
X-109999D03*
X-104999D03*
X-99999D03*
X-119999Y30001D03*
Y35001D03*
Y40001D03*
Y45001D03*
Y50001D03*
X-114999Y60001D03*
X-109999D03*
X-104999D03*
X-99999D03*
X-109999Y65001D03*
X-104999D03*
X-99999D03*
X-109999Y70001D03*
X-104999D03*
X-99999D03*
X-104999Y75001D03*
X-99999D03*
Y80001D03*
X-79999Y-99999D03*
X-84999Y-94999D03*
X-79999D03*
X-84256Y-77295D03*
Y-82295D03*
X-89999Y-89999D03*
X-84999D03*
X-79999D03*
X-94999Y-84999D03*
X-89999D03*
X-94999Y-79999D03*
X-89999D03*
X-94999Y-74999D03*
X-89999D03*
X-79256Y-52295D03*
X-84256D03*
X-79256Y-57295D03*
X-84256D03*
X-79256Y-62295D03*
X-84256D03*
X-79256Y-67295D03*
X-84256D03*
Y-72295D03*
X-94999Y-69999D03*
X-89999D03*
X-94999Y-64999D03*
X-89999D03*
X-94999Y-59999D03*
X-89999D03*
X-79256Y-32295D03*
X-84256D03*
X-79256Y-37295D03*
X-84256D03*
X-79256Y-47295D03*
X-84256D03*
X-79256Y-7295D03*
X-84256D03*
X-79256Y-12295D03*
X-84256D03*
Y-17295D03*
Y-22295D03*
X-79256Y-27295D03*
X-84256D03*
X-94999Y-24999D03*
X-89999D03*
X-94999Y-19999D03*
X-89999D03*
X-94999Y-14999D03*
X-89999D03*
Y-9999D03*
X-79256Y12705D03*
X-84256D03*
X-79256Y7705D03*
X-84256D03*
X-89999Y-4999D03*
Y5001D03*
Y10001D03*
Y15001D03*
X-79256Y32705D03*
X-84256D03*
X-79256Y27705D03*
X-84256D03*
Y22705D03*
Y17705D03*
X-94999Y20001D03*
X-89999D03*
X-94999Y25001D03*
X-89999D03*
X-79256Y57705D03*
X-84256D03*
X-79256Y52705D03*
X-84256D03*
X-79256Y47705D03*
X-84256D03*
X-94999Y60001D03*
X-89999D03*
X-84256Y82705D03*
Y77705D03*
Y72705D03*
X-79256Y67705D03*
X-84256D03*
X-79256Y62705D03*
X-84256D03*
X-94999Y65001D03*
X-89999D03*
X-94999Y70001D03*
X-89999D03*
X-94999Y75001D03*
X-89999D03*
X-94999Y80001D03*
X-89999D03*
X-94999Y85001D03*
X-89999D03*
Y90001D03*
X-84999D03*
X-79999D03*
X-84999Y95001D03*
X-79999D03*
Y100001D03*
X-59999Y-114999D03*
X-69999Y-109999D03*
X-64999D03*
X-59999D03*
X-74999Y-104999D03*
X-69999D03*
X-64999D03*
X-59999D03*
X-74999Y-99999D03*
X-69999D03*
X-64999D03*
X-59999D03*
X-74999Y-94999D03*
X-69999D03*
X-64999D03*
X-59999D03*
X-54256Y-77295D03*
X-59256D03*
X-64256D03*
X-69256D03*
X-54256Y-82295D03*
X-59256D03*
X-64256D03*
X-69256D03*
X-74999Y-89999D03*
X-69999D03*
X-64999D03*
X-59999D03*
X-74256Y-52295D03*
Y-57295D03*
Y-62295D03*
Y-67295D03*
X-54256Y-72295D03*
X-59256D03*
X-64256D03*
X-69256D03*
X-74256Y-32295D03*
Y-37295D03*
Y-47295D03*
Y-7295D03*
Y-12295D03*
Y-27295D03*
Y12705D03*
Y7705D03*
Y32705D03*
Y27705D03*
Y57705D03*
Y52705D03*
Y47705D03*
X-54256Y82705D03*
X-59256D03*
X-64256D03*
X-69256D03*
X-54256Y77705D03*
X-59256D03*
X-64256D03*
X-69256D03*
X-54256Y72705D03*
X-59256D03*
X-64256D03*
X-69256D03*
X-74256Y67705D03*
Y62705D03*
X-74999Y90001D03*
X-69999D03*
X-64999D03*
X-59999D03*
X-74999Y95001D03*
X-69999D03*
X-64999D03*
X-59999D03*
X-74999Y100001D03*
X-69999D03*
X-64999D03*
X-59999D03*
X-74999Y105001D03*
X-69999D03*
X-64999D03*
X-59999D03*
X-69999Y110001D03*
X-64999D03*
X-59999D03*
Y115001D03*
X-34999Y-124999D03*
X-49999Y-119999D03*
X-44999D03*
X-39999D03*
X-34999D03*
X-34256Y-77295D03*
X-49256D03*
X-34256Y-82295D03*
X-49256D03*
X-34256Y-72295D03*
X-49256D03*
X-34256Y82705D03*
X-49256D03*
X-34256Y77705D03*
X-49256D03*
X-34256Y72705D03*
X-49256D03*
X-49999Y120001D03*
X-44999D03*
X-39999D03*
X-34999D03*
Y125001D03*
X-14999Y-129999D03*
X-9999D03*
X-29999Y-124999D03*
X-24999D03*
X-19999D03*
X-14999D03*
X-9999D03*
X-29999Y-119999D03*
X-24999D03*
X-19999D03*
X-24999Y-114999D03*
X-19999D03*
X-24999Y-109999D03*
X-19999D03*
X-24999Y-104999D03*
X-19999D03*
X-24999Y-99999D03*
X-19999D03*
X-24999Y-94999D03*
X-19999D03*
X-9256Y-77295D03*
X-29256D03*
X-9256Y-82295D03*
X-29256D03*
X-24999Y-89999D03*
X-19999D03*
X-14999D03*
X-9999D03*
X-9256Y-72295D03*
X-29256D03*
X-9256Y82705D03*
X-14256D03*
X-29256D03*
X-9256Y77705D03*
X-14256D03*
X-29256D03*
X-9256Y72705D03*
X-14256D03*
X-29256D03*
X-24999Y90001D03*
X-19999D03*
X-14999D03*
X-9999D03*
X-24999Y95001D03*
X-19999D03*
X-24999Y100001D03*
X-19999D03*
X-24999Y105001D03*
X-19999D03*
X-14999D03*
X-24999Y110001D03*
X-19999D03*
X-14999D03*
X-24999Y115001D03*
X-19999D03*
X-14999D03*
X-29999Y120001D03*
X-24999D03*
X-19999D03*
X-14999D03*
X-29999Y125001D03*
X-24999D03*
X-19999D03*
X-14999D03*
X-9999D03*
X12727Y-125267D03*
X7727D03*
X12727Y-130267D03*
X7727D03*
X-4999Y-129999D03*
X1D03*
X-4999Y-124999D03*
X1D03*
X10744Y-77295D03*
X5744D03*
X-4256D03*
X10744Y-82295D03*
X5744D03*
X-4256D03*
X12727Y-90267D03*
X7727D03*
X-4999Y-89999D03*
X10744Y-72295D03*
X5744D03*
X-4256D03*
X10744Y82705D03*
X5744D03*
X-4256D03*
X10744Y77705D03*
X5744D03*
X-4256D03*
X10744Y72705D03*
X5744D03*
X-4256D03*
X-4999Y90001D03*
X5001D03*
X10001D03*
X-4999Y125001D03*
X1D03*
X5001D03*
X10001D03*
X32727Y-120267D03*
X27727D03*
X22727D03*
X17727D03*
X32727Y-125267D03*
X27727D03*
X22727D03*
X17727D03*
X22727Y-95267D03*
X17727D03*
X22727Y-100267D03*
X17727D03*
X22727Y-105267D03*
X17727D03*
X22727Y-110267D03*
X17727D03*
X22727Y-115267D03*
X17727D03*
X35744Y-77295D03*
X30744D03*
X35744Y-82295D03*
X30744D03*
X22727Y-90267D03*
X17727D03*
X35744Y-72295D03*
X30744D03*
X35744Y82705D03*
X30744D03*
X35744Y77705D03*
X30744D03*
X35744Y72705D03*
X30744D03*
X15001Y90001D03*
X20001D03*
X25001D03*
X15001Y95001D03*
X20001D03*
X25001D03*
X15001Y100001D03*
X20001D03*
X25001D03*
X15001Y105001D03*
X20001D03*
X25001D03*
X15001Y110001D03*
X20001D03*
X25001D03*
X20001Y115001D03*
X25001D03*
X20001Y120001D03*
X25001D03*
X30001D03*
X35001D03*
X15001Y125001D03*
X20001D03*
X25001D03*
X30001D03*
X35001D03*
X47727Y-120267D03*
X42727D03*
X37727D03*
Y-125267D03*
X57727Y-100267D03*
Y-105267D03*
Y-110267D03*
Y-115267D03*
X55744Y-77295D03*
X50744D03*
X55744Y-82295D03*
X50744D03*
X55744Y-72295D03*
X50744D03*
X55744Y82705D03*
X50744D03*
X55744Y77705D03*
X50744D03*
X55744Y72705D03*
X50744D03*
X40001Y120001D03*
X45001D03*
X50001D03*
X77727Y-95267D03*
X72727D03*
X67727D03*
X62727D03*
X77727Y-100267D03*
X72727D03*
X67727D03*
X62727D03*
X77727Y-105267D03*
X72727D03*
X67727D03*
X62727D03*
X67727Y-110267D03*
X62727D03*
Y-115267D03*
X70744Y-77295D03*
X65744D03*
X60744D03*
X70744Y-82295D03*
X65744D03*
X60744D03*
X77727Y-90267D03*
X72727D03*
X67727D03*
X62727D03*
X80744Y-52295D03*
X75744D03*
X80744Y-57295D03*
X75744D03*
X80744Y-62295D03*
X75744D03*
X80744Y-67295D03*
X75744D03*
X70744Y-72295D03*
X65744D03*
X60744D03*
X80744Y-32295D03*
X75744D03*
X80744Y-37295D03*
X75744D03*
X80744Y-47295D03*
X75744D03*
X80744Y-7295D03*
X75744D03*
X80744Y-12295D03*
X75744D03*
X80744Y-27295D03*
X75744D03*
X80744Y12705D03*
X75744D03*
X80744Y7705D03*
X75744D03*
X80744Y32705D03*
X75744D03*
X80744Y27705D03*
X75744D03*
X80744Y57705D03*
X75744D03*
X80744Y52705D03*
X75744D03*
X80744Y47705D03*
X75744D03*
X70744Y82705D03*
X65744D03*
X60744D03*
X70744Y77705D03*
X65744D03*
X60744D03*
X70744Y72705D03*
X65744D03*
X60744D03*
X80744Y67705D03*
X75744D03*
X80744Y62705D03*
X75744D03*
X60001Y90001D03*
X65001D03*
X70001D03*
X75001D03*
X80001D03*
X60001Y95001D03*
X65001D03*
X70001D03*
X75001D03*
X80001D03*
X60001Y100001D03*
X65001D03*
X70001D03*
X75001D03*
X80001D03*
X60001Y105001D03*
X65001D03*
X70001D03*
X75001D03*
X60001Y110001D03*
X65001D03*
X70001D03*
X60001Y115001D03*
X87727Y-95267D03*
X82727D03*
Y-100267D03*
X102727Y-75267D03*
X97727D03*
X92727D03*
X87727D03*
X102727Y-80267D03*
X97727D03*
X92727D03*
X87727D03*
X97727Y-85267D03*
X92727D03*
X87727D03*
X92727Y-90267D03*
X87727D03*
X82727D03*
X102727Y-60267D03*
X97727D03*
X92727D03*
X87727D03*
X102727Y-65267D03*
X97727D03*
X92727D03*
X87727D03*
X102727Y-70267D03*
X97727D03*
X92727D03*
X87727D03*
Y-10267D03*
Y-15267D03*
X102727Y-20267D03*
X97727D03*
X92727D03*
X87727D03*
X102727Y-25267D03*
X97727D03*
X92727D03*
X87727D03*
Y-5267D03*
X90001Y5001D03*
Y10001D03*
Y15001D03*
Y20001D03*
X95001D03*
X100001D03*
X90001Y25001D03*
X95001D03*
X100001D03*
X90001Y60001D03*
X95001D03*
X100001D03*
X90001Y65001D03*
X95001D03*
X100001D03*
X90001Y70001D03*
X95001D03*
X100001D03*
X90001Y75001D03*
X95001D03*
X100001D03*
X90001Y80001D03*
X95001D03*
X100001D03*
X90001Y85001D03*
X95001D03*
X85001Y90001D03*
X90001D03*
X85001Y95001D03*
X112727Y-60267D03*
X107727D03*
X112727Y-65267D03*
X107727D03*
Y-70267D03*
X122727Y-30267D03*
Y-35267D03*
Y-40267D03*
Y-10267D03*
Y-15267D03*
Y-20267D03*
X117727D03*
X112727D03*
X107727D03*
X122727Y-25267D03*
X117727D03*
X112727D03*
X107727D03*
X122727Y-5267D03*
X125001Y5001D03*
Y10001D03*
Y15001D03*
X105001Y20001D03*
X110001D03*
X115001D03*
X120001D03*
X125001D03*
X105001Y25001D03*
X110001D03*
X115001D03*
X120001D03*
X125001D03*
X120001Y30001D03*
X125001D03*
X120001Y35001D03*
X125001D03*
X120001Y40001D03*
Y45001D03*
Y50001D03*
X105001Y60001D03*
X110001D03*
X115001D03*
X105001Y65001D03*
X110001D03*
X105001Y70001D03*
X110001D03*
X105001Y75001D03*
X127727Y-10267D03*
Y-15267D03*
Y-20267D03*
Y-25267D03*
Y-5267D03*
G54D14*
X-108370Y-47370D03*
X-112370Y-5370D03*
X-108370Y36630D03*
X-110100Y42200D03*
X-47370Y-108371D03*
X-47371Y97630D03*
X-5370Y-112370D03*
Y101630D03*
X36630Y-108371D03*
Y97629D03*
X97630Y-47371D03*
X101630Y-5370D03*
X97629Y36630D03*
G54D18*
X-110600Y-42000D03*
X-114600Y0D03*
X-49600Y-103000D03*
Y103000D03*
X-7600Y107000D03*
X34400Y103000D03*
X103000Y34800D03*
G54D17*
X-108370Y-36630D03*
X-112370Y5370D03*
X-108370Y47370D03*
X-47371Y-97630D03*
X-47370Y108371D03*
X-5370Y-101630D03*
Y112370D03*
X36629Y-97630D03*
Y108370D03*
X97629Y-36630D03*
X101630Y5370D03*
X97630Y47371D03*
G54D13*
X-113000Y-32000D03*
X-93000Y-52000D03*
X-52000Y-93000D03*
X-32000Y-113000D03*
X32000Y113000D03*
X52000Y93000D03*
X93000Y52000D03*
X113000Y32000D03*
M02*
