M48
INCH
T01C.01
T02C.015
T03C.018
T04C.025
T05C.064
T06C.07
;LEADER: 12 
;HEADER: 
;CODE  : ASCII 
;FILE  : newBoardCircle_squarechug_viadone_98in-1-4.drl for board #Taaaadz27281.tmp ... layers TOP and BOTTOM
;T01 Holesize 1. = 10.000000 Tolerance = +3.000000/-3.000000 PLATED MILS Quantity = 385
;T03 Holesize 2. = 18.000000 Tolerance = +3.000000/-3.000000 PLATED MILS Quantity = 441
;T04 Holesize 3. = 25.000000 Tolerance = +3.000000/-3.000000 PLATED MILS Quantity = 20
;T05 Holesize 4. = 64.000000 Tolerance = +3.000000/-3.000000 PLATED MILS Quantity = 20
;T06 Holesize 5. = 70.000000 Tolerance = +3.000000/-3.000000 PLATED MILS Quantity = 6
%
G90
T01
X-0064370Y-0062570
X-0059000Y-0064800
X-0053630Y-0062570
X0054530Y-0062570
X0059900Y-0064800
X0065270Y-0062570
X0067500Y-0057200
X0065270Y-0051830
X0054530Y-0051830
X0052692Y-0059912
X0050942Y-0053290
X0049725Y-0059473
X0048000Y-0052701
X0046783Y-0058885
X0045096Y-0051947
X0043874Y-0058150
X0042240Y-0051030
X0041007Y-0057268
X0038187Y-0056243
X0035423Y-0055078
X0032721Y-0053774
X0030088Y-0052336
X0027532Y-0050766
X-0027717Y-0051292
X-0030293Y-0052830
X-0032944Y-0054233
X-0035664Y-0055499
X-0038445Y-0056624
X-0040289Y-0050585
X-0041280Y-0057604
X-0043119Y-0051578
X-0044162Y-0058439
X-0046002Y-0052408
X-0047083Y-0059124
X-0048928Y-0053070
X-0050034Y-0059660
X-0051887Y-0053564
X-0053010Y-0060043
X-0053630Y-0051830
X-0064370Y-0051830
X-0066600Y-0057200
X-0059000Y-0049600
X-0037519Y-0049431
X-0034821Y-0048120
X-0032203Y-0046656
X-0029672Y-0045044
X-0027239Y-0043289
X-0025223Y-0049625
X-0024910Y-0041398
X-0022817Y-0047832
X-0020507Y-0045918
X-0018298Y-0043889
X-0016195Y-0041749
X0016107Y-0041106
X0018191Y-0043264
X0020381Y-0045314
X0022672Y-0047251
X0024303Y-0040369
X0025057Y-0049070
X0026586Y-0042314
X0028976Y-0044128
X0031464Y-0045804
X0034043Y-0047337
X0036704Y-0048722
X0039440Y-0049954
X0059900Y-0049600
X0072670Y-0034770
X0067300Y-0037000
X0061930Y-0034770
X0058277Y-0032550
X0055277Y-0032550
X0052277Y-0032550
X0049277Y-0032550
R02X-0003000
X0040277Y-0032549
X0037281Y-0032391
X0034313Y-0031958
X0031396Y-0031255
X0028557Y-0030287
X0022133Y-0038298
X0020083Y-0036107
X0018160Y-0033805
X0016370Y-0031397
X0014134Y-0038845
X0012278Y-0036488
X0010543Y-0034041
X0008934Y-0031509
X-0008960Y-0032200
X-0010583Y-0034723
X-0012333Y-0037160
X-0014205Y-0039504
X-0015092Y-0030123
X-0016790Y-0032597
X-0018627Y-0034968
X-0020597Y-0037231
X-0022694Y-0039376
X-0030462Y-0030969
X-0033356Y-0031759
X-0036310Y-0032280
X-0039300Y-0032528
X-0042300Y-0032550
R05X-0003000
X-0060930Y-0034770
X-0066300Y-0037000
X-0071670Y-0034770
X-0073900Y-0029400
X-0071670Y-0024030
X-0066300Y-0021800
X-0060930Y-0024030
X-0059326Y-0026250
X-0056326Y-0026250
R05X0003000
X-0038327Y-0026160
X-0035357Y-0025743
X-0032452Y-0024991
X-0029652Y-0023914
X-0027653Y-0029916
X-0026993Y-0022525
X-0024952Y-0028610
X-0022382Y-0027062
X-0019965Y-0025284
X-0017722Y-0023293
X-0013539Y-0027557
X-0012135Y-0024905
X-0007469Y-0029597
X-0006112Y-0026921
X-0004895Y-0024179
X0004901Y-0023472
X0006110Y-0026218
X0007455Y-0028899
X0011852Y-0023624
X0013211Y-0026299
X0014718Y-0028893
X0016317Y-0021837
X0018433Y-0023964
X0020735Y-0025888
X0023203Y-0027592
X0025818Y-0029063
X0026122Y-0021982
X0028725Y-0023473
X0031481Y-0024659
X0034354Y-0025523
X0037306Y-0026056
X0040300Y-0026249
X0043300Y-0026250
R05X0003000
X0061930Y-0024030
X0067300Y-0021800
X0072670Y-0024030
X0074900Y-0029400
X0072470Y-0005270
X0067100Y-0007500
X0061730Y-0005270
X0058901Y-0003050
X0055901Y-0003050
R10X-0003000
X0022901Y-0003050
X-0024100Y-0003050
X-0027100Y-0003050
R10X-0003000
X-0060730Y-0005270
X-0066100Y-0007500
X-0071470Y-0005270
X-0073700Y0000100
X-0071470Y0005470
X-0066100Y0007700
X-0060730Y0005470
X-0059309Y0003250
X-0056309Y0003250
X-0053309Y0003250
X-0050309Y0003250
R09X0003000
X0025100Y0003250
R11X0003000
X0061730Y0005470
X0067100Y0007700
X0072470Y0005470
X0074700Y0000100
X0074900Y0029600
X0072670Y0024230
X0067300Y0022000
X0061930Y0024230
X0059035Y0026450
R02X-0003000
X0050035Y0026450
R03X-0003000
X0038037Y0026335
X0035071Y0025885
X0032175Y0025101
X0029387Y0023993
X0026744Y0022575
X0025838Y0029273
X0023223Y0027804
X0020753Y0026101
X0018449Y0024179
X0016332Y0022054
X0014572Y0028756
X0013078Y0026154
X0011734Y0023472
X0006643Y0027420
X0005378Y0024700
X-0004700Y0024800
X-0006181Y0027265
X-0007545Y0029937
X-0011340Y0023417
X-0012648Y0026117
X-0014108Y0028737
X-0016385Y0022111
X-0018507Y0024232
X-0020815Y0026149
X-0023289Y0027846
X-0025281Y0021611
X-0025908Y0029308
X-0027824Y0023201
X-0030532Y0024492
X-0033369Y0025467
X-0036299Y0026113
X-0039283Y0026422
X-0042283Y0026450
R02X-0003000
X-0051283Y0026450
R02X-0003000
X-0060913Y0024230
X-0066283Y0022000
X-0071653Y0024230
X-0073883Y0029600
X-0071653Y0034970
X-0066283Y0037200
X-0060913Y0034970
X-0058378Y0032750
X-0055378Y0032750
X-0052378Y0032750
X-0049378Y0032750
R03X0003000
X-0037382Y0032601
X-0034412Y0032177
X-0031493Y0031483
X-0028651Y0030524
X-0021375Y0038256
X-0019356Y0036037
X-0017468Y0033705
X-0015717Y0031269
X-0014308Y0039826
X-0012430Y0037487
X-0010673Y0035055
X-0009043Y0032536
X0008043Y0030073
X0009576Y0032652
X0011237Y0035150
X0013021Y0037562
X0014925Y0039880
X0016210Y0031269
X0017988Y0033686
X0019899Y0035998
X0021937Y0038199
X0028578Y0030496
X0031418Y0031462
X0034335Y0032163
X0037304Y0032593
X0040300Y0032749
X0043300Y0032750
R05X0003000
X0061930Y0034970
X0067300Y0037200
X0072670Y0034970
X0059900Y0049700
X0039183Y0049946
X0036454Y0048700
X0033800Y0047301
X0031229Y0045754
X0028750Y0044066
X0026370Y0042239
X0026057Y0049877
X0024096Y0040282
X0023634Y0048108
X0021304Y0046218
X0019072Y0044214
X0016944Y0042099
X-0016305Y0042065
X-0018413Y0044200
X-0020628Y0046223
X-0022943Y0048131
X-0023518Y0040355
X-0025353Y0049917
X-0025777Y0042328
X-0028147Y0044169
X-0030618Y0045870
X-0033182Y0047426
X-0035832Y0048833
X-0059000Y0049800
X-0066600Y0057400
X-0064370Y0052030
X-0053630Y0052030
X-0050193Y0059884
X-0047239Y0059357
X-0044317Y0058679
X-0044203Y0052111
X-0041352Y0051180
X-0041433Y0057853
X-0038558Y0050086
X-0038595Y0056879
X-0035811Y0055762
X-0033088Y0054504
X-0030432Y0053108
X-0027852Y0051577
X0028566Y0051522
X0031154Y0053039
X0033816Y0054422
X0036544Y0055670
X0039332Y0056779
X0041977Y0051037
X0042172Y0057745
X0044829Y0051969
X0045057Y0058567
X0047980Y0059243
X0050933Y0059770
X0054530Y0051930
X0065270Y0051930
X0067500Y0057300
X0065270Y0062670
X0059900Y0064900
X0054530Y0062670
X-0053630Y0062770
X-0059000Y0065000
X-0064370Y0062770
T03
X-0089136Y-0071469
X-0080149Y-0070895
X-0085436Y-0067769
X-0089136Y-0064069
X-0080149Y-0063495
X-0085436Y-0060369
X-0089136Y-0056669
X-0080149Y-0056095
X-0085436Y-0052969
X-0089136Y-0049269
X-0080149Y-0048695
X-0085436Y-0045569
X-0082100Y-0041900
X-0089136Y-0041869
X-0085436Y-0038169
X-0089136Y-0034469
X-0081900Y-0034200
X-0085436Y-0030769
X-0089136Y-0027069
X-0081300Y-0026800
X-0085436Y-0023369
X-0089136Y-0019669
X-0085436Y-0015969
X-0089136Y-0012269
X-0081700Y-0011800
X-0085436Y-0008569
X-0089136Y-0004869
X-0081300Y-0004200
X-0085436Y-0001169
X-0089136Y0002531
X-0081100Y0002500
X-0085436Y0006231
X-0089136Y0009931
X-0085436Y0013631
X-0089136Y0017331
X-0081700Y0017400
X-0085436Y0021031
X-0089136Y0024731
X-0081700Y0025400
X-0085436Y0028431
X-0089136Y0032131
X-0082100Y0032100
X-0085436Y0035831
X-0089136Y0039531
X-0085436Y0043231
X-0089136Y0046931
X-0080913Y0047663
X-0085436Y0050631
X-0089136Y0054331
X-0080913Y0055063
X-0085436Y0058031
X-0089136Y0061731
X-0080913Y0062463
X-0085436Y0065431
X-0089136Y0069131
X-0080913Y0069863
X-0077213Y0066163
X-0072900Y0059500
X-0077213Y0058763
X-0074400Y0055100
X-0077213Y0051363
X-0062200Y0043000
X-0079400Y0028900
X-0063500Y0017200
X-0070400Y0017200
X-0066400Y0013800
X-0078300Y-0001300
X-0063400Y-0012400
X-0070400Y-0012800
X-0066400Y-0016100
X-0078100Y-0030800
X-0063200Y-0042200
X-0076449Y-0052395
X-0072300Y-0055800
X-0076449Y-0059795
X-0072500Y-0062900
X-0076449Y-0067195
X-0065800Y-0072100
X-0072000Y-0072500
X-0054900Y-0072700
X-0059500Y-0072300
X-0041904Y-0071660
X-0041904Y-0064260
X-0043700Y-0045700
X-0041006Y-0041447
X-0048406Y-0041447
X-0044706Y-0037747
X-0040241Y-0022324
X-0047641Y-0022324
X-0043941Y-0018624
X-0040241Y-0014924
X-0047641Y-0014924
X-0043941Y-0011224
X-0040241Y-0007524
X-0047641Y-0007524
X-0048788Y0007315
X-0041388Y0007315
X-0045088Y0011015
X-0048788Y0014715
X-0041388Y0014715
X-0045088Y0018415
X-0048788Y0022115
X-0041388Y0022115
X-0043300Y0036500
X-0049553Y0036955
X-0046100Y0040700
X-0041139Y0044737
X-0056900Y0045500
X-0043243Y0062005
X-0043243Y0069405
X-0052500Y0071900
X-0058600Y0072300
X-0024900Y0072500
X-0032200Y0072300
X-0039600Y0071700
X-0021043Y0069405
X-0028443Y0069405
X-0035843Y0069405
X-0024743Y0065705
R02X-0007400
X-0021043Y0062005
R02X-0007400
X-0025071Y0058712
X-0031771Y0058612
X-0025841Y0054930
X-0036200Y0044900
X-0032371Y0043133
X-0039300Y0040600
X-0027800Y0039600
X-0033265Y0038433
X-0023800Y0036300
X-0037197Y0035846
X-0032725Y0034469
X-0027600Y0033700
X-0022400Y0032100
X-0033000Y0021600
X-0037688Y0018415
X-0033900Y0014900
X-0037688Y0011015
X-0037000Y0006900
X-0027771Y0006712
X-0032371Y0006712
X-0022171Y0006212
X-0024700Y-0007400
X-0032600Y-0007800
X-0036541Y-0011224
X-0033300Y-0014700
X-0036541Y-0018624
X-0033100Y-0021400
X-0025900Y-0033500
X-0037306Y-0037747
X-0029906Y-0037747
X-0033606Y-0041447
X-0037700Y-0045300
X-0024900Y-0052400
X-0022524Y-0055530
X-0028900Y-0056000
X-0033500Y-0057700
X-0026224Y-0059230
X-0038500Y-0060000
X-0030500Y-0061200
X-0034504Y-0064260
X-0027104Y-0064260
X-0038204Y-0067960
X-0030804Y-0067960
X-0023404Y-0067960
X-0034504Y-0071660
X-0027104Y-0071660
X-0004904Y-0071660
X-0012304Y-0071660
X-0019704Y-0071660
X-0001204Y-0067960
X-0008604Y-0067960
X-0016004Y-0067960
X-0004904Y-0064260
X-0012304Y-0064260
X-0019704Y-0064260
X-0006910Y-0059804
X-0013800Y-0059700
X-0018824Y-0059230
X-0003210Y-0056104
X-0010200Y-0055600
X-0015124Y-0055530
X-0006910Y-0052404
X-0017045Y-0050434
X-0003210Y-0048704
X-0011500Y-0048200
X-0015200Y-0045300
X-0006910Y-0045004
X-0011200Y-0042100
X-0003210Y-0041304
X-0006910Y-0037604
X-0019400Y-0030600
X-0016300Y-0026400
X-0019000Y0029100
X-0009014Y0039058
X-0001614Y0039058
X-0005314Y0042758
X-0011671Y0043112
X-0009014Y0046458
X-0001614Y0046458
X-0017471Y0048612
X-0013071Y0049612
X-0005314Y0050158
X-0009014Y0053858
X-0001614Y0053858
X-0018441Y0054930
X-0013600Y0056200
X-0010171Y0058912
X-0002471Y0058912
X-0017471Y0059312
X-0013643Y0062005
X-0006243Y0062005
X-0017343Y0065705
X-0009943Y0065705
X-0002543Y0065705
X-0013643Y0069405
X-0006243Y0069405
X-0010000Y0071900
X-0017500Y0072300
X-0002500Y0072500
X0019400Y0072700
X0004500Y0072500
X0012000Y0072500
X0001157Y0069405
X0008557Y0069405
X0015957Y0069405
X0004857Y0065705
X0012257Y0065705
X0019657Y0065705
X0001157Y0062005
X0008557Y0062005
X0015957Y0062005
X0004729Y0058412
X0012229Y0058012
X0018016Y0056909
X0005786Y0053858
X0014316Y0053209
X0002086Y0050158
X0009486Y0050158
X0017929Y0048812
X0013329Y0046712
X0005786Y0046458
X0002086Y0042758
X0009486Y0042758
X0005786Y0039058
X0019329Y0029712
X0000300Y0022500
X0000200Y-0022500
X0018300Y-0028100
X0006400Y-0035400
X0000490Y-0037604
X0009100Y-0039000
X0004190Y-0041304
X0013426Y-0041438
X0000490Y-0045004
X0009726Y-0045138
X0004190Y-0048704
X0013426Y-0048838
X0018100Y-0052200
X0000490Y-0052404
X0009726Y-0052538
X0013426Y-0056104
X0004190Y-0056104
X0017126Y-0059804
X0009726Y-0059804
X0000490Y-0059804
X0017296Y-0064260
X0009896Y-0064260
X0002496Y-0064260
X0013596Y-0067960
X0006196Y-0067960
X0017296Y-0071660
X0009896Y-0071660
X0002496Y-0071660
X0024696Y-0071660
X0032096Y-0071660
X0039496Y-0071660
X0020996Y-0067960
X0028396Y-0067960
X0035796Y-0067960
X0024696Y-0064260
X0032096Y-0064260
X0039496Y-0064260
X0022100Y-0060200
X0027700Y-0060000
X0033954Y-0059613
X0020826Y-0056104
X0025600Y-0055100
X0035700Y-0044500
X0031908Y-0041255
X0039308Y-0041255
X0026500Y-0037900
X0035608Y-0037555
X0030900Y-0035400
X0026100Y-0032900
X0020800Y-0031900
X0037071Y-0021751
X0033200Y-0017800
X0037071Y-0014351
X0033200Y-0010900
X0037071Y-0006951
X0024800Y-0006900
X0030900Y-0006700
X0038218Y0006742
X0029829Y0006912
X0024229Y0007312
X0034029Y0010412
X0038218Y0014142
X0034629Y0017812
X0038218Y0021542
X0032329Y0022012
X0021929Y0033312
X0026929Y0033912
X0032673Y0036572
X0027329Y0038312
X0036689Y0041544
X0031329Y0041912
X0021716Y0053209
X0025416Y0056909
X0034229Y0058612
X0038157Y0062005
X0030757Y0062005
X0023357Y0062005
X0034457Y0065705
X0027057Y0065705
X0038157Y0069405
R02X-0007400
X0026700Y0072300
X0034500Y0072700
X0043700Y0072300
X0053300Y0072300
X0059000Y0072300
X0041857Y0065705
X0057500Y0044800
X0040929Y0044612
X0043729Y0040612
X0040073Y0036572
X0047473Y0036572
X0045618Y0021542
X0041918Y0017842
X0049318Y0017842
X0045618Y0014142
X0041918Y0010442
X0049318Y0010442
X0045618Y0006742
X0052029Y0006512
X0044471Y-0006951
X0048171Y-0010651
X0040771Y-0010651
X0044471Y-0014351
X0051200Y-0014500
X0048171Y-0018051
X0040771Y-0018051
X0044471Y-0021751
X0050200Y-0022700
X0050408Y-0037555
X0043008Y-0037555
X0046708Y-0041255
X0043200Y-0044400
X0045100Y-0048800
X0043200Y-0061600
X0043196Y-0067960
X0057900Y-0072300
X0063400Y-0072100
X0069200Y-0072100
X0073700Y-0072100
X0077993Y-0072042
X0077993Y-0064642
X0074100Y-0061200
X0077993Y-0057242
X0073400Y-0053900
X0077993Y-0049842
X0079900Y-0026200
X0062300Y-0017400
X0069700Y-0016800
X0066700Y-0013200
X0079900Y-0002900
X0079700Y0002900
X0069900Y0013000
X0063000Y0013200
X0066300Y0016600
X0079700Y0027700
X0062500Y0042700
X0064400Y0046700
X0075500Y0047200
X0079900Y0049500
X0075700Y0052800
X0072200Y0057000
X0076400Y0060200
X0079700Y0064800
X0081000Y0072100
X0088194Y0071684
X0084494Y0067984
X0088194Y0064284
X0084494Y0060584
X0088194Y0056884
X0080300Y0056600
X0084494Y0053184
X0088194Y0049484
X0084494Y0045784
X0088194Y0042084
X0084494Y0038384
X0088194Y0034684
X0084494Y0030984
X0088194Y0027284
X0084494Y0023584
X0088194Y0019884
X0084494Y0016184
X0088194Y0012484
X0084494Y0008784
X0088194Y0005084
X0084494Y0001384
X0088194Y-0002316
X0084494Y-0006016
X0088194Y-0009716
X0084494Y-0013416
X0088194Y-0017116
X0084494Y-0020816
X0088194Y-0024516
X0084494Y-0028216
X0088194Y-0031916
X0080300Y-0032300
X0084494Y-0035616
X0088194Y-0039316
X0084494Y-0043016
X0081693Y-0046142
X0088194Y-0046716
X0084494Y-0050416
X0081693Y-0053542
X0088194Y-0054116
X0084494Y-0057816
X0081693Y-0060942
X0088194Y-0061516
X0084494Y-0065216
X0081693Y-0068342
X0088194Y-0068916
X0084494Y-0072616
T04
X-0069000Y-0067200
X-0049000Y-0047200
X-0076300Y-0039400
X-0056300Y-0019400
X-0076100Y-0009900
X-0056100Y0010100
X-0076283Y0019600
X-0056283Y0039600
X-0069000Y0047400
X-0049000Y0067400
X0049900Y0067300
X0069900Y0047300
X0057300Y0039600
X0077300Y0019600
X0057100Y0010100
X0077100Y-0009900
X0057300Y-0019400
X0077300Y-0039400
X0049900Y-0047200
X0069900Y-0067200
T05
X-0069000Y0067400
X-0049000Y0047400
X-0076283Y0039600
X-0056283Y0019600
X-0076100Y0010100
X-0056100Y-0009900
X-0076300Y-0019400
X-0056300Y-0039400
X-0069000Y-0047200
X-0049000Y-0067200
X0049900Y-0067200
X0069900Y-0047200
X0057300Y-0039400
X0077300Y-0019400
X0057100Y-0009900
X0077100Y0010100
X0057300Y0019600
X0077300Y0039600
X0049900Y0047300
X0069900Y0067300
T06
X-0025481Y-0014900
X-0025481Y0015100
X0000500Y0030100
X0026481Y0015100
X0026481Y-0014900
X0000500Y-0029900
M30
